ISO-10303-21;
HEADER;
/* Generated by software containing ST-Developer
 * from STEP Tools, Inc. (www.steptools.com) 
 */

FILE_DESCRIPTION(
/* description */ (''),
/* implementation_level */ '2;1');

FILE_NAME(
/* name */ 'Joint 1 Cover.step',
/* time_stamp */ '2026-04-06T15:08:05+02:00',
/* author */ (''),
/* organization */ (''),
/* preprocessor_version */ 'ST-DEVELOPER v20.1',
/* originating_system */ 'Autodesk Translation Framework v14.24.0.0',
/* authorisation */ '');

FILE_SCHEMA (('AUTOMOTIVE_DESIGN { 1 0 10303 214 3 1 1 }'));
ENDSEC;

DATA;
#10=MECHANICAL_DESIGN_GEOMETRIC_PRESENTATION_REPRESENTATION('',(#13),#1493);
#11=SHAPE_REPRESENTATION_RELATIONSHIP('SRR','None',#1500,#12);
#12=ADVANCED_BREP_SHAPE_REPRESENTATION('',(#14),#1492);
#13=STYLED_ITEM('',(#1510),#14);
#14=MANIFOLD_SOLID_BREP('Cover',#760);
#15=TOROIDAL_SURFACE('',#859,40.,10.);
#16=ELLIPSE('',#851,14.1421356237309,10.);
#17=ELLIPSE('',#852,14.1421356237309,10.);
#18=ELLIPSE('',#853,14.1421356237309,10.);
#19=ELLIPSE('',#854,14.1421356237309,10.);
#20=B_SPLINE_CURVE_WITH_KNOTS('',3,(#1241,#1242,#1243,#1244,#1245,#1246,
#1247,#1248,#1249,#1250,#1251,#1252,#1253,#1254,#1255,#1256,#1257,#1258,
#1259,#1260,#1261),.UNSPECIFIED.,.F.,.F.,(4,2,2,2,3,2,2,2,2,4),(1.74554129006963,
1.76445538047247,1.88210983456422,1.9409370616101,1.99976428865598,2.06352126932428,
2.12727824999258,2.25479221132918,2.3917146427671,2.52863707420501),
 .UNSPECIFIED.);
#21=B_SPLINE_CURVE_WITH_KNOTS('',3,(#1263,#1264,#1265,#1266,#1267,#1268,
#1269,#1270,#1271,#1272,#1273,#1274,#1275,#1276,#1277,#1278,#1279,#1280,
#1281,#1282,#1283,#1284,#1285,#1286,#1287),.UNSPECIFIED.,.F.,.F.,(4,2,2,
2,2,2,2,3,2,2,2,4),(1.22719582247159,1.34743251280166,1.47090057290926,
1.61727916264896,1.76365775238867,1.8813122103214,1.94013943928776,1.99896666825412,
2.05779389722049,2.11662112618685,2.23427558411958,2.25318988476785),
 .UNSPECIFIED.);
#22=B_SPLINE_CURVE_WITH_KNOTS('',3,(#1288,#1289,#1290,#1291,#1292,#1293),
 .UNSPECIFIED.,.F.,.F.,(4,2,4),(2.52863707420501,2.65047097293329,2.77230487166156),
 .UNSPECIFIED.);
#23=B_SPLINE_CURVE_WITH_KNOTS('',3,(#1298,#1299,#1300,#1301,#1302,#1303,
#1304,#1305),.UNSPECIFIED.,.F.,.F.,(4,2,2,4),(-2.01039665995504,-1.93174153864707,
-1.84599753886781,-1.76437738802323),.UNSPECIFIED.);
#24=B_SPLINE_CURVE_WITH_KNOTS('',3,(#1306,#1307,#1308,#1309,#1310,#1311,
#1312,#1313,#1314,#1315,#1316,#1317,#1318,#1319,#1320,#1321,#1322,#1323,
#1324,#1325,#1326,#1327,#1328,#1329,#1330,#1331,#1332,#1333,#1334,#1335,
#1336,#1337,#1338,#1339,#1340,#1341,#1342,#1343,#1344,#1345,#1346,#1347,
#1348,#1349),.UNSPECIFIED.,.F.,.F.,(4,2,2,2,2,2,2,2,2,2,2,2,2,2,2,2,2,2,
2,2,2,4),(-1.76437738802323,-1.74968257587211,-1.6481137937745,-1.59611513887414,
-1.55788139523232,-1.51874429575682,-1.46276766584459,-1.34751972709826,
-1.20234600741721,-1.09388435084871,-1.00094107154112,-0.901830030686394,
-0.774596664397246,-0.645622592727499,-0.541213699431287,-0.489051337546951,
-0.449962689837844,-0.409394412147535,-0.350048231288772,-0.233074604625965,
-0.118516902334404,0.),.UNSPECIFIED.);
#25=B_SPLINE_CURVE_WITH_KNOTS('',3,(#1354,#1355,#1356,#1357,#1358,#1359,
#1360,#1361,#1362,#1363),.UNSPECIFIED.,.F.,.F.,(4,2,2,2,4),(0.745260117613346,
0.764174418261573,0.881828876194299,0.940656105160662,0.999483334127025),
 .UNSPECIFIED.);
#26=B_SPLINE_CURVE_WITH_KNOTS('',3,(#1365,#1366,#1367,#1368,#1369,#1370,
#1371,#1372,#1373,#1374,#1375,#1376,#1377,#1378,#1379,#1380,#1381,#1382,
#1383,#1384,#1385,#1386,#1387,#1388,#1389),.UNSPECIFIED.,.F.,.F.,(4,2,2,
2,2,2,2,3,2,2,2,4),(1.22719592937271,1.34743244785841,1.47090050083217,
1.6172790713775,1.76365764192283,1.88131209601458,1.94013932306046,1.99896655010633,
2.05779377715221,2.11662100419808,2.23427545828984,2.25318954869272),
 .UNSPECIFIED.);
#27=B_SPLINE_CURVE_WITH_KNOTS('',3,(#1390,#1391,#1392,#1393,#1394,#1395,
#1396,#1397,#1398,#1399,#1400,#1401,#1402,#1403,#1404,#1405),
 .UNSPECIFIED.,.F.,.F.,(4,2,2,2,2,2,2,4),(0.999483334127025,1.05831056309339,
1.11713779205975,1.23479224999248,1.38117083973217,1.52754942947186,1.65101748957945,
1.77125417990949),.UNSPECIFIED.);
#28=B_SPLINE_CURVE_WITH_KNOTS('',3,(#1410,#1411,#1412,#1413,#1414,#1415,
#1416,#1417,#1418,#1419,#1420,#1421,#1422,#1423,#1424,#1425,#1426,#1427,
#1428,#1429,#1430,#1431),.UNSPECIFIED.,.F.,.F.,(4,2,2,2,2,2,2,2,2,2,4),
(-2.0103966599562,-1.9317415386482,-1.84599753886889,-1.7496825758731,-1.64811379377541,
-1.59611513887504,-1.55788139523318,-1.51874429575752,-1.46276766584522,
-1.34751972709873,-1.28131232546539),.UNSPECIFIED.);
#29=B_SPLINE_CURVE_WITH_KNOTS('',3,(#1432,#1433,#1434,#1435,#1436,#1437,
#1438,#1439,#1440,#1441,#1442,#1443,#1444,#1445,#1446,#1447,#1448,#1449,
#1450,#1451,#1452,#1453,#1454,#1455,#1456,#1457,#1458,#1459,#1460,#1461),
 .UNSPECIFIED.,.F.,.F.,(4,2,2,2,2,2,2,2,2,2,2,2,2,2,4),(-1.28131232546539,
-1.20234600741759,-1.09388435084907,-1.00094107154145,-0.901830030686678,
-0.774596664397475,-0.64562259272765,-0.541213699431399,-0.48905133754702,
-0.449962689837882,-0.409394412147553,-0.350048231288778,-0.233074604625966,
-0.118516902334403,0.),.UNSPECIFIED.);
#30=FACE_BOUND('',#121,.T.);
#31=FACE_BOUND('',#124,.T.);
#32=FACE_BOUND('',#127,.T.);
#33=FACE_BOUND('',#130,.T.);
#34=FACE_BOUND('',#151,.T.);
#35=FACE_BOUND('',#152,.T.);
#36=FACE_BOUND('',#153,.T.);
#37=FACE_BOUND('',#154,.T.);
#38=FACE_BOUND('',#155,.T.);
#39=FACE_BOUND('',#156,.T.);
#40=FACE_BOUND('',#157,.T.);
#41=FACE_BOUND('',#158,.T.);
#42=FACE_BOUND('',#159,.T.);
#43=FACE_BOUND('',#160,.T.);
#44=FACE_BOUND('',#161,.T.);
#45=FACE_BOUND('',#162,.T.);
#46=FACE_BOUND('',#163,.T.);
#47=FACE_BOUND('',#164,.T.);
#48=FACE_BOUND('',#165,.T.);
#49=FACE_BOUND('',#172,.T.);
#50=FACE_BOUND('',#173,.T.);
#51=FACE_BOUND('',#174,.T.);
#52=FACE_BOUND('',#175,.T.);
#53=FACE_BOUND('',#176,.T.);
#54=FACE_BOUND('',#177,.T.);
#55=FACE_BOUND('',#178,.T.);
#56=FACE_BOUND('',#179,.T.);
#57=FACE_BOUND('',#180,.T.);
#58=FACE_BOUND('',#181,.T.);
#59=FACE_BOUND('',#182,.T.);
#60=FACE_BOUND('',#183,.T.);
#61=FACE_BOUND('',#184,.T.);
#62=FACE_BOUND('',#185,.T.);
#63=FACE_BOUND('',#186,.T.);
#64=FACE_BOUND('',#189,.T.);
#65=FACE_BOUND('',#190,.T.);
#66=FACE_BOUND('',#193,.T.);
#67=FACE_BOUND('',#194,.T.);
#68=FACE_BOUND('',#195,.T.);
#69=FACE_BOUND('',#196,.T.);
#70=FACE_BOUND('',#197,.T.);
#71=PLANE('',#777);
#72=PLANE('',#782);
#73=PLANE('',#787);
#74=PLANE('',#792);
#75=PLANE('',#839);
#76=PLANE('',#840);
#77=PLANE('',#844);
#78=PLANE('',#845);
#79=PLANE('',#855);
#80=PLANE('',#863);
#81=FACE_OUTER_BOUND('',#119,.T.);
#82=FACE_OUTER_BOUND('',#120,.T.);
#83=FACE_OUTER_BOUND('',#122,.T.);
#84=FACE_OUTER_BOUND('',#123,.T.);
#85=FACE_OUTER_BOUND('',#125,.T.);
#86=FACE_OUTER_BOUND('',#126,.T.);
#87=FACE_OUTER_BOUND('',#128,.T.);
#88=FACE_OUTER_BOUND('',#129,.T.);
#89=FACE_OUTER_BOUND('',#131,.T.);
#90=FACE_OUTER_BOUND('',#132,.T.);
#91=FACE_OUTER_BOUND('',#133,.T.);
#92=FACE_OUTER_BOUND('',#134,.T.);
#93=FACE_OUTER_BOUND('',#135,.T.);
#94=FACE_OUTER_BOUND('',#136,.T.);
#95=FACE_OUTER_BOUND('',#137,.T.);
#96=FACE_OUTER_BOUND('',#138,.T.);
#97=FACE_OUTER_BOUND('',#139,.T.);
#98=FACE_OUTER_BOUND('',#140,.T.);
#99=FACE_OUTER_BOUND('',#141,.T.);
#100=FACE_OUTER_BOUND('',#142,.T.);
#101=FACE_OUTER_BOUND('',#143,.T.);
#102=FACE_OUTER_BOUND('',#144,.T.);
#103=FACE_OUTER_BOUND('',#145,.T.);
#104=FACE_OUTER_BOUND('',#146,.T.);
#105=FACE_OUTER_BOUND('',#147,.T.);
#106=FACE_OUTER_BOUND('',#148,.T.);
#107=FACE_OUTER_BOUND('',#149,.T.);
#108=FACE_OUTER_BOUND('',#150,.T.);
#109=FACE_OUTER_BOUND('',#166,.T.);
#110=FACE_OUTER_BOUND('',#167,.T.);
#111=FACE_OUTER_BOUND('',#168,.T.);
#112=FACE_OUTER_BOUND('',#169,.T.);
#113=FACE_OUTER_BOUND('',#170,.T.);
#114=FACE_OUTER_BOUND('',#171,.T.);
#115=FACE_OUTER_BOUND('',#187,.T.);
#116=FACE_OUTER_BOUND('',#188,.T.);
#117=FACE_OUTER_BOUND('',#191,.T.);
#118=FACE_OUTER_BOUND('',#192,.T.);
#119=EDGE_LOOP('',(#493,#494,#495,#496));
#120=EDGE_LOOP('',(#497));
#121=EDGE_LOOP('',(#498));
#122=EDGE_LOOP('',(#499,#500,#501,#502));
#123=EDGE_LOOP('',(#503));
#124=EDGE_LOOP('',(#504));
#125=EDGE_LOOP('',(#505,#506,#507,#508));
#126=EDGE_LOOP('',(#509));
#127=EDGE_LOOP('',(#510));
#128=EDGE_LOOP('',(#511,#512,#513,#514));
#129=EDGE_LOOP('',(#515));
#130=EDGE_LOOP('',(#516));
#131=EDGE_LOOP('',(#517,#518,#519,#520));
#132=EDGE_LOOP('',(#521,#522,#523,#524));
#133=EDGE_LOOP('',(#525,#526,#527,#528));
#134=EDGE_LOOP('',(#529,#530,#531,#532));
#135=EDGE_LOOP('',(#533,#534,#535,#536));
#136=EDGE_LOOP('',(#537,#538,#539,#540));
#137=EDGE_LOOP('',(#541,#542,#543,#544));
#138=EDGE_LOOP('',(#545,#546,#547,#548));
#139=EDGE_LOOP('',(#549,#550,#551,#552));
#140=EDGE_LOOP('',(#553,#554,#555,#556));
#141=EDGE_LOOP('',(#557,#558,#559,#560));
#142=EDGE_LOOP('',(#561,#562,#563,#564));
#143=EDGE_LOOP('',(#565,#566,#567,#568));
#144=EDGE_LOOP('',(#569,#570,#571,#572));
#145=EDGE_LOOP('',(#573,#574,#575,#576));
#146=EDGE_LOOP('',(#577,#578,#579,#580));
#147=EDGE_LOOP('',(#581,#582,#583,#584));
#148=EDGE_LOOP('',(#585,#586,#587,#588));
#149=EDGE_LOOP('',(#589,#590,#591,#592));
#150=EDGE_LOOP('',(#593,#594,#595,#596));
#151=EDGE_LOOP('',(#597));
#152=EDGE_LOOP('',(#598));
#153=EDGE_LOOP('',(#599));
#154=EDGE_LOOP('',(#600));
#155=EDGE_LOOP('',(#601));
#156=EDGE_LOOP('',(#602));
#157=EDGE_LOOP('',(#603));
#158=EDGE_LOOP('',(#604));
#159=EDGE_LOOP('',(#605));
#160=EDGE_LOOP('',(#606));
#161=EDGE_LOOP('',(#607));
#162=EDGE_LOOP('',(#608));
#163=EDGE_LOOP('',(#609));
#164=EDGE_LOOP('',(#610));
#165=EDGE_LOOP('',(#611));
#166=EDGE_LOOP('',(#612,#613,#614,#615,#616,#617));
#167=EDGE_LOOP('',(#618,#619,#620,#621,#622));
#168=EDGE_LOOP('',(#623,#624,#625,#626,#627,#628));
#169=EDGE_LOOP('',(#629,#630,#631,#632,#633));
#170=EDGE_LOOP('',(#634,#635,#636,#637,#638,#639,#640,#641,#642));
#171=EDGE_LOOP('',(#643,#644,#645,#646));
#172=EDGE_LOOP('',(#647));
#173=EDGE_LOOP('',(#648));
#174=EDGE_LOOP('',(#649));
#175=EDGE_LOOP('',(#650));
#176=EDGE_LOOP('',(#651));
#177=EDGE_LOOP('',(#652));
#178=EDGE_LOOP('',(#653));
#179=EDGE_LOOP('',(#654));
#180=EDGE_LOOP('',(#655));
#181=EDGE_LOOP('',(#656));
#182=EDGE_LOOP('',(#657));
#183=EDGE_LOOP('',(#658));
#184=EDGE_LOOP('',(#659));
#185=EDGE_LOOP('',(#660));
#186=EDGE_LOOP('',(#661));
#187=EDGE_LOOP('',(#662,#663,#664,#665,#666,#667));
#188=EDGE_LOOP('',(#668,#669,#670,#671));
#189=EDGE_LOOP('',(#672,#673));
#190=EDGE_LOOP('',(#674,#675));
#191=EDGE_LOOP('',(#676,#677,#678,#679,#680,#681,#682));
#192=EDGE_LOOP('',(#683,#684,#685,#686));
#193=EDGE_LOOP('',(#687));
#194=EDGE_LOOP('',(#688));
#195=EDGE_LOOP('',(#689));
#196=EDGE_LOOP('',(#690));
#197=EDGE_LOOP('',(#691,#692,#693,#694));
#198=LINE('',#1090,#237);
#199=LINE('',#1099,#238);
#200=LINE('',#1108,#239);
#201=LINE('',#1117,#240);
#202=LINE('',#1126,#241);
#203=LINE('',#1132,#242);
#204=LINE('',#1138,#243);
#205=LINE('',#1144,#244);
#206=LINE('',#1150,#245);
#207=LINE('',#1156,#246);
#208=LINE('',#1162,#247);
#209=LINE('',#1168,#248);
#210=LINE('',#1174,#249);
#211=LINE('',#1180,#250);
#212=LINE('',#1186,#251);
#213=LINE('',#1192,#252);
#214=LINE('',#1198,#253);
#215=LINE('',#1204,#254);
#216=LINE('',#1210,#255);
#217=LINE('',#1215,#256);
#218=LINE('',#1217,#257);
#219=LINE('',#1219,#258);
#220=LINE('',#1220,#259);
#221=LINE('',#1223,#260);
#222=LINE('',#1225,#261);
#223=LINE('',#1226,#262);
#224=LINE('',#1231,#263);
#225=LINE('',#1234,#264);
#226=LINE('',#1235,#265);
#227=LINE('',#1239,#266);
#228=LINE('',#1296,#267);
#229=LINE('',#1352,#268);
#230=LINE('',#1408,#269);
#231=LINE('',#1466,#270);
#232=LINE('',#1471,#271);
#233=LINE('',#1475,#272);
#234=LINE('',#1478,#273);
#235=LINE('',#1481,#274);
#236=LINE('',#1488,#275);
#237=VECTOR('',#870,1.6);
#238=VECTOR('',#881,1.6);
#239=VECTOR('',#892,1.6);
#240=VECTOR('',#903,1.6);
#241=VECTOR('',#914,2.5);
#242=VECTOR('',#921,2.5);
#243=VECTOR('',#928,2.5);
#244=VECTOR('',#935,2.5);
#245=VECTOR('',#942,2.5);
#246=VECTOR('',#949,2.5);
#247=VECTOR('',#956,2.5);
#248=VECTOR('',#963,2.5);
#249=VECTOR('',#970,2.5);
#250=VECTOR('',#977,2.5);
#251=VECTOR('',#984,2.5);
#252=VECTOR('',#991,2.5);
#253=VECTOR('',#998,2.5);
#254=VECTOR('',#1005,2.5);
#255=VECTOR('',#1012,2.5);
#256=VECTOR('',#1017,10.);
#257=VECTOR('',#1018,10.);
#258=VECTOR('',#1019,10.);
#259=VECTOR('',#1020,10.);
#260=VECTOR('',#1023,10.);
#261=VECTOR('',#1024,10.);
#262=VECTOR('',#1025,10.);
#263=VECTOR('',#1030,10.);
#264=VECTOR('',#1035,10.);
#265=VECTOR('',#1036,10.);
#266=VECTOR('',#1041,3.);
#267=VECTOR('',#1044,3.);
#268=VECTOR('',#1047,3.);
#269=VECTOR('',#1050,3.);
#270=VECTOR('',#1055,10.);
#271=VECTOR('',#1060,10.);
#272=VECTOR('',#1065,10.);
#273=VECTOR('',#1068,10.);
#274=VECTOR('',#1071,10.);
#275=VECTOR('',#1082,10.);
#276=CIRCLE('',#775,1.6);
#277=CIRCLE('',#776,1.6);
#278=CIRCLE('',#778,3.);
#279=CIRCLE('',#780,1.6);
#280=CIRCLE('',#781,1.6);
#281=CIRCLE('',#783,3.);
#282=CIRCLE('',#785,1.6);
#283=CIRCLE('',#786,1.6);
#284=CIRCLE('',#788,3.);
#285=CIRCLE('',#790,1.6);
#286=CIRCLE('',#791,1.6);
#287=CIRCLE('',#793,3.);
#288=CIRCLE('',#795,2.5);
#289=CIRCLE('',#796,2.5);
#290=CIRCLE('',#798,2.5);
#291=CIRCLE('',#799,2.5);
#292=CIRCLE('',#801,2.5);
#293=CIRCLE('',#802,2.5);
#294=CIRCLE('',#804,2.5);
#295=CIRCLE('',#805,2.5);
#296=CIRCLE('',#807,2.5);
#297=CIRCLE('',#808,2.5);
#298=CIRCLE('',#810,2.5);
#299=CIRCLE('',#811,2.5);
#300=CIRCLE('',#813,2.5);
#301=CIRCLE('',#814,2.5);
#302=CIRCLE('',#816,2.5);
#303=CIRCLE('',#817,2.5);
#304=CIRCLE('',#819,2.5);
#305=CIRCLE('',#820,2.5);
#306=CIRCLE('',#822,2.5);
#307=CIRCLE('',#823,2.5);
#308=CIRCLE('',#825,2.5);
#309=CIRCLE('',#826,2.5);
#310=CIRCLE('',#828,2.5);
#311=CIRCLE('',#829,2.5);
#312=CIRCLE('',#831,2.5);
#313=CIRCLE('',#832,2.5);
#314=CIRCLE('',#834,2.5);
#315=CIRCLE('',#835,2.5);
#316=CIRCLE('',#837,2.5);
#317=CIRCLE('',#838,2.5);
#318=CIRCLE('',#842,38.);
#319=CIRCLE('',#843,38.);
#320=CIRCLE('',#856,40.);
#321=CIRCLE('',#858,10.);
#322=CIRCLE('',#860,50.);
#323=CIRCLE('',#861,10.);
#324=VERTEX_POINT('',#1087);
#325=VERTEX_POINT('',#1089);
#326=VERTEX_POINT('',#1093);
#327=VERTEX_POINT('',#1096);
#328=VERTEX_POINT('',#1098);
#329=VERTEX_POINT('',#1102);
#330=VERTEX_POINT('',#1105);
#331=VERTEX_POINT('',#1107);
#332=VERTEX_POINT('',#1111);
#333=VERTEX_POINT('',#1114);
#334=VERTEX_POINT('',#1116);
#335=VERTEX_POINT('',#1120);
#336=VERTEX_POINT('',#1123);
#337=VERTEX_POINT('',#1125);
#338=VERTEX_POINT('',#1129);
#339=VERTEX_POINT('',#1131);
#340=VERTEX_POINT('',#1135);
#341=VERTEX_POINT('',#1137);
#342=VERTEX_POINT('',#1141);
#343=VERTEX_POINT('',#1143);
#344=VERTEX_POINT('',#1147);
#345=VERTEX_POINT('',#1149);
#346=VERTEX_POINT('',#1153);
#347=VERTEX_POINT('',#1155);
#348=VERTEX_POINT('',#1159);
#349=VERTEX_POINT('',#1161);
#350=VERTEX_POINT('',#1165);
#351=VERTEX_POINT('',#1167);
#352=VERTEX_POINT('',#1171);
#353=VERTEX_POINT('',#1173);
#354=VERTEX_POINT('',#1177);
#355=VERTEX_POINT('',#1179);
#356=VERTEX_POINT('',#1183);
#357=VERTEX_POINT('',#1185);
#358=VERTEX_POINT('',#1189);
#359=VERTEX_POINT('',#1191);
#360=VERTEX_POINT('',#1195);
#361=VERTEX_POINT('',#1197);
#362=VERTEX_POINT('',#1201);
#363=VERTEX_POINT('',#1203);
#364=VERTEX_POINT('',#1207);
#365=VERTEX_POINT('',#1209);
#366=VERTEX_POINT('',#1213);
#367=VERTEX_POINT('',#1214);
#368=VERTEX_POINT('',#1216);
#369=VERTEX_POINT('',#1218);
#370=VERTEX_POINT('',#1222);
#371=VERTEX_POINT('',#1224);
#372=VERTEX_POINT('',#1228);
#373=VERTEX_POINT('',#1230);
#374=VERTEX_POINT('',#1238);
#375=VERTEX_POINT('',#1240);
#376=VERTEX_POINT('',#1262);
#377=VERTEX_POINT('',#1295);
#378=VERTEX_POINT('',#1297);
#379=VERTEX_POINT('',#1351);
#380=VERTEX_POINT('',#1353);
#381=VERTEX_POINT('',#1364);
#382=VERTEX_POINT('',#1407);
#383=VERTEX_POINT('',#1409);
#384=VERTEX_POINT('',#1463);
#385=VERTEX_POINT('',#1465);
#386=VERTEX_POINT('',#1468);
#387=VERTEX_POINT('',#1470);
#388=VERTEX_POINT('',#1474);
#389=VERTEX_POINT('',#1476);
#390=VERTEX_POINT('',#1480);
#391=VERTEX_POINT('',#1484);
#392=EDGE_CURVE('',#324,#324,#276,.T.);
#393=EDGE_CURVE('',#324,#325,#198,.T.);
#394=EDGE_CURVE('',#325,#325,#277,.T.);
#395=EDGE_CURVE('',#326,#326,#278,.T.);
#396=EDGE_CURVE('',#327,#327,#279,.T.);
#397=EDGE_CURVE('',#327,#328,#199,.T.);
#398=EDGE_CURVE('',#328,#328,#280,.T.);
#399=EDGE_CURVE('',#329,#329,#281,.T.);
#400=EDGE_CURVE('',#330,#330,#282,.T.);
#401=EDGE_CURVE('',#330,#331,#200,.T.);
#402=EDGE_CURVE('',#331,#331,#283,.T.);
#403=EDGE_CURVE('',#332,#332,#284,.T.);
#404=EDGE_CURVE('',#333,#333,#285,.T.);
#405=EDGE_CURVE('',#333,#334,#201,.T.);
#406=EDGE_CURVE('',#334,#334,#286,.T.);
#407=EDGE_CURVE('',#335,#335,#287,.T.);
#408=EDGE_CURVE('',#336,#336,#288,.T.);
#409=EDGE_CURVE('',#336,#337,#202,.T.);
#410=EDGE_CURVE('',#337,#337,#289,.T.);
#411=EDGE_CURVE('',#338,#338,#290,.T.);
#412=EDGE_CURVE('',#338,#339,#203,.T.);
#413=EDGE_CURVE('',#339,#339,#291,.T.);
#414=EDGE_CURVE('',#340,#340,#292,.T.);
#415=EDGE_CURVE('',#340,#341,#204,.T.);
#416=EDGE_CURVE('',#341,#341,#293,.T.);
#417=EDGE_CURVE('',#342,#342,#294,.T.);
#418=EDGE_CURVE('',#342,#343,#205,.T.);
#419=EDGE_CURVE('',#343,#343,#295,.T.);
#420=EDGE_CURVE('',#344,#344,#296,.T.);
#421=EDGE_CURVE('',#344,#345,#206,.T.);
#422=EDGE_CURVE('',#345,#345,#297,.T.);
#423=EDGE_CURVE('',#346,#346,#298,.T.);
#424=EDGE_CURVE('',#346,#347,#207,.T.);
#425=EDGE_CURVE('',#347,#347,#299,.T.);
#426=EDGE_CURVE('',#348,#348,#300,.T.);
#427=EDGE_CURVE('',#348,#349,#208,.T.);
#428=EDGE_CURVE('',#349,#349,#301,.T.);
#429=EDGE_CURVE('',#350,#350,#302,.T.);
#430=EDGE_CURVE('',#350,#351,#209,.T.);
#431=EDGE_CURVE('',#351,#351,#303,.T.);
#432=EDGE_CURVE('',#352,#352,#304,.T.);
#433=EDGE_CURVE('',#352,#353,#210,.T.);
#434=EDGE_CURVE('',#353,#353,#305,.T.);
#435=EDGE_CURVE('',#354,#354,#306,.T.);
#436=EDGE_CURVE('',#354,#355,#211,.T.);
#437=EDGE_CURVE('',#355,#355,#307,.T.);
#438=EDGE_CURVE('',#356,#356,#308,.T.);
#439=EDGE_CURVE('',#356,#357,#212,.T.);
#440=EDGE_CURVE('',#357,#357,#309,.T.);
#441=EDGE_CURVE('',#358,#358,#310,.T.);
#442=EDGE_CURVE('',#358,#359,#213,.T.);
#443=EDGE_CURVE('',#359,#359,#311,.T.);
#444=EDGE_CURVE('',#360,#360,#312,.T.);
#445=EDGE_CURVE('',#360,#361,#214,.T.);
#446=EDGE_CURVE('',#361,#361,#313,.T.);
#447=EDGE_CURVE('',#362,#362,#314,.T.);
#448=EDGE_CURVE('',#362,#363,#215,.T.);
#449=EDGE_CURVE('',#363,#363,#315,.T.);
#450=EDGE_CURVE('',#364,#364,#316,.T.);
#451=EDGE_CURVE('',#364,#365,#216,.T.);
#452=EDGE_CURVE('',#365,#365,#317,.T.);
#453=EDGE_CURVE('',#366,#367,#217,.T.);
#454=EDGE_CURVE('',#366,#368,#218,.T.);
#455=EDGE_CURVE('',#368,#369,#219,.T.);
#456=EDGE_CURVE('',#367,#369,#220,.T.);
#457=EDGE_CURVE('',#370,#366,#221,.T.);
#458=EDGE_CURVE('',#370,#371,#222,.T.);
#459=EDGE_CURVE('',#371,#368,#223,.T.);
#460=EDGE_CURVE('',#372,#370,#318,.T.);
#461=EDGE_CURVE('',#372,#373,#224,.T.);
#462=EDGE_CURVE('',#373,#371,#319,.T.);
#463=EDGE_CURVE('',#367,#372,#225,.T.);
#464=EDGE_CURVE('',#369,#373,#226,.T.);
#465=EDGE_CURVE('',#332,#374,#227,.T.);
#466=EDGE_CURVE('',#375,#374,#20,.T.);
#467=EDGE_CURVE('',#376,#375,#21,.T.);
#468=EDGE_CURVE('',#374,#376,#22,.T.);
#469=EDGE_CURVE('',#335,#377,#228,.T.);
#470=EDGE_CURVE('',#378,#377,#23,.T.);
#471=EDGE_CURVE('',#377,#378,#24,.T.);
#472=EDGE_CURVE('',#326,#379,#229,.T.);
#473=EDGE_CURVE('',#380,#379,#25,.T.);
#474=EDGE_CURVE('',#381,#380,#26,.T.);
#475=EDGE_CURVE('',#379,#381,#27,.T.);
#476=EDGE_CURVE('',#329,#382,#230,.T.);
#477=EDGE_CURVE('',#383,#382,#28,.T.);
#478=EDGE_CURVE('',#382,#383,#29,.T.);
#479=EDGE_CURVE('',#376,#384,#16,.T.);
#480=EDGE_CURVE('',#384,#385,#231,.T.);
#481=EDGE_CURVE('',#385,#381,#17,.T.);
#482=EDGE_CURVE('',#380,#386,#18,.T.);
#483=EDGE_CURVE('',#386,#387,#232,.T.);
#484=EDGE_CURVE('',#387,#375,#19,.T.);
#485=EDGE_CURVE('',#388,#384,#233,.T.);
#486=EDGE_CURVE('',#389,#388,#320,.T.);
#487=EDGE_CURVE('',#385,#389,#234,.T.);
#488=EDGE_CURVE('',#387,#390,#235,.T.);
#489=EDGE_CURVE('',#388,#390,#321,.T.);
#490=EDGE_CURVE('',#390,#391,#322,.T.);
#491=EDGE_CURVE('',#389,#391,#323,.T.);
#492=EDGE_CURVE('',#391,#386,#236,.T.);
#493=ORIENTED_EDGE('',*,*,#392,.F.);
#494=ORIENTED_EDGE('',*,*,#393,.T.);
#495=ORIENTED_EDGE('',*,*,#394,.F.);
#496=ORIENTED_EDGE('',*,*,#393,.F.);
#497=ORIENTED_EDGE('',*,*,#395,.F.);
#498=ORIENTED_EDGE('',*,*,#392,.T.);
#499=ORIENTED_EDGE('',*,*,#396,.F.);
#500=ORIENTED_EDGE('',*,*,#397,.T.);
#501=ORIENTED_EDGE('',*,*,#398,.F.);
#502=ORIENTED_EDGE('',*,*,#397,.F.);
#503=ORIENTED_EDGE('',*,*,#399,.F.);
#504=ORIENTED_EDGE('',*,*,#396,.T.);
#505=ORIENTED_EDGE('',*,*,#400,.F.);
#506=ORIENTED_EDGE('',*,*,#401,.T.);
#507=ORIENTED_EDGE('',*,*,#402,.F.);
#508=ORIENTED_EDGE('',*,*,#401,.F.);
#509=ORIENTED_EDGE('',*,*,#403,.F.);
#510=ORIENTED_EDGE('',*,*,#400,.T.);
#511=ORIENTED_EDGE('',*,*,#404,.F.);
#512=ORIENTED_EDGE('',*,*,#405,.T.);
#513=ORIENTED_EDGE('',*,*,#406,.F.);
#514=ORIENTED_EDGE('',*,*,#405,.F.);
#515=ORIENTED_EDGE('',*,*,#407,.F.);
#516=ORIENTED_EDGE('',*,*,#404,.T.);
#517=ORIENTED_EDGE('',*,*,#408,.F.);
#518=ORIENTED_EDGE('',*,*,#409,.T.);
#519=ORIENTED_EDGE('',*,*,#410,.F.);
#520=ORIENTED_EDGE('',*,*,#409,.F.);
#521=ORIENTED_EDGE('',*,*,#411,.F.);
#522=ORIENTED_EDGE('',*,*,#412,.T.);
#523=ORIENTED_EDGE('',*,*,#413,.F.);
#524=ORIENTED_EDGE('',*,*,#412,.F.);
#525=ORIENTED_EDGE('',*,*,#414,.F.);
#526=ORIENTED_EDGE('',*,*,#415,.T.);
#527=ORIENTED_EDGE('',*,*,#416,.F.);
#528=ORIENTED_EDGE('',*,*,#415,.F.);
#529=ORIENTED_EDGE('',*,*,#417,.F.);
#530=ORIENTED_EDGE('',*,*,#418,.T.);
#531=ORIENTED_EDGE('',*,*,#419,.F.);
#532=ORIENTED_EDGE('',*,*,#418,.F.);
#533=ORIENTED_EDGE('',*,*,#420,.F.);
#534=ORIENTED_EDGE('',*,*,#421,.T.);
#535=ORIENTED_EDGE('',*,*,#422,.F.);
#536=ORIENTED_EDGE('',*,*,#421,.F.);
#537=ORIENTED_EDGE('',*,*,#423,.F.);
#538=ORIENTED_EDGE('',*,*,#424,.T.);
#539=ORIENTED_EDGE('',*,*,#425,.F.);
#540=ORIENTED_EDGE('',*,*,#424,.F.);
#541=ORIENTED_EDGE('',*,*,#426,.F.);
#542=ORIENTED_EDGE('',*,*,#427,.T.);
#543=ORIENTED_EDGE('',*,*,#428,.F.);
#544=ORIENTED_EDGE('',*,*,#427,.F.);
#545=ORIENTED_EDGE('',*,*,#429,.F.);
#546=ORIENTED_EDGE('',*,*,#430,.T.);
#547=ORIENTED_EDGE('',*,*,#431,.F.);
#548=ORIENTED_EDGE('',*,*,#430,.F.);
#549=ORIENTED_EDGE('',*,*,#432,.F.);
#550=ORIENTED_EDGE('',*,*,#433,.T.);
#551=ORIENTED_EDGE('',*,*,#434,.F.);
#552=ORIENTED_EDGE('',*,*,#433,.F.);
#553=ORIENTED_EDGE('',*,*,#435,.F.);
#554=ORIENTED_EDGE('',*,*,#436,.T.);
#555=ORIENTED_EDGE('',*,*,#437,.F.);
#556=ORIENTED_EDGE('',*,*,#436,.F.);
#557=ORIENTED_EDGE('',*,*,#438,.F.);
#558=ORIENTED_EDGE('',*,*,#439,.T.);
#559=ORIENTED_EDGE('',*,*,#440,.F.);
#560=ORIENTED_EDGE('',*,*,#439,.F.);
#561=ORIENTED_EDGE('',*,*,#441,.F.);
#562=ORIENTED_EDGE('',*,*,#442,.T.);
#563=ORIENTED_EDGE('',*,*,#443,.F.);
#564=ORIENTED_EDGE('',*,*,#442,.F.);
#565=ORIENTED_EDGE('',*,*,#444,.F.);
#566=ORIENTED_EDGE('',*,*,#445,.T.);
#567=ORIENTED_EDGE('',*,*,#446,.F.);
#568=ORIENTED_EDGE('',*,*,#445,.F.);
#569=ORIENTED_EDGE('',*,*,#447,.F.);
#570=ORIENTED_EDGE('',*,*,#448,.T.);
#571=ORIENTED_EDGE('',*,*,#449,.F.);
#572=ORIENTED_EDGE('',*,*,#448,.F.);
#573=ORIENTED_EDGE('',*,*,#450,.F.);
#574=ORIENTED_EDGE('',*,*,#451,.T.);
#575=ORIENTED_EDGE('',*,*,#452,.F.);
#576=ORIENTED_EDGE('',*,*,#451,.F.);
#577=ORIENTED_EDGE('',*,*,#453,.F.);
#578=ORIENTED_EDGE('',*,*,#454,.T.);
#579=ORIENTED_EDGE('',*,*,#455,.T.);
#580=ORIENTED_EDGE('',*,*,#456,.F.);
#581=ORIENTED_EDGE('',*,*,#457,.F.);
#582=ORIENTED_EDGE('',*,*,#458,.T.);
#583=ORIENTED_EDGE('',*,*,#459,.T.);
#584=ORIENTED_EDGE('',*,*,#454,.F.);
#585=ORIENTED_EDGE('',*,*,#460,.F.);
#586=ORIENTED_EDGE('',*,*,#461,.T.);
#587=ORIENTED_EDGE('',*,*,#462,.T.);
#588=ORIENTED_EDGE('',*,*,#458,.F.);
#589=ORIENTED_EDGE('',*,*,#463,.F.);
#590=ORIENTED_EDGE('',*,*,#456,.T.);
#591=ORIENTED_EDGE('',*,*,#464,.T.);
#592=ORIENTED_EDGE('',*,*,#461,.F.);
#593=ORIENTED_EDGE('',*,*,#464,.F.);
#594=ORIENTED_EDGE('',*,*,#455,.F.);
#595=ORIENTED_EDGE('',*,*,#459,.F.);
#596=ORIENTED_EDGE('',*,*,#462,.F.);
#597=ORIENTED_EDGE('',*,*,#410,.T.);
#598=ORIENTED_EDGE('',*,*,#413,.T.);
#599=ORIENTED_EDGE('',*,*,#416,.T.);
#600=ORIENTED_EDGE('',*,*,#419,.T.);
#601=ORIENTED_EDGE('',*,*,#422,.T.);
#602=ORIENTED_EDGE('',*,*,#425,.T.);
#603=ORIENTED_EDGE('',*,*,#428,.T.);
#604=ORIENTED_EDGE('',*,*,#431,.T.);
#605=ORIENTED_EDGE('',*,*,#434,.T.);
#606=ORIENTED_EDGE('',*,*,#437,.T.);
#607=ORIENTED_EDGE('',*,*,#440,.T.);
#608=ORIENTED_EDGE('',*,*,#443,.T.);
#609=ORIENTED_EDGE('',*,*,#446,.T.);
#610=ORIENTED_EDGE('',*,*,#449,.T.);
#611=ORIENTED_EDGE('',*,*,#452,.T.);
#612=ORIENTED_EDGE('',*,*,#403,.T.);
#613=ORIENTED_EDGE('',*,*,#465,.T.);
#614=ORIENTED_EDGE('',*,*,#466,.F.);
#615=ORIENTED_EDGE('',*,*,#467,.F.);
#616=ORIENTED_EDGE('',*,*,#468,.F.);
#617=ORIENTED_EDGE('',*,*,#465,.F.);
#618=ORIENTED_EDGE('',*,*,#407,.T.);
#619=ORIENTED_EDGE('',*,*,#469,.T.);
#620=ORIENTED_EDGE('',*,*,#470,.F.);
#621=ORIENTED_EDGE('',*,*,#471,.F.);
#622=ORIENTED_EDGE('',*,*,#469,.F.);
#623=ORIENTED_EDGE('',*,*,#395,.T.);
#624=ORIENTED_EDGE('',*,*,#472,.T.);
#625=ORIENTED_EDGE('',*,*,#473,.F.);
#626=ORIENTED_EDGE('',*,*,#474,.F.);
#627=ORIENTED_EDGE('',*,*,#475,.F.);
#628=ORIENTED_EDGE('',*,*,#472,.F.);
#629=ORIENTED_EDGE('',*,*,#399,.T.);
#630=ORIENTED_EDGE('',*,*,#476,.T.);
#631=ORIENTED_EDGE('',*,*,#477,.F.);
#632=ORIENTED_EDGE('',*,*,#478,.F.);
#633=ORIENTED_EDGE('',*,*,#476,.F.);
#634=ORIENTED_EDGE('',*,*,#466,.T.);
#635=ORIENTED_EDGE('',*,*,#468,.T.);
#636=ORIENTED_EDGE('',*,*,#479,.T.);
#637=ORIENTED_EDGE('',*,*,#480,.T.);
#638=ORIENTED_EDGE('',*,*,#481,.T.);
#639=ORIENTED_EDGE('',*,*,#474,.T.);
#640=ORIENTED_EDGE('',*,*,#482,.T.);
#641=ORIENTED_EDGE('',*,*,#483,.T.);
#642=ORIENTED_EDGE('',*,*,#484,.T.);
#643=ORIENTED_EDGE('',*,*,#480,.F.);
#644=ORIENTED_EDGE('',*,*,#485,.F.);
#645=ORIENTED_EDGE('',*,*,#486,.F.);
#646=ORIENTED_EDGE('',*,*,#487,.F.);
#647=ORIENTED_EDGE('',*,*,#408,.T.);
#648=ORIENTED_EDGE('',*,*,#411,.T.);
#649=ORIENTED_EDGE('',*,*,#414,.T.);
#650=ORIENTED_EDGE('',*,*,#417,.T.);
#651=ORIENTED_EDGE('',*,*,#420,.T.);
#652=ORIENTED_EDGE('',*,*,#423,.T.);
#653=ORIENTED_EDGE('',*,*,#426,.T.);
#654=ORIENTED_EDGE('',*,*,#429,.T.);
#655=ORIENTED_EDGE('',*,*,#432,.T.);
#656=ORIENTED_EDGE('',*,*,#435,.T.);
#657=ORIENTED_EDGE('',*,*,#438,.T.);
#658=ORIENTED_EDGE('',*,*,#441,.T.);
#659=ORIENTED_EDGE('',*,*,#444,.T.);
#660=ORIENTED_EDGE('',*,*,#447,.T.);
#661=ORIENTED_EDGE('',*,*,#450,.T.);
#662=ORIENTED_EDGE('',*,*,#467,.T.);
#663=ORIENTED_EDGE('',*,*,#484,.F.);
#664=ORIENTED_EDGE('',*,*,#488,.T.);
#665=ORIENTED_EDGE('',*,*,#489,.F.);
#666=ORIENTED_EDGE('',*,*,#485,.T.);
#667=ORIENTED_EDGE('',*,*,#479,.F.);
#668=ORIENTED_EDGE('',*,*,#489,.T.);
#669=ORIENTED_EDGE('',*,*,#490,.T.);
#670=ORIENTED_EDGE('',*,*,#491,.F.);
#671=ORIENTED_EDGE('',*,*,#486,.T.);
#672=ORIENTED_EDGE('',*,*,#470,.T.);
#673=ORIENTED_EDGE('',*,*,#471,.T.);
#674=ORIENTED_EDGE('',*,*,#477,.T.);
#675=ORIENTED_EDGE('',*,*,#478,.T.);
#676=ORIENTED_EDGE('',*,*,#473,.T.);
#677=ORIENTED_EDGE('',*,*,#475,.T.);
#678=ORIENTED_EDGE('',*,*,#481,.F.);
#679=ORIENTED_EDGE('',*,*,#487,.T.);
#680=ORIENTED_EDGE('',*,*,#491,.T.);
#681=ORIENTED_EDGE('',*,*,#492,.T.);
#682=ORIENTED_EDGE('',*,*,#482,.F.);
#683=ORIENTED_EDGE('',*,*,#483,.F.);
#684=ORIENTED_EDGE('',*,*,#492,.F.);
#685=ORIENTED_EDGE('',*,*,#490,.F.);
#686=ORIENTED_EDGE('',*,*,#488,.F.);
#687=ORIENTED_EDGE('',*,*,#394,.T.);
#688=ORIENTED_EDGE('',*,*,#398,.T.);
#689=ORIENTED_EDGE('',*,*,#402,.T.);
#690=ORIENTED_EDGE('',*,*,#406,.T.);
#691=ORIENTED_EDGE('',*,*,#453,.T.);
#692=ORIENTED_EDGE('',*,*,#463,.T.);
#693=ORIENTED_EDGE('',*,*,#460,.T.);
#694=ORIENTED_EDGE('',*,*,#457,.T.);
#695=CYLINDRICAL_SURFACE('',#774,1.6);
#696=CYLINDRICAL_SURFACE('',#779,1.6);
#697=CYLINDRICAL_SURFACE('',#784,1.6);
#698=CYLINDRICAL_SURFACE('',#789,1.6);
#699=CYLINDRICAL_SURFACE('',#794,2.5);
#700=CYLINDRICAL_SURFACE('',#797,2.5);
#701=CYLINDRICAL_SURFACE('',#800,2.5);
#702=CYLINDRICAL_SURFACE('',#803,2.5);
#703=CYLINDRICAL_SURFACE('',#806,2.5);
#704=CYLINDRICAL_SURFACE('',#809,2.5);
#705=CYLINDRICAL_SURFACE('',#812,2.5);
#706=CYLINDRICAL_SURFACE('',#815,2.5);
#707=CYLINDRICAL_SURFACE('',#818,2.5);
#708=CYLINDRICAL_SURFACE('',#821,2.5);
#709=CYLINDRICAL_SURFACE('',#824,2.5);
#710=CYLINDRICAL_SURFACE('',#827,2.5);
#711=CYLINDRICAL_SURFACE('',#830,2.5);
#712=CYLINDRICAL_SURFACE('',#833,2.5);
#713=CYLINDRICAL_SURFACE('',#836,2.5);
#714=CYLINDRICAL_SURFACE('',#841,38.);
#715=CYLINDRICAL_SURFACE('',#846,3.);
#716=CYLINDRICAL_SURFACE('',#847,3.);
#717=CYLINDRICAL_SURFACE('',#848,3.);
#718=CYLINDRICAL_SURFACE('',#849,3.);
#719=CYLINDRICAL_SURFACE('',#850,10.);
#720=CYLINDRICAL_SURFACE('',#857,10.);
#721=CYLINDRICAL_SURFACE('',#862,10.);
#722=ADVANCED_FACE('',(#81),#695,.F.);
#723=ADVANCED_FACE('',(#82,#30),#71,.F.);
#724=ADVANCED_FACE('',(#83),#696,.F.);
#725=ADVANCED_FACE('',(#84,#31),#72,.F.);
#726=ADVANCED_FACE('',(#85),#697,.F.);
#727=ADVANCED_FACE('',(#86,#32),#73,.F.);
#728=ADVANCED_FACE('',(#87),#698,.F.);
#729=ADVANCED_FACE('',(#88,#33),#74,.F.);
#730=ADVANCED_FACE('',(#89),#699,.F.);
#731=ADVANCED_FACE('',(#90),#700,.F.);
#732=ADVANCED_FACE('',(#91),#701,.F.);
#733=ADVANCED_FACE('',(#92),#702,.F.);
#734=ADVANCED_FACE('',(#93),#703,.F.);
#735=ADVANCED_FACE('',(#94),#704,.F.);
#736=ADVANCED_FACE('',(#95),#705,.F.);
#737=ADVANCED_FACE('',(#96),#706,.F.);
#738=ADVANCED_FACE('',(#97),#707,.F.);
#739=ADVANCED_FACE('',(#98),#708,.F.);
#740=ADVANCED_FACE('',(#99),#709,.F.);
#741=ADVANCED_FACE('',(#100),#710,.F.);
#742=ADVANCED_FACE('',(#101),#711,.F.);
#743=ADVANCED_FACE('',(#102),#712,.F.);
#744=ADVANCED_FACE('',(#103),#713,.F.);
#745=ADVANCED_FACE('',(#104),#75,.F.);
#746=ADVANCED_FACE('',(#105),#76,.F.);
#747=ADVANCED_FACE('',(#106),#714,.F.);
#748=ADVANCED_FACE('',(#107),#77,.F.);
#749=ADVANCED_FACE('',(#108,#34,#35,#36,#37,#38,#39,#40,#41,#42,#43,#44,
#45,#46,#47,#48),#78,.T.);
#750=ADVANCED_FACE('',(#109),#715,.F.);
#751=ADVANCED_FACE('',(#110),#716,.F.);
#752=ADVANCED_FACE('',(#111),#717,.F.);
#753=ADVANCED_FACE('',(#112),#718,.F.);
#754=ADVANCED_FACE('',(#113),#719,.T.);
#755=ADVANCED_FACE('',(#114,#49,#50,#51,#52,#53,#54,#55,#56,#57,#58,#59,
#60,#61,#62,#63),#79,.T.);
#756=ADVANCED_FACE('',(#115),#720,.T.);
#757=ADVANCED_FACE('',(#116,#64,#65),#15,.T.);
#758=ADVANCED_FACE('',(#117),#721,.T.);
#759=ADVANCED_FACE('',(#118,#66,#67,#68,#69,#70),#80,.T.);
#760=CLOSED_SHELL('',(#722,#723,#724,#725,#726,#727,#728,#729,#730,#731,
#732,#733,#734,#735,#736,#737,#738,#739,#740,#741,#742,#743,#744,#745,#746,
#747,#748,#749,#750,#751,#752,#753,#754,#755,#756,#757,#758,#759));
#761=DERIVED_UNIT_ELEMENT(#763,1.);
#762=DERIVED_UNIT_ELEMENT(#1495,-3.);
#763=(
MASS_UNIT()
NAMED_UNIT(*)
SI_UNIT(.KILO.,.GRAM.)
);
#764=DERIVED_UNIT((#761,#762));
#765=MEASURE_REPRESENTATION_ITEM('density measure',
POSITIVE_RATIO_MEASURE(7850.),#764);
#766=PROPERTY_DEFINITION_REPRESENTATION(#771,#768);
#767=PROPERTY_DEFINITION_REPRESENTATION(#772,#769);
#768=REPRESENTATION('material name',(#770),#1492);
#769=REPRESENTATION('density',(#765),#1492);
#770=DESCRIPTIVE_REPRESENTATION_ITEM('Steel','Steel');
#771=PROPERTY_DEFINITION('material property','material name',#1502);
#772=PROPERTY_DEFINITION('material property','density of part',#1502);
#773=AXIS2_PLACEMENT_3D('',#1085,#864,#865);
#774=AXIS2_PLACEMENT_3D('',#1086,#866,#867);
#775=AXIS2_PLACEMENT_3D('',#1088,#868,#869);
#776=AXIS2_PLACEMENT_3D('',#1091,#871,#872);
#777=AXIS2_PLACEMENT_3D('',#1092,#873,#874);
#778=AXIS2_PLACEMENT_3D('',#1094,#875,#876);
#779=AXIS2_PLACEMENT_3D('',#1095,#877,#878);
#780=AXIS2_PLACEMENT_3D('',#1097,#879,#880);
#781=AXIS2_PLACEMENT_3D('',#1100,#882,#883);
#782=AXIS2_PLACEMENT_3D('',#1101,#884,#885);
#783=AXIS2_PLACEMENT_3D('',#1103,#886,#887);
#784=AXIS2_PLACEMENT_3D('',#1104,#888,#889);
#785=AXIS2_PLACEMENT_3D('',#1106,#890,#891);
#786=AXIS2_PLACEMENT_3D('',#1109,#893,#894);
#787=AXIS2_PLACEMENT_3D('',#1110,#895,#896);
#788=AXIS2_PLACEMENT_3D('',#1112,#897,#898);
#789=AXIS2_PLACEMENT_3D('',#1113,#899,#900);
#790=AXIS2_PLACEMENT_3D('',#1115,#901,#902);
#791=AXIS2_PLACEMENT_3D('',#1118,#904,#905);
#792=AXIS2_PLACEMENT_3D('',#1119,#906,#907);
#793=AXIS2_PLACEMENT_3D('',#1121,#908,#909);
#794=AXIS2_PLACEMENT_3D('',#1122,#910,#911);
#795=AXIS2_PLACEMENT_3D('',#1124,#912,#913);
#796=AXIS2_PLACEMENT_3D('',#1127,#915,#916);
#797=AXIS2_PLACEMENT_3D('',#1128,#917,#918);
#798=AXIS2_PLACEMENT_3D('',#1130,#919,#920);
#799=AXIS2_PLACEMENT_3D('',#1133,#922,#923);
#800=AXIS2_PLACEMENT_3D('',#1134,#924,#925);
#801=AXIS2_PLACEMENT_3D('',#1136,#926,#927);
#802=AXIS2_PLACEMENT_3D('',#1139,#929,#930);
#803=AXIS2_PLACEMENT_3D('',#1140,#931,#932);
#804=AXIS2_PLACEMENT_3D('',#1142,#933,#934);
#805=AXIS2_PLACEMENT_3D('',#1145,#936,#937);
#806=AXIS2_PLACEMENT_3D('',#1146,#938,#939);
#807=AXIS2_PLACEMENT_3D('',#1148,#940,#941);
#808=AXIS2_PLACEMENT_3D('',#1151,#943,#944);
#809=AXIS2_PLACEMENT_3D('',#1152,#945,#946);
#810=AXIS2_PLACEMENT_3D('',#1154,#947,#948);
#811=AXIS2_PLACEMENT_3D('',#1157,#950,#951);
#812=AXIS2_PLACEMENT_3D('',#1158,#952,#953);
#813=AXIS2_PLACEMENT_3D('',#1160,#954,#955);
#814=AXIS2_PLACEMENT_3D('',#1163,#957,#958);
#815=AXIS2_PLACEMENT_3D('',#1164,#959,#960);
#816=AXIS2_PLACEMENT_3D('',#1166,#961,#962);
#817=AXIS2_PLACEMENT_3D('',#1169,#964,#965);
#818=AXIS2_PLACEMENT_3D('',#1170,#966,#967);
#819=AXIS2_PLACEMENT_3D('',#1172,#968,#969);
#820=AXIS2_PLACEMENT_3D('',#1175,#971,#972);
#821=AXIS2_PLACEMENT_3D('',#1176,#973,#974);
#822=AXIS2_PLACEMENT_3D('',#1178,#975,#976);
#823=AXIS2_PLACEMENT_3D('',#1181,#978,#979);
#824=AXIS2_PLACEMENT_3D('',#1182,#980,#981);
#825=AXIS2_PLACEMENT_3D('',#1184,#982,#983);
#826=AXIS2_PLACEMENT_3D('',#1187,#985,#986);
#827=AXIS2_PLACEMENT_3D('',#1188,#987,#988);
#828=AXIS2_PLACEMENT_3D('',#1190,#989,#990);
#829=AXIS2_PLACEMENT_3D('',#1193,#992,#993);
#830=AXIS2_PLACEMENT_3D('',#1194,#994,#995);
#831=AXIS2_PLACEMENT_3D('',#1196,#996,#997);
#832=AXIS2_PLACEMENT_3D('',#1199,#999,#1000);
#833=AXIS2_PLACEMENT_3D('',#1200,#1001,#1002);
#834=AXIS2_PLACEMENT_3D('',#1202,#1003,#1004);
#835=AXIS2_PLACEMENT_3D('',#1205,#1006,#1007);
#836=AXIS2_PLACEMENT_3D('',#1206,#1008,#1009);
#837=AXIS2_PLACEMENT_3D('',#1208,#1010,#1011);
#838=AXIS2_PLACEMENT_3D('',#1211,#1013,#1014);
#839=AXIS2_PLACEMENT_3D('',#1212,#1015,#1016);
#840=AXIS2_PLACEMENT_3D('',#1221,#1021,#1022);
#841=AXIS2_PLACEMENT_3D('',#1227,#1026,#1027);
#842=AXIS2_PLACEMENT_3D('',#1229,#1028,#1029);
#843=AXIS2_PLACEMENT_3D('',#1232,#1031,#1032);
#844=AXIS2_PLACEMENT_3D('',#1233,#1033,#1034);
#845=AXIS2_PLACEMENT_3D('',#1236,#1037,#1038);
#846=AXIS2_PLACEMENT_3D('',#1237,#1039,#1040);
#847=AXIS2_PLACEMENT_3D('',#1294,#1042,#1043);
#848=AXIS2_PLACEMENT_3D('',#1350,#1045,#1046);
#849=AXIS2_PLACEMENT_3D('',#1406,#1048,#1049);
#850=AXIS2_PLACEMENT_3D('',#1462,#1051,#1052);
#851=AXIS2_PLACEMENT_3D('',#1464,#1053,#1054);
#852=AXIS2_PLACEMENT_3D('',#1467,#1056,#1057);
#853=AXIS2_PLACEMENT_3D('',#1469,#1058,#1059);
#854=AXIS2_PLACEMENT_3D('',#1472,#1061,#1062);
#855=AXIS2_PLACEMENT_3D('',#1473,#1063,#1064);
#856=AXIS2_PLACEMENT_3D('',#1477,#1066,#1067);
#857=AXIS2_PLACEMENT_3D('',#1479,#1069,#1070);
#858=AXIS2_PLACEMENT_3D('',#1482,#1072,#1073);
#859=AXIS2_PLACEMENT_3D('',#1483,#1074,#1075);
#860=AXIS2_PLACEMENT_3D('',#1485,#1076,#1077);
#861=AXIS2_PLACEMENT_3D('',#1486,#1078,#1079);
#862=AXIS2_PLACEMENT_3D('',#1487,#1080,#1081);
#863=AXIS2_PLACEMENT_3D('',#1489,#1083,#1084);
#864=DIRECTION('axis',(0.,0.,1.));
#865=DIRECTION('refdir',(1.,0.,0.));
#866=DIRECTION('center_axis',(1.,0.,0.));
#867=DIRECTION('ref_axis',(0.,0.,1.));
#868=DIRECTION('center_axis',(-1.,0.,0.));
#869=DIRECTION('ref_axis',(0.,0.,1.));
#870=DIRECTION('',(-1.,0.,0.));
#871=DIRECTION('center_axis',(1.,0.,0.));
#872=DIRECTION('ref_axis',(0.,0.,1.));
#873=DIRECTION('center_axis',(-1.,9.86076131526265E-32,4.46689869615501E-62));
#874=DIRECTION('ref_axis',(4.46689869615501E-62,0.,1.));
#875=DIRECTION('center_axis',(-1.,9.86076131526265E-32,4.46689869615501E-62));
#876=DIRECTION('ref_axis',(0.,0.,-1.));
#877=DIRECTION('center_axis',(1.,0.,0.));
#878=DIRECTION('ref_axis',(0.,0.,1.));
#879=DIRECTION('center_axis',(-1.,0.,0.));
#880=DIRECTION('ref_axis',(0.,0.,1.));
#881=DIRECTION('',(-1.,0.,0.));
#882=DIRECTION('center_axis',(1.,0.,0.));
#883=DIRECTION('ref_axis',(0.,0.,1.));
#884=DIRECTION('center_axis',(-1.,9.86076131526265E-32,0.));
#885=DIRECTION('ref_axis',(0.,0.,1.));
#886=DIRECTION('center_axis',(-1.,9.86076131526265E-32,0.));
#887=DIRECTION('ref_axis',(0.,0.,-1.));
#888=DIRECTION('center_axis',(1.,0.,0.));
#889=DIRECTION('ref_axis',(0.,0.,1.));
#890=DIRECTION('center_axis',(-1.,0.,0.));
#891=DIRECTION('ref_axis',(0.,0.,1.));
#892=DIRECTION('',(-1.,0.,0.));
#893=DIRECTION('center_axis',(1.,0.,0.));
#894=DIRECTION('ref_axis',(0.,0.,1.));
#895=DIRECTION('center_axis',(-1.,9.86076131526265E-32,4.46689869615501E-62));
#896=DIRECTION('ref_axis',(4.46689869615501E-62,0.,1.));
#897=DIRECTION('center_axis',(-1.,9.86076131526265E-32,4.46689869615501E-62));
#898=DIRECTION('ref_axis',(0.,0.,-1.));
#899=DIRECTION('center_axis',(1.,0.,0.));
#900=DIRECTION('ref_axis',(0.,0.,1.));
#901=DIRECTION('center_axis',(-1.,0.,0.));
#902=DIRECTION('ref_axis',(0.,0.,1.));
#903=DIRECTION('',(-1.,0.,0.));
#904=DIRECTION('center_axis',(1.,0.,0.));
#905=DIRECTION('ref_axis',(0.,0.,1.));
#906=DIRECTION('center_axis',(-1.,9.86076131526265E-32,4.46689869615501E-62));
#907=DIRECTION('ref_axis',(4.46689869615501E-62,0.,1.));
#908=DIRECTION('center_axis',(-1.,9.86076131526265E-32,4.46689869615501E-62));
#909=DIRECTION('ref_axis',(0.,0.,-1.));
#910=DIRECTION('center_axis',(-1.,0.,0.));
#911=DIRECTION('ref_axis',(0.,0.,-1.));
#912=DIRECTION('center_axis',(-1.,-9.6407720639449E-16,-5.55111512312528E-16));
#913=DIRECTION('ref_axis',(0.,0.,-1.));
#914=DIRECTION('',(-1.,0.,0.));
#915=DIRECTION('center_axis',(1.,2.97775923669024E-43,9.91793059909119E-58));
#916=DIRECTION('ref_axis',(0.,0.,-1.));
#917=DIRECTION('center_axis',(-1.,0.,0.));
#918=DIRECTION('ref_axis',(0.,0.,-1.));
#919=DIRECTION('center_axis',(-1.,-9.6407720639449E-16,-5.55111512312528E-16));
#920=DIRECTION('ref_axis',(0.,0.,-1.));
#921=DIRECTION('',(-1.,0.,0.));
#922=DIRECTION('center_axis',(1.,2.97775923669024E-43,9.91793059909119E-58));
#923=DIRECTION('ref_axis',(0.,0.,-1.));
#924=DIRECTION('center_axis',(-1.,0.,0.));
#925=DIRECTION('ref_axis',(0.,0.,-1.));
#926=DIRECTION('center_axis',(-1.,-9.6407720639449E-16,-5.55111512312528E-16));
#927=DIRECTION('ref_axis',(0.,0.,-1.));
#928=DIRECTION('',(-1.,0.,0.));
#929=DIRECTION('center_axis',(1.,2.97775923669024E-43,9.91793059909119E-58));
#930=DIRECTION('ref_axis',(0.,0.,-1.));
#931=DIRECTION('center_axis',(-1.,0.,0.));
#932=DIRECTION('ref_axis',(0.,0.,-1.));
#933=DIRECTION('center_axis',(-1.,-9.6407720639449E-16,-5.55111512312528E-16));
#934=DIRECTION('ref_axis',(0.,0.,-1.));
#935=DIRECTION('',(-1.,0.,0.));
#936=DIRECTION('center_axis',(1.,2.97775923669024E-43,9.91793059909119E-58));
#937=DIRECTION('ref_axis',(0.,0.,-1.));
#938=DIRECTION('center_axis',(-1.,0.,0.));
#939=DIRECTION('ref_axis',(0.,0.,-1.));
#940=DIRECTION('center_axis',(-1.,-9.6407720639449E-16,-5.55111512312528E-16));
#941=DIRECTION('ref_axis',(0.,0.,-1.));
#942=DIRECTION('',(-1.,0.,0.));
#943=DIRECTION('center_axis',(1.,2.97775923669024E-43,9.91793059909119E-58));
#944=DIRECTION('ref_axis',(0.,0.,-1.));
#945=DIRECTION('center_axis',(-1.,0.,0.));
#946=DIRECTION('ref_axis',(0.,0.,-1.));
#947=DIRECTION('center_axis',(-1.,-9.6407720639449E-16,-5.55111512312528E-16));
#948=DIRECTION('ref_axis',(0.,0.,-1.));
#949=DIRECTION('',(-1.,0.,0.));
#950=DIRECTION('center_axis',(1.,2.97775923669024E-43,9.91793059909119E-58));
#951=DIRECTION('ref_axis',(0.,0.,-1.));
#952=DIRECTION('center_axis',(-1.,0.,0.));
#953=DIRECTION('ref_axis',(0.,0.,-1.));
#954=DIRECTION('center_axis',(-1.,-9.6407720639449E-16,-5.55111512312528E-16));
#955=DIRECTION('ref_axis',(0.,0.,-1.));
#956=DIRECTION('',(-1.,0.,0.));
#957=DIRECTION('center_axis',(1.,2.97775923669024E-43,9.91793059909119E-58));
#958=DIRECTION('ref_axis',(0.,0.,-1.));
#959=DIRECTION('center_axis',(-1.,0.,0.));
#960=DIRECTION('ref_axis',(0.,0.,-1.));
#961=DIRECTION('center_axis',(-1.,-9.6407720639449E-16,-5.55111512312528E-16));
#962=DIRECTION('ref_axis',(0.,0.,-1.));
#963=DIRECTION('',(-1.,0.,0.));
#964=DIRECTION('center_axis',(1.,2.97775923669024E-43,9.91793059909119E-58));
#965=DIRECTION('ref_axis',(0.,0.,-1.));
#966=DIRECTION('center_axis',(-1.,0.,0.));
#967=DIRECTION('ref_axis',(0.,0.,-1.));
#968=DIRECTION('center_axis',(-1.,-9.6407720639449E-16,-5.55111512312528E-16));
#969=DIRECTION('ref_axis',(0.,0.,-1.));
#970=DIRECTION('',(-1.,0.,0.));
#971=DIRECTION('center_axis',(1.,2.97775923669024E-43,9.91793059909119E-58));
#972=DIRECTION('ref_axis',(0.,0.,-1.));
#973=DIRECTION('center_axis',(-1.,0.,0.));
#974=DIRECTION('ref_axis',(0.,0.,-1.));
#975=DIRECTION('center_axis',(-1.,-9.6407720639449E-16,-5.55111512312528E-16));
#976=DIRECTION('ref_axis',(0.,0.,-1.));
#977=DIRECTION('',(-1.,0.,0.));
#978=DIRECTION('center_axis',(1.,2.97775923669024E-43,9.91793059909119E-58));
#979=DIRECTION('ref_axis',(0.,0.,-1.));
#980=DIRECTION('center_axis',(-1.,0.,0.));
#981=DIRECTION('ref_axis',(0.,0.,-1.));
#982=DIRECTION('center_axis',(-1.,-9.6407720639449E-16,-5.55111512312528E-16));
#983=DIRECTION('ref_axis',(0.,0.,-1.));
#984=DIRECTION('',(-1.,0.,0.));
#985=DIRECTION('center_axis',(1.,2.97775923669024E-43,9.91793059909119E-58));
#986=DIRECTION('ref_axis',(0.,0.,-1.));
#987=DIRECTION('center_axis',(-1.,0.,0.));
#988=DIRECTION('ref_axis',(0.,0.,-1.));
#989=DIRECTION('center_axis',(-1.,-9.6407720639449E-16,-5.55111512312528E-16));
#990=DIRECTION('ref_axis',(0.,0.,-1.));
#991=DIRECTION('',(-1.,0.,0.));
#992=DIRECTION('center_axis',(1.,2.97775923669024E-43,9.91793059909119E-58));
#993=DIRECTION('ref_axis',(0.,0.,-1.));
#994=DIRECTION('center_axis',(-1.,0.,0.));
#995=DIRECTION('ref_axis',(0.,0.,-1.));
#996=DIRECTION('center_axis',(-1.,-9.6407720639449E-16,-5.55111512312528E-16));
#997=DIRECTION('ref_axis',(0.,0.,-1.));
#998=DIRECTION('',(-1.,0.,0.));
#999=DIRECTION('center_axis',(1.,2.97775923669024E-43,9.91793059909119E-58));
#1000=DIRECTION('ref_axis',(0.,0.,-1.));
#1001=DIRECTION('center_axis',(-1.,0.,0.));
#1002=DIRECTION('ref_axis',(0.,0.,-1.));
#1003=DIRECTION('center_axis',(-1.,-9.6407720639449E-16,-5.55111512312528E-16));
#1004=DIRECTION('ref_axis',(0.,0.,-1.));
#1005=DIRECTION('',(-1.,0.,0.));
#1006=DIRECTION('center_axis',(1.,2.97775923669024E-43,9.91793059909119E-58));
#1007=DIRECTION('ref_axis',(0.,0.,-1.));
#1008=DIRECTION('center_axis',(-1.,0.,0.));
#1009=DIRECTION('ref_axis',(0.,0.,-1.));
#1010=DIRECTION('center_axis',(-1.,-9.6407720639449E-16,-5.55111512312528E-16));
#1011=DIRECTION('ref_axis',(0.,0.,-1.));
#1012=DIRECTION('',(-1.,0.,0.));
#1013=DIRECTION('center_axis',(1.,2.97775923669024E-43,9.91793059909119E-58));
#1014=DIRECTION('ref_axis',(0.,0.,-1.));
#1015=DIRECTION('center_axis',(0.,-1.,-3.33066907387547E-15));
#1016=DIRECTION('ref_axis',(0.,3.33066907387547E-15,-1.));
#1017=DIRECTION('',(5.55111512312525E-16,3.33066907387547E-15,-1.));
#1018=DIRECTION('',(1.,0.,0.));
#1019=DIRECTION('',(0.,3.33066907387547E-15,-1.));
#1020=DIRECTION('',(1.,0.,0.));
#1021=DIRECTION('center_axis',(0.,-4.19417587080615E-15,1.));
#1022=DIRECTION('ref_axis',(2.97775923669024E-43,-1.,-4.19417587080615E-15));
#1023=DIRECTION('',(8.16047469777805E-16,-1.,-4.19417587080615E-15));
#1024=DIRECTION('',(1.,0.,0.));
#1025=DIRECTION('',(2.97775923669024E-43,-1.,-4.19417587080615E-15));
#1026=DIRECTION('center_axis',(1.,0.,0.));
#1027=DIRECTION('ref_axis',(0.,-2.80477395694776E-15,1.));
#1028=DIRECTION('center_axis',(1.,8.16047469777803E-16,5.55111512312528E-16));
#1029=DIRECTION('ref_axis',(0.,-2.80477395694776E-15,1.));
#1030=DIRECTION('',(1.,0.,0.));
#1031=DIRECTION('center_axis',(1.,-3.95602123407452E-58,1.41045991398878E-43));
#1032=DIRECTION('ref_axis',(-1.41045991398878E-43,-2.80477395694776E-15,
1.));
#1033=DIRECTION('center_axis',(0.,4.19417587080615E-15,-1.));
#1034=DIRECTION('ref_axis',(2.26283584078789E-43,1.,4.19417587080615E-15));
#1035=DIRECTION('',(-8.16047469777805E-16,1.,4.19417587080615E-15));
#1036=DIRECTION('',(2.26283584078789E-43,1.,4.19417587080615E-15));
#1037=DIRECTION('center_axis',(-1.,-2.97775923669024E-43,-9.91793059909119E-58));
#1038=DIRECTION('ref_axis',(-9.91793059909119E-58,0.,1.));
#1039=DIRECTION('center_axis',(1.,0.,0.));
#1040=DIRECTION('ref_axis',(0.,0.,-1.));
#1041=DIRECTION('',(1.,0.,0.));
#1042=DIRECTION('center_axis',(1.,0.,0.));
#1043=DIRECTION('ref_axis',(0.,0.,-1.));
#1044=DIRECTION('',(1.,0.,0.));
#1045=DIRECTION('center_axis',(1.,0.,0.));
#1046=DIRECTION('ref_axis',(0.,0.,-1.));
#1047=DIRECTION('',(1.,0.,0.));
#1048=DIRECTION('center_axis',(1.,0.,0.));
#1049=DIRECTION('ref_axis',(0.,0.,-1.));
#1050=DIRECTION('',(1.,0.,0.));
#1051=DIRECTION('center_axis',(5.55111512312525E-16,3.31284709714931E-15,
-1.));
#1052=DIRECTION('ref_axis',(0.707106781186548,-0.707106781186547,-1.95001353275754E-15));
#1053=DIRECTION('center_axis',(2.89182415558022E-16,-0.70710678118655,0.707106781186545));
#1054=DIRECTION('ref_axis',(-1.07422864489983E-15,0.707106781186545,0.70710678118655));
#1055=DIRECTION('',(-5.55111512312525E-16,-3.31284709714931E-15,1.));
#1056=DIRECTION('center_axis',(1.07422864489983E-15,-0.707106781186545,
-0.70710678118655));
#1057=DIRECTION('ref_axis',(2.89182415558022E-16,-0.70710678118655,0.707106781186545));
#1058=DIRECTION('center_axis',(1.07422864489983E-15,-0.707106781186545,
-0.70710678118655));
#1059=DIRECTION('ref_axis',(2.89182415558022E-16,-0.70710678118655,0.707106781186545));
#1060=DIRECTION('',(5.55111512312525E-16,3.31284709714931E-15,-1.));
#1061=DIRECTION('center_axis',(2.89182415558022E-16,-0.70710678118655,0.707106781186545));
#1062=DIRECTION('ref_axis',(-1.07422864489983E-15,0.707106781186545,0.70710678118655));
#1063=DIRECTION('center_axis',(1.,9.6407720639449E-16,5.55111512312528E-16));
#1064=DIRECTION('ref_axis',(5.55111512312525E-16,3.31284709714931E-15,-1.));
#1065=DIRECTION('',(9.64077206394492E-16,-1.,-3.31284709714931E-15));
#1066=DIRECTION('center_axis',(-1.,-9.6407720639449E-16,-5.55111512312528E-16));
#1067=DIRECTION('ref_axis',(-9.64077206394492E-16,1.,4.02338983290941E-15));
#1068=DIRECTION('',(-9.64077206394492E-16,1.,3.31284709714931E-15));
#1069=DIRECTION('center_axis',(-9.64077206394492E-16,1.,3.31284709714931E-15));
#1070=DIRECTION('ref_axis',(0.707106781186548,3.02424217765737E-15,-0.707106781186547));
#1071=DIRECTION('',(-9.64077206394492E-16,1.,3.31284709714931E-15));
#1072=DIRECTION('center_axis',(-9.64077206394491E-16,1.,2.86875788729925E-15));
#1073=DIRECTION('ref_axis',(1.,9.6407720639449E-16,5.55111512312528E-16));
#1074=DIRECTION('center_axis',(-1.,-9.6407720639449E-16,-5.55111512312528E-16));
#1075=DIRECTION('ref_axis',(-5.6843418860808E-16,-3.41060513164848E-15,
1.));
#1076=DIRECTION('center_axis',(1.,9.6407720639449E-16,5.55111512312528E-16));
#1077=DIRECTION('ref_axis',(-9.64077206394492E-16,1.,4.02338983290941E-15));
#1078=DIRECTION('center_axis',(9.64077206394492E-16,-1.,-3.31284709714931E-15));
#1079=DIRECTION('ref_axis',(1.,9.6407720639449E-16,5.55111512312528E-16));
#1080=DIRECTION('center_axis',(-9.64077206394492E-16,1.,3.31284709714931E-15));
#1081=DIRECTION('ref_axis',(0.707106781186547,-1.66083111719952E-15,0.707106781186548));
#1082=DIRECTION('',(9.64077206394492E-16,-1.,-3.31284709714931E-15));
#1083=DIRECTION('center_axis',(-1.,-8.16047469777803E-16,-5.55111512312528E-16));
#1084=DIRECTION('ref_axis',(-5.55111512312525E-16,-3.31284709714931E-15,
1.));
#1085=CARTESIAN_POINT('',(0.,0.,0.));
#1086=CARTESIAN_POINT('Origin',(34.9999999999997,33.0000004917383,45.0000006705522));
#1087=CARTESIAN_POINT('',(36.9999999999997,33.0000004917383,43.4000006705522));
#1088=CARTESIAN_POINT('Origin',(36.9999999999997,33.0000004917383,45.0000006705522));
#1089=CARTESIAN_POINT('',(34.9999999999997,33.0000004917383,43.4000006705522));
#1090=CARTESIAN_POINT('',(34.9999999999997,33.0000004917383,43.4000006705522));
#1091=CARTESIAN_POINT('Origin',(34.9999999999997,33.0000004917383,45.0000006705522));
#1092=CARTESIAN_POINT('Origin',(36.9999999999997,33.0000004917383,45.0000006705522));
#1093=CARTESIAN_POINT('',(36.9999999999997,33.0000004917383,48.0000006705523));
#1094=CARTESIAN_POINT('Origin',(36.9999999999997,33.0000004917383,45.0000006705523));
#1095=CARTESIAN_POINT('Origin',(34.9999999999997,90.,30.));
#1096=CARTESIAN_POINT('',(36.9999999999997,90.,28.4));
#1097=CARTESIAN_POINT('Origin',(36.9999999999997,90.,30.));
#1098=CARTESIAN_POINT('',(34.9999999999997,90.,28.4));
#1099=CARTESIAN_POINT('',(34.9999999999997,90.,28.4));
#1100=CARTESIAN_POINT('Origin',(34.9999999999997,90.,30.));
#1101=CARTESIAN_POINT('Origin',(36.9999999999997,90.,30.));
#1102=CARTESIAN_POINT('',(36.9999999999997,90.,33.));
#1103=CARTESIAN_POINT('Origin',(36.9999999999997,90.,30.));
#1104=CARTESIAN_POINT('Origin',(34.9999999999997,33.0000004917383,-45.0000006705523));
#1105=CARTESIAN_POINT('',(36.9999999999997,33.0000004917383,-46.6000006705523));
#1106=CARTESIAN_POINT('Origin',(36.9999999999997,33.0000004917383,-45.0000006705523));
#1107=CARTESIAN_POINT('',(34.9999999999997,33.0000004917383,-46.6000006705523));
#1108=CARTESIAN_POINT('',(34.9999999999997,33.0000004917383,-46.6000006705523));
#1109=CARTESIAN_POINT('Origin',(34.9999999999997,33.0000004917383,-45.0000006705523));
#1110=CARTESIAN_POINT('Origin',(36.9999999999997,33.0000004917383,-45.0000006705523));
#1111=CARTESIAN_POINT('',(36.9999999999997,33.0000004917383,-42.0000006705523));
#1112=CARTESIAN_POINT('Origin',(36.9999999999997,33.0000004917383,-45.0000006705523));
#1113=CARTESIAN_POINT('Origin',(34.9999999999997,90.,-30.));
#1114=CARTESIAN_POINT('',(36.9999999999997,90.,-31.6));
#1115=CARTESIAN_POINT('Origin',(36.9999999999997,90.,-30.));
#1116=CARTESIAN_POINT('',(34.9999999999997,90.,-31.6));
#1117=CARTESIAN_POINT('',(34.9999999999997,90.,-31.6));
#1118=CARTESIAN_POINT('Origin',(34.9999999999997,90.,-30.));
#1119=CARTESIAN_POINT('Origin',(36.9999999999997,90.,-30.));
#1120=CARTESIAN_POINT('',(36.9999999999997,90.,-27.));
#1121=CARTESIAN_POINT('Origin',(36.9999999999997,90.,-30.));
#1122=CARTESIAN_POINT('Origin',(44.9999999999997,50.,-2.22044604925011E-14));
#1123=CARTESIAN_POINT('',(44.9999999999997,50.,2.49999999999998));
#1124=CARTESIAN_POINT('Origin',(44.9999999999997,50.,-2.22044604925011E-14));
#1125=CARTESIAN_POINT('',(39.9999999999997,50.,2.49999999999998));
#1126=CARTESIAN_POINT('',(44.9999999999997,50.,2.49999999999998));
#1127=CARTESIAN_POINT('Origin',(39.9999999999997,50.,-2.22044604925011E-14));
#1128=CARTESIAN_POINT('Origin',(44.9999999999997,50.,17.3333333333333));
#1129=CARTESIAN_POINT('',(44.9999999999997,50.,19.8333333333333));
#1130=CARTESIAN_POINT('Origin',(44.9999999999997,50.,17.3333333333333));
#1131=CARTESIAN_POINT('',(39.9999999999997,50.,19.8333333333333));
#1132=CARTESIAN_POINT('',(44.9999999999997,50.,19.8333333333333));
#1133=CARTESIAN_POINT('Origin',(39.9999999999997,50.,17.3333333333333));
#1134=CARTESIAN_POINT('Origin',(44.9999999999997,62.5,-17.3333333333333));
#1135=CARTESIAN_POINT('',(44.9999999999997,62.5,-14.8333333333333));
#1136=CARTESIAN_POINT('Origin',(44.9999999999997,62.5,-17.3333333333333));
#1137=CARTESIAN_POINT('',(39.9999999999997,62.5,-14.8333333333333));
#1138=CARTESIAN_POINT('',(44.9999999999997,62.5,-14.8333333333333));
#1139=CARTESIAN_POINT('Origin',(39.9999999999997,62.5,-17.3333333333333));
#1140=CARTESIAN_POINT('Origin',(44.9999999999997,50.,-8.66666666666667));
#1141=CARTESIAN_POINT('',(44.9999999999997,50.,-6.16666666666666));
#1142=CARTESIAN_POINT('Origin',(44.9999999999997,50.,-8.66666666666667));
#1143=CARTESIAN_POINT('',(39.9999999999997,50.,-6.16666666666666));
#1144=CARTESIAN_POINT('',(44.9999999999997,50.,-6.16666666666666));
#1145=CARTESIAN_POINT('Origin',(39.9999999999997,50.,-8.66666666666667));
#1146=CARTESIAN_POINT('Origin',(44.9999999999997,62.5,-8.66666666666667));
#1147=CARTESIAN_POINT('',(44.9999999999997,62.5,-6.16666666666666));
#1148=CARTESIAN_POINT('Origin',(44.9999999999997,62.5,-8.66666666666667));
#1149=CARTESIAN_POINT('',(39.9999999999997,62.5,-6.16666666666666));
#1150=CARTESIAN_POINT('',(44.9999999999997,62.5,-6.16666666666666));
#1151=CARTESIAN_POINT('Origin',(39.9999999999997,62.5,-8.66666666666667));
#1152=CARTESIAN_POINT('Origin',(44.9999999999997,62.5,-2.22044604925011E-14));
#1153=CARTESIAN_POINT('',(44.9999999999997,62.5,2.49999999999998));
#1154=CARTESIAN_POINT('Origin',(44.9999999999997,62.5,-2.22044604925011E-14));
#1155=CARTESIAN_POINT('',(39.9999999999997,62.5,2.49999999999998));
#1156=CARTESIAN_POINT('',(44.9999999999997,62.5,2.49999999999998));
#1157=CARTESIAN_POINT('Origin',(39.9999999999997,62.5,-2.22044604925011E-14));
#1158=CARTESIAN_POINT('Origin',(44.9999999999997,75.,-2.22044604925011E-14));
#1159=CARTESIAN_POINT('',(44.9999999999997,75.,2.49999999999998));
#1160=CARTESIAN_POINT('Origin',(44.9999999999997,75.,-2.22044604925011E-14));
#1161=CARTESIAN_POINT('',(39.9999999999997,75.,2.49999999999998));
#1162=CARTESIAN_POINT('',(44.9999999999997,75.,2.49999999999998));
#1163=CARTESIAN_POINT('Origin',(39.9999999999997,75.,-2.22044604925011E-14));
#1164=CARTESIAN_POINT('Origin',(44.9999999999997,75.,8.66666666666664));
#1165=CARTESIAN_POINT('',(44.9999999999997,75.,11.1666666666667));
#1166=CARTESIAN_POINT('Origin',(44.9999999999997,75.,8.66666666666664));
#1167=CARTESIAN_POINT('',(39.9999999999997,75.,11.1666666666667));
#1168=CARTESIAN_POINT('',(44.9999999999997,75.,11.1666666666667));
#1169=CARTESIAN_POINT('Origin',(39.9999999999997,75.,8.66666666666664));
#1170=CARTESIAN_POINT('Origin',(44.9999999999997,50.,8.66666666666664));
#1171=CARTESIAN_POINT('',(44.9999999999997,50.,11.1666666666667));
#1172=CARTESIAN_POINT('Origin',(44.9999999999997,50.,8.66666666666664));
#1173=CARTESIAN_POINT('',(39.9999999999997,50.,11.1666666666667));
#1174=CARTESIAN_POINT('',(44.9999999999997,50.,11.1666666666667));
#1175=CARTESIAN_POINT('Origin',(39.9999999999997,50.,8.66666666666664));
#1176=CARTESIAN_POINT('Origin',(44.9999999999997,75.,-8.66666666666667));
#1177=CARTESIAN_POINT('',(44.9999999999997,75.,-6.16666666666666));
#1178=CARTESIAN_POINT('Origin',(44.9999999999997,75.,-8.66666666666667));
#1179=CARTESIAN_POINT('',(39.9999999999997,75.,-6.16666666666666));
#1180=CARTESIAN_POINT('',(44.9999999999997,75.,-6.16666666666666));
#1181=CARTESIAN_POINT('Origin',(39.9999999999997,75.,-8.66666666666667));
#1182=CARTESIAN_POINT('Origin',(44.9999999999997,50.,-17.3333333333333));
#1183=CARTESIAN_POINT('',(44.9999999999997,50.,-14.8333333333333));
#1184=CARTESIAN_POINT('Origin',(44.9999999999997,50.,-17.3333333333333));
#1185=CARTESIAN_POINT('',(39.9999999999997,50.,-14.8333333333333));
#1186=CARTESIAN_POINT('',(44.9999999999997,50.,-14.8333333333333));
#1187=CARTESIAN_POINT('Origin',(39.9999999999997,50.,-17.3333333333333));
#1188=CARTESIAN_POINT('Origin',(44.9999999999997,50.,-26.));
#1189=CARTESIAN_POINT('',(44.9999999999997,50.,-23.5));
#1190=CARTESIAN_POINT('Origin',(44.9999999999997,50.,-26.));
#1191=CARTESIAN_POINT('',(39.9999999999997,50.,-23.5));
#1192=CARTESIAN_POINT('',(44.9999999999997,50.,-23.5));
#1193=CARTESIAN_POINT('Origin',(39.9999999999997,50.,-26.));
#1194=CARTESIAN_POINT('Origin',(44.9999999999997,50.,26.));
#1195=CARTESIAN_POINT('',(44.9999999999997,50.,28.5));
#1196=CARTESIAN_POINT('Origin',(44.9999999999997,50.,26.));
#1197=CARTESIAN_POINT('',(39.9999999999997,50.,28.5));
#1198=CARTESIAN_POINT('',(44.9999999999997,50.,28.5));
#1199=CARTESIAN_POINT('Origin',(39.9999999999997,50.,26.));
#1200=CARTESIAN_POINT('Origin',(44.9999999999997,62.5,8.66666666666664));
#1201=CARTESIAN_POINT('',(44.9999999999997,62.5,11.1666666666667));
#1202=CARTESIAN_POINT('Origin',(44.9999999999997,62.5,8.66666666666664));
#1203=CARTESIAN_POINT('',(39.9999999999997,62.5,11.1666666666667));
#1204=CARTESIAN_POINT('',(44.9999999999997,62.5,11.1666666666667));
#1205=CARTESIAN_POINT('Origin',(39.9999999999997,62.5,8.66666666666664));
#1206=CARTESIAN_POINT('Origin',(44.9999999999997,62.5,17.3333333333333));
#1207=CARTESIAN_POINT('',(44.9999999999997,62.5,19.8333333333333));
#1208=CARTESIAN_POINT('Origin',(44.9999999999997,62.5,17.3333333333333));
#1209=CARTESIAN_POINT('',(39.9999999999997,62.5,19.8333333333333));
#1210=CARTESIAN_POINT('',(44.9999999999997,62.5,19.8333333333333));
#1211=CARTESIAN_POINT('Origin',(39.9999999999997,62.5,17.3333333333333));
#1212=CARTESIAN_POINT('Origin',(34.9999999999997,39.9999999999997,38.0000000000004));
#1213=CARTESIAN_POINT('',(34.9999999999997,39.9999999999997,38.0000000000004));
#1214=CARTESIAN_POINT('',(34.9999999999997,40.,-37.9999999999996));
#1215=CARTESIAN_POINT('',(34.9999999999997,39.9999999999998,19.0000000000004));
#1216=CARTESIAN_POINT('',(39.9999999999997,39.9999999999997,38.0000000000004));
#1217=CARTESIAN_POINT('',(34.9999999999997,39.9999999999997,38.0000000000004));
#1218=CARTESIAN_POINT('',(39.9999999999997,40.,-37.9999999999996));
#1219=CARTESIAN_POINT('',(39.9999999999997,40.,-37.9999999999996));
#1220=CARTESIAN_POINT('',(34.9999999999997,40.,-37.9999999999996));
#1221=CARTESIAN_POINT('Origin',(34.9999999999997,57.9999999999997,38.0000000000004));
#1222=CARTESIAN_POINT('',(34.9999999999997,57.9999999999997,38.0000000000004));
#1223=CARTESIAN_POINT('',(34.9999999999997,62.9999999999997,38.0000000000005));
#1224=CARTESIAN_POINT('',(39.9999999999997,57.9999999999997,38.0000000000004));
#1225=CARTESIAN_POINT('',(34.9999999999997,57.9999999999997,38.0000000000004));
#1226=CARTESIAN_POINT('',(39.9999999999997,39.9999999999997,38.0000000000004));
#1227=CARTESIAN_POINT('Origin',(34.9999999999997,57.9999999999998,4.44089209850063E-13));
#1228=CARTESIAN_POINT('',(34.9999999999997,57.9999999999999,-37.9999999999996));
#1229=CARTESIAN_POINT('Origin',(34.9999999999997,57.9999999999998,4.44089209850063E-13));
#1230=CARTESIAN_POINT('',(39.9999999999997,57.9999999999999,-37.9999999999996));
#1231=CARTESIAN_POINT('',(34.9999999999997,57.9999999999999,-37.9999999999996));
#1232=CARTESIAN_POINT('Origin',(39.9999999999997,57.9999999999998,4.44089209850063E-13));
#1233=CARTESIAN_POINT('Origin',(34.9999999999997,40.,-37.9999999999996));
#1234=CARTESIAN_POINT('',(34.9999999999997,54.,-37.9999999999996));
#1235=CARTESIAN_POINT('',(39.9999999999997,57.9999999999999,-37.9999999999996));
#1236=CARTESIAN_POINT('Origin',(39.9999999999997,67.9999999999998,4.04121180963557E-13));
#1237=CARTESIAN_POINT('Origin',(24.9999999999997,33.0000004917383,-45.0000006705523));
#1238=CARTESIAN_POINT('',(43.6602543217493,33.0000004917383,-42.0000006705523));
#1239=CARTESIAN_POINT('',(24.9999999999997,33.0000004917383,-42.0000006705523));
#1240=CARTESIAN_POINT('',(42.0204554902803,30.8786795670333,-47.1213204329664));
#1241=CARTESIAN_POINT('Ctrl Pts',(42.0204554902803,30.8786795670333,-47.1213204329664));
#1242=CARTESIAN_POINT('Ctrl Pts',(41.9830502997625,30.8418041760707,-47.0844450217994));
#1243=CARTESIAN_POINT('Ctrl Pts',(41.9462041984166,30.8060615423415,-47.0467783327445));
#1244=CARTESIAN_POINT('Ctrl Pts',(41.6850659852972,30.5564285519886,-46.7697888486833));
#1245=CARTESIAN_POINT('Ctrl Pts',(41.4532367355817,30.3577008722942,-46.4682920264921));
#1246=CARTESIAN_POINT('Ctrl Pts',(41.1948634302889,30.1491454202429,-45.9523825705075));
#1247=CARTESIAN_POINT('Ctrl Pts',(41.1236610156834,30.0940184157326,-45.7696772739334));
#1248=CARTESIAN_POINT('Ctrl Pts',(41.0261293185567,30.0194276837516,-45.3915611651599));
#1249=CARTESIAN_POINT('Ctrl Pts',(41.0000006556508,30.0000004917383,-45.1960914273719));
#1250=CARTESIAN_POINT('Ctrl Pts',(41.0000006556508,30.0000004917383,-45.0000006705523));
#1251=CARTESIAN_POINT('Ctrl Pts',(41.0000006556508,30.0000004917383,-44.7874774016579));
#1252=CARTESIAN_POINT('Ctrl Pts',(41.0306079488811,30.0227363279135,-44.5775993736671));
#1253=CARTESIAN_POINT('Ctrl Pts',(41.1424562709543,30.1085363286682,-44.1741921192544));
#1254=CARTESIAN_POINT('Ctrl Pts',(41.2234687309273,30.1715818206505,-43.9805955839966));
#1255=CARTESIAN_POINT('Ctrl Pts',(41.5147058631433,30.4091250215471,-43.4366957199161));
#1256=CARTESIAN_POINT('Ctrl Pts',(41.7727217085618,30.6344545960699,-43.1229058791014));
#1257=CARTESIAN_POINT('Ctrl Pts',(42.2864692449354,31.1409256000765,-42.6164348750948));
#1258=CARTESIAN_POINT('Ctrl Pts',(42.586069808506,31.4679697996689,-42.3903082517027));
#1259=CARTESIAN_POINT('Ctrl Pts',(43.1590657915444,32.199524172114,-42.0816363747507));
#1260=CARTESIAN_POINT('Ctrl Pts',(43.4320502917962,32.6047394655367,-42.0000006705523));
#1261=CARTESIAN_POINT('Ctrl Pts',(43.6602543217493,33.0000004917383,-42.0000006705523));
#1262=CARTESIAN_POINT('',(44.5767010458112,35.1213202541524,-42.8786797458472));
#1263=CARTESIAN_POINT('Ctrl Pts',(44.5767010458112,35.1213202541524,-42.8786797458472));
#1264=CARTESIAN_POINT('Ctrl Pts',(44.4931275594016,35.3993500469347,-43.1567093862945));
#1265=CARTESIAN_POINT('Ctrl Pts',(44.3747213957922,35.6299090765149,-43.5032469057951));
#1266=CARTESIAN_POINT('Ctrl Pts',(44.0627952392636,35.9321354176869,-44.2464688682022));
#1267=CARTESIAN_POINT('Ctrl Pts',(43.866033778477,36.0000004917383,-44.6435790977884));
#1268=CARTESIAN_POINT('Ctrl Pts',(43.4162893017493,36.0000004917383,-45.4225592426115));
#1269=CARTESIAN_POINT('Ctrl Pts',(43.1233643415017,35.9070795674156,-45.8525860632201));
#1270=CARTESIAN_POINT('Ctrl Pts',(42.5099674118162,35.5591518608922,-46.6213442833335));
#1271=CARTESIAN_POINT('Ctrl Pts',(42.1899329899609,35.3053026532302,-46.9609479590722));
#1272=CARTESIAN_POINT('Ctrl Pts',(41.6850646583286,34.7697886234435,-47.4435726408175));
#1273=CARTESIAN_POINT('Ctrl Pts',(41.4532353442515,34.4682918188508,-47.642300303667));
#1274=CARTESIAN_POINT('Ctrl Pts',(41.1948619555255,33.9523823850722,-47.8508557437158));
#1275=CARTESIAN_POINT('Ctrl Pts',(41.1236595155345,33.7696770951322,-47.9059827463366));
#1276=CARTESIAN_POINT('Ctrl Pts',(41.0261277808715,33.391560992892,-47.9805734774665));
#1277=CARTESIAN_POINT('Ctrl Pts',(40.9999991059295,33.1960912549595,-48.0000006705523));
#1278=CARTESIAN_POINT('Ctrl Pts',(40.9999991059295,33.0000004917383,-48.0000006705523));
#1279=CARTESIAN_POINT('Ctrl Pts',(40.9999991059295,32.8039097285171,-48.0000006705523));
#1280=CARTESIAN_POINT('Ctrl Pts',(41.0261277808715,32.6084399905847,-47.9805734774665));
#1281=CARTESIAN_POINT('Ctrl Pts',(41.1236595155345,32.2303238883445,-47.9059827463366));
#1282=CARTESIAN_POINT('Ctrl Pts',(41.1948619555255,32.0476185984045,-47.8508557437158));
#1283=CARTESIAN_POINT('Ctrl Pts',(41.4532353442515,31.5317091646259,-47.642300303667));
#1284=CARTESIAN_POINT('Ctrl Pts',(41.6850646583286,31.2302123600331,-47.4435726408175));
#1285=CARTESIAN_POINT('Ctrl Pts',(41.9462033373906,30.9532224646569,-47.1939392929183));
#1286=CARTESIAN_POINT('Ctrl Pts',(41.9830498637033,30.9155553676742,-47.1581962538119));
#1287=CARTESIAN_POINT('Ctrl Pts',(42.0204554902803,30.8786795670333,-47.1213204329664));
#1288=CARTESIAN_POINT('Ctrl Pts',(43.6602543217493,33.0000004917383,-42.0000006705523));
#1289=CARTESIAN_POINT('Ctrl Pts',(43.8633108696783,33.3517047956799,-42.0000006705523));
#1290=CARTESIAN_POINT('Ctrl Pts',(44.0579499494236,33.7436107760462,-42.0660638138186));
#1291=CARTESIAN_POINT('Ctrl Pts',(44.3718640230592,34.4883806670803,-42.3645373272614));
#1292=CARTESIAN_POINT('Ctrl Pts',(44.4922676042879,34.8404297421376,-42.5977893877349));
#1293=CARTESIAN_POINT('Ctrl Pts',(44.5767010458112,35.1213202541524,-42.8786797458472));
#1294=CARTESIAN_POINT('Origin',(24.9999999999997,90.,-30.));
#1295=CARTESIAN_POINT('',(44.8238193424616,90.,-27.));
#1296=CARTESIAN_POINT('',(24.9999999999997,90.,-27.));
#1297=CARTESIAN_POINT('',(44.9626551836013,87.8113883875798,-27.948176613356));
#1298=CARTESIAN_POINT('Ctrl Pts',(44.9626551836013,87.8113883875798,-27.948176613356));
#1299=CARTESIAN_POINT('Ctrl Pts',(44.9626551836013,87.990706629112,-27.7569038223883));
#1300=CARTESIAN_POINT('Ctrl Pts',(44.9596500544993,88.1943677603596,-27.5899445278744));
#1301=CARTESIAN_POINT('Ctrl Pts',(44.944813892202,88.6596410165114,-27.3009168898824));
#1302=CARTESIAN_POINT('Ctrl Pts',(44.9322442504242,88.9227497773555,-27.1855411207019));
#1303=CARTESIAN_POINT('Ctrl Pts',(44.8909044884527,89.4601907991757,-27.0364568301627));
#1304=CARTESIAN_POINT('Ctrl Pts',(44.863073782619,89.7300164173857,-27.));
#1305=CARTESIAN_POINT('Ctrl Pts',(44.8238193424617,90.,-27.));
#1306=CARTESIAN_POINT('Ctrl Pts',(44.8238193424616,90.,-27.));
#1307=CARTESIAN_POINT('Ctrl Pts',(44.8167520114381,90.0486075802281,-27.));
#1308=CARTESIAN_POINT('Ctrl Pts',(44.8093139428295,90.0972202155785,-27.0011813657969));
#1309=CARTESIAN_POINT('Ctrl Pts',(44.7473574854109,90.4815279944991,-27.0198800137009));
#1310=CARTESIAN_POINT('Ctrl Pts',(44.6754760853707,90.8078065280313,-27.0921675814951));
#1311=CARTESIAN_POINT('Ctrl Pts',(44.5340541386916,91.2693091066436,-27.2765515131411));
#1312=CARTESIAN_POINT('Ctrl Pts',(44.4809546968755,91.4186861993938,-27.3514676771215));
#1313=CARTESIAN_POINT('Ctrl Pts',(44.3798665277813,91.6640070626291,-27.5008219692857));
#1314=CARTESIAN_POINT('Ctrl Pts',(44.3343769128865,91.7633232454114,-27.5699534166901));
#1315=CARTESIAN_POINT('Ctrl Pts',(44.2372609040513,91.9542348035002,-27.7205062435982));
#1316=CARTESIAN_POINT('Ctrl Pts',(44.1856216213975,92.0453825072936,-27.8020135871326));
#1317=CARTESIAN_POINT('Ctrl Pts',(44.0546820259237,92.2530356808097,-28.0115405695657));
#1318=CARTESIAN_POINT('Ctrl Pts',(43.9732521596634,92.3632209660538,-28.1441170924686));
#1319=CARTESIAN_POINT('Ctrl Pts',(43.714291972849,92.6617531633456,-28.5722450112395));
#1320=CARTESIAN_POINT('Ctrl Pts',(43.526346749648,92.8088107071564,-28.8909623544327));
#1321=CARTESIAN_POINT('Ctrl Pts',(43.1035087399242,93.0105719748806,-29.6451952340353));
#1322=CARTESIAN_POINT('Ctrl Pts',(42.8741699816915,93.0291169365853,-30.0808269473766));
#1323=CARTESIAN_POINT('Ctrl Pts',(42.5504154427925,92.9044836634471,-30.8158492020476));
#1324=CARTESIAN_POINT('Ctrl Pts',(42.4329196242606,92.7995805804868,-31.1305019036767));
#1325=CARTESIAN_POINT('Ctrl Pts',(42.2946526500322,92.4986222200453,-31.6857749467241));
#1326=CARTESIAN_POINT('Ctrl Pts',(42.2646953941129,92.3220781637621,-31.9228577438923));
#1327=CARTESIAN_POINT('Ctrl Pts',(42.2853287331608,91.8826969838315,-32.3573595143251));
#1328=CARTESIAN_POINT('Ctrl Pts',(42.3408286832369,91.626828199557,-32.5392593434348));
#1329=CARTESIAN_POINT('Ctrl Pts',(42.5443941079583,91.0004923848464,-32.8556259644255));
#1330=CARTESIAN_POINT('Ctrl Pts',(42.7102112369947,90.6278050176838,-32.956849984771));
#1331=CARTESIAN_POINT('Ctrl Pts',(43.0784219891482,89.8849783341018,-33.0211997721352));
#1332=CARTESIAN_POINT('Ctrl Pts',(43.282953588024,89.5109957989281,-32.9829786900745));
#1333=CARTESIAN_POINT('Ctrl Pts',(43.6447178787244,88.8676384721162,-32.7942311533079));
#1334=CARTESIAN_POINT('Ctrl Pts',(43.8045475078325,88.5904196768108,-32.6660381606494));
#1335=CARTESIAN_POINT('Ctrl Pts',(44.027954545351,88.2066401957921,-32.4098737532725));
#1336=CARTESIAN_POINT('Ctrl Pts',(44.0996934263753,88.0841644171933,-32.3139249295303));
#1337=CARTESIAN_POINT('Ctrl Pts',(44.2190371738847,87.8819574447761,-32.1278514236616));
#1338=CARTESIAN_POINT('Ctrl Pts',(44.2681202443577,87.7993237640794,-32.0423993820518));
#1339=CARTESIAN_POINT('Ctrl Pts',(44.3634433235755,87.640421123876,-31.8568433527555));
#1340=CARTESIAN_POINT('Ctrl Pts',(44.409388989556,87.5647035271579,-31.7565312248992));
#1341=CARTESIAN_POINT('Ctrl Pts',(44.5156694547225,87.3929120160763,-31.4958221034648));
#1342=CARTESIAN_POINT('Ctrl Pts',(44.5723995157355,87.3042801301726,-31.3300902247691));
#1343=CARTESIAN_POINT('Ctrl Pts',(44.721770246439,87.0871378395347,-30.8094881491775));
#1344=CARTESIAN_POINT('Ctrl Pts',(44.7930620454626,87.0070635106956,-30.4359672101651));
#1345=CARTESIAN_POINT('Ctrl Pts',(44.8927141044445,86.9939628223438,-29.6752890841491));
#1346=CARTESIAN_POINT('Ctrl Pts',(44.9210661280256,87.0584147368826,-29.2988157296284));
#1347=CARTESIAN_POINT('Ctrl Pts',(44.9563249797818,87.3309984574684,-28.574805096032));
#1348=CARTESIAN_POINT('Ctrl Pts',(44.9626551836013,87.5411931076661,-28.2363849119306));
#1349=CARTESIAN_POINT('Ctrl Pts',(44.9626551836013,87.8113883875798,-27.948176613356));
#1350=CARTESIAN_POINT('Origin',(24.9999999999997,33.0000004917383,45.0000006705523));
#1351=CARTESIAN_POINT('',(40.9999991059304,33.0000004917383,48.0000006705523));
#1352=CARTESIAN_POINT('',(24.9999999999997,33.0000004917383,48.0000006705523));
#1353=CARTESIAN_POINT('',(42.0204554902808,30.8786795670335,47.1213204329666));
#1354=CARTESIAN_POINT('Ctrl Pts',(42.0204554902808,30.8786795670335,47.1213204329666));
#1355=CARTESIAN_POINT('Ctrl Pts',(41.9830498637039,30.9155553676744,47.158196253812));
#1356=CARTESIAN_POINT('Ctrl Pts',(41.9462033373913,30.9532224646569,47.1939392929183));
#1357=CARTESIAN_POINT('Ctrl Pts',(41.6850646583294,31.2302123600331,47.4435726408175));
#1358=CARTESIAN_POINT('Ctrl Pts',(41.4532353442524,31.5317091646258,47.642300303667));
#1359=CARTESIAN_POINT('Ctrl Pts',(41.1948619555264,32.0476185984045,47.8508557437157));
#1360=CARTESIAN_POINT('Ctrl Pts',(41.1236595155354,32.2303238883445,47.9059827463366));
#1361=CARTESIAN_POINT('Ctrl Pts',(41.0261277808724,32.6084399905847,47.9805734774665));
#1362=CARTESIAN_POINT('Ctrl Pts',(40.9999991059304,32.8039097285171,48.0000006705523));
#1363=CARTESIAN_POINT('Ctrl Pts',(40.9999991059304,33.0000004917383,48.0000006705523));
#1364=CARTESIAN_POINT('',(44.5767010458113,35.1213202541526,42.8786797458475));
#1365=CARTESIAN_POINT('Ctrl Pts',(44.5767010458113,35.1213202541526,42.8786797458475));
#1366=CARTESIAN_POINT('Ctrl Pts',(44.493127622553,34.843290823795,42.6006504678246));
#1367=CARTESIAN_POINT('Ctrl Pts',(44.3747216177132,34.4967537529032,42.3700918815494));
#1368=CARTESIAN_POINT('Ctrl Pts',(44.0627957864497,33.7535323021467,42.0678657473094));
#1369=CARTESIAN_POINT('Ctrl Pts',(43.8660343898011,33.3564220715263,42.0000006705523));
#1370=CARTESIAN_POINT('Ctrl Pts',(43.4162900615006,32.5774419423461,42.0000006705523));
#1371=CARTESIAN_POINT('Ctrl Pts',(43.1233652016567,32.1474151365946,42.0929215855599));
#1372=CARTESIAN_POINT('Ctrl Pts',(42.5099684786728,31.3786569319369,42.440849269753));
#1373=CARTESIAN_POINT('Ctrl Pts',(42.1899341634961,31.0390532569379,42.694698465088));
#1374=CARTESIAN_POINT('Ctrl Pts',(41.6850659852975,30.5564285519886,43.2302124924212));
#1375=CARTESIAN_POINT('Ctrl Pts',(41.453236735582,30.3577008722942,43.5317093146124));
#1376=CARTESIAN_POINT('Ctrl Pts',(41.1948634302892,30.1491454202429,44.047618770597));
#1377=CARTESIAN_POINT('Ctrl Pts',(41.1236610156837,30.0940184157326,44.2303240671711));
#1378=CARTESIAN_POINT('Ctrl Pts',(41.0261293185571,30.0194276837516,44.6084401759447));
#1379=CARTESIAN_POINT('Ctrl Pts',(41.0000006556511,30.0000004917383,44.8039099137327));
#1380=CARTESIAN_POINT('Ctrl Pts',(41.0000006556511,30.0000004917383,45.0000006705522));
#1381=CARTESIAN_POINT('Ctrl Pts',(41.0000006556511,30.0000004917383,45.1960914273718));
#1382=CARTESIAN_POINT('Ctrl Pts',(41.0261293185571,30.0194276837516,45.3915611651598));
#1383=CARTESIAN_POINT('Ctrl Pts',(41.1236610156837,30.0940184157326,45.7696772739334));
#1384=CARTESIAN_POINT('Ctrl Pts',(41.1948634302892,30.1491454202429,45.9523825705075));
#1385=CARTESIAN_POINT('Ctrl Pts',(41.453236735582,30.3577008722942,46.4682920264921));
#1386=CARTESIAN_POINT('Ctrl Pts',(41.6850659852975,30.5564285519886,46.7697888486833));
#1387=CARTESIAN_POINT('Ctrl Pts',(41.9462041984169,30.8060615423415,47.0467783327445));
#1388=CARTESIAN_POINT('Ctrl Pts',(41.983050299763,30.8418041760708,47.0844450217995));
#1389=CARTESIAN_POINT('Ctrl Pts',(42.0204554902808,30.8786795670335,47.1213204329666));
#1390=CARTESIAN_POINT('Ctrl Pts',(40.9999991059304,33.0000004917383,48.0000006705523));
#1391=CARTESIAN_POINT('Ctrl Pts',(40.9999991059304,33.1960912549595,48.0000006705523));
#1392=CARTESIAN_POINT('Ctrl Pts',(41.0261277808724,33.391560992892,47.9805734774665));
#1393=CARTESIAN_POINT('Ctrl Pts',(41.1236595155354,33.7696770951322,47.9059827463366));
#1394=CARTESIAN_POINT('Ctrl Pts',(41.1948619555264,33.9523823850721,47.8508557437157));
#1395=CARTESIAN_POINT('Ctrl Pts',(41.4532353442523,34.4682918188508,47.642300303667));
#1396=CARTESIAN_POINT('Ctrl Pts',(41.6850646583294,34.7697886234435,47.4435726408175));
#1397=CARTESIAN_POINT('Ctrl Pts',(42.1899329899616,35.3053026532302,46.9609479590722));
#1398=CARTESIAN_POINT('Ctrl Pts',(42.5099674118168,35.5591518608922,46.6213442833335));
#1399=CARTESIAN_POINT('Ctrl Pts',(43.1233643415022,35.9070795674156,45.85258606322));
#1400=CARTESIAN_POINT('Ctrl Pts',(43.4162893017498,36.0000004917383,45.4225592426115));
#1401=CARTESIAN_POINT('Ctrl Pts',(43.8660337784773,36.0000004917383,44.6435790977883));
#1402=CARTESIAN_POINT('Ctrl Pts',(44.0627952392639,35.9321354176869,44.2464688682022));
#1403=CARTESIAN_POINT('Ctrl Pts',(44.3747213957924,35.6299090765149,43.5032469057952));
#1404=CARTESIAN_POINT('Ctrl Pts',(44.4931275594018,35.3993500469349,43.1567093862947));
#1405=CARTESIAN_POINT('Ctrl Pts',(44.5767010458113,35.1213202541527,42.8786797458475));
#1406=CARTESIAN_POINT('Origin',(24.9999999999997,90.,30.));
#1407=CARTESIAN_POINT('',(43.0243615982656,89.9999999999918,33.));
#1408=CARTESIAN_POINT('',(24.9999999999997,90.,33.));
#1409=CARTESIAN_POINT('',(44.9626551836013,87.8113883875797,27.948176613356));
#1410=CARTESIAN_POINT('Ctrl Pts',(44.9626551836013,87.8113883875797,27.948176613356));
#1411=CARTESIAN_POINT('Ctrl Pts',(44.9626551836013,87.6320701460474,28.1394494043238));
#1412=CARTESIAN_POINT('Ctrl Pts',(44.9596500544993,87.4785837296275,28.3534474939887));
#1413=CARTESIAN_POINT('Ctrl Pts',(44.944813892202,87.2201434067679,28.8363810069421));
#1414=CARTESIAN_POINT('Ctrl Pts',(44.9322442504242,87.1219646175362,29.1063786245092));
#1415=CARTESIAN_POINT('Ctrl Pts',(44.887274798138,86.9978064724507,29.7002442620458));
#1416=CARTESIAN_POINT('Ctrl Pts',(44.8528090320102,86.9831940158642,30.0219017394382));
#1417=CARTESIAN_POINT('Ctrl Pts',(44.747357485411,87.0571097180996,30.6725928418605));
#1418=CARTESIAN_POINT('Ctrl Pts',(44.6754760853708,87.150275346126,30.9935341755275));
#1419=CARTESIAN_POINT('Ctrl Pts',(44.5340541386919,87.3640193526272,31.4421939174252));
#1420=CARTESIAN_POINT('Ctrl Pts',(44.4809546968758,87.4484069796247,31.5864321782082));
#1421=CARTESIAN_POINT('Ctrl Pts',(44.3798665277814,87.6132614640306,31.8216172744579));
#1422=CARTESIAN_POINT('Ctrl Pts',(44.3343769128864,87.6886500220773,31.9162715215806));
#1423=CARTESIAN_POINT('Ctrl Pts',(44.2372609040516,87.8511939206561,32.0970831852983));
#1424=CARTESIAN_POINT('Ctrl Pts',(44.1856216213979,87.9384061944899,32.1827883207894));
#1425=CARTESIAN_POINT('Ctrl Pts',(44.054682025924,88.1608806226541,32.3765059649316));
#1426=CARTESIAN_POINT('Ctrl Pts',(43.9732521596637,88.3002828572404,32.4779177418696));
#1427=CARTESIAN_POINT('Ctrl Pts',(43.7142919728494,88.7467608180014,32.7482368462733));
#1428=CARTESIAN_POINT('Ctrl Pts',(43.5263467496484,89.0742932682943,32.8744476225523));
#1429=CARTESIAN_POINT('Ctrl Pts',(43.2317237315661,89.60779181111,32.9808676257794));
#1430=CARTESIAN_POINT('Ctrl Pts',(43.1256317914054,89.8043822659044,32.9999999999989));
#1431=CARTESIAN_POINT('Ctrl Pts',(43.0243615982656,89.9999999999835,33.));
#1432=CARTESIAN_POINT('Ctrl Pts',(43.0243615982656,89.9999999999835,33.));
#1433=CARTESIAN_POINT('Ctrl Pts',(42.903575491532,90.2333154877387,33.0000000000013));
#1434=CARTESIAN_POINT('Ctrl Pts',(42.7896591098079,90.4652526576384,32.9727787565732));
#1435=CARTESIAN_POINT('Ctrl Pts',(42.550415442793,91.0013443046773,32.8458645180688));
#1436=CARTESIAN_POINT('Ctrl Pts',(42.4329196242611,91.3085819371309,32.7209004565898));
#1437=CARTESIAN_POINT('Ctrl Pts',(42.2946526500328,91.8433040815989,32.384780961067));
#1438=CARTESIAN_POINT('Ctrl Pts',(42.2646953941135,92.0685158838774,32.1933241757694));
#1439=CARTESIAN_POINT('Ctrl Pts',(42.2853287331614,92.473796618243,31.7268532376194));
#1440=CARTESIAN_POINT('Ctrl Pts',(42.3408286832375,92.6388277734616,31.4597931312698));
#1441=CARTESIAN_POINT('Ctrl Pts',(42.544394107959,92.9141699103005,30.8143699372743));
#1442=CARTESIAN_POINT('Ctrl Pts',(42.7102112369953,92.9911641335515,30.4359335945117));
#1443=CARTESIAN_POINT('Ctrl Pts',(43.0784219891488,93.0075056527693,29.6905039655561));
#1444=CARTESIAN_POINT('Ctrl Pts',(43.2829535880245,92.9452612079054,29.3197622538316));
#1445=CARTESIAN_POINT('Ctrl Pts',(43.6447178787248,92.7154422998406,28.6899070704016));
#1446=CARTESIAN_POINT('Ctrl Pts',(43.8045475078329,92.5696493286753,28.4215265319938));
#1447=CARTESIAN_POINT('Ctrl Pts',(44.0279545453513,92.2892832591274,28.0550544857146));
#1448=CARTESIAN_POINT('Ctrl Pts',(44.0996934263756,92.1856404638409,27.9390171464393));
#1449=CARTESIAN_POINT('Ctrl Pts',(44.2190371738849,91.9869217549805,27.7492228261102));
#1450=CARTESIAN_POINT('Ctrl Pts',(44.2681202443579,91.89632170493,27.6722682451445));
#1451=CARTESIAN_POINT('Ctrl Pts',(44.3634433235757,91.7009103205047,27.5256548763515));
#1452=CARTESIAN_POINT('Ctrl Pts',(44.4093889895562,91.5959268135,27.4565597194676));
#1453=CARTESIAN_POINT('Ctrl Pts',(44.5156694547227,91.3246879047016,27.3019278222645));
#1454=CARTESIAN_POINT('Ctrl Pts',(44.5723995157356,91.1535883407993,27.2241614667671));
#1455=CARTESIAN_POINT('Ctrl Pts',(44.7217702464391,90.6200739805213,27.0410229321251));
#1456=CARTESIAN_POINT('Ctrl Pts',(44.7930620454627,90.2421688767377,26.9851881530535));
#1457=CARTESIAN_POINT('Ctrl Pts',(44.8927141044445,89.4822278750192,27.0211396946287));
#1458=CARTESIAN_POINT('Ctrl Pts',(44.9210661280257,89.1106910749792,27.109720968992));
#1459=CARTESIAN_POINT('Ctrl Pts',(44.9563249797818,88.4057534267711,27.4283997954425));
#1460=CARTESIAN_POINT('Ctrl Pts',(44.9626551836013,88.0815836674934,27.6599683147814));
#1461=CARTESIAN_POINT('Ctrl Pts',(44.9626551836013,87.8113883875797,27.948176613356));
#1462=CARTESIAN_POINT('Origin',(34.9999999999997,37.9999999999998,25.0000000000004));
#1463=CARTESIAN_POINT('',(44.9999999999997,38.,-39.9999999999996));
#1464=CARTESIAN_POINT('Origin',(34.9999999999997,38.,-39.9999999999996));
#1465=CARTESIAN_POINT('',(44.9999999999997,37.9999999999997,40.0000000000004));
#1466=CARTESIAN_POINT('',(44.9999999999997,37.9999999999998,25.0000000000004));
#1467=CARTESIAN_POINT('Origin',(34.9999999999997,37.9999999999997,40.0000000000004));
#1468=CARTESIAN_POINT('',(34.9999999999997,27.9999999999997,50.0000000000004));
#1469=CARTESIAN_POINT('Origin',(34.9999999999997,37.9999999999997,40.0000000000004));
#1470=CARTESIAN_POINT('',(34.9999999999998,28.,-49.9999999999997));
#1471=CARTESIAN_POINT('',(34.9999999999997,27.9999999999998,25.0000000000004));
#1472=CARTESIAN_POINT('Origin',(34.9999999999997,38.,-39.9999999999996));
#1473=CARTESIAN_POINT('Origin',(44.9999999999997,27.9999999999997,50.0000000000004));
#1474=CARTESIAN_POINT('',(44.9999999999997,58.,-39.9999999999995));
#1475=CARTESIAN_POINT('',(44.9999999999997,28.,-39.9999999999997));
#1476=CARTESIAN_POINT('',(44.9999999999997,57.9999999999997,40.0000000000005));
#1477=CARTESIAN_POINT('Origin',(44.9999999999997,57.9999999999999,4.66244733614054E-13));
#1478=CARTESIAN_POINT('',(44.9999999999997,27.9999999999997,40.0000000000004));
#1479=CARTESIAN_POINT('Origin',(34.9999999999997,28.,-39.9999999999997));
#1480=CARTESIAN_POINT('',(34.9999999999997,58.,-49.9999999999996));
#1481=CARTESIAN_POINT('',(34.9999999999998,28.,-49.9999999999997));
#1482=CARTESIAN_POINT('Origin',(34.9999999999997,58.,-39.9999999999995));
#1483=CARTESIAN_POINT('Origin',(34.9999999999997,57.9999999999999,4.60693618490929E-13));
#1484=CARTESIAN_POINT('',(34.9999999999997,57.9999999999997,50.0000000000005));
#1485=CARTESIAN_POINT('Origin',(34.9999999999997,57.9999999999999,4.60693618490929E-13));
#1486=CARTESIAN_POINT('Origin',(34.9999999999997,57.9999999999997,40.0000000000005));
#1487=CARTESIAN_POINT('Origin',(34.9999999999997,27.9999999999997,40.0000000000004));
#1488=CARTESIAN_POINT('',(34.9999999999997,27.9999999999997,50.0000000000004));
#1489=CARTESIAN_POINT('Origin',(34.9999999999997,67.9999999999999,4.8494030526542E-13));
#1490=UNCERTAINTY_MEASURE_WITH_UNIT(LENGTH_MEASURE(0.01),#1494,
'DISTANCE_ACCURACY_VALUE',
'Maximum model space distance between geometric entities at asserted c
onnectivities');
#1491=UNCERTAINTY_MEASURE_WITH_UNIT(LENGTH_MEASURE(0.01),#1494,
'DISTANCE_ACCURACY_VALUE',
'Maximum model space distance between geometric entities at asserted c
onnectivities');
#1492=(
GEOMETRIC_REPRESENTATION_CONTEXT(3)
GLOBAL_UNCERTAINTY_ASSIGNED_CONTEXT((#1490))
GLOBAL_UNIT_ASSIGNED_CONTEXT((#1494,#1496,#1497))
REPRESENTATION_CONTEXT('','3D')
);
#1493=(
GEOMETRIC_REPRESENTATION_CONTEXT(3)
GLOBAL_UNCERTAINTY_ASSIGNED_CONTEXT((#1491))
GLOBAL_UNIT_ASSIGNED_CONTEXT((#1494,#1496,#1497))
REPRESENTATION_CONTEXT('','3D')
);
#1494=(
LENGTH_UNIT()
NAMED_UNIT(*)
SI_UNIT(.MILLI.,.METRE.)
);
#1495=(
LENGTH_UNIT()
NAMED_UNIT(*)
SI_UNIT($,.METRE.)
);
#1496=(
NAMED_UNIT(*)
PLANE_ANGLE_UNIT()
SI_UNIT($,.RADIAN.)
);
#1497=(
NAMED_UNIT(*)
SI_UNIT($,.STERADIAN.)
SOLID_ANGLE_UNIT()
);
#1498=SHAPE_DEFINITION_REPRESENTATION(#1499,#1500);
#1499=PRODUCT_DEFINITION_SHAPE('',$,#1502);
#1500=SHAPE_REPRESENTATION('',(#773),#1492);
#1501=PRODUCT_DEFINITION_CONTEXT('part definition',#1506,'design');
#1502=PRODUCT_DEFINITION('Cover','Cover',#1503,#1501);
#1503=PRODUCT_DEFINITION_FORMATION('',$,#1508);
#1504=PRODUCT_RELATED_PRODUCT_CATEGORY('Cover','Cover',(#1508));
#1505=APPLICATION_PROTOCOL_DEFINITION('international standard',
'automotive_design',2009,#1506);
#1506=APPLICATION_CONTEXT(
'Core Data for Automotive Mechanical Design Process');
#1507=PRODUCT_CONTEXT('part definition',#1506,'mechanical');
#1508=PRODUCT('Cover','Cover',$,(#1507));
#1509=PRESENTATION_STYLE_ASSIGNMENT((#1511));
#1510=PRESENTATION_STYLE_ASSIGNMENT((#1512));
#1511=SURFACE_STYLE_USAGE(.BOTH.,#1513);
#1512=SURFACE_STYLE_USAGE(.BOTH.,#1514);
#1513=SURFACE_SIDE_STYLE('',(#1515));
#1514=SURFACE_SIDE_STYLE('',(#1516));
#1515=SURFACE_STYLE_FILL_AREA(#1517);
#1516=SURFACE_STYLE_FILL_AREA(#1518);
#1517=FILL_AREA_STYLE('Steel - Satin',(#1519));
#1518=FILL_AREA_STYLE('Plastic - Translucent Matte (Blue)(1)',(#1520));
#1519=FILL_AREA_STYLE_COLOUR('Steel - Satin',#1521);
#1520=FILL_AREA_STYLE_COLOUR('Plastic - Translucent Matte (Blue)(1)',#1522);
#1521=COLOUR_RGB('Steel - Satin',0.627450980392157,0.627450980392157,0.627450980392157);
#1522=COLOUR_RGB('Plastic - Translucent Matte (Blue)(1)',0.,0.,0.);
ENDSEC;
END-ISO-10303-21;
