ISO-10303-21;
HEADER;
/* Generated by software containing ST-Developer
 * from STEP Tools, Inc. (www.steptools.com) 
 */

FILE_DESCRIPTION(
/* description */ (''),
/* implementation_level */ '2;1');

FILE_NAME(
/* name */ 'Joint 1 cover.Stl.stp',
/* time_stamp */ '2026-04-07T00:57:43+02:00',
/* author */ ('mo'),
/* organization */ (''),
/* preprocessor_version */ 'ST-DEVELOPER v20.1',
/* originating_system */ 'Autodesk Inventor 2026',
/* authorisation */ '');

FILE_SCHEMA (('AUTOMOTIVE_DESIGN { 1 0 10303 214 3 1 1 }'));
ENDSEC;

DATA;
#10=MECHANICAL_DESIGN_GEOMETRIC_PRESENTATION_REPRESENTATION('',(#13),#1510);
#11=SHAPE_REPRESENTATION_RELATIONSHIP('SRR','None',#1517,#12);
#12=ADVANCED_BREP_SHAPE_REPRESENTATION('',(#14),#1509);
#13=STYLED_ITEM('',(#1527),#14);
#14=MANIFOLD_SOLID_BREP('Solid1',#760);
#15=TOROIDAL_SURFACE('',#868,40.,10.);
#16=ELLIPSE('',#860,14.1421356237309,10.);
#17=ELLIPSE('',#861,14.1421356237309,10.);
#18=ELLIPSE('',#862,14.1421356237309,10.);
#19=ELLIPSE('',#863,14.1421356237309,10.);
#20=B_SPLINE_CURVE_WITH_KNOTS('',3,(#1250,#1251,#1252,#1253,#1254,#1255,
#1256,#1257,#1258,#1259,#1260,#1261,#1262,#1263,#1264,#1265,#1266,#1267,
#1268,#1269,#1270),.UNSPECIFIED.,.F.,.F.,(4,2,2,2,3,2,2,2,2,4),(1.74474355151899,
1.76365764192286,1.88131209601461,1.94013932306049,1.99896655010637,2.05779377715224,
2.11662100419812,2.23427545828988,2.38065402883521,2.52703259938054),
 .UNSPECIFIED.);
#21=B_SPLINE_CURVE_WITH_KNOTS('',3,(#1272,#1273,#1274,#1275,#1276,#1277,
#1278,#1279,#1280,#1281,#1282,#1283,#1284,#1285,#1286,#1287,#1288,#1289,
#1290,#1291,#1292,#1293,#1294,#1295,#1296),.UNSPECIFIED.,.F.,.F.,(4,2,2,
2,2,2,2,3,2,2,2,4),(1.22719582247158,1.34743251280167,1.47090057290926,
1.61727916264896,1.76365775238867,1.8813122103214,1.94013943928776,1.99896666825413,
2.05779389722049,2.11662112618685,2.23427558411958,2.25318988476786),
 .UNSPECIFIED.);
#22=B_SPLINE_CURVE_WITH_KNOTS('',3,(#1297,#1298,#1299,#1300,#1301,#1302),
 .UNSPECIFIED.,.F.,.F.,(4,2,4),(2.52703259938054,2.6505006523543,2.77073717083997),
 .UNSPECIFIED.);
#23=B_SPLINE_CURVE_WITH_KNOTS('',3,(#1307,#1308,#1309,#1310,#1311,#1312,
#1313,#1314,#1315,#1316,#1317,#1318),.UNSPECIFIED.,.F.,.F.,(4,2,2,2,2,4),
(-1.9915582055874,-1.98721647558296,-1.9576661434378,-1.91404179527869,
-1.81710057540394,-1.74501936698113),.UNSPECIFIED.);
#24=B_SPLINE_CURVE_WITH_KNOTS('',3,(#1319,#1320,#1321,#1322,#1323,#1324,
#1325,#1326,#1327,#1328,#1329,#1330,#1331,#1332,#1333,#1334,#1335,#1336,
#1337,#1338,#1339,#1340,#1341,#1342,#1343,#1344,#1345,#1346,#1347,#1348,
#1349,#1350,#1351,#1352,#1353,#1354,#1355,#1356,#1357,#1358,#1359,#1360,
#1361,#1362),.UNSPECIFIED.,.F.,.F.,(4,2,2,2,2,2,2,2,2,2,2,2,2,2,2,2,2,2,
2,2,2,4),(-1.74501936698113,-1.70464099614497,-1.58620857692806,-1.45431479596892,
-1.31461410227096,-1.19830167767708,-1.11100332526211,-1.04319239202744,
-1.01442477773176,-0.993629181465924,-0.972149995774434,-0.939999380166883,
-0.857785496823502,-0.749149693673497,-0.600072892681098,-0.467710469633275,
-0.354383306981771,-0.251207535676939,-0.155515465026585,-0.0686216766746396,
-0.02870126274457,0.),.UNSPECIFIED.);
#25=B_SPLINE_CURVE_WITH_KNOTS('',3,(#1367,#1368,#1369,#1370,#1371,#1372,
#1373,#1374,#1375,#1376),.UNSPECIFIED.,.F.,.F.,(4,2,2,2,4),(0.74526011761232,
0.764174418261573,0.881828876194299,0.940656105160662,0.999483334127025),
 .UNSPECIFIED.);
#26=B_SPLINE_CURVE_WITH_KNOTS('',3,(#1378,#1379,#1380,#1381,#1382,#1383,
#1384,#1385,#1386,#1387,#1388,#1389,#1390,#1391,#1392,#1393,#1394,#1395,
#1396,#1397,#1398,#1399,#1400,#1401,#1402),.UNSPECIFIED.,.F.,.F.,(4,2,2,
2,2,2,2,3,2,2,2,4),(1.22719592937272,1.34743244785842,1.47090050083218,
1.6172790713775,1.76365764192283,1.88131209601458,1.94013932306046,1.99896655010634,
2.05779377715221,2.11662100419809,2.23427545828984,2.25318954869273),
 .UNSPECIFIED.);
#27=B_SPLINE_CURVE_WITH_KNOTS('',3,(#1403,#1404,#1405,#1406,#1407,#1408,
#1409,#1410,#1411,#1412,#1413,#1414,#1415,#1416,#1417,#1418),
 .UNSPECIFIED.,.F.,.F.,(4,2,2,2,2,2,2,4),(0.999483334127025,1.05831056309339,
1.11713779205975,1.23479224999248,1.38117083973217,1.52754942947187,1.65101748957945,
1.7712541799095),.UNSPECIFIED.);
#28=B_SPLINE_CURVE_WITH_KNOTS('',3,(#1423,#1424,#1425,#1426,#1427,#1428,
#1429,#1430,#1431,#1432,#1433,#1434,#1435,#1436,#1437,#1438,#1439,#1440,
#1441,#1442),.UNSPECIFIED.,.F.,.F.,(4,2,2,2,2,2,2,2,2,4),(-1.99155820595994,
-1.98721647595441,-1.95766614379856,-1.91404179562443,-1.81710057571774,
-1.70464099642343,-1.58620857717113,-1.4543147961746,-1.31461410243913,
-1.25526712468601),.UNSPECIFIED.);
#29=B_SPLINE_CURVE_WITH_KNOTS('',3,(#1443,#1444,#1445,#1446,#1447,#1448,
#1449,#1450,#1451,#1452,#1453,#1454,#1455,#1456,#1457,#1458,#1459,#1460,
#1461,#1462,#1463,#1464,#1465,#1466,#1467,#1468,#1469,#1470,#1471,#1472,
#1473,#1474,#1475,#1476,#1477,#1478),.UNSPECIFIED.,.F.,.F.,(4,2,2,2,2,2,
2,2,2,2,2,2,2,2,2,2,2,4),(-1.25526712468601,-1.19830167781578,-1.11100332538005,
-1.04319239213019,-1.01442477782852,-0.993629181558772,-0.972149995863543,
-0.939999380250701,-0.857785496895292,-0.749149693731072,-0.600072892721348,
-0.467710469660171,-0.354383306998944,-0.251207535686888,-0.155515465031296,
-0.0686216766758515,-0.0287012627447997,0.),.UNSPECIFIED.);
#30=FACE_BOUND('',#121,.T.);
#31=FACE_BOUND('',#124,.T.);
#32=FACE_BOUND('',#127,.T.);
#33=FACE_BOUND('',#130,.T.);
#34=FACE_BOUND('',#151,.T.);
#35=FACE_BOUND('',#152,.T.);
#36=FACE_BOUND('',#153,.T.);
#37=FACE_BOUND('',#154,.T.);
#38=FACE_BOUND('',#155,.T.);
#39=FACE_BOUND('',#156,.T.);
#40=FACE_BOUND('',#157,.T.);
#41=FACE_BOUND('',#158,.T.);
#42=FACE_BOUND('',#159,.T.);
#43=FACE_BOUND('',#160,.T.);
#44=FACE_BOUND('',#161,.T.);
#45=FACE_BOUND('',#162,.T.);
#46=FACE_BOUND('',#163,.T.);
#47=FACE_BOUND('',#164,.T.);
#48=FACE_BOUND('',#165,.T.);
#49=FACE_BOUND('',#172,.T.);
#50=FACE_BOUND('',#173,.T.);
#51=FACE_BOUND('',#174,.T.);
#52=FACE_BOUND('',#175,.T.);
#53=FACE_BOUND('',#176,.T.);
#54=FACE_BOUND('',#177,.T.);
#55=FACE_BOUND('',#178,.T.);
#56=FACE_BOUND('',#179,.T.);
#57=FACE_BOUND('',#180,.T.);
#58=FACE_BOUND('',#181,.T.);
#59=FACE_BOUND('',#182,.T.);
#60=FACE_BOUND('',#183,.T.);
#61=FACE_BOUND('',#184,.T.);
#62=FACE_BOUND('',#185,.T.);
#63=FACE_BOUND('',#186,.T.);
#64=FACE_BOUND('',#189,.T.);
#65=FACE_BOUND('',#190,.T.);
#66=FACE_BOUND('',#193,.T.);
#67=FACE_BOUND('',#194,.T.);
#68=FACE_BOUND('',#195,.T.);
#69=FACE_BOUND('',#196,.T.);
#70=FACE_BOUND('',#197,.T.);
#71=PLANE('',#786);
#72=PLANE('',#791);
#73=PLANE('',#796);
#74=PLANE('',#801);
#75=PLANE('',#848);
#76=PLANE('',#849);
#77=PLANE('',#853);
#78=PLANE('',#854);
#79=PLANE('',#864);
#80=PLANE('',#872);
#81=FACE_OUTER_BOUND('',#119,.T.);
#82=FACE_OUTER_BOUND('',#120,.T.);
#83=FACE_OUTER_BOUND('',#122,.T.);
#84=FACE_OUTER_BOUND('',#123,.T.);
#85=FACE_OUTER_BOUND('',#125,.T.);
#86=FACE_OUTER_BOUND('',#126,.T.);
#87=FACE_OUTER_BOUND('',#128,.T.);
#88=FACE_OUTER_BOUND('',#129,.T.);
#89=FACE_OUTER_BOUND('',#131,.T.);
#90=FACE_OUTER_BOUND('',#132,.T.);
#91=FACE_OUTER_BOUND('',#133,.T.);
#92=FACE_OUTER_BOUND('',#134,.T.);
#93=FACE_OUTER_BOUND('',#135,.T.);
#94=FACE_OUTER_BOUND('',#136,.T.);
#95=FACE_OUTER_BOUND('',#137,.T.);
#96=FACE_OUTER_BOUND('',#138,.T.);
#97=FACE_OUTER_BOUND('',#139,.T.);
#98=FACE_OUTER_BOUND('',#140,.T.);
#99=FACE_OUTER_BOUND('',#141,.T.);
#100=FACE_OUTER_BOUND('',#142,.T.);
#101=FACE_OUTER_BOUND('',#143,.T.);
#102=FACE_OUTER_BOUND('',#144,.T.);
#103=FACE_OUTER_BOUND('',#145,.T.);
#104=FACE_OUTER_BOUND('',#146,.T.);
#105=FACE_OUTER_BOUND('',#147,.T.);
#106=FACE_OUTER_BOUND('',#148,.T.);
#107=FACE_OUTER_BOUND('',#149,.T.);
#108=FACE_OUTER_BOUND('',#150,.T.);
#109=FACE_OUTER_BOUND('',#166,.T.);
#110=FACE_OUTER_BOUND('',#167,.T.);
#111=FACE_OUTER_BOUND('',#168,.T.);
#112=FACE_OUTER_BOUND('',#169,.T.);
#113=FACE_OUTER_BOUND('',#170,.T.);
#114=FACE_OUTER_BOUND('',#171,.T.);
#115=FACE_OUTER_BOUND('',#187,.T.);
#116=FACE_OUTER_BOUND('',#188,.T.);
#117=FACE_OUTER_BOUND('',#191,.T.);
#118=FACE_OUTER_BOUND('',#192,.T.);
#119=EDGE_LOOP('',(#493,#494,#495,#496));
#120=EDGE_LOOP('',(#497));
#121=EDGE_LOOP('',(#498));
#122=EDGE_LOOP('',(#499,#500,#501,#502));
#123=EDGE_LOOP('',(#503));
#124=EDGE_LOOP('',(#504));
#125=EDGE_LOOP('',(#505,#506,#507,#508));
#126=EDGE_LOOP('',(#509));
#127=EDGE_LOOP('',(#510));
#128=EDGE_LOOP('',(#511,#512,#513,#514));
#129=EDGE_LOOP('',(#515));
#130=EDGE_LOOP('',(#516));
#131=EDGE_LOOP('',(#517,#518,#519,#520));
#132=EDGE_LOOP('',(#521,#522,#523,#524));
#133=EDGE_LOOP('',(#525,#526,#527,#528));
#134=EDGE_LOOP('',(#529,#530,#531,#532));
#135=EDGE_LOOP('',(#533,#534,#535,#536));
#136=EDGE_LOOP('',(#537,#538,#539,#540));
#137=EDGE_LOOP('',(#541,#542,#543,#544));
#138=EDGE_LOOP('',(#545,#546,#547,#548));
#139=EDGE_LOOP('',(#549,#550,#551,#552));
#140=EDGE_LOOP('',(#553,#554,#555,#556));
#141=EDGE_LOOP('',(#557,#558,#559,#560));
#142=EDGE_LOOP('',(#561,#562,#563,#564));
#143=EDGE_LOOP('',(#565,#566,#567,#568));
#144=EDGE_LOOP('',(#569,#570,#571,#572));
#145=EDGE_LOOP('',(#573,#574,#575,#576));
#146=EDGE_LOOP('',(#577,#578,#579,#580));
#147=EDGE_LOOP('',(#581,#582,#583,#584));
#148=EDGE_LOOP('',(#585,#586,#587,#588));
#149=EDGE_LOOP('',(#589,#590,#591,#592));
#150=EDGE_LOOP('',(#593,#594,#595,#596));
#151=EDGE_LOOP('',(#597));
#152=EDGE_LOOP('',(#598));
#153=EDGE_LOOP('',(#599));
#154=EDGE_LOOP('',(#600));
#155=EDGE_LOOP('',(#601));
#156=EDGE_LOOP('',(#602));
#157=EDGE_LOOP('',(#603));
#158=EDGE_LOOP('',(#604));
#159=EDGE_LOOP('',(#605));
#160=EDGE_LOOP('',(#606));
#161=EDGE_LOOP('',(#607));
#162=EDGE_LOOP('',(#608));
#163=EDGE_LOOP('',(#609));
#164=EDGE_LOOP('',(#610));
#165=EDGE_LOOP('',(#611));
#166=EDGE_LOOP('',(#612,#613,#614,#615,#616,#617));
#167=EDGE_LOOP('',(#618,#619,#620,#621,#622));
#168=EDGE_LOOP('',(#623,#624,#625,#626,#627,#628));
#169=EDGE_LOOP('',(#629,#630,#631,#632,#633));
#170=EDGE_LOOP('',(#634,#635,#636,#637,#638,#639,#640,#641,#642));
#171=EDGE_LOOP('',(#643,#644,#645,#646));
#172=EDGE_LOOP('',(#647));
#173=EDGE_LOOP('',(#648));
#174=EDGE_LOOP('',(#649));
#175=EDGE_LOOP('',(#650));
#176=EDGE_LOOP('',(#651));
#177=EDGE_LOOP('',(#652));
#178=EDGE_LOOP('',(#653));
#179=EDGE_LOOP('',(#654));
#180=EDGE_LOOP('',(#655));
#181=EDGE_LOOP('',(#656));
#182=EDGE_LOOP('',(#657));
#183=EDGE_LOOP('',(#658));
#184=EDGE_LOOP('',(#659));
#185=EDGE_LOOP('',(#660));
#186=EDGE_LOOP('',(#661));
#187=EDGE_LOOP('',(#662,#663,#664,#665,#666,#667));
#188=EDGE_LOOP('',(#668,#669,#670,#671));
#189=EDGE_LOOP('',(#672,#673));
#190=EDGE_LOOP('',(#674,#675));
#191=EDGE_LOOP('',(#676,#677,#678,#679,#680,#681,#682));
#192=EDGE_LOOP('',(#683,#684,#685,#686));
#193=EDGE_LOOP('',(#687));
#194=EDGE_LOOP('',(#688));
#195=EDGE_LOOP('',(#689));
#196=EDGE_LOOP('',(#690));
#197=EDGE_LOOP('',(#691,#692,#693,#694));
#198=LINE('',#1099,#237);
#199=LINE('',#1108,#238);
#200=LINE('',#1117,#239);
#201=LINE('',#1126,#240);
#202=LINE('',#1135,#241);
#203=LINE('',#1141,#242);
#204=LINE('',#1147,#243);
#205=LINE('',#1153,#244);
#206=LINE('',#1159,#245);
#207=LINE('',#1165,#246);
#208=LINE('',#1171,#247);
#209=LINE('',#1177,#248);
#210=LINE('',#1183,#249);
#211=LINE('',#1189,#250);
#212=LINE('',#1195,#251);
#213=LINE('',#1201,#252);
#214=LINE('',#1207,#253);
#215=LINE('',#1213,#254);
#216=LINE('',#1219,#255);
#217=LINE('',#1224,#256);
#218=LINE('',#1226,#257);
#219=LINE('',#1228,#258);
#220=LINE('',#1229,#259);
#221=LINE('',#1232,#260);
#222=LINE('',#1234,#261);
#223=LINE('',#1235,#262);
#224=LINE('',#1240,#263);
#225=LINE('',#1243,#264);
#226=LINE('',#1244,#265);
#227=LINE('',#1248,#266);
#228=LINE('',#1305,#267);
#229=LINE('',#1365,#268);
#230=LINE('',#1421,#269);
#231=LINE('',#1483,#270);
#232=LINE('',#1488,#271);
#233=LINE('',#1492,#272);
#234=LINE('',#1495,#273);
#235=LINE('',#1498,#274);
#236=LINE('',#1505,#275);
#237=VECTOR('',#879,1.6);
#238=VECTOR('',#890,1.6);
#239=VECTOR('',#901,1.6);
#240=VECTOR('',#912,1.6);
#241=VECTOR('',#923,2.5);
#242=VECTOR('',#930,2.5);
#243=VECTOR('',#937,2.5);
#244=VECTOR('',#944,2.5);
#245=VECTOR('',#951,2.5);
#246=VECTOR('',#958,2.5);
#247=VECTOR('',#965,2.5);
#248=VECTOR('',#972,2.5);
#249=VECTOR('',#979,2.5);
#250=VECTOR('',#986,2.5);
#251=VECTOR('',#993,2.5);
#252=VECTOR('',#1000,2.5);
#253=VECTOR('',#1007,2.5);
#254=VECTOR('',#1014,2.5);
#255=VECTOR('',#1021,2.5);
#256=VECTOR('',#1026,10.);
#257=VECTOR('',#1027,10.);
#258=VECTOR('',#1028,10.);
#259=VECTOR('',#1029,10.);
#260=VECTOR('',#1032,10.);
#261=VECTOR('',#1033,10.);
#262=VECTOR('',#1034,10.);
#263=VECTOR('',#1039,10.);
#264=VECTOR('',#1044,10.);
#265=VECTOR('',#1045,10.);
#266=VECTOR('',#1050,3.);
#267=VECTOR('',#1053,3.);
#268=VECTOR('',#1056,3.);
#269=VECTOR('',#1059,3.);
#270=VECTOR('',#1064,10.);
#271=VECTOR('',#1069,10.);
#272=VECTOR('',#1074,10.);
#273=VECTOR('',#1077,10.);
#274=VECTOR('',#1080,10.);
#275=VECTOR('',#1091,10.);
#276=CIRCLE('',#784,1.6);
#277=CIRCLE('',#785,1.6);
#278=CIRCLE('',#787,3.);
#279=CIRCLE('',#789,1.6);
#280=CIRCLE('',#790,1.6);
#281=CIRCLE('',#792,3.);
#282=CIRCLE('',#794,1.6);
#283=CIRCLE('',#795,1.6);
#284=CIRCLE('',#797,3.);
#285=CIRCLE('',#799,1.6);
#286=CIRCLE('',#800,1.6);
#287=CIRCLE('',#802,3.);
#288=CIRCLE('',#804,2.5);
#289=CIRCLE('',#805,2.5);
#290=CIRCLE('',#807,2.5);
#291=CIRCLE('',#808,2.5);
#292=CIRCLE('',#810,2.5);
#293=CIRCLE('',#811,2.5);
#294=CIRCLE('',#813,2.5);
#295=CIRCLE('',#814,2.5);
#296=CIRCLE('',#816,2.5);
#297=CIRCLE('',#817,2.5);
#298=CIRCLE('',#819,2.5);
#299=CIRCLE('',#820,2.5);
#300=CIRCLE('',#822,2.5);
#301=CIRCLE('',#823,2.5);
#302=CIRCLE('',#825,2.5);
#303=CIRCLE('',#826,2.5);
#304=CIRCLE('',#828,2.5);
#305=CIRCLE('',#829,2.5);
#306=CIRCLE('',#831,2.5);
#307=CIRCLE('',#832,2.5);
#308=CIRCLE('',#834,2.5);
#309=CIRCLE('',#835,2.5);
#310=CIRCLE('',#837,2.5);
#311=CIRCLE('',#838,2.5);
#312=CIRCLE('',#840,2.5);
#313=CIRCLE('',#841,2.5);
#314=CIRCLE('',#843,2.5);
#315=CIRCLE('',#844,2.5);
#316=CIRCLE('',#846,2.5);
#317=CIRCLE('',#847,2.5);
#318=CIRCLE('',#851,38.);
#319=CIRCLE('',#852,38.);
#320=CIRCLE('',#865,40.);
#321=CIRCLE('',#867,10.);
#322=CIRCLE('',#869,50.);
#323=CIRCLE('',#870,10.);
#324=VERTEX_POINT('',#1096);
#325=VERTEX_POINT('',#1098);
#326=VERTEX_POINT('',#1102);
#327=VERTEX_POINT('',#1105);
#328=VERTEX_POINT('',#1107);
#329=VERTEX_POINT('',#1111);
#330=VERTEX_POINT('',#1114);
#331=VERTEX_POINT('',#1116);
#332=VERTEX_POINT('',#1120);
#333=VERTEX_POINT('',#1123);
#334=VERTEX_POINT('',#1125);
#335=VERTEX_POINT('',#1129);
#336=VERTEX_POINT('',#1132);
#337=VERTEX_POINT('',#1134);
#338=VERTEX_POINT('',#1138);
#339=VERTEX_POINT('',#1140);
#340=VERTEX_POINT('',#1144);
#341=VERTEX_POINT('',#1146);
#342=VERTEX_POINT('',#1150);
#343=VERTEX_POINT('',#1152);
#344=VERTEX_POINT('',#1156);
#345=VERTEX_POINT('',#1158);
#346=VERTEX_POINT('',#1162);
#347=VERTEX_POINT('',#1164);
#348=VERTEX_POINT('',#1168);
#349=VERTEX_POINT('',#1170);
#350=VERTEX_POINT('',#1174);
#351=VERTEX_POINT('',#1176);
#352=VERTEX_POINT('',#1180);
#353=VERTEX_POINT('',#1182);
#354=VERTEX_POINT('',#1186);
#355=VERTEX_POINT('',#1188);
#356=VERTEX_POINT('',#1192);
#357=VERTEX_POINT('',#1194);
#358=VERTEX_POINT('',#1198);
#359=VERTEX_POINT('',#1200);
#360=VERTEX_POINT('',#1204);
#361=VERTEX_POINT('',#1206);
#362=VERTEX_POINT('',#1210);
#363=VERTEX_POINT('',#1212);
#364=VERTEX_POINT('',#1216);
#365=VERTEX_POINT('',#1218);
#366=VERTEX_POINT('',#1222);
#367=VERTEX_POINT('',#1223);
#368=VERTEX_POINT('',#1225);
#369=VERTEX_POINT('',#1227);
#370=VERTEX_POINT('',#1231);
#371=VERTEX_POINT('',#1233);
#372=VERTEX_POINT('',#1237);
#373=VERTEX_POINT('',#1239);
#374=VERTEX_POINT('',#1247);
#375=VERTEX_POINT('',#1249);
#376=VERTEX_POINT('',#1271);
#377=VERTEX_POINT('',#1304);
#378=VERTEX_POINT('',#1306);
#379=VERTEX_POINT('',#1364);
#380=VERTEX_POINT('',#1366);
#381=VERTEX_POINT('',#1377);
#382=VERTEX_POINT('',#1420);
#383=VERTEX_POINT('',#1422);
#384=VERTEX_POINT('',#1480);
#385=VERTEX_POINT('',#1482);
#386=VERTEX_POINT('',#1485);
#387=VERTEX_POINT('',#1487);
#388=VERTEX_POINT('',#1491);
#389=VERTEX_POINT('',#1493);
#390=VERTEX_POINT('',#1497);
#391=VERTEX_POINT('',#1501);
#392=EDGE_CURVE('',#324,#324,#276,.T.);
#393=EDGE_CURVE('',#324,#325,#198,.T.);
#394=EDGE_CURVE('',#325,#325,#277,.T.);
#395=EDGE_CURVE('',#326,#326,#278,.T.);
#396=EDGE_CURVE('',#327,#327,#279,.T.);
#397=EDGE_CURVE('',#327,#328,#199,.T.);
#398=EDGE_CURVE('',#328,#328,#280,.T.);
#399=EDGE_CURVE('',#329,#329,#281,.T.);
#400=EDGE_CURVE('',#330,#330,#282,.T.);
#401=EDGE_CURVE('',#330,#331,#200,.T.);
#402=EDGE_CURVE('',#331,#331,#283,.T.);
#403=EDGE_CURVE('',#332,#332,#284,.T.);
#404=EDGE_CURVE('',#333,#333,#285,.T.);
#405=EDGE_CURVE('',#333,#334,#201,.T.);
#406=EDGE_CURVE('',#334,#334,#286,.T.);
#407=EDGE_CURVE('',#335,#335,#287,.T.);
#408=EDGE_CURVE('',#336,#336,#288,.T.);
#409=EDGE_CURVE('',#336,#337,#202,.T.);
#410=EDGE_CURVE('',#337,#337,#289,.T.);
#411=EDGE_CURVE('',#338,#338,#290,.T.);
#412=EDGE_CURVE('',#338,#339,#203,.T.);
#413=EDGE_CURVE('',#339,#339,#291,.T.);
#414=EDGE_CURVE('',#340,#340,#292,.T.);
#415=EDGE_CURVE('',#340,#341,#204,.T.);
#416=EDGE_CURVE('',#341,#341,#293,.T.);
#417=EDGE_CURVE('',#342,#342,#294,.T.);
#418=EDGE_CURVE('',#342,#343,#205,.T.);
#419=EDGE_CURVE('',#343,#343,#295,.T.);
#420=EDGE_CURVE('',#344,#344,#296,.T.);
#421=EDGE_CURVE('',#344,#345,#206,.T.);
#422=EDGE_CURVE('',#345,#345,#297,.T.);
#423=EDGE_CURVE('',#346,#346,#298,.T.);
#424=EDGE_CURVE('',#346,#347,#207,.T.);
#425=EDGE_CURVE('',#347,#347,#299,.T.);
#426=EDGE_CURVE('',#348,#348,#300,.T.);
#427=EDGE_CURVE('',#348,#349,#208,.T.);
#428=EDGE_CURVE('',#349,#349,#301,.T.);
#429=EDGE_CURVE('',#350,#350,#302,.T.);
#430=EDGE_CURVE('',#350,#351,#209,.T.);
#431=EDGE_CURVE('',#351,#351,#303,.T.);
#432=EDGE_CURVE('',#352,#352,#304,.T.);
#433=EDGE_CURVE('',#352,#353,#210,.T.);
#434=EDGE_CURVE('',#353,#353,#305,.T.);
#435=EDGE_CURVE('',#354,#354,#306,.T.);
#436=EDGE_CURVE('',#354,#355,#211,.T.);
#437=EDGE_CURVE('',#355,#355,#307,.T.);
#438=EDGE_CURVE('',#356,#356,#308,.T.);
#439=EDGE_CURVE('',#356,#357,#212,.T.);
#440=EDGE_CURVE('',#357,#357,#309,.T.);
#441=EDGE_CURVE('',#358,#358,#310,.T.);
#442=EDGE_CURVE('',#358,#359,#213,.T.);
#443=EDGE_CURVE('',#359,#359,#311,.T.);
#444=EDGE_CURVE('',#360,#360,#312,.T.);
#445=EDGE_CURVE('',#360,#361,#214,.T.);
#446=EDGE_CURVE('',#361,#361,#313,.T.);
#447=EDGE_CURVE('',#362,#362,#314,.T.);
#448=EDGE_CURVE('',#362,#363,#215,.T.);
#449=EDGE_CURVE('',#363,#363,#315,.T.);
#450=EDGE_CURVE('',#364,#364,#316,.T.);
#451=EDGE_CURVE('',#364,#365,#216,.T.);
#452=EDGE_CURVE('',#365,#365,#317,.T.);
#453=EDGE_CURVE('',#366,#367,#217,.T.);
#454=EDGE_CURVE('',#366,#368,#218,.T.);
#455=EDGE_CURVE('',#368,#369,#219,.T.);
#456=EDGE_CURVE('',#367,#369,#220,.T.);
#457=EDGE_CURVE('',#370,#366,#221,.T.);
#458=EDGE_CURVE('',#370,#371,#222,.T.);
#459=EDGE_CURVE('',#371,#368,#223,.T.);
#460=EDGE_CURVE('',#372,#370,#318,.T.);
#461=EDGE_CURVE('',#372,#373,#224,.T.);
#462=EDGE_CURVE('',#373,#371,#319,.T.);
#463=EDGE_CURVE('',#367,#372,#225,.T.);
#464=EDGE_CURVE('',#369,#373,#226,.T.);
#465=EDGE_CURVE('',#332,#374,#227,.T.);
#466=EDGE_CURVE('',#375,#374,#20,.T.);
#467=EDGE_CURVE('',#376,#375,#21,.T.);
#468=EDGE_CURVE('',#374,#376,#22,.T.);
#469=EDGE_CURVE('',#335,#377,#228,.T.);
#470=EDGE_CURVE('',#378,#377,#23,.T.);
#471=EDGE_CURVE('',#377,#378,#24,.T.);
#472=EDGE_CURVE('',#326,#379,#229,.T.);
#473=EDGE_CURVE('',#380,#379,#25,.T.);
#474=EDGE_CURVE('',#381,#380,#26,.T.);
#475=EDGE_CURVE('',#379,#381,#27,.T.);
#476=EDGE_CURVE('',#329,#382,#230,.T.);
#477=EDGE_CURVE('',#383,#382,#28,.T.);
#478=EDGE_CURVE('',#382,#383,#29,.T.);
#479=EDGE_CURVE('',#376,#384,#16,.T.);
#480=EDGE_CURVE('',#384,#385,#231,.T.);
#481=EDGE_CURVE('',#385,#381,#17,.T.);
#482=EDGE_CURVE('',#380,#386,#18,.T.);
#483=EDGE_CURVE('',#386,#387,#232,.T.);
#484=EDGE_CURVE('',#387,#375,#19,.T.);
#485=EDGE_CURVE('',#388,#384,#233,.T.);
#486=EDGE_CURVE('',#389,#388,#320,.T.);
#487=EDGE_CURVE('',#385,#389,#234,.T.);
#488=EDGE_CURVE('',#387,#390,#235,.T.);
#489=EDGE_CURVE('',#388,#390,#321,.T.);
#490=EDGE_CURVE('',#390,#391,#322,.T.);
#491=EDGE_CURVE('',#389,#391,#323,.T.);
#492=EDGE_CURVE('',#391,#386,#236,.T.);
#493=ORIENTED_EDGE('',*,*,#392,.F.);
#494=ORIENTED_EDGE('',*,*,#393,.T.);
#495=ORIENTED_EDGE('',*,*,#394,.F.);
#496=ORIENTED_EDGE('',*,*,#393,.F.);
#497=ORIENTED_EDGE('',*,*,#395,.F.);
#498=ORIENTED_EDGE('',*,*,#394,.T.);
#499=ORIENTED_EDGE('',*,*,#396,.F.);
#500=ORIENTED_EDGE('',*,*,#397,.T.);
#501=ORIENTED_EDGE('',*,*,#398,.F.);
#502=ORIENTED_EDGE('',*,*,#397,.F.);
#503=ORIENTED_EDGE('',*,*,#399,.F.);
#504=ORIENTED_EDGE('',*,*,#398,.T.);
#505=ORIENTED_EDGE('',*,*,#400,.F.);
#506=ORIENTED_EDGE('',*,*,#401,.T.);
#507=ORIENTED_EDGE('',*,*,#402,.F.);
#508=ORIENTED_EDGE('',*,*,#401,.F.);
#509=ORIENTED_EDGE('',*,*,#403,.F.);
#510=ORIENTED_EDGE('',*,*,#402,.T.);
#511=ORIENTED_EDGE('',*,*,#404,.F.);
#512=ORIENTED_EDGE('',*,*,#405,.T.);
#513=ORIENTED_EDGE('',*,*,#406,.F.);
#514=ORIENTED_EDGE('',*,*,#405,.F.);
#515=ORIENTED_EDGE('',*,*,#407,.F.);
#516=ORIENTED_EDGE('',*,*,#406,.T.);
#517=ORIENTED_EDGE('',*,*,#408,.F.);
#518=ORIENTED_EDGE('',*,*,#409,.T.);
#519=ORIENTED_EDGE('',*,*,#410,.F.);
#520=ORIENTED_EDGE('',*,*,#409,.F.);
#521=ORIENTED_EDGE('',*,*,#411,.F.);
#522=ORIENTED_EDGE('',*,*,#412,.T.);
#523=ORIENTED_EDGE('',*,*,#413,.F.);
#524=ORIENTED_EDGE('',*,*,#412,.F.);
#525=ORIENTED_EDGE('',*,*,#414,.F.);
#526=ORIENTED_EDGE('',*,*,#415,.T.);
#527=ORIENTED_EDGE('',*,*,#416,.F.);
#528=ORIENTED_EDGE('',*,*,#415,.F.);
#529=ORIENTED_EDGE('',*,*,#417,.F.);
#530=ORIENTED_EDGE('',*,*,#418,.T.);
#531=ORIENTED_EDGE('',*,*,#419,.F.);
#532=ORIENTED_EDGE('',*,*,#418,.F.);
#533=ORIENTED_EDGE('',*,*,#420,.F.);
#534=ORIENTED_EDGE('',*,*,#421,.T.);
#535=ORIENTED_EDGE('',*,*,#422,.F.);
#536=ORIENTED_EDGE('',*,*,#421,.F.);
#537=ORIENTED_EDGE('',*,*,#423,.F.);
#538=ORIENTED_EDGE('',*,*,#424,.T.);
#539=ORIENTED_EDGE('',*,*,#425,.F.);
#540=ORIENTED_EDGE('',*,*,#424,.F.);
#541=ORIENTED_EDGE('',*,*,#426,.F.);
#542=ORIENTED_EDGE('',*,*,#427,.T.);
#543=ORIENTED_EDGE('',*,*,#428,.F.);
#544=ORIENTED_EDGE('',*,*,#427,.F.);
#545=ORIENTED_EDGE('',*,*,#429,.F.);
#546=ORIENTED_EDGE('',*,*,#430,.T.);
#547=ORIENTED_EDGE('',*,*,#431,.F.);
#548=ORIENTED_EDGE('',*,*,#430,.F.);
#549=ORIENTED_EDGE('',*,*,#432,.F.);
#550=ORIENTED_EDGE('',*,*,#433,.T.);
#551=ORIENTED_EDGE('',*,*,#434,.F.);
#552=ORIENTED_EDGE('',*,*,#433,.F.);
#553=ORIENTED_EDGE('',*,*,#435,.F.);
#554=ORIENTED_EDGE('',*,*,#436,.T.);
#555=ORIENTED_EDGE('',*,*,#437,.F.);
#556=ORIENTED_EDGE('',*,*,#436,.F.);
#557=ORIENTED_EDGE('',*,*,#438,.F.);
#558=ORIENTED_EDGE('',*,*,#439,.T.);
#559=ORIENTED_EDGE('',*,*,#440,.F.);
#560=ORIENTED_EDGE('',*,*,#439,.F.);
#561=ORIENTED_EDGE('',*,*,#441,.F.);
#562=ORIENTED_EDGE('',*,*,#442,.T.);
#563=ORIENTED_EDGE('',*,*,#443,.F.);
#564=ORIENTED_EDGE('',*,*,#442,.F.);
#565=ORIENTED_EDGE('',*,*,#444,.F.);
#566=ORIENTED_EDGE('',*,*,#445,.T.);
#567=ORIENTED_EDGE('',*,*,#446,.F.);
#568=ORIENTED_EDGE('',*,*,#445,.F.);
#569=ORIENTED_EDGE('',*,*,#447,.F.);
#570=ORIENTED_EDGE('',*,*,#448,.T.);
#571=ORIENTED_EDGE('',*,*,#449,.F.);
#572=ORIENTED_EDGE('',*,*,#448,.F.);
#573=ORIENTED_EDGE('',*,*,#450,.F.);
#574=ORIENTED_EDGE('',*,*,#451,.T.);
#575=ORIENTED_EDGE('',*,*,#452,.F.);
#576=ORIENTED_EDGE('',*,*,#451,.F.);
#577=ORIENTED_EDGE('',*,*,#453,.F.);
#578=ORIENTED_EDGE('',*,*,#454,.T.);
#579=ORIENTED_EDGE('',*,*,#455,.T.);
#580=ORIENTED_EDGE('',*,*,#456,.F.);
#581=ORIENTED_EDGE('',*,*,#457,.F.);
#582=ORIENTED_EDGE('',*,*,#458,.T.);
#583=ORIENTED_EDGE('',*,*,#459,.T.);
#584=ORIENTED_EDGE('',*,*,#454,.F.);
#585=ORIENTED_EDGE('',*,*,#460,.F.);
#586=ORIENTED_EDGE('',*,*,#461,.T.);
#587=ORIENTED_EDGE('',*,*,#462,.T.);
#588=ORIENTED_EDGE('',*,*,#458,.F.);
#589=ORIENTED_EDGE('',*,*,#463,.F.);
#590=ORIENTED_EDGE('',*,*,#456,.T.);
#591=ORIENTED_EDGE('',*,*,#464,.T.);
#592=ORIENTED_EDGE('',*,*,#461,.F.);
#593=ORIENTED_EDGE('',*,*,#464,.F.);
#594=ORIENTED_EDGE('',*,*,#455,.F.);
#595=ORIENTED_EDGE('',*,*,#459,.F.);
#596=ORIENTED_EDGE('',*,*,#462,.F.);
#597=ORIENTED_EDGE('',*,*,#410,.T.);
#598=ORIENTED_EDGE('',*,*,#413,.T.);
#599=ORIENTED_EDGE('',*,*,#416,.T.);
#600=ORIENTED_EDGE('',*,*,#419,.T.);
#601=ORIENTED_EDGE('',*,*,#422,.T.);
#602=ORIENTED_EDGE('',*,*,#425,.T.);
#603=ORIENTED_EDGE('',*,*,#428,.T.);
#604=ORIENTED_EDGE('',*,*,#431,.T.);
#605=ORIENTED_EDGE('',*,*,#434,.T.);
#606=ORIENTED_EDGE('',*,*,#437,.T.);
#607=ORIENTED_EDGE('',*,*,#440,.T.);
#608=ORIENTED_EDGE('',*,*,#443,.T.);
#609=ORIENTED_EDGE('',*,*,#446,.T.);
#610=ORIENTED_EDGE('',*,*,#449,.T.);
#611=ORIENTED_EDGE('',*,*,#452,.T.);
#612=ORIENTED_EDGE('',*,*,#403,.T.);
#613=ORIENTED_EDGE('',*,*,#465,.T.);
#614=ORIENTED_EDGE('',*,*,#466,.F.);
#615=ORIENTED_EDGE('',*,*,#467,.F.);
#616=ORIENTED_EDGE('',*,*,#468,.F.);
#617=ORIENTED_EDGE('',*,*,#465,.F.);
#618=ORIENTED_EDGE('',*,*,#407,.T.);
#619=ORIENTED_EDGE('',*,*,#469,.T.);
#620=ORIENTED_EDGE('',*,*,#470,.F.);
#621=ORIENTED_EDGE('',*,*,#471,.F.);
#622=ORIENTED_EDGE('',*,*,#469,.F.);
#623=ORIENTED_EDGE('',*,*,#395,.T.);
#624=ORIENTED_EDGE('',*,*,#472,.T.);
#625=ORIENTED_EDGE('',*,*,#473,.F.);
#626=ORIENTED_EDGE('',*,*,#474,.F.);
#627=ORIENTED_EDGE('',*,*,#475,.F.);
#628=ORIENTED_EDGE('',*,*,#472,.F.);
#629=ORIENTED_EDGE('',*,*,#399,.T.);
#630=ORIENTED_EDGE('',*,*,#476,.T.);
#631=ORIENTED_EDGE('',*,*,#477,.F.);
#632=ORIENTED_EDGE('',*,*,#478,.F.);
#633=ORIENTED_EDGE('',*,*,#476,.F.);
#634=ORIENTED_EDGE('',*,*,#466,.T.);
#635=ORIENTED_EDGE('',*,*,#468,.T.);
#636=ORIENTED_EDGE('',*,*,#479,.T.);
#637=ORIENTED_EDGE('',*,*,#480,.T.);
#638=ORIENTED_EDGE('',*,*,#481,.T.);
#639=ORIENTED_EDGE('',*,*,#474,.T.);
#640=ORIENTED_EDGE('',*,*,#482,.T.);
#641=ORIENTED_EDGE('',*,*,#483,.T.);
#642=ORIENTED_EDGE('',*,*,#484,.T.);
#643=ORIENTED_EDGE('',*,*,#480,.F.);
#644=ORIENTED_EDGE('',*,*,#485,.F.);
#645=ORIENTED_EDGE('',*,*,#486,.F.);
#646=ORIENTED_EDGE('',*,*,#487,.F.);
#647=ORIENTED_EDGE('',*,*,#408,.T.);
#648=ORIENTED_EDGE('',*,*,#411,.T.);
#649=ORIENTED_EDGE('',*,*,#414,.T.);
#650=ORIENTED_EDGE('',*,*,#417,.T.);
#651=ORIENTED_EDGE('',*,*,#420,.T.);
#652=ORIENTED_EDGE('',*,*,#423,.T.);
#653=ORIENTED_EDGE('',*,*,#426,.T.);
#654=ORIENTED_EDGE('',*,*,#429,.T.);
#655=ORIENTED_EDGE('',*,*,#432,.T.);
#656=ORIENTED_EDGE('',*,*,#435,.T.);
#657=ORIENTED_EDGE('',*,*,#438,.T.);
#658=ORIENTED_EDGE('',*,*,#441,.T.);
#659=ORIENTED_EDGE('',*,*,#444,.T.);
#660=ORIENTED_EDGE('',*,*,#447,.T.);
#661=ORIENTED_EDGE('',*,*,#450,.T.);
#662=ORIENTED_EDGE('',*,*,#467,.T.);
#663=ORIENTED_EDGE('',*,*,#484,.F.);
#664=ORIENTED_EDGE('',*,*,#488,.T.);
#665=ORIENTED_EDGE('',*,*,#489,.F.);
#666=ORIENTED_EDGE('',*,*,#485,.T.);
#667=ORIENTED_EDGE('',*,*,#479,.F.);
#668=ORIENTED_EDGE('',*,*,#489,.T.);
#669=ORIENTED_EDGE('',*,*,#490,.T.);
#670=ORIENTED_EDGE('',*,*,#491,.F.);
#671=ORIENTED_EDGE('',*,*,#486,.T.);
#672=ORIENTED_EDGE('',*,*,#470,.T.);
#673=ORIENTED_EDGE('',*,*,#471,.T.);
#674=ORIENTED_EDGE('',*,*,#477,.T.);
#675=ORIENTED_EDGE('',*,*,#478,.T.);
#676=ORIENTED_EDGE('',*,*,#473,.T.);
#677=ORIENTED_EDGE('',*,*,#475,.T.);
#678=ORIENTED_EDGE('',*,*,#481,.F.);
#679=ORIENTED_EDGE('',*,*,#487,.T.);
#680=ORIENTED_EDGE('',*,*,#491,.T.);
#681=ORIENTED_EDGE('',*,*,#492,.T.);
#682=ORIENTED_EDGE('',*,*,#482,.F.);
#683=ORIENTED_EDGE('',*,*,#483,.F.);
#684=ORIENTED_EDGE('',*,*,#492,.F.);
#685=ORIENTED_EDGE('',*,*,#490,.F.);
#686=ORIENTED_EDGE('',*,*,#488,.F.);
#687=ORIENTED_EDGE('',*,*,#392,.T.);
#688=ORIENTED_EDGE('',*,*,#396,.T.);
#689=ORIENTED_EDGE('',*,*,#400,.T.);
#690=ORIENTED_EDGE('',*,*,#404,.T.);
#691=ORIENTED_EDGE('',*,*,#453,.T.);
#692=ORIENTED_EDGE('',*,*,#463,.T.);
#693=ORIENTED_EDGE('',*,*,#460,.T.);
#694=ORIENTED_EDGE('',*,*,#457,.T.);
#695=CYLINDRICAL_SURFACE('',#783,1.6);
#696=CYLINDRICAL_SURFACE('',#788,1.6);
#697=CYLINDRICAL_SURFACE('',#793,1.6);
#698=CYLINDRICAL_SURFACE('',#798,1.6);
#699=CYLINDRICAL_SURFACE('',#803,2.5);
#700=CYLINDRICAL_SURFACE('',#806,2.5);
#701=CYLINDRICAL_SURFACE('',#809,2.5);
#702=CYLINDRICAL_SURFACE('',#812,2.5);
#703=CYLINDRICAL_SURFACE('',#815,2.5);
#704=CYLINDRICAL_SURFACE('',#818,2.5);
#705=CYLINDRICAL_SURFACE('',#821,2.5);
#706=CYLINDRICAL_SURFACE('',#824,2.5);
#707=CYLINDRICAL_SURFACE('',#827,2.5);
#708=CYLINDRICAL_SURFACE('',#830,2.5);
#709=CYLINDRICAL_SURFACE('',#833,2.5);
#710=CYLINDRICAL_SURFACE('',#836,2.5);
#711=CYLINDRICAL_SURFACE('',#839,2.5);
#712=CYLINDRICAL_SURFACE('',#842,2.5);
#713=CYLINDRICAL_SURFACE('',#845,2.5);
#714=CYLINDRICAL_SURFACE('',#850,38.);
#715=CYLINDRICAL_SURFACE('',#855,3.);
#716=CYLINDRICAL_SURFACE('',#856,3.);
#717=CYLINDRICAL_SURFACE('',#857,3.);
#718=CYLINDRICAL_SURFACE('',#858,3.);
#719=CYLINDRICAL_SURFACE('',#859,10.);
#720=CYLINDRICAL_SURFACE('',#866,10.);
#721=CYLINDRICAL_SURFACE('',#871,10.);
#722=ADVANCED_FACE('',(#81),#695,.F.);
#723=ADVANCED_FACE('',(#82,#30),#71,.F.);
#724=ADVANCED_FACE('',(#83),#696,.F.);
#725=ADVANCED_FACE('',(#84,#31),#72,.F.);
#726=ADVANCED_FACE('',(#85),#697,.F.);
#727=ADVANCED_FACE('',(#86,#32),#73,.F.);
#728=ADVANCED_FACE('',(#87),#698,.F.);
#729=ADVANCED_FACE('',(#88,#33),#74,.F.);
#730=ADVANCED_FACE('',(#89),#699,.F.);
#731=ADVANCED_FACE('',(#90),#700,.F.);
#732=ADVANCED_FACE('',(#91),#701,.F.);
#733=ADVANCED_FACE('',(#92),#702,.F.);
#734=ADVANCED_FACE('',(#93),#703,.F.);
#735=ADVANCED_FACE('',(#94),#704,.F.);
#736=ADVANCED_FACE('',(#95),#705,.F.);
#737=ADVANCED_FACE('',(#96),#706,.F.);
#738=ADVANCED_FACE('',(#97),#707,.F.);
#739=ADVANCED_FACE('',(#98),#708,.F.);
#740=ADVANCED_FACE('',(#99),#709,.F.);
#741=ADVANCED_FACE('',(#100),#710,.F.);
#742=ADVANCED_FACE('',(#101),#711,.F.);
#743=ADVANCED_FACE('',(#102),#712,.F.);
#744=ADVANCED_FACE('',(#103),#713,.F.);
#745=ADVANCED_FACE('',(#104),#75,.F.);
#746=ADVANCED_FACE('',(#105),#76,.F.);
#747=ADVANCED_FACE('',(#106),#714,.F.);
#748=ADVANCED_FACE('',(#107),#77,.F.);
#749=ADVANCED_FACE('',(#108,#34,#35,#36,#37,#38,#39,#40,#41,#42,#43,#44,
#45,#46,#47,#48),#78,.T.);
#750=ADVANCED_FACE('',(#109),#715,.F.);
#751=ADVANCED_FACE('',(#110),#716,.F.);
#752=ADVANCED_FACE('',(#111),#717,.F.);
#753=ADVANCED_FACE('',(#112),#718,.F.);
#754=ADVANCED_FACE('',(#113),#719,.T.);
#755=ADVANCED_FACE('',(#114,#49,#50,#51,#52,#53,#54,#55,#56,#57,#58,#59,
#60,#61,#62,#63),#79,.T.);
#756=ADVANCED_FACE('',(#115),#720,.T.);
#757=ADVANCED_FACE('',(#116,#64,#65),#15,.T.);
#758=ADVANCED_FACE('',(#117),#721,.T.);
#759=ADVANCED_FACE('',(#118,#66,#67,#68,#69,#70),#80,.T.);
#760=CLOSED_SHELL('',(#722,#723,#724,#725,#726,#727,#728,#729,#730,#731,
#732,#733,#734,#735,#736,#737,#738,#739,#740,#741,#742,#743,#744,#745,#746,
#747,#748,#749,#750,#751,#752,#753,#754,#755,#756,#757,#758,#759));
#761=DERIVED_UNIT_ELEMENT(#764,1.);
#762=DERIVED_UNIT_ELEMENT(#1512,-3.);
#763=DIMENSIONAL_EXPONENTS(0.,1.,0.,0.,0.,0.,0.);
#764=(
CONVERSION_BASED_UNIT('gram',#766)
MASS_UNIT()
NAMED_UNIT(#763)
);
#765=(
MASS_UNIT()
NAMED_UNIT(*)
SI_UNIT(.KILO.,.GRAM.)
);
#766=MASS_MEASURE_WITH_UNIT(MASS_MEASURE(0.001),#765);
#767=DERIVED_UNIT((#761,#762));
#768=MEASURE_REPRESENTATION_ITEM('density measure',
POSITIVE_RATIO_MEASURE(7.85),#767);
#769=PROPERTY_DEFINITION_REPRESENTATION(#774,#771);
#770=PROPERTY_DEFINITION_REPRESENTATION(#775,#772);
#771=REPRESENTATION('material name',(#773),#1509);
#772=REPRESENTATION('density',(#768),#1509);
#773=DESCRIPTIVE_REPRESENTATION_ITEM('Steel','Steel');
#774=PROPERTY_DEFINITION('material property','material name',#1519);
#775=PROPERTY_DEFINITION('material property','density of part',#1519);
#776=DATE_TIME_ROLE('creation_date');
#777=APPLIED_DATE_AND_TIME_ASSIGNMENT(#778,#776,(#1519));
#778=DATE_AND_TIME(#779,#780);
#779=CALENDAR_DATE(2026,6,4);
#780=LOCAL_TIME(15,8,5.,#781);
#781=COORDINATED_UNIVERSAL_TIME_OFFSET(0,0,.BEHIND.);
#782=AXIS2_PLACEMENT_3D('',#1094,#873,#874);
#783=AXIS2_PLACEMENT_3D('',#1095,#875,#876);
#784=AXIS2_PLACEMENT_3D('',#1097,#877,#878);
#785=AXIS2_PLACEMENT_3D('',#1100,#880,#881);
#786=AXIS2_PLACEMENT_3D('',#1101,#882,#883);
#787=AXIS2_PLACEMENT_3D('',#1103,#884,#885);
#788=AXIS2_PLACEMENT_3D('',#1104,#886,#887);
#789=AXIS2_PLACEMENT_3D('',#1106,#888,#889);
#790=AXIS2_PLACEMENT_3D('',#1109,#891,#892);
#791=AXIS2_PLACEMENT_3D('',#1110,#893,#894);
#792=AXIS2_PLACEMENT_3D('',#1112,#895,#896);
#793=AXIS2_PLACEMENT_3D('',#1113,#897,#898);
#794=AXIS2_PLACEMENT_3D('',#1115,#899,#900);
#795=AXIS2_PLACEMENT_3D('',#1118,#902,#903);
#796=AXIS2_PLACEMENT_3D('',#1119,#904,#905);
#797=AXIS2_PLACEMENT_3D('',#1121,#906,#907);
#798=AXIS2_PLACEMENT_3D('',#1122,#908,#909);
#799=AXIS2_PLACEMENT_3D('',#1124,#910,#911);
#800=AXIS2_PLACEMENT_3D('',#1127,#913,#914);
#801=AXIS2_PLACEMENT_3D('',#1128,#915,#916);
#802=AXIS2_PLACEMENT_3D('',#1130,#917,#918);
#803=AXIS2_PLACEMENT_3D('',#1131,#919,#920);
#804=AXIS2_PLACEMENT_3D('',#1133,#921,#922);
#805=AXIS2_PLACEMENT_3D('',#1136,#924,#925);
#806=AXIS2_PLACEMENT_3D('',#1137,#926,#927);
#807=AXIS2_PLACEMENT_3D('',#1139,#928,#929);
#808=AXIS2_PLACEMENT_3D('',#1142,#931,#932);
#809=AXIS2_PLACEMENT_3D('',#1143,#933,#934);
#810=AXIS2_PLACEMENT_3D('',#1145,#935,#936);
#811=AXIS2_PLACEMENT_3D('',#1148,#938,#939);
#812=AXIS2_PLACEMENT_3D('',#1149,#940,#941);
#813=AXIS2_PLACEMENT_3D('',#1151,#942,#943);
#814=AXIS2_PLACEMENT_3D('',#1154,#945,#946);
#815=AXIS2_PLACEMENT_3D('',#1155,#947,#948);
#816=AXIS2_PLACEMENT_3D('',#1157,#949,#950);
#817=AXIS2_PLACEMENT_3D('',#1160,#952,#953);
#818=AXIS2_PLACEMENT_3D('',#1161,#954,#955);
#819=AXIS2_PLACEMENT_3D('',#1163,#956,#957);
#820=AXIS2_PLACEMENT_3D('',#1166,#959,#960);
#821=AXIS2_PLACEMENT_3D('',#1167,#961,#962);
#822=AXIS2_PLACEMENT_3D('',#1169,#963,#964);
#823=AXIS2_PLACEMENT_3D('',#1172,#966,#967);
#824=AXIS2_PLACEMENT_3D('',#1173,#968,#969);
#825=AXIS2_PLACEMENT_3D('',#1175,#970,#971);
#826=AXIS2_PLACEMENT_3D('',#1178,#973,#974);
#827=AXIS2_PLACEMENT_3D('',#1179,#975,#976);
#828=AXIS2_PLACEMENT_3D('',#1181,#977,#978);
#829=AXIS2_PLACEMENT_3D('',#1184,#980,#981);
#830=AXIS2_PLACEMENT_3D('',#1185,#982,#983);
#831=AXIS2_PLACEMENT_3D('',#1187,#984,#985);
#832=AXIS2_PLACEMENT_3D('',#1190,#987,#988);
#833=AXIS2_PLACEMENT_3D('',#1191,#989,#990);
#834=AXIS2_PLACEMENT_3D('',#1193,#991,#992);
#835=AXIS2_PLACEMENT_3D('',#1196,#994,#995);
#836=AXIS2_PLACEMENT_3D('',#1197,#996,#997);
#837=AXIS2_PLACEMENT_3D('',#1199,#998,#999);
#838=AXIS2_PLACEMENT_3D('',#1202,#1001,#1002);
#839=AXIS2_PLACEMENT_3D('',#1203,#1003,#1004);
#840=AXIS2_PLACEMENT_3D('',#1205,#1005,#1006);
#841=AXIS2_PLACEMENT_3D('',#1208,#1008,#1009);
#842=AXIS2_PLACEMENT_3D('',#1209,#1010,#1011);
#843=AXIS2_PLACEMENT_3D('',#1211,#1012,#1013);
#844=AXIS2_PLACEMENT_3D('',#1214,#1015,#1016);
#845=AXIS2_PLACEMENT_3D('',#1215,#1017,#1018);
#846=AXIS2_PLACEMENT_3D('',#1217,#1019,#1020);
#847=AXIS2_PLACEMENT_3D('',#1220,#1022,#1023);
#848=AXIS2_PLACEMENT_3D('',#1221,#1024,#1025);
#849=AXIS2_PLACEMENT_3D('',#1230,#1030,#1031);
#850=AXIS2_PLACEMENT_3D('',#1236,#1035,#1036);
#851=AXIS2_PLACEMENT_3D('',#1238,#1037,#1038);
#852=AXIS2_PLACEMENT_3D('',#1241,#1040,#1041);
#853=AXIS2_PLACEMENT_3D('',#1242,#1042,#1043);
#854=AXIS2_PLACEMENT_3D('',#1245,#1046,#1047);
#855=AXIS2_PLACEMENT_3D('',#1246,#1048,#1049);
#856=AXIS2_PLACEMENT_3D('',#1303,#1051,#1052);
#857=AXIS2_PLACEMENT_3D('',#1363,#1054,#1055);
#858=AXIS2_PLACEMENT_3D('',#1419,#1057,#1058);
#859=AXIS2_PLACEMENT_3D('',#1479,#1060,#1061);
#860=AXIS2_PLACEMENT_3D('',#1481,#1062,#1063);
#861=AXIS2_PLACEMENT_3D('',#1484,#1065,#1066);
#862=AXIS2_PLACEMENT_3D('',#1486,#1067,#1068);
#863=AXIS2_PLACEMENT_3D('',#1489,#1070,#1071);
#864=AXIS2_PLACEMENT_3D('',#1490,#1072,#1073);
#865=AXIS2_PLACEMENT_3D('',#1494,#1075,#1076);
#866=AXIS2_PLACEMENT_3D('',#1496,#1078,#1079);
#867=AXIS2_PLACEMENT_3D('',#1499,#1081,#1082);
#868=AXIS2_PLACEMENT_3D('',#1500,#1083,#1084);
#869=AXIS2_PLACEMENT_3D('',#1502,#1085,#1086);
#870=AXIS2_PLACEMENT_3D('',#1503,#1087,#1088);
#871=AXIS2_PLACEMENT_3D('',#1504,#1089,#1090);
#872=AXIS2_PLACEMENT_3D('',#1506,#1092,#1093);
#873=DIRECTION('axis',(0.,0.,1.));
#874=DIRECTION('refdir',(1.,0.,0.));
#875=DIRECTION('center_axis',(1.,0.,0.));
#876=DIRECTION('ref_axis',(0.,0.,1.));
#877=DIRECTION('center_axis',(1.,0.,0.));
#878=DIRECTION('ref_axis',(0.,0.,1.));
#879=DIRECTION('',(1.,0.,0.));
#880=DIRECTION('center_axis',(-1.,0.,0.));
#881=DIRECTION('ref_axis',(0.,0.,1.));
#882=DIRECTION('center_axis',(-1.,9.86076131526265E-32,4.46689869615501E-62));
#883=DIRECTION('ref_axis',(4.46689869615501E-62,0.,1.));
#884=DIRECTION('center_axis',(-1.,9.86076131526265E-32,4.46689869615501E-62));
#885=DIRECTION('ref_axis',(-4.46689869615501E-62,4.40470218622425E-93,-1.));
#886=DIRECTION('center_axis',(1.,0.,0.));
#887=DIRECTION('ref_axis',(0.,0.,1.));
#888=DIRECTION('center_axis',(1.,0.,0.));
#889=DIRECTION('ref_axis',(0.,0.,1.));
#890=DIRECTION('',(1.,0.,0.));
#891=DIRECTION('center_axis',(-1.,0.,0.));
#892=DIRECTION('ref_axis',(0.,0.,1.));
#893=DIRECTION('center_axis',(-1.,9.86076131526265E-32,0.));
#894=DIRECTION('ref_axis',(0.,0.,1.));
#895=DIRECTION('center_axis',(-1.,9.86076131526265E-32,0.));
#896=DIRECTION('ref_axis',(0.,0.,-1.));
#897=DIRECTION('center_axis',(1.,0.,0.));
#898=DIRECTION('ref_axis',(0.,0.,1.));
#899=DIRECTION('center_axis',(1.,0.,0.));
#900=DIRECTION('ref_axis',(0.,0.,1.));
#901=DIRECTION('',(1.,0.,0.));
#902=DIRECTION('center_axis',(-1.,0.,0.));
#903=DIRECTION('ref_axis',(0.,0.,1.));
#904=DIRECTION('center_axis',(-1.,9.86076131526265E-32,4.46689869615501E-62));
#905=DIRECTION('ref_axis',(4.46689869615501E-62,0.,1.));
#906=DIRECTION('center_axis',(-1.,9.86076131526265E-32,4.46689869615501E-62));
#907=DIRECTION('ref_axis',(-4.46689869615501E-62,4.40470218622425E-93,-1.));
#908=DIRECTION('center_axis',(1.,0.,0.));
#909=DIRECTION('ref_axis',(0.,0.,1.));
#910=DIRECTION('center_axis',(1.,0.,0.));
#911=DIRECTION('ref_axis',(0.,0.,1.));
#912=DIRECTION('',(1.,0.,0.));
#913=DIRECTION('center_axis',(-1.,0.,0.));
#914=DIRECTION('ref_axis',(0.,0.,1.));
#915=DIRECTION('center_axis',(-1.,9.86076131526265E-32,4.46689869615501E-62));
#916=DIRECTION('ref_axis',(4.46689869615501E-62,0.,1.));
#917=DIRECTION('center_axis',(-1.,9.86076131526265E-32,4.46689869615501E-62));
#918=DIRECTION('ref_axis',(-4.46689869615501E-62,4.40470218622425E-93,-1.));
#919=DIRECTION('center_axis',(-1.,0.,0.));
#920=DIRECTION('ref_axis',(0.,0.,-1.));
#921=DIRECTION('center_axis',(-1.,-9.6407720639449E-16,-5.55111512312528E-16));
#922=DIRECTION('ref_axis',(5.55111512312528E-16,5.35170356027683E-31,-1.));
#923=DIRECTION('',(-1.,0.,0.));
#924=DIRECTION('center_axis',(1.,2.97775923669024E-43,9.91793059909119E-58));
#925=DIRECTION('ref_axis',(9.91793059909119E-58,2.95332094502966E-100,-1.));
#926=DIRECTION('center_axis',(-1.,0.,0.));
#927=DIRECTION('ref_axis',(0.,0.,-1.));
#928=DIRECTION('center_axis',(-1.,-9.6407720639449E-16,-5.55111512312528E-16));
#929=DIRECTION('ref_axis',(5.55111512312528E-16,5.35170356027683E-31,-1.));
#930=DIRECTION('',(-1.,0.,0.));
#931=DIRECTION('center_axis',(1.,2.97775923669024E-43,9.91793059909119E-58));
#932=DIRECTION('ref_axis',(9.91793059909119E-58,2.95332094502966E-100,-1.));
#933=DIRECTION('center_axis',(-1.,0.,0.));
#934=DIRECTION('ref_axis',(0.,0.,-1.));
#935=DIRECTION('center_axis',(-1.,-9.6407720639449E-16,-5.55111512312528E-16));
#936=DIRECTION('ref_axis',(5.55111512312528E-16,5.35170356027683E-31,-1.));
#937=DIRECTION('',(-1.,0.,0.));
#938=DIRECTION('center_axis',(1.,2.97775923669024E-43,9.91793059909119E-58));
#939=DIRECTION('ref_axis',(9.91793059909119E-58,2.95332094502966E-100,-1.));
#940=DIRECTION('center_axis',(-1.,0.,0.));
#941=DIRECTION('ref_axis',(0.,0.,-1.));
#942=DIRECTION('center_axis',(-1.,-9.6407720639449E-16,-5.55111512312528E-16));
#943=DIRECTION('ref_axis',(5.55111512312528E-16,5.35170356027683E-31,-1.));
#944=DIRECTION('',(-1.,0.,0.));
#945=DIRECTION('center_axis',(1.,2.97775923669024E-43,9.91793059909119E-58));
#946=DIRECTION('ref_axis',(9.91793059909119E-58,2.95332094502966E-100,-1.));
#947=DIRECTION('center_axis',(-1.,0.,0.));
#948=DIRECTION('ref_axis',(0.,0.,-1.));
#949=DIRECTION('center_axis',(-1.,-9.6407720639449E-16,-5.55111512312528E-16));
#950=DIRECTION('ref_axis',(5.55111512312528E-16,5.35170356027683E-31,-1.));
#951=DIRECTION('',(-1.,0.,0.));
#952=DIRECTION('center_axis',(1.,2.97775923669024E-43,9.91793059909119E-58));
#953=DIRECTION('ref_axis',(9.91793059909119E-58,2.95332094502966E-100,-1.));
#954=DIRECTION('center_axis',(-1.,0.,0.));
#955=DIRECTION('ref_axis',(0.,0.,-1.));
#956=DIRECTION('center_axis',(-1.,-9.6407720639449E-16,-5.55111512312528E-16));
#957=DIRECTION('ref_axis',(5.55111512312528E-16,5.35170356027683E-31,-1.));
#958=DIRECTION('',(-1.,0.,0.));
#959=DIRECTION('center_axis',(1.,2.97775923669024E-43,9.91793059909119E-58));
#960=DIRECTION('ref_axis',(9.91793059909119E-58,2.95332094502966E-100,-1.));
#961=DIRECTION('center_axis',(-1.,0.,0.));
#962=DIRECTION('ref_axis',(0.,0.,-1.));
#963=DIRECTION('center_axis',(-1.,-9.6407720639449E-16,-5.55111512312528E-16));
#964=DIRECTION('ref_axis',(5.55111512312528E-16,5.35170356027683E-31,-1.));
#965=DIRECTION('',(-1.,0.,0.));
#966=DIRECTION('center_axis',(1.,2.97775923669024E-43,9.91793059909119E-58));
#967=DIRECTION('ref_axis',(9.91793059909119E-58,2.95332094502966E-100,-1.));
#968=DIRECTION('center_axis',(-1.,0.,0.));
#969=DIRECTION('ref_axis',(0.,0.,-1.));
#970=DIRECTION('center_axis',(-1.,-9.6407720639449E-16,-5.55111512312528E-16));
#971=DIRECTION('ref_axis',(5.55111512312528E-16,5.35170356027683E-31,-1.));
#972=DIRECTION('',(-1.,0.,0.));
#973=DIRECTION('center_axis',(1.,2.97775923669024E-43,9.91793059909119E-58));
#974=DIRECTION('ref_axis',(9.91793059909119E-58,2.95332094502966E-100,-1.));
#975=DIRECTION('center_axis',(-1.,0.,0.));
#976=DIRECTION('ref_axis',(0.,0.,-1.));
#977=DIRECTION('center_axis',(-1.,-9.6407720639449E-16,-5.55111512312528E-16));
#978=DIRECTION('ref_axis',(5.55111512312528E-16,5.35170356027683E-31,-1.));
#979=DIRECTION('',(-1.,0.,0.));
#980=DIRECTION('center_axis',(1.,2.97775923669024E-43,9.91793059909119E-58));
#981=DIRECTION('ref_axis',(9.91793059909119E-58,2.95332094502966E-100,-1.));
#982=DIRECTION('center_axis',(-1.,0.,0.));
#983=DIRECTION('ref_axis',(0.,0.,-1.));
#984=DIRECTION('center_axis',(-1.,-9.6407720639449E-16,-5.55111512312528E-16));
#985=DIRECTION('ref_axis',(5.55111512312528E-16,5.35170356027683E-31,-1.));
#986=DIRECTION('',(-1.,0.,0.));
#987=DIRECTION('center_axis',(1.,2.97775923669024E-43,9.91793059909119E-58));
#988=DIRECTION('ref_axis',(9.91793059909119E-58,2.95332094502966E-100,-1.));
#989=DIRECTION('center_axis',(-1.,0.,0.));
#990=DIRECTION('ref_axis',(0.,0.,-1.));
#991=DIRECTION('center_axis',(-1.,-9.6407720639449E-16,-5.55111512312528E-16));
#992=DIRECTION('ref_axis',(5.55111512312528E-16,5.35170356027683E-31,-1.));
#993=DIRECTION('',(-1.,0.,0.));
#994=DIRECTION('center_axis',(1.,2.97775923669024E-43,9.91793059909119E-58));
#995=DIRECTION('ref_axis',(9.91793059909119E-58,2.95332094502966E-100,-1.));
#996=DIRECTION('center_axis',(-1.,0.,0.));
#997=DIRECTION('ref_axis',(0.,0.,-1.));
#998=DIRECTION('center_axis',(-1.,-9.6407720639449E-16,-5.55111512312528E-16));
#999=DIRECTION('ref_axis',(5.55111512312528E-16,5.35170356027683E-31,-1.));
#1000=DIRECTION('',(-1.,0.,0.));
#1001=DIRECTION('center_axis',(1.,2.97775923669024E-43,9.91793059909119E-58));
#1002=DIRECTION('ref_axis',(9.91793059909119E-58,2.95332094502966E-100,
-1.));
#1003=DIRECTION('center_axis',(-1.,0.,0.));
#1004=DIRECTION('ref_axis',(0.,0.,-1.));
#1005=DIRECTION('center_axis',(-1.,-9.6407720639449E-16,-5.55111512312528E-16));
#1006=DIRECTION('ref_axis',(5.55111512312528E-16,5.35170356027683E-31,-1.));
#1007=DIRECTION('',(-1.,0.,0.));
#1008=DIRECTION('center_axis',(1.,2.97775923669024E-43,9.91793059909119E-58));
#1009=DIRECTION('ref_axis',(9.91793059909119E-58,2.95332094502966E-100,
-1.));
#1010=DIRECTION('center_axis',(-1.,0.,0.));
#1011=DIRECTION('ref_axis',(0.,0.,-1.));
#1012=DIRECTION('center_axis',(-1.,-9.6407720639449E-16,-5.55111512312528E-16));
#1013=DIRECTION('ref_axis',(5.55111512312528E-16,5.35170356027683E-31,-1.));
#1014=DIRECTION('',(-1.,0.,0.));
#1015=DIRECTION('center_axis',(1.,2.97775923669024E-43,9.91793059909119E-58));
#1016=DIRECTION('ref_axis',(9.91793059909119E-58,2.95332094502966E-100,
-1.));
#1017=DIRECTION('center_axis',(-1.,0.,0.));
#1018=DIRECTION('ref_axis',(0.,0.,-1.));
#1019=DIRECTION('center_axis',(-1.,-9.6407720639449E-16,-5.55111512312528E-16));
#1020=DIRECTION('ref_axis',(5.55111512312528E-16,5.35170356027683E-31,-1.));
#1021=DIRECTION('',(-1.,0.,0.));
#1022=DIRECTION('center_axis',(1.,2.97775923669024E-43,9.91793059909119E-58));
#1023=DIRECTION('ref_axis',(9.91793059909119E-58,2.95332094502966E-100,
-1.));
#1024=DIRECTION('center_axis',(0.,-1.,-3.33066907387547E-15));
#1025=DIRECTION('ref_axis',(0.,3.33066907387547E-15,-1.));
#1026=DIRECTION('',(5.55111512312525E-16,3.33066907387547E-15,-1.));
#1027=DIRECTION('',(1.,0.,0.));
#1028=DIRECTION('',(0.,3.33066907387547E-15,-1.));
#1029=DIRECTION('',(1.,0.,0.));
#1030=DIRECTION('center_axis',(0.,-4.19417587080615E-15,1.));
#1031=DIRECTION('ref_axis',(2.97775923669024E-43,-1.,-4.19417587080615E-15));
#1032=DIRECTION('',(8.16047469777805E-16,-1.,-4.19417587080615E-15));
#1033=DIRECTION('',(1.,0.,0.));
#1034=DIRECTION('',(2.97775923669024E-43,-1.,-4.19417587080615E-15));
#1035=DIRECTION('center_axis',(1.,0.,0.));
#1036=DIRECTION('ref_axis',(0.,-2.80477395694776E-15,1.));
#1037=DIRECTION('center_axis',(1.,8.16047469777803E-16,5.55111512312528E-16));
#1038=DIRECTION('ref_axis',(-5.55111512312526E-16,-2.80477395694776E-15,
1.));
#1039=DIRECTION('',(1.,0.,0.));
#1040=DIRECTION('center_axis',(1.,-3.95602123407452E-58,1.41045991398878E-43));
#1041=DIRECTION('ref_axis',(-1.41045991398878E-43,-2.80477395694776E-15,
1.));
#1042=DIRECTION('center_axis',(0.,4.19417587080615E-15,-1.));
#1043=DIRECTION('ref_axis',(2.26283584078789E-43,1.,4.19417587080615E-15));
#1044=DIRECTION('',(-8.16047469777805E-16,1.,4.19417587080615E-15));
#1045=DIRECTION('',(2.26283584078789E-43,1.,4.19417587080615E-15));
#1046=DIRECTION('center_axis',(-1.,-2.97775923669024E-43,-9.91793059909119E-58));
#1047=DIRECTION('ref_axis',(-9.91793059909119E-58,0.,1.));
#1048=DIRECTION('center_axis',(1.,0.,0.));
#1049=DIRECTION('ref_axis',(0.,0.,-1.));
#1050=DIRECTION('',(1.,0.,0.));
#1051=DIRECTION('center_axis',(1.,0.,0.));
#1052=DIRECTION('ref_axis',(0.,0.,-1.));
#1053=DIRECTION('',(1.,0.,0.));
#1054=DIRECTION('center_axis',(1.,0.,0.));
#1055=DIRECTION('ref_axis',(0.,0.,-1.));
#1056=DIRECTION('',(1.,0.,0.));
#1057=DIRECTION('center_axis',(1.,0.,0.));
#1058=DIRECTION('ref_axis',(0.,0.,-1.));
#1059=DIRECTION('',(1.,0.,0.));
#1060=DIRECTION('center_axis',(5.55111512312525E-16,3.31284709714931E-15,
-1.));
#1061=DIRECTION('ref_axis',(0.707106781186548,-0.707106781186547,-1.95001353275754E-15));
#1062=DIRECTION('center_axis',(2.89182415558022E-16,-0.70710678118655,0.707106781186545));
#1063=DIRECTION('ref_axis',(-1.07422864489983E-15,0.707106781186545,0.70710678118655));
#1064=DIRECTION('',(-5.55111512312525E-16,-3.31284709714931E-15,1.));
#1065=DIRECTION('center_axis',(1.07422864489983E-15,-0.707106781186545,
-0.70710678118655));
#1066=DIRECTION('ref_axis',(2.89182415558022E-16,-0.70710678118655,0.707106781186545));
#1067=DIRECTION('center_axis',(1.07422864489983E-15,-0.707106781186545,
-0.70710678118655));
#1068=DIRECTION('ref_axis',(2.89182415558022E-16,-0.70710678118655,0.707106781186545));
#1069=DIRECTION('',(5.55111512312525E-16,3.31284709714931E-15,-1.));
#1070=DIRECTION('center_axis',(2.89182415558022E-16,-0.70710678118655,0.707106781186545));
#1071=DIRECTION('ref_axis',(-1.07422864489983E-15,0.707106781186545,0.70710678118655));
#1072=DIRECTION('center_axis',(1.,9.6407720639449E-16,5.55111512312528E-16));
#1073=DIRECTION('ref_axis',(5.55111512312525E-16,3.31284709714931E-15,-1.));
#1074=DIRECTION('',(9.64077206394492E-16,-1.,-3.31284709714931E-15));
#1075=DIRECTION('center_axis',(-1.,-9.6407720639449E-16,-5.55111512312528E-16));
#1076=DIRECTION('ref_axis',(-9.64077206394492E-16,1.,4.02338983290941E-15));
#1077=DIRECTION('',(-9.64077206394492E-16,1.,3.31284709714931E-15));
#1078=DIRECTION('center_axis',(-9.64077206394492E-16,1.,3.31284709714931E-15));
#1079=DIRECTION('ref_axis',(0.707106781186548,3.02424217765737E-15,-0.707106781186547));
#1080=DIRECTION('',(-9.64077206394492E-16,1.,3.31284709714931E-15));
#1081=DIRECTION('center_axis',(-9.64077206394491E-16,1.,2.86875788729925E-15));
#1082=DIRECTION('ref_axis',(1.,9.64077206394489E-16,5.55111512312528E-16));
#1083=DIRECTION('center_axis',(-1.,-9.6407720639449E-16,-5.55111512312528E-16));
#1084=DIRECTION('ref_axis',(-5.6843418860808E-16,-3.41060513164848E-15,
1.));
#1085=DIRECTION('center_axis',(1.,9.6407720639449E-16,5.55111512312528E-16));
#1086=DIRECTION('ref_axis',(-9.64077206394492E-16,1.,4.02338983290941E-15));
#1087=DIRECTION('center_axis',(9.64077206394492E-16,-1.,-3.31284709714931E-15));
#1088=DIRECTION('ref_axis',(1.,9.6407720639449E-16,5.55111512312528E-16));
#1089=DIRECTION('center_axis',(-9.64077206394492E-16,1.,3.31284709714931E-15));
#1090=DIRECTION('ref_axis',(0.707106781186547,-1.66083111719952E-15,0.707106781186548));
#1091=DIRECTION('',(9.64077206394492E-16,-1.,-3.31284709714931E-15));
#1092=DIRECTION('center_axis',(-1.,-8.16047469777803E-16,-5.55111512312528E-16));
#1093=DIRECTION('ref_axis',(-5.55111512312525E-16,-3.31284709714931E-15,
1.));
#1094=CARTESIAN_POINT('',(0.,0.,0.));
#1095=CARTESIAN_POINT('Origin',(34.9999999999997,33.0000004917383,45.0000006705522));
#1096=CARTESIAN_POINT('',(34.9999999999997,33.0000004917383,43.4000006705522));
#1097=CARTESIAN_POINT('Origin',(34.9999999999997,33.0000004917383,45.0000006705522));
#1098=CARTESIAN_POINT('',(36.9999999999997,33.0000004917383,43.4000006705522));
#1099=CARTESIAN_POINT('',(34.9999999999997,33.0000004917383,43.4000006705522));
#1100=CARTESIAN_POINT('Origin',(36.9999999999997,33.0000004917383,45.0000006705522));
#1101=CARTESIAN_POINT('Origin',(36.9999999999997,33.0000004917383,45.0000006705522));
#1102=CARTESIAN_POINT('',(36.9999999999997,33.0000004917383,48.0000006705523));
#1103=CARTESIAN_POINT('Origin',(36.9999999999997,33.0000004917383,45.0000006705523));
#1104=CARTESIAN_POINT('Origin',(34.9999999999997,90.,30.));
#1105=CARTESIAN_POINT('',(34.9999999999997,90.,28.4));
#1106=CARTESIAN_POINT('Origin',(34.9999999999997,90.,30.));
#1107=CARTESIAN_POINT('',(36.9999999999997,90.,28.4));
#1108=CARTESIAN_POINT('',(34.9999999999997,90.,28.4));
#1109=CARTESIAN_POINT('Origin',(36.9999999999997,90.,30.));
#1110=CARTESIAN_POINT('Origin',(36.9999999999997,90.,30.));
#1111=CARTESIAN_POINT('',(36.9999999999997,90.,33.));
#1112=CARTESIAN_POINT('Origin',(36.9999999999997,90.,30.));
#1113=CARTESIAN_POINT('Origin',(34.9999999999997,33.0000004917383,-45.0000006705523));
#1114=CARTESIAN_POINT('',(34.9999999999997,33.0000004917383,-46.6000006705523));
#1115=CARTESIAN_POINT('Origin',(34.9999999999997,33.0000004917383,-45.0000006705523));
#1116=CARTESIAN_POINT('',(36.9999999999997,33.0000004917383,-46.6000006705523));
#1117=CARTESIAN_POINT('',(34.9999999999997,33.0000004917383,-46.6000006705523));
#1118=CARTESIAN_POINT('Origin',(36.9999999999997,33.0000004917383,-45.0000006705523));
#1119=CARTESIAN_POINT('Origin',(36.9999999999997,33.0000004917383,-45.0000006705523));
#1120=CARTESIAN_POINT('',(36.9999999999997,33.0000004917383,-42.0000006705523));
#1121=CARTESIAN_POINT('Origin',(36.9999999999997,33.0000004917383,-45.0000006705523));
#1122=CARTESIAN_POINT('Origin',(34.9999999999997,90.,-30.));
#1123=CARTESIAN_POINT('',(34.9999999999997,90.,-31.6));
#1124=CARTESIAN_POINT('Origin',(34.9999999999997,90.,-30.));
#1125=CARTESIAN_POINT('',(36.9999999999997,90.,-31.6));
#1126=CARTESIAN_POINT('',(34.9999999999997,90.,-31.6));
#1127=CARTESIAN_POINT('Origin',(36.9999999999997,90.,-30.));
#1128=CARTESIAN_POINT('Origin',(36.9999999999997,90.,-30.));
#1129=CARTESIAN_POINT('',(36.9999999999997,90.,-27.));
#1130=CARTESIAN_POINT('Origin',(36.9999999999997,90.,-30.));
#1131=CARTESIAN_POINT('Origin',(44.9999999999997,50.,-2.22044604925011E-14));
#1132=CARTESIAN_POINT('',(44.9999999999997,50.,2.49999999999998));
#1133=CARTESIAN_POINT('Origin',(44.9999999999997,50.,-2.22044604925011E-14));
#1134=CARTESIAN_POINT('',(39.9999999999997,50.,2.49999999999998));
#1135=CARTESIAN_POINT('',(44.9999999999997,50.,2.49999999999998));
#1136=CARTESIAN_POINT('Origin',(39.9999999999997,50.,-2.22044604925011E-14));
#1137=CARTESIAN_POINT('Origin',(44.9999999999997,50.,17.3333333333333));
#1138=CARTESIAN_POINT('',(44.9999999999997,50.,19.8333333333333));
#1139=CARTESIAN_POINT('Origin',(44.9999999999997,50.,17.3333333333333));
#1140=CARTESIAN_POINT('',(39.9999999999997,50.,19.8333333333333));
#1141=CARTESIAN_POINT('',(44.9999999999997,50.,19.8333333333333));
#1142=CARTESIAN_POINT('Origin',(39.9999999999997,50.,17.3333333333333));
#1143=CARTESIAN_POINT('Origin',(44.9999999999997,62.5,-17.3333333333333));
#1144=CARTESIAN_POINT('',(44.9999999999997,62.5,-14.8333333333333));
#1145=CARTESIAN_POINT('Origin',(44.9999999999997,62.5,-17.3333333333333));
#1146=CARTESIAN_POINT('',(39.9999999999997,62.5,-14.8333333333333));
#1147=CARTESIAN_POINT('',(44.9999999999997,62.5,-14.8333333333333));
#1148=CARTESIAN_POINT('Origin',(39.9999999999997,62.5,-17.3333333333333));
#1149=CARTESIAN_POINT('Origin',(44.9999999999997,50.,-8.66666666666667));
#1150=CARTESIAN_POINT('',(44.9999999999997,50.,-6.16666666666666));
#1151=CARTESIAN_POINT('Origin',(44.9999999999997,50.,-8.66666666666667));
#1152=CARTESIAN_POINT('',(39.9999999999997,50.,-6.16666666666666));
#1153=CARTESIAN_POINT('',(44.9999999999997,50.,-6.16666666666667));
#1154=CARTESIAN_POINT('Origin',(39.9999999999997,50.,-8.66666666666667));
#1155=CARTESIAN_POINT('Origin',(44.9999999999997,62.5,-8.66666666666667));
#1156=CARTESIAN_POINT('',(44.9999999999997,62.5,-6.16666666666666));
#1157=CARTESIAN_POINT('Origin',(44.9999999999997,62.5,-8.66666666666667));
#1158=CARTESIAN_POINT('',(39.9999999999997,62.5,-6.16666666666666));
#1159=CARTESIAN_POINT('',(44.9999999999997,62.5,-6.16666666666667));
#1160=CARTESIAN_POINT('Origin',(39.9999999999997,62.5,-8.66666666666667));
#1161=CARTESIAN_POINT('Origin',(44.9999999999997,62.5,-2.22044604925011E-14));
#1162=CARTESIAN_POINT('',(44.9999999999997,62.5,2.49999999999998));
#1163=CARTESIAN_POINT('Origin',(44.9999999999997,62.5,-2.22044604925011E-14));
#1164=CARTESIAN_POINT('',(39.9999999999997,62.5,2.49999999999998));
#1165=CARTESIAN_POINT('',(44.9999999999997,62.5,2.49999999999998));
#1166=CARTESIAN_POINT('Origin',(39.9999999999997,62.5,-2.22044604925011E-14));
#1167=CARTESIAN_POINT('Origin',(44.9999999999997,75.,-2.22044604925011E-14));
#1168=CARTESIAN_POINT('',(44.9999999999997,75.,2.49999999999998));
#1169=CARTESIAN_POINT('Origin',(44.9999999999997,75.,-2.22044604925011E-14));
#1170=CARTESIAN_POINT('',(39.9999999999997,75.,2.49999999999998));
#1171=CARTESIAN_POINT('',(44.9999999999997,75.,2.49999999999998));
#1172=CARTESIAN_POINT('Origin',(39.9999999999997,75.,-2.22044604925011E-14));
#1173=CARTESIAN_POINT('Origin',(44.9999999999997,75.,8.66666666666664));
#1174=CARTESIAN_POINT('',(44.9999999999997,75.,11.1666666666667));
#1175=CARTESIAN_POINT('Origin',(44.9999999999997,75.,8.66666666666664));
#1176=CARTESIAN_POINT('',(39.9999999999997,75.,11.1666666666667));
#1177=CARTESIAN_POINT('',(44.9999999999997,75.,11.1666666666666));
#1178=CARTESIAN_POINT('Origin',(39.9999999999997,75.,8.66666666666664));
#1179=CARTESIAN_POINT('Origin',(44.9999999999997,50.,8.66666666666664));
#1180=CARTESIAN_POINT('',(44.9999999999997,50.,11.1666666666667));
#1181=CARTESIAN_POINT('Origin',(44.9999999999997,50.,8.66666666666664));
#1182=CARTESIAN_POINT('',(39.9999999999997,50.,11.1666666666667));
#1183=CARTESIAN_POINT('',(44.9999999999997,50.,11.1666666666666));
#1184=CARTESIAN_POINT('Origin',(39.9999999999997,50.,8.66666666666664));
#1185=CARTESIAN_POINT('Origin',(44.9999999999997,75.,-8.66666666666667));
#1186=CARTESIAN_POINT('',(44.9999999999997,75.,-6.16666666666666));
#1187=CARTESIAN_POINT('Origin',(44.9999999999997,75.,-8.66666666666667));
#1188=CARTESIAN_POINT('',(39.9999999999997,75.,-6.16666666666666));
#1189=CARTESIAN_POINT('',(44.9999999999997,75.,-6.16666666666667));
#1190=CARTESIAN_POINT('Origin',(39.9999999999997,75.,-8.66666666666667));
#1191=CARTESIAN_POINT('Origin',(44.9999999999997,50.,-17.3333333333333));
#1192=CARTESIAN_POINT('',(44.9999999999997,50.,-14.8333333333333));
#1193=CARTESIAN_POINT('Origin',(44.9999999999997,50.,-17.3333333333333));
#1194=CARTESIAN_POINT('',(39.9999999999997,50.,-14.8333333333333));
#1195=CARTESIAN_POINT('',(44.9999999999997,50.,-14.8333333333333));
#1196=CARTESIAN_POINT('Origin',(39.9999999999997,50.,-17.3333333333333));
#1197=CARTESIAN_POINT('Origin',(44.9999999999997,50.,-26.));
#1198=CARTESIAN_POINT('',(44.9999999999997,50.,-23.5));
#1199=CARTESIAN_POINT('Origin',(44.9999999999997,50.,-26.));
#1200=CARTESIAN_POINT('',(39.9999999999997,50.,-23.5));
#1201=CARTESIAN_POINT('',(44.9999999999997,50.,-23.5));
#1202=CARTESIAN_POINT('Origin',(39.9999999999997,50.,-26.));
#1203=CARTESIAN_POINT('Origin',(44.9999999999997,50.,26.));
#1204=CARTESIAN_POINT('',(44.9999999999997,50.,28.5));
#1205=CARTESIAN_POINT('Origin',(44.9999999999997,50.,26.));
#1206=CARTESIAN_POINT('',(39.9999999999997,50.,28.5));
#1207=CARTESIAN_POINT('',(44.9999999999997,50.,28.5));
#1208=CARTESIAN_POINT('Origin',(39.9999999999997,50.,26.));
#1209=CARTESIAN_POINT('Origin',(44.9999999999997,62.5,8.66666666666664));
#1210=CARTESIAN_POINT('',(44.9999999999997,62.5,11.1666666666667));
#1211=CARTESIAN_POINT('Origin',(44.9999999999997,62.5,8.66666666666664));
#1212=CARTESIAN_POINT('',(39.9999999999997,62.5,11.1666666666667));
#1213=CARTESIAN_POINT('',(44.9999999999997,62.5,11.1666666666666));
#1214=CARTESIAN_POINT('Origin',(39.9999999999997,62.5,8.66666666666664));
#1215=CARTESIAN_POINT('Origin',(44.9999999999997,62.5,17.3333333333333));
#1216=CARTESIAN_POINT('',(44.9999999999997,62.5,19.8333333333333));
#1217=CARTESIAN_POINT('Origin',(44.9999999999997,62.5,17.3333333333333));
#1218=CARTESIAN_POINT('',(39.9999999999997,62.5,19.8333333333333));
#1219=CARTESIAN_POINT('',(44.9999999999997,62.5,19.8333333333333));
#1220=CARTESIAN_POINT('Origin',(39.9999999999997,62.5,17.3333333333333));
#1221=CARTESIAN_POINT('Origin',(34.9999999999997,39.9999999999997,38.0000000000004));
#1222=CARTESIAN_POINT('',(34.9999999999997,39.9999999999997,38.0000000000004));
#1223=CARTESIAN_POINT('',(34.9999999999997,40.,-37.9999999999996));
#1224=CARTESIAN_POINT('',(34.9999999999997,39.9999999999998,19.0000000000004));
#1225=CARTESIAN_POINT('',(39.9999999999997,39.9999999999997,38.0000000000004));
#1226=CARTESIAN_POINT('',(34.9999999999997,39.9999999999997,38.0000000000004));
#1227=CARTESIAN_POINT('',(39.9999999999997,40.,-37.9999999999996));
#1228=CARTESIAN_POINT('',(39.9999999999997,40.,-37.9999999999996));
#1229=CARTESIAN_POINT('',(34.9999999999997,40.,-37.9999999999996));
#1230=CARTESIAN_POINT('Origin',(34.9999999999997,57.9999999999997,38.0000000000004));
#1231=CARTESIAN_POINT('',(34.9999999999997,57.9999999999997,38.0000000000004));
#1232=CARTESIAN_POINT('',(34.9999999999997,62.9999999999997,38.0000000000005));
#1233=CARTESIAN_POINT('',(39.9999999999997,57.9999999999997,38.0000000000004));
#1234=CARTESIAN_POINT('',(34.9999999999997,57.9999999999997,38.0000000000004));
#1235=CARTESIAN_POINT('',(39.9999999999997,39.9999999999997,38.0000000000004));
#1236=CARTESIAN_POINT('Origin',(34.9999999999997,57.9999999999998,4.44089209850063E-13));
#1237=CARTESIAN_POINT('',(34.9999999999997,57.9999999999999,-37.9999999999996));
#1238=CARTESIAN_POINT('Origin',(34.9999999999997,57.9999999999998,4.44089209850063E-13));
#1239=CARTESIAN_POINT('',(39.9999999999997,57.9999999999999,-37.9999999999996));
#1240=CARTESIAN_POINT('',(34.9999999999997,57.9999999999999,-37.9999999999996));
#1241=CARTESIAN_POINT('Origin',(39.9999999999997,57.9999999999998,4.44089209850063E-13));
#1242=CARTESIAN_POINT('Origin',(34.9999999999997,40.,-37.9999999999996));
#1243=CARTESIAN_POINT('',(34.9999999999997,54.,-37.9999999999996));
#1244=CARTESIAN_POINT('',(39.9999999999997,57.9999999999999,-37.9999999999996));
#1245=CARTESIAN_POINT('Origin',(39.9999999999997,67.9999999999998,4.04121180963557E-13));
#1246=CARTESIAN_POINT('Origin',(24.9999999999997,33.0000004917383,-45.0000006705523));
#1247=CARTESIAN_POINT('',(43.6602543217493,33.0000004917383,-42.0000006705523));
#1248=CARTESIAN_POINT('',(24.9999999999997,33.0000004917383,-42.0000006705523));
#1249=CARTESIAN_POINT('',(42.0204554902803,30.8786795670333,-47.1213204329664));
#1250=CARTESIAN_POINT('Ctrl Pts',(42.0204554902864,30.8786795670393,-47.1213204329724));
#1251=CARTESIAN_POINT('Ctrl Pts',(41.9830502997665,30.8418041760746,-47.0844450218035));
#1252=CARTESIAN_POINT('Ctrl Pts',(41.9462041984185,30.8060615423433,-47.0467783327466));
#1253=CARTESIAN_POINT('Ctrl Pts',(41.6850659852972,30.5564285519886,-46.7697888486833));
#1254=CARTESIAN_POINT('Ctrl Pts',(41.4532367355816,30.3577008722942,-46.4682920264922));
#1255=CARTESIAN_POINT('Ctrl Pts',(41.1948634302889,30.1491454202429,-45.9523825705075));
#1256=CARTESIAN_POINT('Ctrl Pts',(41.1236610156833,30.0940184157326,-45.7696772739335));
#1257=CARTESIAN_POINT('Ctrl Pts',(41.0261293185567,30.0194276837516,-45.3915611651599));
#1258=CARTESIAN_POINT('Ctrl Pts',(41.0000006556507,30.0000004917383,-45.1960914273719));
#1259=CARTESIAN_POINT('Ctrl Pts',(41.0000006556507,30.0000004917383,-45.0000006705523));
#1260=CARTESIAN_POINT('Ctrl Pts',(41.0000006556507,30.0000004917383,-44.8039099137327));
#1261=CARTESIAN_POINT('Ctrl Pts',(41.0261293185567,30.0194276837516,-44.6084401759447));
#1262=CARTESIAN_POINT('Ctrl Pts',(41.1236610156833,30.0940184157326,-44.2303240671712));
#1263=CARTESIAN_POINT('Ctrl Pts',(41.1948634302889,30.1491454202429,-44.0476187705971));
#1264=CARTESIAN_POINT('Ctrl Pts',(41.4532367355816,30.3577008722942,-43.5317093146125));
#1265=CARTESIAN_POINT('Ctrl Pts',(41.6850659852972,30.5564285519886,-43.2302124924213));
#1266=CARTESIAN_POINT('Ctrl Pts',(42.1899341634959,31.0390532569379,-42.6946984650881));
#1267=CARTESIAN_POINT('Ctrl Pts',(42.5099684786726,31.3786569319368,-42.440849269753));
#1268=CARTESIAN_POINT('Ctrl Pts',(43.1233652016565,32.1474151365945,-42.0929215855599));
#1269=CARTESIAN_POINT('Ctrl Pts',(43.4162900615004,32.5774419423461,-42.0000006705523));
#1270=CARTESIAN_POINT('Ctrl Pts',(43.6602543217493,33.0000004917383,-42.0000006705523));
#1271=CARTESIAN_POINT('',(44.5767010458112,35.1213202541524,-42.8786797458472));
#1272=CARTESIAN_POINT('Ctrl Pts',(44.5767010458112,35.1213202541524,-42.8786797458472));
#1273=CARTESIAN_POINT('Ctrl Pts',(44.4931275594016,35.3993500469347,-43.1567093862945));
#1274=CARTESIAN_POINT('Ctrl Pts',(44.3747213957922,35.6299090765148,-43.5032469057952));
#1275=CARTESIAN_POINT('Ctrl Pts',(44.0627952392635,35.9321354176868,-44.2464688682023));
#1276=CARTESIAN_POINT('Ctrl Pts',(43.8660337784769,36.0000004917383,-44.6435790977884));
#1277=CARTESIAN_POINT('Ctrl Pts',(43.4162893017493,36.0000004917383,-45.4225592426115));
#1278=CARTESIAN_POINT('Ctrl Pts',(43.1233643415016,35.9070795674155,-45.8525860632201));
#1279=CARTESIAN_POINT('Ctrl Pts',(42.5099674118162,35.5591518608921,-46.6213442833336));
#1280=CARTESIAN_POINT('Ctrl Pts',(42.1899329899609,35.3053026532301,-46.9609479590723));
#1281=CARTESIAN_POINT('Ctrl Pts',(41.6850646583286,34.7697886234435,-47.4435726408175));
#1282=CARTESIAN_POINT('Ctrl Pts',(41.4532353442515,34.4682918188508,-47.642300303667));
#1283=CARTESIAN_POINT('Ctrl Pts',(41.1948619555255,33.9523823850721,-47.8508557437158));
#1284=CARTESIAN_POINT('Ctrl Pts',(41.1236595155345,33.7696770951322,-47.9059827463366));
#1285=CARTESIAN_POINT('Ctrl Pts',(41.0261277808714,33.391560992892,-47.9805734774665));
#1286=CARTESIAN_POINT('Ctrl Pts',(40.9999991059294,33.1960912549595,-48.0000006705523));
#1287=CARTESIAN_POINT('Ctrl Pts',(40.9999991059294,33.0000004917383,-48.0000006705523));
#1288=CARTESIAN_POINT('Ctrl Pts',(40.9999991059294,32.8039097285171,-48.0000006705523));
#1289=CARTESIAN_POINT('Ctrl Pts',(41.0261277808714,32.6084399905847,-47.9805734774665));
#1290=CARTESIAN_POINT('Ctrl Pts',(41.1236595155345,32.2303238883445,-47.9059827463366));
#1291=CARTESIAN_POINT('Ctrl Pts',(41.1948619555255,32.0476185984045,-47.8508557437158));
#1292=CARTESIAN_POINT('Ctrl Pts',(41.4532353442515,31.5317091646258,-47.642300303667));
#1293=CARTESIAN_POINT('Ctrl Pts',(41.6850646583286,31.2302123600331,-47.4435726408175));
#1294=CARTESIAN_POINT('Ctrl Pts',(41.9462033373906,30.9532224646568,-47.1939392929183));
#1295=CARTESIAN_POINT('Ctrl Pts',(41.9830498637033,30.9155553676742,-47.1581962538119));
#1296=CARTESIAN_POINT('Ctrl Pts',(42.0204554902803,30.8786795670333,-47.1213204329664));
#1297=CARTESIAN_POINT('Ctrl Pts',(43.6602543217493,33.0000004917383,-42.0000006705523));
#1298=CARTESIAN_POINT('Ctrl Pts',(43.866034389801,33.3564220715263,-42.0000006705523));
#1299=CARTESIAN_POINT('Ctrl Pts',(44.0627957864496,33.7535323021467,-42.0678657473095));
#1300=CARTESIAN_POINT('Ctrl Pts',(44.3747216177131,34.4967537529031,-42.3700918815494));
#1301=CARTESIAN_POINT('Ctrl Pts',(44.4931276225529,34.8432908237948,-42.6006504678245));
#1302=CARTESIAN_POINT('Ctrl Pts',(44.5767010458112,35.1213202541524,-42.8786797458472));
#1303=CARTESIAN_POINT('Origin',(24.9999999999997,90.,-30.));
#1304=CARTESIAN_POINT('',(44.8238193424617,90.,-27.));
#1305=CARTESIAN_POINT('',(24.9999999999997,90.,-27.));
#1306=CARTESIAN_POINT('',(44.9626551836013,87.8113883875798,-27.948176613356));
#1307=CARTESIAN_POINT('Ctrl Pts',(44.9626551836013,87.8113883875798,-27.948176613356));
#1308=CARTESIAN_POINT('Ctrl Pts',(44.9626551836013,87.8212866799815,-27.9376184347941));
#1309=CARTESIAN_POINT('Ctrl Pts',(44.9626454429685,87.8312612519773,-27.9271320124592));
#1310=CARTESIAN_POINT('Ctrl Pts',(44.962493288362,87.9097130878451,-27.8458405176574));
#1311=CARTESIAN_POINT('Ctrl Pts',(44.9619128844005,87.9815633119072,-27.7783760542969));
#1312=CARTESIAN_POINT('Ctrl Pts',(44.9592958685496,88.1673528835411,-27.6203900079305));
#1313=CARTESIAN_POINT('Ctrl Pts',(44.9567095242243,88.2848071727774,-27.5343894304657));
#1314=CARTESIAN_POINT('Ctrl Pts',(44.9442293672857,88.6817212290195,-27.2858808032767));
#1315=CARTESIAN_POINT('Ctrl Pts',(44.9295566107771,88.9810536014645,-27.160039401109));
#1316=CARTESIAN_POINT('Ctrl Pts',(44.8839020050663,89.5265598722168,-27.0279387987));
#1317=CARTESIAN_POINT('Ctrl Pts',(44.8581886213159,89.7636155043931,-27.));
#1318=CARTESIAN_POINT('Ctrl Pts',(44.8238193424617,90.,-27.));
#1319=CARTESIAN_POINT('Ctrl Pts',(44.8238193424617,90.,-27.));
#1320=CARTESIAN_POINT('Ctrl Pts',(44.8045663982157,90.132417602762,-27.));
#1321=CARTESIAN_POINT('Ctrl Pts',(44.7825957030271,90.2646243805642,-27.0087683698729));
#1322=CARTESIAN_POINT('Ctrl Pts',(44.6839139343322,90.7802664391065,-27.0773860951786));
#1323=CARTESIAN_POINT('Ctrl Pts',(44.5852966842058,91.1434630906068,-27.2012794898567));
#1324=CARTESIAN_POINT('Ctrl Pts',(44.3176859100895,91.8337164424595,-27.589285303782));
#1325=CARTESIAN_POINT('Ctrl Pts',(44.1461601347906,92.1407747367971,-27.8611730674396));
#1326=CARTESIAN_POINT('Ctrl Pts',(43.7505725808003,92.6375605161532,-28.5100442149535));
#1327=CARTESIAN_POINT('Ctrl Pts',(43.5257919811042,92.8169137348421,-28.8894704401723));
#1328=CARTESIAN_POINT('Ctrl Pts',(43.1191511985853,92.9953394606388,-29.6197480910355));
#1329=CARTESIAN_POINT('Ctrl Pts',(42.9348424975733,93.0203421492306,-29.9678962556463));
#1330=CARTESIAN_POINT('Ctrl Pts',(42.6503203806721,92.9552668994292,-30.5796264603642));
#1331=CARTESIAN_POINT('Ctrl Pts',(42.5401094957494,92.8921133618969,-30.8441539937723));
#1332=CARTESIAN_POINT('Ctrl Pts',(42.3876450700074,92.7110884929834,-31.3024623508559));
#1333=CARTESIAN_POINT('Ctrl Pts',(42.3363391520518,92.6092270864162,-31.4972732830174));
#1334=CARTESIAN_POINT('Ctrl Pts',(42.2925503538602,92.430839951313,-31.7606807182384));
#1335=CARTESIAN_POINT('Ctrl Pts',(42.2832854721633,92.3738351696693,-31.8368523954337));
#1336=CARTESIAN_POINT('Ctrl Pts',(42.2741810353515,92.2690552276443,-31.9637092910446));
#1337=CARTESIAN_POINT('Ctrl Pts',(42.2724533103111,92.2232491875924,-32.0154261287435));
#1338=CARTESIAN_POINT('Ctrl Pts',(42.2732349103194,92.1264848715576,-32.1173476104201));
#1339=CARTESIAN_POINT('Ctrl Pts',(42.2758841940427,92.0755612084749,-32.1672840291848));
#1340=CARTESIAN_POINT('Ctrl Pts',(42.2880375140894,91.9442216775926,-32.2872190963068));
#1341=CARTESIAN_POINT('Ctrl Pts',(42.3002556333133,91.8621568912973,-32.354465749459));
#1342=CARTESIAN_POINT('Ctrl Pts',(42.360085878411,91.5597142622711,-32.5768426385783));
#1343=CARTESIAN_POINT('Ctrl Pts',(42.4324299321855,91.3270579797397,-32.7028132586006));
#1344=CARTESIAN_POINT('Ctrl Pts',(42.6452981476187,90.7700290349202,-32.9193813349862));
#1345=CARTESIAN_POINT('Ctrl Pts',(42.7989458182355,90.4424922837516,-32.9846835590412));
#1346=CARTESIAN_POINT('Ctrl Pts',(43.1875987837139,89.6775761837982,-33.0153176534413));
#1347=CARTESIAN_POINT('Ctrl Pts',(43.4341447962514,89.2381503878157,-32.9349915114912));
#1348=CARTESIAN_POINT('Ctrl Pts',(43.8727273591364,88.4710897420835,-32.6107154186357));
#1349=CARTESIAN_POINT('Ctrl Pts',(44.0682267400141,88.1359908701476,-32.3859035228358));
#1350=CARTESIAN_POINT('Ctrl Pts',(44.3826746106474,87.6066546199771,-31.8423807385267));
#1351=CARTESIAN_POINT('Ctrl Pts',(44.5062353790926,87.4032655563902,-31.5460177704028));
#1352=CARTESIAN_POINT('Ctrl Pts',(44.6966415963895,87.121540519496,-30.9082275874782));
#1353=CARTESIAN_POINT('Ctrl Pts',(44.7654441545234,87.0371609673454,-30.5808111662999));
#1354=CARTESIAN_POINT('Ctrl Pts',(44.8641398273701,86.9843296599588,-29.9271599839939));
#1355=CARTESIAN_POINT('Ctrl Pts',(44.8957164033334,87.0085993776053,-29.6090938300444));
#1356=CARTESIAN_POINT('Ctrl Pts',(44.937009978277,87.1503640372182,-29.0186278306604));
#1357=CARTESIAN_POINT('Ctrl Pts',(44.9483511585832,87.2582140993528,-28.7484067236524));
#1358=CARTESIAN_POINT('Ctrl Pts',(44.9581165143348,87.4698679965831,-28.3825529025739));
#1359=CARTESIAN_POINT('Ctrl Pts',(44.9601663202348,87.5440967284813,-28.2719236837238));
#1360=CARTESIAN_POINT('Ctrl Pts',(44.9622329766441,87.6838933262825,-28.0908631314742));
#1361=CARTESIAN_POINT('Ctrl Pts',(44.9626551836013,87.7459551407736,-28.0179720766159));
#1362=CARTESIAN_POINT('Ctrl Pts',(44.9626551836013,87.8113883875798,-27.948176613356));
#1363=CARTESIAN_POINT('Origin',(24.9999999999997,33.0000004917383,45.0000006705523));
#1364=CARTESIAN_POINT('',(40.9999991059304,33.0000004917383,48.0000006705523));
#1365=CARTESIAN_POINT('',(24.9999999999997,33.0000004917383,48.0000006705523));
#1366=CARTESIAN_POINT('',(42.0204554902808,30.8786795670335,47.1213204329666));
#1367=CARTESIAN_POINT('Ctrl Pts',(42.0204554902869,30.8786795670275,47.1213204329606));
#1368=CARTESIAN_POINT('Ctrl Pts',(41.9830498637079,30.9155553676703,47.1581962538082));
#1369=CARTESIAN_POINT('Ctrl Pts',(41.9462033373932,30.9532224646548,47.1939392929165));
#1370=CARTESIAN_POINT('Ctrl Pts',(41.6850646583294,31.2302123600331,47.4435726408175));
#1371=CARTESIAN_POINT('Ctrl Pts',(41.4532353442523,31.5317091646258,47.642300303667));
#1372=CARTESIAN_POINT('Ctrl Pts',(41.1948619555264,32.0476185984045,47.8508557437158));
#1373=CARTESIAN_POINT('Ctrl Pts',(41.1236595155354,32.2303238883444,47.9059827463366));
#1374=CARTESIAN_POINT('Ctrl Pts',(41.0261277808724,32.6084399905846,47.9805734774665));
#1375=CARTESIAN_POINT('Ctrl Pts',(40.9999991059304,32.8039097285171,48.0000006705523));
#1376=CARTESIAN_POINT('Ctrl Pts',(40.9999991059304,33.0000004917383,48.0000006705523));
#1377=CARTESIAN_POINT('',(44.5767010458113,35.1213202541526,42.8786797458475));
#1378=CARTESIAN_POINT('Ctrl Pts',(44.5767010458113,35.1213202541526,42.8786797458475));
#1379=CARTESIAN_POINT('Ctrl Pts',(44.493127622553,34.843290823795,42.6006504678247));
#1380=CARTESIAN_POINT('Ctrl Pts',(44.3747216177132,34.4967537529032,42.3700918815495));
#1381=CARTESIAN_POINT('Ctrl Pts',(44.0627957864497,33.7535323021467,42.0678657473095));
#1382=CARTESIAN_POINT('Ctrl Pts',(43.866034389801,33.3564220715263,42.0000006705523));
#1383=CARTESIAN_POINT('Ctrl Pts',(43.4162900615006,32.5774419423461,42.0000006705523));
#1384=CARTESIAN_POINT('Ctrl Pts',(43.1233652016566,32.1474151365946,42.0929215855599));
#1385=CARTESIAN_POINT('Ctrl Pts',(42.5099684786728,31.3786569319369,42.440849269753));
#1386=CARTESIAN_POINT('Ctrl Pts',(42.1899341634961,31.0390532569379,42.6946984650881));
#1387=CARTESIAN_POINT('Ctrl Pts',(41.6850659852974,30.5564285519886,43.2302124924213));
#1388=CARTESIAN_POINT('Ctrl Pts',(41.4532367355819,30.3577008722942,43.5317093146124));
#1389=CARTESIAN_POINT('Ctrl Pts',(41.1948634302892,30.1491454202429,44.0476187705971));
#1390=CARTESIAN_POINT('Ctrl Pts',(41.1236610156837,30.0940184157326,44.2303240671711));
#1391=CARTESIAN_POINT('Ctrl Pts',(41.026129318557,30.0194276837516,44.6084401759447));
#1392=CARTESIAN_POINT('Ctrl Pts',(41.0000006556511,30.0000004917383,44.8039099137327));
#1393=CARTESIAN_POINT('Ctrl Pts',(41.0000006556511,30.0000004917383,45.0000006705523));
#1394=CARTESIAN_POINT('Ctrl Pts',(41.0000006556511,30.0000004917383,45.1960914273719));
#1395=CARTESIAN_POINT('Ctrl Pts',(41.026129318557,30.0194276837516,45.3915611651599));
#1396=CARTESIAN_POINT('Ctrl Pts',(41.1236610156837,30.0940184157326,45.7696772739335));
#1397=CARTESIAN_POINT('Ctrl Pts',(41.1948634302892,30.1491454202429,45.9523825705075));
#1398=CARTESIAN_POINT('Ctrl Pts',(41.453236735582,30.3577008722942,46.4682920264922));
#1399=CARTESIAN_POINT('Ctrl Pts',(41.6850659852974,30.5564285519886,46.7697888486833));
#1400=CARTESIAN_POINT('Ctrl Pts',(41.9462041984169,30.8060615423415,47.0467783327446));
#1401=CARTESIAN_POINT('Ctrl Pts',(41.9830502997629,30.8418041760708,47.0844450217996));
#1402=CARTESIAN_POINT('Ctrl Pts',(42.0204554902808,30.8786795670335,47.1213204329666));
#1403=CARTESIAN_POINT('Ctrl Pts',(40.9999991059304,33.0000004917383,48.0000006705523));
#1404=CARTESIAN_POINT('Ctrl Pts',(40.9999991059304,33.1960912549595,48.0000006705523));
#1405=CARTESIAN_POINT('Ctrl Pts',(41.0261277808724,33.3915609928919,47.9805734774665));
#1406=CARTESIAN_POINT('Ctrl Pts',(41.1236595155354,33.7696770951321,47.9059827463366));
#1407=CARTESIAN_POINT('Ctrl Pts',(41.1948619555264,33.9523823850721,47.8508557437158));
#1408=CARTESIAN_POINT('Ctrl Pts',(41.4532353442523,34.4682918188508,47.642300303667));
#1409=CARTESIAN_POINT('Ctrl Pts',(41.6850646583294,34.7697886234435,47.4435726408175));
#1410=CARTESIAN_POINT('Ctrl Pts',(42.1899329899616,35.3053026532302,46.9609479590723));
#1411=CARTESIAN_POINT('Ctrl Pts',(42.5099674118168,35.5591518608922,46.6213442833335));
#1412=CARTESIAN_POINT('Ctrl Pts',(43.1233643415022,35.9070795674155,45.8525860632201));
#1413=CARTESIAN_POINT('Ctrl Pts',(43.4162893017498,36.0000004917383,45.4225592426115));
#1414=CARTESIAN_POINT('Ctrl Pts',(43.8660337784773,36.0000004917383,44.6435790977884));
#1415=CARTESIAN_POINT('Ctrl Pts',(44.0627952392639,35.9321354176868,44.2464688682023));
#1416=CARTESIAN_POINT('Ctrl Pts',(44.3747213957924,35.6299090765149,43.5032469057953));
#1417=CARTESIAN_POINT('Ctrl Pts',(44.4931275594018,35.3993500469348,43.1567093862947));
#1418=CARTESIAN_POINT('Ctrl Pts',(44.5767010458113,35.1213202541526,42.8786797458475));
#1419=CARTESIAN_POINT('Origin',(24.9999999999997,90.,30.));
#1420=CARTESIAN_POINT('',(43.0243615982449,90.0000000000118,33.));
#1421=CARTESIAN_POINT('',(24.9999999999997,90.,33.));
#1422=CARTESIAN_POINT('',(44.9626551836013,87.8113883875797,27.948176613356));
#1423=CARTESIAN_POINT('Ctrl Pts',(44.9626551836013,87.8113883875797,27.948176613356));
#1424=CARTESIAN_POINT('Ctrl Pts',(44.9626551836013,87.8014900951755,27.9587347919206));
#1425=CARTESIAN_POINT('Ctrl Pts',(44.9626454429685,87.7916683259691,27.9693644668679));
#1426=CARTESIAN_POINT('Ctrl Pts',(44.962493288362,87.7156019837823,28.052892361991));
#1427=CARTESIAN_POINT('Ctrl Pts',(44.9619128844005,87.6529084589023,28.1289412308353));
#1428=CARTESIAN_POINT('Ctrl Pts',(44.9592958685497,87.5072248299307,28.324526598448));
#1429=CARTESIAN_POINT('Ctrl Pts',(44.9567095242243,87.4289728669021,28.4472793567323));
#1430=CARTESIAN_POINT('Ctrl Pts',(44.9442293672858,87.2065616292579,28.8593843763546));
#1431=CARTESIAN_POINT('Ctrl Pts',(44.9295566107774,87.1002735429895,29.1662047968134));
#1432=CARTESIAN_POINT('Ctrl Pts',(44.8729954134484,86.9805114410289,29.8511716093812));
#1433=CARTESIAN_POINT('Ctrl Pts',(44.8273854879943,86.9858787347623,30.2253099361957));
#1434=CARTESIAN_POINT('Ctrl Pts',(44.683913934333,87.1337496575836,30.9670039954657));
#1435=CARTESIAN_POINT('Ctrl Pts',(44.5852966842071,87.2807931620357,31.3214607469945));
#1436=CARTESIAN_POINT('Ctrl Pts',(44.317685910091,87.7124784938266,31.9852724489852));
#1437=CARTESIAN_POINT('Ctrl Pts',(44.1461601347925,88.0035906220589,32.2741694564886));
#1438=CARTESIAN_POINT('Ctrl Pts',(43.7505725808025,88.683130143819,32.7281032787714));
#1439=CARTESIAN_POINT('Ctrl Pts',(43.5257919811065,89.0733266882768,32.8826299565042));
#1440=CARTESIAN_POINT('Ctrl Pts',(43.2096327881261,89.6488705746647,32.9844726625935));
#1441=CARTESIAN_POINT('Ctrl Pts',(43.1155657133613,89.8238263226109,33.));
#1442=CARTESIAN_POINT('Ctrl Pts',(43.0243615982449,90.0000000000235,33.));
#1443=CARTESIAN_POINT('Ctrl Pts',(43.0243615982449,90.0000000000235,33.));
#1444=CARTESIAN_POINT('Ctrl Pts',(42.9368174069362,90.1691040157719,33.));
#1445=CARTESIAN_POINT('Ctrl Pts',(42.8519120751983,90.3393307247781,32.9857122463421));
#1446=CARTESIAN_POINT('Ctrl Pts',(42.6503203806738,90.7688856026111,32.9117665103014));
#1447=CARTESIAN_POINT('Ctrl Pts',(42.5401094957507,91.0287929963169,32.8316957170563));
#1448=CARTESIAN_POINT('Ctrl Pts',(42.3876450700084,91.4744816459305,32.6215096543781));
#1449=CARTESIAN_POINT('Ctrl Pts',(42.3363391520526,91.6623226934024,32.507304635565));
#1450=CARTESIAN_POINT('Ctrl Pts',(42.2925503538609,91.9136856200516,32.3123120049171));
#1451=CARTESIAN_POINT('Ctrl Pts',(42.2832854721639,91.9860250313256,32.2505165430002));
#1452=CARTESIAN_POINT('Ctrl Pts',(42.2741810353521,92.1058652219502,32.1377786304514));
#1453=CARTESIAN_POINT('Ctrl Pts',(42.2724533103117,92.1545223838088,32.0887347194461));
#1454=CARTESIAN_POINT('Ctrl Pts',(42.27323491032,92.2499956008728,31.9856028324838));
#1455=CARTESIAN_POINT('Ctrl Pts',(42.2758841940433,92.2965462192753,31.9315666843311));
#1456=CARTESIAN_POINT('Ctrl Pts',(42.2880375140899,92.4077672312523,31.7927705057366));
#1457=CARTESIAN_POINT('Ctrl Pts',(42.3002556333137,92.4695850797718,31.7065423484198));
#1458=CARTESIAN_POINT('Ctrl Pts',(42.3600858784112,92.6720075023855,31.3903965157902));
#1459=CARTESIAN_POINT('Ctrl Pts',(42.4324299321852,92.78272174948,31.1501052375458));
#1460=CARTESIAN_POINT('Ctrl Pts',(42.6452981476182,92.9629395860199,30.5802767471485));
#1461=CARTESIAN_POINT('Ctrl Pts',(42.7989458182347,93.0069966094305,30.2492122783196));
#1462=CARTESIAN_POINT('Ctrl Pts',(43.1875987837124,92.9882688884608,29.4839121018051));
#1463=CARTESIAN_POINT('Ctrl Pts',(43.4341447962497,92.8797891632825,29.0505768176651));
#1464=CARTESIAN_POINT('Ctrl Pts',(43.8727273591349,92.506750900105,28.3060101834175));
#1465=CARTESIAN_POINT('Ctrl Pts',(44.0682267400129,92.2608095799107,27.9860968990937));
#1466=CARTESIAN_POINT('Ctrl Pts',(44.3826746106464,91.6843015544973,27.4928906750429));
#1467=CARTESIAN_POINT('Ctrl Pts',(44.5062353790919,91.3754464907335,27.3090247737741));
#1468=CARTESIAN_POINT('Ctrl Pts',(44.6966415963888,90.7208253598654,27.0689904244215));
#1469=CARTESIAN_POINT('Ctrl Pts',(44.765444154523,90.3886514549129,27.0058879795645));
#1470=CARTESIAN_POINT('Ctrl Pts',(44.8641398273698,89.7329542864388,26.9952937157513));
#1471=CARTESIAN_POINT('Ctrl Pts',(44.8957164033333,89.4171135532812,27.0400120426587));
#1472=CARTESIAN_POINT('Ctrl Pts',(44.9370099782769,88.8370117336213,27.2195369544988));
#1473=CARTESIAN_POINT('Ctrl Pts',(44.9483511585832,88.5743032524616,27.3445782936705));
#1474=CARTESIAN_POINT('Ctrl Pts',(44.9581165143348,88.2228509379002,27.5793710985027));
#1475=CARTESIAN_POINT('Ctrl Pts',(44.9601663202349,88.1172356897521,27.6605754583684));
#1476=CARTESIAN_POINT('Ctrl Pts',(44.9622329766441,87.9455613227082,27.8117506019535));
#1477=CARTESIAN_POINT('Ctrl Pts',(44.9626551836013,87.8768216343864,27.8783811500956));
#1478=CARTESIAN_POINT('Ctrl Pts',(44.9626551836013,87.8113883875797,27.948176613356));
#1479=CARTESIAN_POINT('Origin',(34.9999999999997,37.9999999999998,25.0000000000004));
#1480=CARTESIAN_POINT('',(44.9999999999997,38.,-39.9999999999996));
#1481=CARTESIAN_POINT('Origin',(34.9999999999997,38.,-39.9999999999996));
#1482=CARTESIAN_POINT('',(44.9999999999997,37.9999999999997,40.0000000000004));
#1483=CARTESIAN_POINT('',(44.9999999999997,37.9999999999998,25.0000000000004));
#1484=CARTESIAN_POINT('Origin',(34.9999999999997,37.9999999999997,40.0000000000004));
#1485=CARTESIAN_POINT('',(34.9999999999997,27.9999999999997,50.0000000000004));
#1486=CARTESIAN_POINT('Origin',(34.9999999999997,37.9999999999997,40.0000000000004));
#1487=CARTESIAN_POINT('',(34.9999999999998,28.,-49.9999999999997));
#1488=CARTESIAN_POINT('',(34.9999999999997,27.9999999999998,25.0000000000004));
#1489=CARTESIAN_POINT('Origin',(34.9999999999997,38.,-39.9999999999996));
#1490=CARTESIAN_POINT('Origin',(44.9999999999997,27.9999999999997,50.0000000000004));
#1491=CARTESIAN_POINT('',(44.9999999999997,58.,-39.9999999999995));
#1492=CARTESIAN_POINT('',(44.9999999999997,28.,-39.9999999999997));
#1493=CARTESIAN_POINT('',(44.9999999999997,57.9999999999997,40.0000000000005));
#1494=CARTESIAN_POINT('Origin',(44.9999999999997,57.9999999999999,4.66244733614054E-13));
#1495=CARTESIAN_POINT('',(44.9999999999997,27.9999999999997,40.0000000000004));
#1496=CARTESIAN_POINT('Origin',(34.9999999999997,28.,-39.9999999999997));
#1497=CARTESIAN_POINT('',(34.9999999999997,58.,-49.9999999999996));
#1498=CARTESIAN_POINT('',(34.9999999999998,28.,-49.9999999999997));
#1499=CARTESIAN_POINT('Origin',(34.9999999999997,58.,-39.9999999999995));
#1500=CARTESIAN_POINT('Origin',(34.9999999999997,57.9999999999999,4.60693618490929E-13));
#1501=CARTESIAN_POINT('',(34.9999999999997,57.9999999999997,50.0000000000005));
#1502=CARTESIAN_POINT('Origin',(34.9999999999997,57.9999999999999,4.60693618490929E-13));
#1503=CARTESIAN_POINT('Origin',(34.9999999999997,57.9999999999997,40.0000000000005));
#1504=CARTESIAN_POINT('Origin',(34.9999999999997,27.9999999999997,40.0000000000004));
#1505=CARTESIAN_POINT('',(34.9999999999997,27.9999999999997,50.0000000000004));
#1506=CARTESIAN_POINT('Origin',(34.9999999999997,67.9999999999999,4.8494030526542E-13));
#1507=UNCERTAINTY_MEASURE_WITH_UNIT(LENGTH_MEASURE(0.01),#1511,
'DISTANCE_ACCURACY_VALUE',
'Maximum model space distance between geometric entities at asserted c
onnectivities');
#1508=UNCERTAINTY_MEASURE_WITH_UNIT(LENGTH_MEASURE(0.01),#1511,
'DISTANCE_ACCURACY_VALUE',
'Maximum model space distance between geometric entities at asserted c
onnectivities');
#1509=(
GEOMETRIC_REPRESENTATION_CONTEXT(3)
GLOBAL_UNCERTAINTY_ASSIGNED_CONTEXT((#1507))
GLOBAL_UNIT_ASSIGNED_CONTEXT((#1511,#1513,#1514))
REPRESENTATION_CONTEXT('','3D')
);
#1510=(
GEOMETRIC_REPRESENTATION_CONTEXT(3)
GLOBAL_UNCERTAINTY_ASSIGNED_CONTEXT((#1508))
GLOBAL_UNIT_ASSIGNED_CONTEXT((#1511,#1513,#1514))
REPRESENTATION_CONTEXT('','3D')
);
#1511=(
LENGTH_UNIT()
NAMED_UNIT(*)
SI_UNIT(.MILLI.,.METRE.)
);
#1512=(
LENGTH_UNIT()
NAMED_UNIT(*)
SI_UNIT(.CENTI.,.METRE.)
);
#1513=(
NAMED_UNIT(*)
PLANE_ANGLE_UNIT()
SI_UNIT($,.RADIAN.)
);
#1514=(
NAMED_UNIT(*)
SI_UNIT($,.STERADIAN.)
SOLID_ANGLE_UNIT()
);
#1515=SHAPE_DEFINITION_REPRESENTATION(#1516,#1517);
#1516=PRODUCT_DEFINITION_SHAPE('',$,#1519);
#1517=SHAPE_REPRESENTATION('',(#782),#1509);
#1518=PRODUCT_DEFINITION_CONTEXT('part definition',#1523,'design');
#1519=PRODUCT_DEFINITION('Joint 1 Cover','Part1',#1520,#1518);
#1520=PRODUCT_DEFINITION_FORMATION('',$,#1525);
#1521=PRODUCT_RELATED_PRODUCT_CATEGORY('Part1','Part1',(#1525));
#1522=APPLICATION_PROTOCOL_DEFINITION('international standard',
'automotive_design',2009,#1523);
#1523=APPLICATION_CONTEXT(
'Core Data for Automotive Mechanical Design Process');
#1524=PRODUCT_CONTEXT('part definition',#1523,'mechanical');
#1525=PRODUCT('Joint 1 Cover','Part1',$,(#1524));
#1526=PRESENTATION_STYLE_ASSIGNMENT((#1528));
#1527=PRESENTATION_STYLE_ASSIGNMENT((#1529));
#1528=SURFACE_STYLE_USAGE(.BOTH.,#1534);
#1529=SURFACE_STYLE_USAGE(.BOTH.,#1535);
#1530=SURFACE_STYLE_RENDERING_WITH_PROPERTIES($,#1542,(#1532));
#1531=SURFACE_STYLE_RENDERING_WITH_PROPERTIES($,#1543,(#1533));
#1532=SURFACE_STYLE_TRANSPARENT(0.);
#1533=SURFACE_STYLE_TRANSPARENT(0.);
#1534=SURFACE_SIDE_STYLE('',(#1536,#1530));
#1535=SURFACE_SIDE_STYLE('',(#1537,#1531));
#1536=SURFACE_STYLE_FILL_AREA(#1538);
#1537=SURFACE_STYLE_FILL_AREA(#1539);
#1538=FILL_AREA_STYLE('',(#1540));
#1539=FILL_AREA_STYLE('',(#1541));
#1540=FILL_AREA_STYLE_COLOUR('',#1542);
#1541=FILL_AREA_STYLE_COLOUR('',#1543);
#1542=COLOUR_RGB('',0.749019607843137,0.749019607843137,0.749019607843137);
#1543=COLOUR_RGB('',0.,0.,0.);
ENDSEC;
END-ISO-10303-21;
