ISO-10303-21;
HEADER;
/* Generated by software containing ST-Developer
 * from STEP Tools, Inc. (www.steptools.com) 
 */

FILE_DESCRIPTION(
/* description */ (''),
/* implementation_level */ '2;1');

FILE_NAME(
/* name */ 'Joint 2 Cover.step',
/* time_stamp */ '2026-04-06T15:09:33+02:00',
/* author */ (''),
/* organization */ (''),
/* preprocessor_version */ 'ST-DEVELOPER v20.1',
/* originating_system */ 'Autodesk Translation Framework v14.24.0.0',
/* authorisation */ '');

FILE_SCHEMA (('AUTOMOTIVE_DESIGN { 1 0 10303 214 3 1 1 }'));
ENDSEC;

DATA;
#10=MECHANICAL_DESIGN_GEOMETRIC_PRESENTATION_REPRESENTATION('',(#13),#1564);
#11=SHAPE_REPRESENTATION_RELATIONSHIP('SRR','None',#1571,#12);
#12=ADVANCED_BREP_SHAPE_REPRESENTATION('',(#14),#1563);
#13=STYLED_ITEM('',(#1581),#14);
#14=MANIFOLD_SOLID_BREP('Cover',#792);
#15=TOROIDAL_SURFACE('',#908,15.,10.);
#16=TOROIDAL_SURFACE('',#910,15.,10.);
#17=B_SPLINE_CURVE_WITH_KNOTS('',3,(#1322,#1323,#1324,#1325,#1326,#1327,
#1328,#1329,#1330,#1331,#1332,#1333,#1334,#1335,#1336,#1337,#1338,#1339,
#1340,#1341,#1342,#1343,#1344,#1345),.UNSPECIFIED.,.F.,.F.,(4,2,2,2,2,2,
2,2,2,2,2,4),(-1.06344340325292,-0.982242818332635,-0.894949902905311,-0.736044193756057,
-0.561904880878903,-0.485393382325929,-0.435577579367606,-0.389814662699114,
-0.332512257734595,-0.22682882914814,-0.115449302265186,0.),
 .UNSPECIFIED.);
#18=B_SPLINE_CURVE_WITH_KNOTS('',3,(#1347,#1348,#1349,#1350,#1351,#1352,
#1353,#1354,#1355,#1356,#1357,#1358),.UNSPECIFIED.,.F.,.F.,(4,2,2,2,2,4),
(0.471417231280356,0.61779580994638,0.764174388612403,0.881828844329184,
0.940656072187574,0.999483300045964),.UNSPECIFIED.);
#19=B_SPLINE_CURVE_WITH_KNOTS('',3,(#1360,#1361,#1362,#1363,#1364,#1365,
#1366,#1367,#1368,#1369),.UNSPECIFIED.,.F.,.F.,(4,2,2,2,4),(0.,0.112240559648259,
0.224481119296518,0.347949175288437,0.471417231280356),.UNSPECIFIED.);
#20=B_SPLINE_CURVE_WITH_KNOTS('',3,(#1373,#1374,#1375,#1376,#1377,#1378,
#1379,#1380,#1381,#1382,#1383,#1384,#1385,#1386,#1387,#1388,#1389,#1390),
 .UNSPECIFIED.,.F.,.F.,(4,2,2,2,2,2,2,2,4),(-0.957358450785855,-0.90351183752109,
-0.846053979331002,-0.75893477754457,-0.660933195325576,-0.607909226120368,
-0.56663454792738,-0.522065288276705,-0.511329659980893),.UNSPECIFIED.);
#21=B_SPLINE_CURVE_WITH_KNOTS('',3,(#1392,#1393,#1394,#1395,#1396,#1397,
#1398,#1399,#1400,#1401,#1402,#1403,#1404,#1405,#1406,#1407,#1408,#1409,
#1410,#1411),.UNSPECIFIED.,.F.,.F.,(4,2,2,2,2,2,2,2,2,4),(-0.999483300045968,
-0.940656072187577,-0.881828844329186,-0.764174388612405,-0.617795809946381,
-0.471417231280358,-0.347949175288438,-0.224481119296519,-0.112240559648259,
0.),.UNSPECIFIED.);
#22=B_SPLINE_CURVE_WITH_KNOTS('',3,(#1412,#1413,#1414,#1415,#1416,#1417,
#1418,#1419,#1420,#1421,#1422,#1423),.UNSPECIFIED.,.F.,.F.,(4,2,2,2,2,4),
(-0.511329659980893,-0.454267802599449,-0.312045583067539,-0.174132120938473,
-0.0784034068949886,0.),.UNSPECIFIED.);
#23=B_SPLINE_CURVE_WITH_KNOTS('',3,(#1428,#1429,#1430,#1431,#1432,#1433,
#1434,#1435,#1436,#1437,#1438,#1439,#1440,#1441,#1442,#1443,#1444,#1445,
#1446,#1447,#1448,#1449,#1450,#1451,#1452,#1453),.UNSPECIFIED.,.F.,.F.,
(4,2,2,2,2,2,2,2,2,2,2,2,4),(-0.957358450787207,-0.903511837522338,-0.84605397933214,
-0.758934777545545,-0.660933195326388,-0.60790922612107,-0.566634547927938,
-0.522065288277129,-0.454267802599793,-0.312045583067627,-0.174132120938448,
-0.0784034068949824,0.),.UNSPECIFIED.);
#24=B_SPLINE_CURVE_WITH_KNOTS('',3,(#1455,#1456,#1457,#1458,#1459,#1460,
#1461,#1462,#1463,#1464),.UNSPECIFIED.,.F.,.F.,(4,2,2,2,4),(-0.471417231280357,
-0.347949175288438,-0.224481119296519,-0.112240559648259,0.),
 .UNSPECIFIED.);
#25=B_SPLINE_CURVE_WITH_KNOTS('',3,(#1466,#1467,#1468,#1469,#1470,#1471,
#1472,#1473,#1474,#1475,#1476,#1477),.UNSPECIFIED.,.F.,.F.,(4,2,2,2,2,4),
(-0.999483300045966,-0.940656072187576,-0.881828844329185,-0.764174388612405,
-0.617795809946381,-0.471417231280357),.UNSPECIFIED.);
#26=B_SPLINE_CURVE_WITH_KNOTS('',3,(#1481,#1482,#1483,#1484,#1485,#1486,
#1487,#1488,#1489,#1490,#1491,#1492,#1493,#1494,#1495,#1496,#1497,#1498,
#1499,#1500),.UNSPECIFIED.,.F.,.F.,(4,2,2,2,2,2,2,2,2,4),(0.,0.112240559648259,
0.224481119296519,0.347949175288438,0.471417231280357,0.617795809946381,
0.764174388612405,0.881828844329186,0.940656072187577,0.999483300045968),
 .UNSPECIFIED.);
#27=B_SPLINE_CURVE_WITH_KNOTS('',3,(#1502,#1503,#1504,#1505,#1506,#1507,
#1508,#1509,#1510,#1511,#1512,#1513,#1514,#1515,#1516,#1517),
 .UNSPECIFIED.,.F.,.F.,(4,2,2,2,2,2,2,4),(-0.495874946776742,-0.485393382325921,
-0.435577579367604,-0.389814662699119,-0.332512257734598,-0.226828829148145,
-0.115449302265189,0.),.UNSPECIFIED.);
#28=B_SPLINE_CURVE_WITH_KNOTS('',3,(#1519,#1520,#1521,#1522,#1523,#1524,
#1525,#1526,#1527,#1528,#1529,#1530),.UNSPECIFIED.,.F.,.F.,(4,2,2,2,2,4),
(-1.06344340325232,-0.982242818332232,-0.894949902905102,-0.73604419375603,
-0.561904880878896,-0.495874946776742),.UNSPECIFIED.);
#29=FACE_BOUND('',#128,.T.);
#30=FACE_BOUND('',#131,.T.);
#31=FACE_BOUND('',#134,.T.);
#32=FACE_BOUND('',#137,.T.);
#33=FACE_BOUND('',#172,.T.);
#34=FACE_BOUND('',#173,.T.);
#35=FACE_BOUND('',#174,.T.);
#36=FACE_BOUND('',#175,.T.);
#37=FACE_BOUND('',#176,.T.);
#38=FACE_BOUND('',#177,.T.);
#39=FACE_BOUND('',#178,.T.);
#40=FACE_BOUND('',#179,.T.);
#41=FACE_BOUND('',#180,.T.);
#42=FACE_BOUND('',#181,.T.);
#43=FACE_BOUND('',#182,.T.);
#44=FACE_BOUND('',#186,.T.);
#45=FACE_BOUND('',#187,.T.);
#46=FACE_BOUND('',#188,.T.);
#47=FACE_BOUND('',#189,.T.);
#48=FACE_BOUND('',#190,.T.);
#49=FACE_BOUND('',#191,.T.);
#50=FACE_BOUND('',#192,.T.);
#51=FACE_BOUND('',#193,.T.);
#52=FACE_BOUND('',#194,.T.);
#53=FACE_BOUND('',#195,.T.);
#54=FACE_BOUND('',#196,.T.);
#55=FACE_BOUND('',#197,.T.);
#56=FACE_BOUND('',#198,.T.);
#57=FACE_BOUND('',#199,.T.);
#58=FACE_BOUND('',#200,.T.);
#59=FACE_BOUND('',#201,.T.);
#60=FACE_BOUND('',#202,.T.);
#61=FACE_BOUND('',#203,.T.);
#62=FACE_BOUND('',#204,.T.);
#63=FACE_BOUND('',#205,.T.);
#64=FACE_BOUND('',#206,.T.);
#65=FACE_BOUND('',#207,.T.);
#66=FACE_BOUND('',#208,.T.);
#67=PLANE('',#809);
#68=PLANE('',#814);
#69=PLANE('',#819);
#70=PLANE('',#824);
#71=PLANE('',#862);
#72=PLANE('',#866);
#73=PLANE('',#870);
#74=PLANE('',#874);
#75=PLANE('',#878);
#76=PLANE('',#882);
#77=PLANE('',#886);
#78=PLANE('',#890);
#79=PLANE('',#905);
#80=PLANE('',#912);
#81=FACE_OUTER_BOUND('',#126,.T.);
#82=FACE_OUTER_BOUND('',#127,.T.);
#83=FACE_OUTER_BOUND('',#129,.T.);
#84=FACE_OUTER_BOUND('',#130,.T.);
#85=FACE_OUTER_BOUND('',#132,.T.);
#86=FACE_OUTER_BOUND('',#133,.T.);
#87=FACE_OUTER_BOUND('',#135,.T.);
#88=FACE_OUTER_BOUND('',#136,.T.);
#89=FACE_OUTER_BOUND('',#138,.T.);
#90=FACE_OUTER_BOUND('',#139,.T.);
#91=FACE_OUTER_BOUND('',#140,.T.);
#92=FACE_OUTER_BOUND('',#141,.T.);
#93=FACE_OUTER_BOUND('',#142,.T.);
#94=FACE_OUTER_BOUND('',#143,.T.);
#95=FACE_OUTER_BOUND('',#144,.T.);
#96=FACE_OUTER_BOUND('',#145,.T.);
#97=FACE_OUTER_BOUND('',#146,.T.);
#98=FACE_OUTER_BOUND('',#147,.T.);
#99=FACE_OUTER_BOUND('',#148,.T.);
#100=FACE_OUTER_BOUND('',#149,.T.);
#101=FACE_OUTER_BOUND('',#150,.T.);
#102=FACE_OUTER_BOUND('',#151,.T.);
#103=FACE_OUTER_BOUND('',#152,.T.);
#104=FACE_OUTER_BOUND('',#153,.T.);
#105=FACE_OUTER_BOUND('',#154,.T.);
#106=FACE_OUTER_BOUND('',#155,.T.);
#107=FACE_OUTER_BOUND('',#156,.T.);
#108=FACE_OUTER_BOUND('',#157,.T.);
#109=FACE_OUTER_BOUND('',#158,.T.);
#110=FACE_OUTER_BOUND('',#159,.T.);
#111=FACE_OUTER_BOUND('',#160,.T.);
#112=FACE_OUTER_BOUND('',#161,.T.);
#113=FACE_OUTER_BOUND('',#162,.T.);
#114=FACE_OUTER_BOUND('',#163,.T.);
#115=FACE_OUTER_BOUND('',#164,.T.);
#116=FACE_OUTER_BOUND('',#165,.T.);
#117=FACE_OUTER_BOUND('',#166,.T.);
#118=FACE_OUTER_BOUND('',#167,.T.);
#119=FACE_OUTER_BOUND('',#168,.T.);
#120=FACE_OUTER_BOUND('',#169,.T.);
#121=FACE_OUTER_BOUND('',#170,.T.);
#122=FACE_OUTER_BOUND('',#171,.T.);
#123=FACE_OUTER_BOUND('',#183,.T.);
#124=FACE_OUTER_BOUND('',#184,.T.);
#125=FACE_OUTER_BOUND('',#185,.T.);
#126=EDGE_LOOP('',(#508,#509,#510,#511));
#127=EDGE_LOOP('',(#512));
#128=EDGE_LOOP('',(#513));
#129=EDGE_LOOP('',(#514,#515,#516,#517));
#130=EDGE_LOOP('',(#518));
#131=EDGE_LOOP('',(#519));
#132=EDGE_LOOP('',(#520,#521,#522,#523));
#133=EDGE_LOOP('',(#524));
#134=EDGE_LOOP('',(#525));
#135=EDGE_LOOP('',(#526,#527,#528,#529));
#136=EDGE_LOOP('',(#530));
#137=EDGE_LOOP('',(#531));
#138=EDGE_LOOP('',(#532,#533,#534,#535));
#139=EDGE_LOOP('',(#536,#537,#538,#539));
#140=EDGE_LOOP('',(#540,#541,#542,#543));
#141=EDGE_LOOP('',(#544,#545,#546,#547));
#142=EDGE_LOOP('',(#548,#549,#550,#551));
#143=EDGE_LOOP('',(#552,#553,#554,#555));
#144=EDGE_LOOP('',(#556,#557,#558,#559));
#145=EDGE_LOOP('',(#560,#561,#562,#563));
#146=EDGE_LOOP('',(#564,#565,#566,#567));
#147=EDGE_LOOP('',(#568,#569,#570,#571));
#148=EDGE_LOOP('',(#572,#573,#574,#575));
#149=EDGE_LOOP('',(#576,#577,#578,#579));
#150=EDGE_LOOP('',(#580));
#151=EDGE_LOOP('',(#581,#582,#583,#584));
#152=EDGE_LOOP('',(#585));
#153=EDGE_LOOP('',(#586,#587,#588,#589));
#154=EDGE_LOOP('',(#590));
#155=EDGE_LOOP('',(#591,#592,#593,#594));
#156=EDGE_LOOP('',(#595));
#157=EDGE_LOOP('',(#596,#597,#598,#599));
#158=EDGE_LOOP('',(#600));
#159=EDGE_LOOP('',(#601,#602,#603,#604));
#160=EDGE_LOOP('',(#605));
#161=EDGE_LOOP('',(#606,#607,#608,#609));
#162=EDGE_LOOP('',(#610));
#163=EDGE_LOOP('',(#611,#612,#613,#614));
#164=EDGE_LOOP('',(#615));
#165=EDGE_LOOP('',(#616,#617,#618,#619,#620,#621));
#166=EDGE_LOOP('',(#622,#623,#624,#625,#626,#627));
#167=EDGE_LOOP('',(#628,#629,#630,#631,#632,#633));
#168=EDGE_LOOP('',(#634,#635,#636,#637,#638,#639));
#169=EDGE_LOOP('',(#640,#641,#642,#643,#644,#645,#646,#647,#648));
#170=EDGE_LOOP('',(#649,#650,#651,#652,#653,#654,#655,#656,#657));
#171=EDGE_LOOP('',(#658,#659,#660,#661));
#172=EDGE_LOOP('',(#662));
#173=EDGE_LOOP('',(#663));
#174=EDGE_LOOP('',(#664));
#175=EDGE_LOOP('',(#665));
#176=EDGE_LOOP('',(#666));
#177=EDGE_LOOP('',(#667));
#178=EDGE_LOOP('',(#668));
#179=EDGE_LOOP('',(#669));
#180=EDGE_LOOP('',(#670));
#181=EDGE_LOOP('',(#671));
#182=EDGE_LOOP('',(#672));
#183=EDGE_LOOP('',(#673,#674,#675,#676,#677,#678,#679,#680));
#184=EDGE_LOOP('',(#681,#682,#683,#684,#685,#686,#687,#688,#689,#690));
#185=EDGE_LOOP('',(#691,#692,#693,#694));
#186=EDGE_LOOP('',(#695));
#187=EDGE_LOOP('',(#696));
#188=EDGE_LOOP('',(#697));
#189=EDGE_LOOP('',(#698));
#190=EDGE_LOOP('',(#699));
#191=EDGE_LOOP('',(#700));
#192=EDGE_LOOP('',(#701));
#193=EDGE_LOOP('',(#702));
#194=EDGE_LOOP('',(#703));
#195=EDGE_LOOP('',(#704));
#196=EDGE_LOOP('',(#705));
#197=EDGE_LOOP('',(#706));
#198=EDGE_LOOP('',(#707));
#199=EDGE_LOOP('',(#708));
#200=EDGE_LOOP('',(#709));
#201=EDGE_LOOP('',(#710));
#202=EDGE_LOOP('',(#711));
#203=EDGE_LOOP('',(#712));
#204=EDGE_LOOP('',(#713));
#205=EDGE_LOOP('',(#714));
#206=EDGE_LOOP('',(#715));
#207=EDGE_LOOP('',(#716));
#208=EDGE_LOOP('',(#717));
#209=LINE('',#1165,#240);
#210=LINE('',#1174,#241);
#211=LINE('',#1183,#242);
#212=LINE('',#1192,#243);
#213=LINE('',#1201,#244);
#214=LINE('',#1207,#245);
#215=LINE('',#1213,#246);
#216=LINE('',#1219,#247);
#217=LINE('',#1225,#248);
#218=LINE('',#1231,#249);
#219=LINE('',#1237,#250);
#220=LINE('',#1243,#251);
#221=LINE('',#1249,#252);
#222=LINE('',#1255,#253);
#223=LINE('',#1261,#254);
#224=LINE('',#1267,#255);
#225=LINE('',#1274,#256);
#226=LINE('',#1281,#257);
#227=LINE('',#1288,#258);
#228=LINE('',#1295,#259);
#229=LINE('',#1302,#260);
#230=LINE('',#1309,#261);
#231=LINE('',#1316,#262);
#232=LINE('',#1359,#263);
#233=LINE('',#1424,#264);
#234=LINE('',#1465,#265);
#235=LINE('',#1518,#266);
#236=LINE('',#1535,#267);
#237=LINE('',#1540,#268);
#238=LINE('',#1546,#269);
#239=LINE('',#1551,#270);
#240=VECTOR('',#919,1.6);
#241=VECTOR('',#930,1.6);
#242=VECTOR('',#941,1.6);
#243=VECTOR('',#952,1.6);
#244=VECTOR('',#963,2.5);
#245=VECTOR('',#970,2.5);
#246=VECTOR('',#977,2.5);
#247=VECTOR('',#984,2.5);
#248=VECTOR('',#991,2.5);
#249=VECTOR('',#998,2.5);
#250=VECTOR('',#1005,2.5);
#251=VECTOR('',#1012,2.5);
#252=VECTOR('',#1019,2.5);
#253=VECTOR('',#1026,2.5);
#254=VECTOR('',#1033,2.5);
#255=VECTOR('',#1040,1.7);
#256=VECTOR('',#1049,1.7);
#257=VECTOR('',#1058,1.7);
#258=VECTOR('',#1067,1.7);
#259=VECTOR('',#1076,1.7);
#260=VECTOR('',#1085,1.7);
#261=VECTOR('',#1094,1.7);
#262=VECTOR('',#1103,1.7);
#263=VECTOR('',#1110,3.);
#264=VECTOR('',#1113,3.00000000000001);
#265=VECTOR('',#1116,3.);
#266=VECTOR('',#1119,3.00000000000001);
#267=VECTOR('',#1124,10.);
#268=VECTOR('',#1129,10.);
#269=VECTOR('',#1136,10.);
#270=VECTOR('',#1141,10.);
#271=CIRCLE('',#807,1.6);
#272=CIRCLE('',#808,1.6);
#273=CIRCLE('',#810,3.00000000000001);
#274=CIRCLE('',#812,1.6);
#275=CIRCLE('',#813,1.6);
#276=CIRCLE('',#815,3.);
#277=CIRCLE('',#817,1.6);
#278=CIRCLE('',#818,1.6);
#279=CIRCLE('',#820,3.00000000000001);
#280=CIRCLE('',#822,1.6);
#281=CIRCLE('',#823,1.6);
#282=CIRCLE('',#825,3.);
#283=CIRCLE('',#827,2.5);
#284=CIRCLE('',#828,2.5);
#285=CIRCLE('',#830,2.5);
#286=CIRCLE('',#831,2.5);
#287=CIRCLE('',#833,2.5);
#288=CIRCLE('',#834,2.5);
#289=CIRCLE('',#836,2.5);
#290=CIRCLE('',#837,2.5);
#291=CIRCLE('',#839,2.5);
#292=CIRCLE('',#840,2.5);
#293=CIRCLE('',#842,2.5);
#294=CIRCLE('',#843,2.5);
#295=CIRCLE('',#845,2.5);
#296=CIRCLE('',#846,2.5);
#297=CIRCLE('',#848,2.5);
#298=CIRCLE('',#849,2.5);
#299=CIRCLE('',#851,2.5);
#300=CIRCLE('',#852,2.5);
#301=CIRCLE('',#854,2.5);
#302=CIRCLE('',#855,2.5);
#303=CIRCLE('',#857,2.5);
#304=CIRCLE('',#858,2.5);
#305=CIRCLE('',#860,1.7);
#306=CIRCLE('',#861,1.7);
#307=CIRCLE('',#864,1.7);
#308=CIRCLE('',#865,1.7);
#309=CIRCLE('',#868,1.7);
#310=CIRCLE('',#869,1.7);
#311=CIRCLE('',#872,1.7);
#312=CIRCLE('',#873,1.7);
#313=CIRCLE('',#876,1.7);
#314=CIRCLE('',#877,1.7);
#315=CIRCLE('',#880,1.7);
#316=CIRCLE('',#881,1.7);
#317=CIRCLE('',#884,1.7);
#318=CIRCLE('',#885,1.7);
#319=CIRCLE('',#888,1.7);
#320=CIRCLE('',#889,1.7);
#321=CIRCLE('',#896,10.);
#322=CIRCLE('',#897,10.);
#323=CIRCLE('',#898,10.);
#324=CIRCLE('',#899,10.);
#325=CIRCLE('',#901,10.);
#326=CIRCLE('',#902,10.);
#327=CIRCLE('',#903,10.);
#328=CIRCLE('',#904,10.);
#329=CIRCLE('',#906,15.);
#330=CIRCLE('',#907,15.);
#331=CIRCLE('',#909,25.);
#332=CIRCLE('',#911,25.);
#333=VERTEX_POINT('',#1162);
#334=VERTEX_POINT('',#1164);
#335=VERTEX_POINT('',#1168);
#336=VERTEX_POINT('',#1171);
#337=VERTEX_POINT('',#1173);
#338=VERTEX_POINT('',#1177);
#339=VERTEX_POINT('',#1180);
#340=VERTEX_POINT('',#1182);
#341=VERTEX_POINT('',#1186);
#342=VERTEX_POINT('',#1189);
#343=VERTEX_POINT('',#1191);
#344=VERTEX_POINT('',#1195);
#345=VERTEX_POINT('',#1198);
#346=VERTEX_POINT('',#1200);
#347=VERTEX_POINT('',#1204);
#348=VERTEX_POINT('',#1206);
#349=VERTEX_POINT('',#1210);
#350=VERTEX_POINT('',#1212);
#351=VERTEX_POINT('',#1216);
#352=VERTEX_POINT('',#1218);
#353=VERTEX_POINT('',#1222);
#354=VERTEX_POINT('',#1224);
#355=VERTEX_POINT('',#1228);
#356=VERTEX_POINT('',#1230);
#357=VERTEX_POINT('',#1234);
#358=VERTEX_POINT('',#1236);
#359=VERTEX_POINT('',#1240);
#360=VERTEX_POINT('',#1242);
#361=VERTEX_POINT('',#1246);
#362=VERTEX_POINT('',#1248);
#363=VERTEX_POINT('',#1252);
#364=VERTEX_POINT('',#1254);
#365=VERTEX_POINT('',#1258);
#366=VERTEX_POINT('',#1260);
#367=VERTEX_POINT('',#1264);
#368=VERTEX_POINT('',#1266);
#369=VERTEX_POINT('',#1271);
#370=VERTEX_POINT('',#1273);
#371=VERTEX_POINT('',#1278);
#372=VERTEX_POINT('',#1280);
#373=VERTEX_POINT('',#1285);
#374=VERTEX_POINT('',#1287);
#375=VERTEX_POINT('',#1292);
#376=VERTEX_POINT('',#1294);
#377=VERTEX_POINT('',#1299);
#378=VERTEX_POINT('',#1301);
#379=VERTEX_POINT('',#1306);
#380=VERTEX_POINT('',#1308);
#381=VERTEX_POINT('',#1313);
#382=VERTEX_POINT('',#1315);
#383=VERTEX_POINT('',#1320);
#384=VERTEX_POINT('',#1321);
#385=VERTEX_POINT('',#1346);
#386=VERTEX_POINT('',#1371);
#387=VERTEX_POINT('',#1372);
#388=VERTEX_POINT('',#1391);
#389=VERTEX_POINT('',#1426);
#390=VERTEX_POINT('',#1427);
#391=VERTEX_POINT('',#1454);
#392=VERTEX_POINT('',#1479);
#393=VERTEX_POINT('',#1480);
#394=VERTEX_POINT('',#1501);
#395=VERTEX_POINT('',#1532);
#396=VERTEX_POINT('',#1534);
#397=VERTEX_POINT('',#1537);
#398=VERTEX_POINT('',#1539);
#399=VERTEX_POINT('',#1543);
#400=VERTEX_POINT('',#1545);
#401=VERTEX_POINT('',#1548);
#402=VERTEX_POINT('',#1550);
#403=EDGE_CURVE('',#333,#333,#271,.T.);
#404=EDGE_CURVE('',#333,#334,#209,.T.);
#405=EDGE_CURVE('',#334,#334,#272,.T.);
#406=EDGE_CURVE('',#335,#335,#273,.T.);
#407=EDGE_CURVE('',#336,#336,#274,.T.);
#408=EDGE_CURVE('',#336,#337,#210,.T.);
#409=EDGE_CURVE('',#337,#337,#275,.T.);
#410=EDGE_CURVE('',#338,#338,#276,.T.);
#411=EDGE_CURVE('',#339,#339,#277,.T.);
#412=EDGE_CURVE('',#339,#340,#211,.T.);
#413=EDGE_CURVE('',#340,#340,#278,.T.);
#414=EDGE_CURVE('',#341,#341,#279,.T.);
#415=EDGE_CURVE('',#342,#342,#280,.T.);
#416=EDGE_CURVE('',#342,#343,#212,.T.);
#417=EDGE_CURVE('',#343,#343,#281,.T.);
#418=EDGE_CURVE('',#344,#344,#282,.T.);
#419=EDGE_CURVE('',#345,#345,#283,.T.);
#420=EDGE_CURVE('',#345,#346,#213,.T.);
#421=EDGE_CURVE('',#346,#346,#284,.T.);
#422=EDGE_CURVE('',#347,#347,#285,.T.);
#423=EDGE_CURVE('',#347,#348,#214,.T.);
#424=EDGE_CURVE('',#348,#348,#286,.T.);
#425=EDGE_CURVE('',#349,#349,#287,.T.);
#426=EDGE_CURVE('',#349,#350,#215,.T.);
#427=EDGE_CURVE('',#350,#350,#288,.T.);
#428=EDGE_CURVE('',#351,#351,#289,.T.);
#429=EDGE_CURVE('',#351,#352,#216,.T.);
#430=EDGE_CURVE('',#352,#352,#290,.T.);
#431=EDGE_CURVE('',#353,#353,#291,.T.);
#432=EDGE_CURVE('',#353,#354,#217,.T.);
#433=EDGE_CURVE('',#354,#354,#292,.T.);
#434=EDGE_CURVE('',#355,#355,#293,.T.);
#435=EDGE_CURVE('',#355,#356,#218,.T.);
#436=EDGE_CURVE('',#356,#356,#294,.T.);
#437=EDGE_CURVE('',#357,#357,#295,.T.);
#438=EDGE_CURVE('',#357,#358,#219,.T.);
#439=EDGE_CURVE('',#358,#358,#296,.T.);
#440=EDGE_CURVE('',#359,#359,#297,.T.);
#441=EDGE_CURVE('',#359,#360,#220,.T.);
#442=EDGE_CURVE('',#360,#360,#298,.T.);
#443=EDGE_CURVE('',#361,#361,#299,.T.);
#444=EDGE_CURVE('',#361,#362,#221,.T.);
#445=EDGE_CURVE('',#362,#362,#300,.T.);
#446=EDGE_CURVE('',#363,#363,#301,.T.);
#447=EDGE_CURVE('',#363,#364,#222,.T.);
#448=EDGE_CURVE('',#364,#364,#302,.T.);
#449=EDGE_CURVE('',#365,#365,#303,.T.);
#450=EDGE_CURVE('',#365,#366,#223,.T.);
#451=EDGE_CURVE('',#366,#366,#304,.T.);
#452=EDGE_CURVE('',#367,#367,#305,.T.);
#453=EDGE_CURVE('',#367,#368,#224,.T.);
#454=EDGE_CURVE('',#368,#368,#306,.T.);
#455=EDGE_CURVE('',#369,#369,#307,.T.);
#456=EDGE_CURVE('',#369,#370,#225,.T.);
#457=EDGE_CURVE('',#370,#370,#308,.T.);
#458=EDGE_CURVE('',#371,#371,#309,.T.);
#459=EDGE_CURVE('',#371,#372,#226,.T.);
#460=EDGE_CURVE('',#372,#372,#310,.T.);
#461=EDGE_CURVE('',#373,#373,#311,.T.);
#462=EDGE_CURVE('',#373,#374,#227,.T.);
#463=EDGE_CURVE('',#374,#374,#312,.T.);
#464=EDGE_CURVE('',#375,#375,#313,.T.);
#465=EDGE_CURVE('',#375,#376,#228,.T.);
#466=EDGE_CURVE('',#376,#376,#314,.T.);
#467=EDGE_CURVE('',#377,#377,#315,.T.);
#468=EDGE_CURVE('',#377,#378,#229,.T.);
#469=EDGE_CURVE('',#378,#378,#316,.T.);
#470=EDGE_CURVE('',#379,#379,#317,.T.);
#471=EDGE_CURVE('',#379,#380,#230,.T.);
#472=EDGE_CURVE('',#380,#380,#318,.T.);
#473=EDGE_CURVE('',#381,#381,#319,.T.);
#474=EDGE_CURVE('',#381,#382,#231,.T.);
#475=EDGE_CURVE('',#382,#382,#320,.T.);
#476=EDGE_CURVE('',#383,#384,#17,.T.);
#477=EDGE_CURVE('',#385,#383,#18,.T.);
#478=EDGE_CURVE('',#385,#338,#232,.T.);
#479=EDGE_CURVE('',#384,#385,#19,.T.);
#480=EDGE_CURVE('',#386,#387,#20,.T.);
#481=EDGE_CURVE('',#388,#386,#21,.T.);
#482=EDGE_CURVE('',#387,#388,#22,.T.);
#483=EDGE_CURVE('',#387,#341,#233,.T.);
#484=EDGE_CURVE('',#389,#390,#23,.T.);
#485=EDGE_CURVE('',#391,#389,#24,.T.);
#486=EDGE_CURVE('',#391,#344,#234,.T.);
#487=EDGE_CURVE('',#390,#391,#25,.T.);
#488=EDGE_CURVE('',#392,#393,#26,.T.);
#489=EDGE_CURVE('',#394,#392,#27,.T.);
#490=EDGE_CURVE('',#394,#335,#235,.T.);
#491=EDGE_CURVE('',#393,#394,#28,.T.);
#492=EDGE_CURVE('',#383,#395,#321,.T.);
#493=EDGE_CURVE('',#395,#396,#236,.T.);
#494=EDGE_CURVE('',#396,#388,#322,.T.);
#495=EDGE_CURVE('',#386,#397,#323,.T.);
#496=EDGE_CURVE('',#397,#398,#237,.T.);
#497=EDGE_CURVE('',#398,#384,#324,.T.);
#498=EDGE_CURVE('',#389,#399,#325,.T.);
#499=EDGE_CURVE('',#399,#400,#238,.T.);
#500=EDGE_CURVE('',#392,#400,#326,.T.);
#501=EDGE_CURVE('',#401,#393,#327,.T.);
#502=EDGE_CURVE('',#401,#402,#239,.T.);
#503=EDGE_CURVE('',#402,#390,#328,.T.);
#504=EDGE_CURVE('',#400,#397,#329,.T.);
#505=EDGE_CURVE('',#398,#399,#330,.T.);
#506=EDGE_CURVE('',#402,#395,#331,.T.);
#507=EDGE_CURVE('',#396,#401,#332,.T.);
#508=ORIENTED_EDGE('',*,*,#403,.F.);
#509=ORIENTED_EDGE('',*,*,#404,.T.);
#510=ORIENTED_EDGE('',*,*,#405,.F.);
#511=ORIENTED_EDGE('',*,*,#404,.F.);
#512=ORIENTED_EDGE('',*,*,#406,.F.);
#513=ORIENTED_EDGE('',*,*,#403,.T.);
#514=ORIENTED_EDGE('',*,*,#407,.F.);
#515=ORIENTED_EDGE('',*,*,#408,.T.);
#516=ORIENTED_EDGE('',*,*,#409,.F.);
#517=ORIENTED_EDGE('',*,*,#408,.F.);
#518=ORIENTED_EDGE('',*,*,#410,.F.);
#519=ORIENTED_EDGE('',*,*,#407,.T.);
#520=ORIENTED_EDGE('',*,*,#411,.F.);
#521=ORIENTED_EDGE('',*,*,#412,.T.);
#522=ORIENTED_EDGE('',*,*,#413,.F.);
#523=ORIENTED_EDGE('',*,*,#412,.F.);
#524=ORIENTED_EDGE('',*,*,#414,.F.);
#525=ORIENTED_EDGE('',*,*,#411,.T.);
#526=ORIENTED_EDGE('',*,*,#415,.F.);
#527=ORIENTED_EDGE('',*,*,#416,.T.);
#528=ORIENTED_EDGE('',*,*,#417,.F.);
#529=ORIENTED_EDGE('',*,*,#416,.F.);
#530=ORIENTED_EDGE('',*,*,#418,.F.);
#531=ORIENTED_EDGE('',*,*,#415,.T.);
#532=ORIENTED_EDGE('',*,*,#419,.F.);
#533=ORIENTED_EDGE('',*,*,#420,.T.);
#534=ORIENTED_EDGE('',*,*,#421,.F.);
#535=ORIENTED_EDGE('',*,*,#420,.F.);
#536=ORIENTED_EDGE('',*,*,#422,.F.);
#537=ORIENTED_EDGE('',*,*,#423,.T.);
#538=ORIENTED_EDGE('',*,*,#424,.F.);
#539=ORIENTED_EDGE('',*,*,#423,.F.);
#540=ORIENTED_EDGE('',*,*,#425,.F.);
#541=ORIENTED_EDGE('',*,*,#426,.T.);
#542=ORIENTED_EDGE('',*,*,#427,.F.);
#543=ORIENTED_EDGE('',*,*,#426,.F.);
#544=ORIENTED_EDGE('',*,*,#428,.F.);
#545=ORIENTED_EDGE('',*,*,#429,.T.);
#546=ORIENTED_EDGE('',*,*,#430,.F.);
#547=ORIENTED_EDGE('',*,*,#429,.F.);
#548=ORIENTED_EDGE('',*,*,#431,.F.);
#549=ORIENTED_EDGE('',*,*,#432,.T.);
#550=ORIENTED_EDGE('',*,*,#433,.F.);
#551=ORIENTED_EDGE('',*,*,#432,.F.);
#552=ORIENTED_EDGE('',*,*,#434,.F.);
#553=ORIENTED_EDGE('',*,*,#435,.T.);
#554=ORIENTED_EDGE('',*,*,#436,.F.);
#555=ORIENTED_EDGE('',*,*,#435,.F.);
#556=ORIENTED_EDGE('',*,*,#437,.F.);
#557=ORIENTED_EDGE('',*,*,#438,.T.);
#558=ORIENTED_EDGE('',*,*,#439,.F.);
#559=ORIENTED_EDGE('',*,*,#438,.F.);
#560=ORIENTED_EDGE('',*,*,#440,.F.);
#561=ORIENTED_EDGE('',*,*,#441,.T.);
#562=ORIENTED_EDGE('',*,*,#442,.F.);
#563=ORIENTED_EDGE('',*,*,#441,.F.);
#564=ORIENTED_EDGE('',*,*,#443,.F.);
#565=ORIENTED_EDGE('',*,*,#444,.T.);
#566=ORIENTED_EDGE('',*,*,#445,.F.);
#567=ORIENTED_EDGE('',*,*,#444,.F.);
#568=ORIENTED_EDGE('',*,*,#446,.F.);
#569=ORIENTED_EDGE('',*,*,#447,.T.);
#570=ORIENTED_EDGE('',*,*,#448,.F.);
#571=ORIENTED_EDGE('',*,*,#447,.F.);
#572=ORIENTED_EDGE('',*,*,#449,.F.);
#573=ORIENTED_EDGE('',*,*,#450,.T.);
#574=ORIENTED_EDGE('',*,*,#451,.F.);
#575=ORIENTED_EDGE('',*,*,#450,.F.);
#576=ORIENTED_EDGE('',*,*,#452,.F.);
#577=ORIENTED_EDGE('',*,*,#453,.T.);
#578=ORIENTED_EDGE('',*,*,#454,.T.);
#579=ORIENTED_EDGE('',*,*,#453,.F.);
#580=ORIENTED_EDGE('',*,*,#454,.F.);
#581=ORIENTED_EDGE('',*,*,#455,.F.);
#582=ORIENTED_EDGE('',*,*,#456,.T.);
#583=ORIENTED_EDGE('',*,*,#457,.T.);
#584=ORIENTED_EDGE('',*,*,#456,.F.);
#585=ORIENTED_EDGE('',*,*,#457,.F.);
#586=ORIENTED_EDGE('',*,*,#458,.F.);
#587=ORIENTED_EDGE('',*,*,#459,.T.);
#588=ORIENTED_EDGE('',*,*,#460,.T.);
#589=ORIENTED_EDGE('',*,*,#459,.F.);
#590=ORIENTED_EDGE('',*,*,#460,.F.);
#591=ORIENTED_EDGE('',*,*,#461,.F.);
#592=ORIENTED_EDGE('',*,*,#462,.T.);
#593=ORIENTED_EDGE('',*,*,#463,.T.);
#594=ORIENTED_EDGE('',*,*,#462,.F.);
#595=ORIENTED_EDGE('',*,*,#463,.F.);
#596=ORIENTED_EDGE('',*,*,#464,.F.);
#597=ORIENTED_EDGE('',*,*,#465,.T.);
#598=ORIENTED_EDGE('',*,*,#466,.T.);
#599=ORIENTED_EDGE('',*,*,#465,.F.);
#600=ORIENTED_EDGE('',*,*,#466,.F.);
#601=ORIENTED_EDGE('',*,*,#467,.F.);
#602=ORIENTED_EDGE('',*,*,#468,.T.);
#603=ORIENTED_EDGE('',*,*,#469,.T.);
#604=ORIENTED_EDGE('',*,*,#468,.F.);
#605=ORIENTED_EDGE('',*,*,#469,.F.);
#606=ORIENTED_EDGE('',*,*,#470,.F.);
#607=ORIENTED_EDGE('',*,*,#471,.T.);
#608=ORIENTED_EDGE('',*,*,#472,.T.);
#609=ORIENTED_EDGE('',*,*,#471,.F.);
#610=ORIENTED_EDGE('',*,*,#472,.F.);
#611=ORIENTED_EDGE('',*,*,#473,.F.);
#612=ORIENTED_EDGE('',*,*,#474,.T.);
#613=ORIENTED_EDGE('',*,*,#475,.T.);
#614=ORIENTED_EDGE('',*,*,#474,.F.);
#615=ORIENTED_EDGE('',*,*,#475,.F.);
#616=ORIENTED_EDGE('',*,*,#476,.F.);
#617=ORIENTED_EDGE('',*,*,#477,.F.);
#618=ORIENTED_EDGE('',*,*,#478,.T.);
#619=ORIENTED_EDGE('',*,*,#410,.T.);
#620=ORIENTED_EDGE('',*,*,#478,.F.);
#621=ORIENTED_EDGE('',*,*,#479,.F.);
#622=ORIENTED_EDGE('',*,*,#480,.F.);
#623=ORIENTED_EDGE('',*,*,#481,.F.);
#624=ORIENTED_EDGE('',*,*,#482,.F.);
#625=ORIENTED_EDGE('',*,*,#483,.T.);
#626=ORIENTED_EDGE('',*,*,#414,.T.);
#627=ORIENTED_EDGE('',*,*,#483,.F.);
#628=ORIENTED_EDGE('',*,*,#484,.F.);
#629=ORIENTED_EDGE('',*,*,#485,.F.);
#630=ORIENTED_EDGE('',*,*,#486,.T.);
#631=ORIENTED_EDGE('',*,*,#418,.T.);
#632=ORIENTED_EDGE('',*,*,#486,.F.);
#633=ORIENTED_EDGE('',*,*,#487,.F.);
#634=ORIENTED_EDGE('',*,*,#488,.F.);
#635=ORIENTED_EDGE('',*,*,#489,.F.);
#636=ORIENTED_EDGE('',*,*,#490,.T.);
#637=ORIENTED_EDGE('',*,*,#406,.T.);
#638=ORIENTED_EDGE('',*,*,#490,.F.);
#639=ORIENTED_EDGE('',*,*,#491,.F.);
#640=ORIENTED_EDGE('',*,*,#479,.T.);
#641=ORIENTED_EDGE('',*,*,#477,.T.);
#642=ORIENTED_EDGE('',*,*,#492,.T.);
#643=ORIENTED_EDGE('',*,*,#493,.T.);
#644=ORIENTED_EDGE('',*,*,#494,.T.);
#645=ORIENTED_EDGE('',*,*,#481,.T.);
#646=ORIENTED_EDGE('',*,*,#495,.T.);
#647=ORIENTED_EDGE('',*,*,#496,.T.);
#648=ORIENTED_EDGE('',*,*,#497,.T.);
#649=ORIENTED_EDGE('',*,*,#487,.T.);
#650=ORIENTED_EDGE('',*,*,#485,.T.);
#651=ORIENTED_EDGE('',*,*,#498,.T.);
#652=ORIENTED_EDGE('',*,*,#499,.T.);
#653=ORIENTED_EDGE('',*,*,#500,.F.);
#654=ORIENTED_EDGE('',*,*,#488,.T.);
#655=ORIENTED_EDGE('',*,*,#501,.F.);
#656=ORIENTED_EDGE('',*,*,#502,.T.);
#657=ORIENTED_EDGE('',*,*,#503,.T.);
#658=ORIENTED_EDGE('',*,*,#496,.F.);
#659=ORIENTED_EDGE('',*,*,#504,.F.);
#660=ORIENTED_EDGE('',*,*,#499,.F.);
#661=ORIENTED_EDGE('',*,*,#505,.F.);
#662=ORIENTED_EDGE('',*,*,#419,.T.);
#663=ORIENTED_EDGE('',*,*,#422,.T.);
#664=ORIENTED_EDGE('',*,*,#425,.T.);
#665=ORIENTED_EDGE('',*,*,#428,.T.);
#666=ORIENTED_EDGE('',*,*,#431,.T.);
#667=ORIENTED_EDGE('',*,*,#434,.T.);
#668=ORIENTED_EDGE('',*,*,#437,.T.);
#669=ORIENTED_EDGE('',*,*,#440,.T.);
#670=ORIENTED_EDGE('',*,*,#443,.T.);
#671=ORIENTED_EDGE('',*,*,#446,.T.);
#672=ORIENTED_EDGE('',*,*,#449,.T.);
#673=ORIENTED_EDGE('',*,*,#476,.T.);
#674=ORIENTED_EDGE('',*,*,#497,.F.);
#675=ORIENTED_EDGE('',*,*,#505,.T.);
#676=ORIENTED_EDGE('',*,*,#498,.F.);
#677=ORIENTED_EDGE('',*,*,#484,.T.);
#678=ORIENTED_EDGE('',*,*,#503,.F.);
#679=ORIENTED_EDGE('',*,*,#506,.T.);
#680=ORIENTED_EDGE('',*,*,#492,.F.);
#681=ORIENTED_EDGE('',*,*,#480,.T.);
#682=ORIENTED_EDGE('',*,*,#482,.T.);
#683=ORIENTED_EDGE('',*,*,#494,.F.);
#684=ORIENTED_EDGE('',*,*,#507,.T.);
#685=ORIENTED_EDGE('',*,*,#501,.T.);
#686=ORIENTED_EDGE('',*,*,#491,.T.);
#687=ORIENTED_EDGE('',*,*,#489,.T.);
#688=ORIENTED_EDGE('',*,*,#500,.T.);
#689=ORIENTED_EDGE('',*,*,#504,.T.);
#690=ORIENTED_EDGE('',*,*,#495,.F.);
#691=ORIENTED_EDGE('',*,*,#493,.F.);
#692=ORIENTED_EDGE('',*,*,#506,.F.);
#693=ORIENTED_EDGE('',*,*,#502,.F.);
#694=ORIENTED_EDGE('',*,*,#507,.F.);
#695=ORIENTED_EDGE('',*,*,#405,.T.);
#696=ORIENTED_EDGE('',*,*,#409,.T.);
#697=ORIENTED_EDGE('',*,*,#413,.T.);
#698=ORIENTED_EDGE('',*,*,#417,.T.);
#699=ORIENTED_EDGE('',*,*,#421,.T.);
#700=ORIENTED_EDGE('',*,*,#424,.T.);
#701=ORIENTED_EDGE('',*,*,#427,.T.);
#702=ORIENTED_EDGE('',*,*,#430,.T.);
#703=ORIENTED_EDGE('',*,*,#433,.T.);
#704=ORIENTED_EDGE('',*,*,#436,.T.);
#705=ORIENTED_EDGE('',*,*,#439,.T.);
#706=ORIENTED_EDGE('',*,*,#442,.T.);
#707=ORIENTED_EDGE('',*,*,#445,.T.);
#708=ORIENTED_EDGE('',*,*,#448,.T.);
#709=ORIENTED_EDGE('',*,*,#451,.T.);
#710=ORIENTED_EDGE('',*,*,#452,.T.);
#711=ORIENTED_EDGE('',*,*,#455,.T.);
#712=ORIENTED_EDGE('',*,*,#458,.T.);
#713=ORIENTED_EDGE('',*,*,#461,.T.);
#714=ORIENTED_EDGE('',*,*,#464,.T.);
#715=ORIENTED_EDGE('',*,*,#467,.T.);
#716=ORIENTED_EDGE('',*,*,#470,.T.);
#717=ORIENTED_EDGE('',*,*,#473,.T.);
#718=CYLINDRICAL_SURFACE('',#806,1.6);
#719=CYLINDRICAL_SURFACE('',#811,1.6);
#720=CYLINDRICAL_SURFACE('',#816,1.6);
#721=CYLINDRICAL_SURFACE('',#821,1.6);
#722=CYLINDRICAL_SURFACE('',#826,2.5);
#723=CYLINDRICAL_SURFACE('',#829,2.5);
#724=CYLINDRICAL_SURFACE('',#832,2.5);
#725=CYLINDRICAL_SURFACE('',#835,2.5);
#726=CYLINDRICAL_SURFACE('',#838,2.5);
#727=CYLINDRICAL_SURFACE('',#841,2.5);
#728=CYLINDRICAL_SURFACE('',#844,2.5);
#729=CYLINDRICAL_SURFACE('',#847,2.5);
#730=CYLINDRICAL_SURFACE('',#850,2.5);
#731=CYLINDRICAL_SURFACE('',#853,2.5);
#732=CYLINDRICAL_SURFACE('',#856,2.5);
#733=CYLINDRICAL_SURFACE('',#859,1.7);
#734=CYLINDRICAL_SURFACE('',#863,1.7);
#735=CYLINDRICAL_SURFACE('',#867,1.7);
#736=CYLINDRICAL_SURFACE('',#871,1.7);
#737=CYLINDRICAL_SURFACE('',#875,1.7);
#738=CYLINDRICAL_SURFACE('',#879,1.7);
#739=CYLINDRICAL_SURFACE('',#883,1.7);
#740=CYLINDRICAL_SURFACE('',#887,1.7);
#741=CYLINDRICAL_SURFACE('',#891,3.);
#742=CYLINDRICAL_SURFACE('',#892,3.00000000000001);
#743=CYLINDRICAL_SURFACE('',#893,3.);
#744=CYLINDRICAL_SURFACE('',#894,3.00000000000001);
#745=CYLINDRICAL_SURFACE('',#895,10.);
#746=CYLINDRICAL_SURFACE('',#900,10.);
#747=ADVANCED_FACE('',(#81),#718,.F.);
#748=ADVANCED_FACE('',(#82,#29),#67,.F.);
#749=ADVANCED_FACE('',(#83),#719,.F.);
#750=ADVANCED_FACE('',(#84,#30),#68,.F.);
#751=ADVANCED_FACE('',(#85),#720,.F.);
#752=ADVANCED_FACE('',(#86,#31),#69,.F.);
#753=ADVANCED_FACE('',(#87),#721,.F.);
#754=ADVANCED_FACE('',(#88,#32),#70,.F.);
#755=ADVANCED_FACE('',(#89),#722,.F.);
#756=ADVANCED_FACE('',(#90),#723,.F.);
#757=ADVANCED_FACE('',(#91),#724,.F.);
#758=ADVANCED_FACE('',(#92),#725,.F.);
#759=ADVANCED_FACE('',(#93),#726,.F.);
#760=ADVANCED_FACE('',(#94),#727,.F.);
#761=ADVANCED_FACE('',(#95),#728,.F.);
#762=ADVANCED_FACE('',(#96),#729,.F.);
#763=ADVANCED_FACE('',(#97),#730,.F.);
#764=ADVANCED_FACE('',(#98),#731,.F.);
#765=ADVANCED_FACE('',(#99),#732,.F.);
#766=ADVANCED_FACE('',(#100),#733,.F.);
#767=ADVANCED_FACE('',(#101),#71,.F.);
#768=ADVANCED_FACE('',(#102),#734,.F.);
#769=ADVANCED_FACE('',(#103),#72,.F.);
#770=ADVANCED_FACE('',(#104),#735,.F.);
#771=ADVANCED_FACE('',(#105),#73,.F.);
#772=ADVANCED_FACE('',(#106),#736,.F.);
#773=ADVANCED_FACE('',(#107),#74,.F.);
#774=ADVANCED_FACE('',(#108),#737,.F.);
#775=ADVANCED_FACE('',(#109),#75,.F.);
#776=ADVANCED_FACE('',(#110),#738,.F.);
#777=ADVANCED_FACE('',(#111),#76,.F.);
#778=ADVANCED_FACE('',(#112),#739,.F.);
#779=ADVANCED_FACE('',(#113),#77,.F.);
#780=ADVANCED_FACE('',(#114),#740,.F.);
#781=ADVANCED_FACE('',(#115),#78,.F.);
#782=ADVANCED_FACE('',(#116),#741,.F.);
#783=ADVANCED_FACE('',(#117),#742,.F.);
#784=ADVANCED_FACE('',(#118),#743,.F.);
#785=ADVANCED_FACE('',(#119),#744,.F.);
#786=ADVANCED_FACE('',(#120),#745,.T.);
#787=ADVANCED_FACE('',(#121),#746,.T.);
#788=ADVANCED_FACE('',(#122,#33,#34,#35,#36,#37,#38,#39,#40,#41,#42,#43),
#79,.T.);
#789=ADVANCED_FACE('',(#123),#15,.T.);
#790=ADVANCED_FACE('',(#124),#16,.T.);
#791=ADVANCED_FACE('',(#125,#44,#45,#46,#47,#48,#49,#50,#51,#52,#53,#54,
#55,#56,#57,#58,#59,#60,#61,#62,#63,#64,#65,#66),#80,.T.);
#792=CLOSED_SHELL('',(#747,#748,#749,#750,#751,#752,#753,#754,#755,#756,
#757,#758,#759,#760,#761,#762,#763,#764,#765,#766,#767,#768,#769,#770,#771,
#772,#773,#774,#775,#776,#777,#778,#779,#780,#781,#782,#783,#784,#785,#786,
#787,#788,#789,#790,#791));
#793=DERIVED_UNIT_ELEMENT(#795,1.);
#794=DERIVED_UNIT_ELEMENT(#1566,-3.);
#795=(
MASS_UNIT()
NAMED_UNIT(*)
SI_UNIT(.KILO.,.GRAM.)
);
#796=DERIVED_UNIT((#793,#794));
#797=MEASURE_REPRESENTATION_ITEM('density measure',
POSITIVE_RATIO_MEASURE(7850.),#796);
#798=PROPERTY_DEFINITION_REPRESENTATION(#803,#800);
#799=PROPERTY_DEFINITION_REPRESENTATION(#804,#801);
#800=REPRESENTATION('material name',(#802),#1563);
#801=REPRESENTATION('density',(#797),#1563);
#802=DESCRIPTIVE_REPRESENTATION_ITEM('Steel','Steel');
#803=PROPERTY_DEFINITION('material property','material name',#1573);
#804=PROPERTY_DEFINITION('material property','density of part',#1573);
#805=AXIS2_PLACEMENT_3D('',#1160,#913,#914);
#806=AXIS2_PLACEMENT_3D('',#1161,#915,#916);
#807=AXIS2_PLACEMENT_3D('',#1163,#917,#918);
#808=AXIS2_PLACEMENT_3D('',#1166,#920,#921);
#809=AXIS2_PLACEMENT_3D('',#1167,#922,#923);
#810=AXIS2_PLACEMENT_3D('',#1169,#924,#925);
#811=AXIS2_PLACEMENT_3D('',#1170,#926,#927);
#812=AXIS2_PLACEMENT_3D('',#1172,#928,#929);
#813=AXIS2_PLACEMENT_3D('',#1175,#931,#932);
#814=AXIS2_PLACEMENT_3D('',#1176,#933,#934);
#815=AXIS2_PLACEMENT_3D('',#1178,#935,#936);
#816=AXIS2_PLACEMENT_3D('',#1179,#937,#938);
#817=AXIS2_PLACEMENT_3D('',#1181,#939,#940);
#818=AXIS2_PLACEMENT_3D('',#1184,#942,#943);
#819=AXIS2_PLACEMENT_3D('',#1185,#944,#945);
#820=AXIS2_PLACEMENT_3D('',#1187,#946,#947);
#821=AXIS2_PLACEMENT_3D('',#1188,#948,#949);
#822=AXIS2_PLACEMENT_3D('',#1190,#950,#951);
#823=AXIS2_PLACEMENT_3D('',#1193,#953,#954);
#824=AXIS2_PLACEMENT_3D('',#1194,#955,#956);
#825=AXIS2_PLACEMENT_3D('',#1196,#957,#958);
#826=AXIS2_PLACEMENT_3D('',#1197,#959,#960);
#827=AXIS2_PLACEMENT_3D('',#1199,#961,#962);
#828=AXIS2_PLACEMENT_3D('',#1202,#964,#965);
#829=AXIS2_PLACEMENT_3D('',#1203,#966,#967);
#830=AXIS2_PLACEMENT_3D('',#1205,#968,#969);
#831=AXIS2_PLACEMENT_3D('',#1208,#971,#972);
#832=AXIS2_PLACEMENT_3D('',#1209,#973,#974);
#833=AXIS2_PLACEMENT_3D('',#1211,#975,#976);
#834=AXIS2_PLACEMENT_3D('',#1214,#978,#979);
#835=AXIS2_PLACEMENT_3D('',#1215,#980,#981);
#836=AXIS2_PLACEMENT_3D('',#1217,#982,#983);
#837=AXIS2_PLACEMENT_3D('',#1220,#985,#986);
#838=AXIS2_PLACEMENT_3D('',#1221,#987,#988);
#839=AXIS2_PLACEMENT_3D('',#1223,#989,#990);
#840=AXIS2_PLACEMENT_3D('',#1226,#992,#993);
#841=AXIS2_PLACEMENT_3D('',#1227,#994,#995);
#842=AXIS2_PLACEMENT_3D('',#1229,#996,#997);
#843=AXIS2_PLACEMENT_3D('',#1232,#999,#1000);
#844=AXIS2_PLACEMENT_3D('',#1233,#1001,#1002);
#845=AXIS2_PLACEMENT_3D('',#1235,#1003,#1004);
#846=AXIS2_PLACEMENT_3D('',#1238,#1006,#1007);
#847=AXIS2_PLACEMENT_3D('',#1239,#1008,#1009);
#848=AXIS2_PLACEMENT_3D('',#1241,#1010,#1011);
#849=AXIS2_PLACEMENT_3D('',#1244,#1013,#1014);
#850=AXIS2_PLACEMENT_3D('',#1245,#1015,#1016);
#851=AXIS2_PLACEMENT_3D('',#1247,#1017,#1018);
#852=AXIS2_PLACEMENT_3D('',#1250,#1020,#1021);
#853=AXIS2_PLACEMENT_3D('',#1251,#1022,#1023);
#854=AXIS2_PLACEMENT_3D('',#1253,#1024,#1025);
#855=AXIS2_PLACEMENT_3D('',#1256,#1027,#1028);
#856=AXIS2_PLACEMENT_3D('',#1257,#1029,#1030);
#857=AXIS2_PLACEMENT_3D('',#1259,#1031,#1032);
#858=AXIS2_PLACEMENT_3D('',#1262,#1034,#1035);
#859=AXIS2_PLACEMENT_3D('',#1263,#1036,#1037);
#860=AXIS2_PLACEMENT_3D('',#1265,#1038,#1039);
#861=AXIS2_PLACEMENT_3D('',#1268,#1041,#1042);
#862=AXIS2_PLACEMENT_3D('',#1269,#1043,#1044);
#863=AXIS2_PLACEMENT_3D('',#1270,#1045,#1046);
#864=AXIS2_PLACEMENT_3D('',#1272,#1047,#1048);
#865=AXIS2_PLACEMENT_3D('',#1275,#1050,#1051);
#866=AXIS2_PLACEMENT_3D('',#1276,#1052,#1053);
#867=AXIS2_PLACEMENT_3D('',#1277,#1054,#1055);
#868=AXIS2_PLACEMENT_3D('',#1279,#1056,#1057);
#869=AXIS2_PLACEMENT_3D('',#1282,#1059,#1060);
#870=AXIS2_PLACEMENT_3D('',#1283,#1061,#1062);
#871=AXIS2_PLACEMENT_3D('',#1284,#1063,#1064);
#872=AXIS2_PLACEMENT_3D('',#1286,#1065,#1066);
#873=AXIS2_PLACEMENT_3D('',#1289,#1068,#1069);
#874=AXIS2_PLACEMENT_3D('',#1290,#1070,#1071);
#875=AXIS2_PLACEMENT_3D('',#1291,#1072,#1073);
#876=AXIS2_PLACEMENT_3D('',#1293,#1074,#1075);
#877=AXIS2_PLACEMENT_3D('',#1296,#1077,#1078);
#878=AXIS2_PLACEMENT_3D('',#1297,#1079,#1080);
#879=AXIS2_PLACEMENT_3D('',#1298,#1081,#1082);
#880=AXIS2_PLACEMENT_3D('',#1300,#1083,#1084);
#881=AXIS2_PLACEMENT_3D('',#1303,#1086,#1087);
#882=AXIS2_PLACEMENT_3D('',#1304,#1088,#1089);
#883=AXIS2_PLACEMENT_3D('',#1305,#1090,#1091);
#884=AXIS2_PLACEMENT_3D('',#1307,#1092,#1093);
#885=AXIS2_PLACEMENT_3D('',#1310,#1095,#1096);
#886=AXIS2_PLACEMENT_3D('',#1311,#1097,#1098);
#887=AXIS2_PLACEMENT_3D('',#1312,#1099,#1100);
#888=AXIS2_PLACEMENT_3D('',#1314,#1101,#1102);
#889=AXIS2_PLACEMENT_3D('',#1317,#1104,#1105);
#890=AXIS2_PLACEMENT_3D('',#1318,#1106,#1107);
#891=AXIS2_PLACEMENT_3D('',#1319,#1108,#1109);
#892=AXIS2_PLACEMENT_3D('',#1370,#1111,#1112);
#893=AXIS2_PLACEMENT_3D('',#1425,#1114,#1115);
#894=AXIS2_PLACEMENT_3D('',#1478,#1117,#1118);
#895=AXIS2_PLACEMENT_3D('',#1531,#1120,#1121);
#896=AXIS2_PLACEMENT_3D('',#1533,#1122,#1123);
#897=AXIS2_PLACEMENT_3D('',#1536,#1125,#1126);
#898=AXIS2_PLACEMENT_3D('',#1538,#1127,#1128);
#899=AXIS2_PLACEMENT_3D('',#1541,#1130,#1131);
#900=AXIS2_PLACEMENT_3D('',#1542,#1132,#1133);
#901=AXIS2_PLACEMENT_3D('',#1544,#1134,#1135);
#902=AXIS2_PLACEMENT_3D('',#1547,#1137,#1138);
#903=AXIS2_PLACEMENT_3D('',#1549,#1139,#1140);
#904=AXIS2_PLACEMENT_3D('',#1552,#1142,#1143);
#905=AXIS2_PLACEMENT_3D('',#1553,#1144,#1145);
#906=AXIS2_PLACEMENT_3D('',#1554,#1146,#1147);
#907=AXIS2_PLACEMENT_3D('',#1555,#1148,#1149);
#908=AXIS2_PLACEMENT_3D('',#1556,#1150,#1151);
#909=AXIS2_PLACEMENT_3D('',#1557,#1152,#1153);
#910=AXIS2_PLACEMENT_3D('',#1558,#1154,#1155);
#911=AXIS2_PLACEMENT_3D('',#1559,#1156,#1157);
#912=AXIS2_PLACEMENT_3D('',#1560,#1158,#1159);
#913=DIRECTION('axis',(0.,0.,1.));
#914=DIRECTION('refdir',(1.,0.,0.));
#915=DIRECTION('center_axis',(0.,1.,0.));
#916=DIRECTION('ref_axis',(1.,0.,0.));
#917=DIRECTION('center_axis',(0.,-1.,0.));
#918=DIRECTION('ref_axis',(1.,0.,0.));
#919=DIRECTION('',(0.,-1.,0.));
#920=DIRECTION('center_axis',(0.,1.,0.));
#921=DIRECTION('ref_axis',(1.,0.,0.));
#922=DIRECTION('center_axis',(0.,-1.,0.));
#923=DIRECTION('ref_axis',(1.,0.,0.));
#924=DIRECTION('center_axis',(0.,-1.,0.));
#925=DIRECTION('ref_axis',(-1.,0.,0.));
#926=DIRECTION('center_axis',(0.,1.,0.));
#927=DIRECTION('ref_axis',(1.,0.,0.));
#928=DIRECTION('center_axis',(0.,-1.,0.));
#929=DIRECTION('ref_axis',(1.,0.,0.));
#930=DIRECTION('',(0.,-1.,0.));
#931=DIRECTION('center_axis',(0.,1.,0.));
#932=DIRECTION('ref_axis',(1.,0.,0.));
#933=DIRECTION('center_axis',(0.,-1.,0.));
#934=DIRECTION('ref_axis',(1.,0.,0.));
#935=DIRECTION('center_axis',(0.,-1.,0.));
#936=DIRECTION('ref_axis',(-1.,0.,0.));
#937=DIRECTION('center_axis',(0.,1.,0.));
#938=DIRECTION('ref_axis',(1.,0.,0.));
#939=DIRECTION('center_axis',(0.,-1.,0.));
#940=DIRECTION('ref_axis',(1.,0.,0.));
#941=DIRECTION('',(0.,-1.,0.));
#942=DIRECTION('center_axis',(0.,1.,0.));
#943=DIRECTION('ref_axis',(1.,0.,0.));
#944=DIRECTION('center_axis',(0.,-1.,0.));
#945=DIRECTION('ref_axis',(1.,0.,0.));
#946=DIRECTION('center_axis',(0.,-1.,0.));
#947=DIRECTION('ref_axis',(-1.,0.,0.));
#948=DIRECTION('center_axis',(0.,1.,0.));
#949=DIRECTION('ref_axis',(1.,0.,0.));
#950=DIRECTION('center_axis',(0.,-1.,0.));
#951=DIRECTION('ref_axis',(1.,0.,0.));
#952=DIRECTION('',(0.,-1.,0.));
#953=DIRECTION('center_axis',(0.,1.,0.));
#954=DIRECTION('ref_axis',(1.,0.,0.));
#955=DIRECTION('center_axis',(0.,-1.,0.));
#956=DIRECTION('ref_axis',(1.,0.,0.));
#957=DIRECTION('center_axis',(0.,-1.,0.));
#958=DIRECTION('ref_axis',(-1.,0.,0.));
#959=DIRECTION('center_axis',(0.,-1.,0.));
#960=DIRECTION('ref_axis',(-1.,0.,0.));
#961=DIRECTION('center_axis',(0.,-1.,0.));
#962=DIRECTION('ref_axis',(-1.,0.,0.));
#963=DIRECTION('',(0.,-1.,0.));
#964=DIRECTION('center_axis',(0.,1.,0.));
#965=DIRECTION('ref_axis',(-1.,0.,0.));
#966=DIRECTION('center_axis',(0.,-1.,0.));
#967=DIRECTION('ref_axis',(-1.,0.,0.));
#968=DIRECTION('center_axis',(0.,-1.,0.));
#969=DIRECTION('ref_axis',(-1.,0.,0.));
#970=DIRECTION('',(0.,-1.,0.));
#971=DIRECTION('center_axis',(0.,1.,0.));
#972=DIRECTION('ref_axis',(-1.,0.,0.));
#973=DIRECTION('center_axis',(0.,-1.,0.));
#974=DIRECTION('ref_axis',(-1.,0.,0.));
#975=DIRECTION('center_axis',(0.,-1.,0.));
#976=DIRECTION('ref_axis',(-1.,0.,0.));
#977=DIRECTION('',(0.,-1.,0.));
#978=DIRECTION('center_axis',(0.,1.,0.));
#979=DIRECTION('ref_axis',(-1.,0.,0.));
#980=DIRECTION('center_axis',(0.,-1.,0.));
#981=DIRECTION('ref_axis',(-1.,0.,0.));
#982=DIRECTION('center_axis',(0.,-1.,0.));
#983=DIRECTION('ref_axis',(-1.,0.,0.));
#984=DIRECTION('',(0.,-1.,0.));
#985=DIRECTION('center_axis',(0.,1.,0.));
#986=DIRECTION('ref_axis',(-1.,0.,0.));
#987=DIRECTION('center_axis',(0.,-1.,0.));
#988=DIRECTION('ref_axis',(-1.,0.,0.));
#989=DIRECTION('center_axis',(0.,-1.,0.));
#990=DIRECTION('ref_axis',(-1.,0.,0.));
#991=DIRECTION('',(0.,-1.,0.));
#992=DIRECTION('center_axis',(0.,1.,0.));
#993=DIRECTION('ref_axis',(-1.,0.,0.));
#994=DIRECTION('center_axis',(0.,-1.,0.));
#995=DIRECTION('ref_axis',(-1.,0.,0.));
#996=DIRECTION('center_axis',(0.,-1.,0.));
#997=DIRECTION('ref_axis',(-1.,0.,0.));
#998=DIRECTION('',(0.,-1.,0.));
#999=DIRECTION('center_axis',(0.,1.,0.));
#1000=DIRECTION('ref_axis',(-1.,0.,0.));
#1001=DIRECTION('center_axis',(0.,-1.,0.));
#1002=DIRECTION('ref_axis',(-1.,0.,0.));
#1003=DIRECTION('center_axis',(0.,-1.,0.));
#1004=DIRECTION('ref_axis',(-1.,0.,0.));
#1005=DIRECTION('',(0.,-1.,0.));
#1006=DIRECTION('center_axis',(0.,1.,0.));
#1007=DIRECTION('ref_axis',(-1.,0.,0.));
#1008=DIRECTION('center_axis',(0.,-1.,0.));
#1009=DIRECTION('ref_axis',(-1.,0.,0.));
#1010=DIRECTION('center_axis',(0.,-1.,0.));
#1011=DIRECTION('ref_axis',(-1.,0.,0.));
#1012=DIRECTION('',(0.,-1.,0.));
#1013=DIRECTION('center_axis',(0.,1.,0.));
#1014=DIRECTION('ref_axis',(-1.,0.,0.));
#1015=DIRECTION('center_axis',(0.,-1.,0.));
#1016=DIRECTION('ref_axis',(-1.,0.,0.));
#1017=DIRECTION('center_axis',(0.,-1.,0.));
#1018=DIRECTION('ref_axis',(-1.,0.,0.));
#1019=DIRECTION('',(0.,-1.,0.));
#1020=DIRECTION('center_axis',(0.,1.,0.));
#1021=DIRECTION('ref_axis',(-1.,0.,0.));
#1022=DIRECTION('center_axis',(0.,-1.,0.));
#1023=DIRECTION('ref_axis',(-1.,0.,0.));
#1024=DIRECTION('center_axis',(0.,-1.,0.));
#1025=DIRECTION('ref_axis',(-1.,0.,0.));
#1026=DIRECTION('',(0.,-1.,0.));
#1027=DIRECTION('center_axis',(0.,1.,0.));
#1028=DIRECTION('ref_axis',(-1.,0.,0.));
#1029=DIRECTION('center_axis',(0.,-1.,0.));
#1030=DIRECTION('ref_axis',(-1.,0.,0.));
#1031=DIRECTION('center_axis',(0.,-1.,0.));
#1032=DIRECTION('ref_axis',(-1.,0.,0.));
#1033=DIRECTION('',(0.,-1.,0.));
#1034=DIRECTION('center_axis',(0.,1.,0.));
#1035=DIRECTION('ref_axis',(-1.,0.,0.));
#1036=DIRECTION('center_axis',(0.,1.,0.));
#1037=DIRECTION('ref_axis',(1.,0.,-3.6361557350031E-31));
#1038=DIRECTION('center_axis',(0.,1.,0.));
#1039=DIRECTION('ref_axis',(1.,0.,-3.6361557350031E-31));
#1040=DIRECTION('',(0.,1.,0.));
#1041=DIRECTION('center_axis',(0.,1.,0.));
#1042=DIRECTION('ref_axis',(1.,0.,-3.6361557350031E-31));
#1043=DIRECTION('center_axis',(0.,1.,0.));
#1044=DIRECTION('ref_axis',(1.,0.,0.));
#1045=DIRECTION('center_axis',(0.,1.,0.));
#1046=DIRECTION('ref_axis',(1.,0.,-3.6361557350031E-31));
#1047=DIRECTION('center_axis',(0.,1.,0.));
#1048=DIRECTION('ref_axis',(1.,0.,-3.6361557350031E-31));
#1049=DIRECTION('',(0.,1.,0.));
#1050=DIRECTION('center_axis',(0.,1.,0.));
#1051=DIRECTION('ref_axis',(1.,0.,-3.6361557350031E-31));
#1052=DIRECTION('center_axis',(0.,1.,0.));
#1053=DIRECTION('ref_axis',(1.,0.,0.));
#1054=DIRECTION('center_axis',(0.,1.,0.));
#1055=DIRECTION('ref_axis',(1.,0.,-3.6361557350031E-31));
#1056=DIRECTION('center_axis',(0.,1.,0.));
#1057=DIRECTION('ref_axis',(1.,0.,-3.6361557350031E-31));
#1058=DIRECTION('',(0.,1.,0.));
#1059=DIRECTION('center_axis',(0.,1.,0.));
#1060=DIRECTION('ref_axis',(1.,0.,-3.6361557350031E-31));
#1061=DIRECTION('center_axis',(0.,1.,0.));
#1062=DIRECTION('ref_axis',(1.,0.,0.));
#1063=DIRECTION('center_axis',(0.,1.,0.));
#1064=DIRECTION('ref_axis',(1.,0.,-3.6361557350031E-31));
#1065=DIRECTION('center_axis',(0.,1.,0.));
#1066=DIRECTION('ref_axis',(1.,0.,-3.6361557350031E-31));
#1067=DIRECTION('',(0.,1.,0.));
#1068=DIRECTION('center_axis',(0.,1.,0.));
#1069=DIRECTION('ref_axis',(1.,0.,-3.6361557350031E-31));
#1070=DIRECTION('center_axis',(0.,1.,0.));
#1071=DIRECTION('ref_axis',(1.,0.,0.));
#1072=DIRECTION('center_axis',(0.,1.,0.));
#1073=DIRECTION('ref_axis',(1.,0.,-3.6361557350031E-31));
#1074=DIRECTION('center_axis',(0.,1.,0.));
#1075=DIRECTION('ref_axis',(1.,0.,-3.6361557350031E-31));
#1076=DIRECTION('',(0.,1.,0.));
#1077=DIRECTION('center_axis',(0.,1.,0.));
#1078=DIRECTION('ref_axis',(1.,0.,-3.6361557350031E-31));
#1079=DIRECTION('center_axis',(0.,1.,0.));
#1080=DIRECTION('ref_axis',(1.,0.,0.));
#1081=DIRECTION('center_axis',(0.,1.,0.));
#1082=DIRECTION('ref_axis',(1.,0.,-3.6361557350031E-31));
#1083=DIRECTION('center_axis',(0.,1.,0.));
#1084=DIRECTION('ref_axis',(1.,0.,-3.6361557350031E-31));
#1085=DIRECTION('',(0.,1.,0.));
#1086=DIRECTION('center_axis',(0.,1.,0.));
#1087=DIRECTION('ref_axis',(1.,0.,-3.6361557350031E-31));
#1088=DIRECTION('center_axis',(0.,1.,0.));
#1089=DIRECTION('ref_axis',(1.,0.,0.));
#1090=DIRECTION('center_axis',(0.,1.,0.));
#1091=DIRECTION('ref_axis',(1.,0.,-3.6361557350031E-31));
#1092=DIRECTION('center_axis',(0.,1.,0.));
#1093=DIRECTION('ref_axis',(1.,0.,-3.6361557350031E-31));
#1094=DIRECTION('',(0.,1.,0.));
#1095=DIRECTION('center_axis',(0.,1.,0.));
#1096=DIRECTION('ref_axis',(1.,0.,-3.6361557350031E-31));
#1097=DIRECTION('center_axis',(0.,1.,0.));
#1098=DIRECTION('ref_axis',(1.,0.,0.));
#1099=DIRECTION('center_axis',(0.,1.,0.));
#1100=DIRECTION('ref_axis',(1.,0.,-3.6361557350031E-31));
#1101=DIRECTION('center_axis',(0.,1.,0.));
#1102=DIRECTION('ref_axis',(1.,0.,-3.6361557350031E-31));
#1103=DIRECTION('',(0.,1.,0.));
#1104=DIRECTION('center_axis',(0.,1.,0.));
#1105=DIRECTION('ref_axis',(1.,0.,-3.6361557350031E-31));
#1106=DIRECTION('center_axis',(0.,1.,0.));
#1107=DIRECTION('ref_axis',(1.,0.,0.));
#1108=DIRECTION('center_axis',(0.,-1.,0.));
#1109=DIRECTION('ref_axis',(-1.,0.,0.));
#1110=DIRECTION('',(0.,-1.,0.));
#1111=DIRECTION('center_axis',(0.,-1.,0.));
#1112=DIRECTION('ref_axis',(-1.,0.,0.));
#1113=DIRECTION('',(0.,-1.,0.));
#1114=DIRECTION('center_axis',(0.,-1.,0.));
#1115=DIRECTION('ref_axis',(-1.,0.,0.));
#1116=DIRECTION('',(0.,-1.,0.));
#1117=DIRECTION('center_axis',(0.,-1.,0.));
#1118=DIRECTION('ref_axis',(-1.,0.,0.));
#1119=DIRECTION('',(0.,-1.,0.));
#1120=DIRECTION('center_axis',(1.,0.,0.));
#1121=DIRECTION('ref_axis',(0.,0.707106781186547,0.707106781186547));
#1122=DIRECTION('center_axis',(1.,0.,0.));
#1123=DIRECTION('ref_axis',(0.,1.,0.));
#1124=DIRECTION('',(1.,0.,0.));
#1125=DIRECTION('center_axis',(-1.,0.,0.));
#1126=DIRECTION('ref_axis',(0.,0.,1.));
#1127=DIRECTION('center_axis',(-1.,0.,0.));
#1128=DIRECTION('ref_axis',(0.,0.,1.));
#1129=DIRECTION('',(-1.,0.,0.));
#1130=DIRECTION('center_axis',(1.,0.,0.));
#1131=DIRECTION('ref_axis',(0.,1.,0.));
#1132=DIRECTION('center_axis',(-1.,0.,0.));
#1133=DIRECTION('ref_axis',(0.,0.707106781186547,-0.707106781186547));
#1134=DIRECTION('center_axis',(1.,0.,0.));
#1135=DIRECTION('ref_axis',(0.,0.,-1.));
#1136=DIRECTION('',(1.,0.,0.));
#1137=DIRECTION('center_axis',(1.,0.,0.));
#1138=DIRECTION('ref_axis',(0.,0.,-1.));
#1139=DIRECTION('center_axis',(1.,0.,0.));
#1140=DIRECTION('ref_axis',(0.,0.,-1.));
#1141=DIRECTION('',(-1.,0.,0.));
#1142=DIRECTION('center_axis',(1.,0.,0.));
#1143=DIRECTION('ref_axis',(0.,0.,-1.));
#1144=DIRECTION('center_axis',(0.,1.,0.));
#1145=DIRECTION('ref_axis',(1.,0.,0.));
#1146=DIRECTION('center_axis',(0.,-1.,0.));
#1147=DIRECTION('ref_axis',(1.,0.,0.));
#1148=DIRECTION('center_axis',(0.,-1.,0.));
#1149=DIRECTION('ref_axis',(-1.,0.,-1.22464679914735E-16));
#1150=DIRECTION('center_axis',(0.,1.,0.));
#1151=DIRECTION('ref_axis',(0.,0.,1.));
#1152=DIRECTION('center_axis',(0.,1.,0.));
#1153=DIRECTION('ref_axis',(-1.,0.,-1.22464679914735E-16));
#1154=DIRECTION('center_axis',(0.,1.,0.));
#1155=DIRECTION('ref_axis',(0.,0.,1.));
#1156=DIRECTION('center_axis',(0.,1.,0.));
#1157=DIRECTION('ref_axis',(1.,0.,0.));
#1158=DIRECTION('center_axis',(0.,-1.,0.));
#1159=DIRECTION('ref_axis',(0.,0.,-1.));
#1160=CARTESIAN_POINT('',(0.,0.,0.));
#1161=CARTESIAN_POINT('Origin',(130.,10.,-20.));
#1162=CARTESIAN_POINT('',(128.4,12.,-20.));
#1163=CARTESIAN_POINT('Origin',(130.,12.,-20.));
#1164=CARTESIAN_POINT('',(128.4,10.,-20.));
#1165=CARTESIAN_POINT('',(128.4,10.,-20.));
#1166=CARTESIAN_POINT('Origin',(130.,10.,-20.));
#1167=CARTESIAN_POINT('Origin',(130.,12.,-20.));
#1168=CARTESIAN_POINT('',(133.,12.,-20.));
#1169=CARTESIAN_POINT('Origin',(130.,12.,-20.));
#1170=CARTESIAN_POINT('Origin',(1.41226792497325E-16,10.,20.));
#1171=CARTESIAN_POINT('',(-1.6,12.,20.));
#1172=CARTESIAN_POINT('Origin',(1.41226792497325E-16,12.,20.));
#1173=CARTESIAN_POINT('',(-1.6,10.,20.));
#1174=CARTESIAN_POINT('',(-1.6,10.,20.));
#1175=CARTESIAN_POINT('Origin',(1.41226792497325E-16,10.,20.));
#1176=CARTESIAN_POINT('Origin',(0.,12.,20.));
#1177=CARTESIAN_POINT('',(3.,12.,20.));
#1178=CARTESIAN_POINT('Origin',(1.41226792497325E-16,12.,20.));
#1179=CARTESIAN_POINT('Origin',(130.,10.,20.));
#1180=CARTESIAN_POINT('',(128.4,12.,20.));
#1181=CARTESIAN_POINT('Origin',(130.,12.,20.));
#1182=CARTESIAN_POINT('',(128.4,10.,20.));
#1183=CARTESIAN_POINT('',(128.4,10.,20.));
#1184=CARTESIAN_POINT('Origin',(130.,10.,20.));
#1185=CARTESIAN_POINT('Origin',(130.,12.,20.));
#1186=CARTESIAN_POINT('',(133.,12.,20.));
#1187=CARTESIAN_POINT('Origin',(130.,12.,20.));
#1188=CARTESIAN_POINT('Origin',(0.,10.,-20.));
#1189=CARTESIAN_POINT('',(-1.6,12.,-20.));
#1190=CARTESIAN_POINT('Origin',(0.,12.,-20.));
#1191=CARTESIAN_POINT('',(-1.6,10.,-20.));
#1192=CARTESIAN_POINT('',(-1.6,10.,-20.));
#1193=CARTESIAN_POINT('Origin',(0.,10.,-20.));
#1194=CARTESIAN_POINT('Origin',(0.,12.,-20.));
#1195=CARTESIAN_POINT('',(3.,12.,-20.));
#1196=CARTESIAN_POINT('Origin',(0.,12.,-20.));
#1197=CARTESIAN_POINT('Origin',(104.,20.,0.));
#1198=CARTESIAN_POINT('',(106.5,20.,-3.06161699786838E-16));
#1199=CARTESIAN_POINT('Origin',(104.,20.,0.));
#1200=CARTESIAN_POINT('',(106.5,10.,-3.06161699786838E-16));
#1201=CARTESIAN_POINT('',(106.5,20.,3.06161699786838E-16));
#1202=CARTESIAN_POINT('Origin',(104.,10.,0.));
#1203=CARTESIAN_POINT('Origin',(0.,20.,0.));
#1204=CARTESIAN_POINT('',(2.5,20.,-3.06161699786839E-16));
#1205=CARTESIAN_POINT('Origin',(0.,20.,0.));
#1206=CARTESIAN_POINT('',(2.5,10.,-3.06161699786839E-16));
#1207=CARTESIAN_POINT('',(2.5,20.,3.06161699786839E-16));
#1208=CARTESIAN_POINT('Origin',(0.,10.,0.));
#1209=CARTESIAN_POINT('Origin',(39.,20.,0.));
#1210=CARTESIAN_POINT('',(41.5,20.,-3.06161699786839E-16));
#1211=CARTESIAN_POINT('Origin',(39.,20.,0.));
#1212=CARTESIAN_POINT('',(41.5,10.,-3.06161699786839E-16));
#1213=CARTESIAN_POINT('',(41.5,20.,3.06161699786839E-16));
#1214=CARTESIAN_POINT('Origin',(39.,10.,0.));
#1215=CARTESIAN_POINT('Origin',(13.,20.,0.));
#1216=CARTESIAN_POINT('',(15.5,20.,-3.06161699786839E-16));
#1217=CARTESIAN_POINT('Origin',(13.,20.,0.));
#1218=CARTESIAN_POINT('',(15.5,10.,-3.06161699786839E-16));
#1219=CARTESIAN_POINT('',(15.5,20.,3.06161699786839E-16));
#1220=CARTESIAN_POINT('Origin',(13.,10.,0.));
#1221=CARTESIAN_POINT('Origin',(117.,20.,0.));
#1222=CARTESIAN_POINT('',(119.5,20.,-3.06161699786838E-16));
#1223=CARTESIAN_POINT('Origin',(117.,20.,0.));
#1224=CARTESIAN_POINT('',(119.5,10.,-3.06161699786838E-16));
#1225=CARTESIAN_POINT('',(119.5,20.,3.06161699786838E-16));
#1226=CARTESIAN_POINT('Origin',(117.,10.,0.));
#1227=CARTESIAN_POINT('Origin',(65.,20.,0.));
#1228=CARTESIAN_POINT('',(67.5,20.,-3.06161699786838E-16));
#1229=CARTESIAN_POINT('Origin',(65.,20.,0.));
#1230=CARTESIAN_POINT('',(67.5,10.,-3.06161699786838E-16));
#1231=CARTESIAN_POINT('',(67.5,20.,3.06161699786838E-16));
#1232=CARTESIAN_POINT('Origin',(65.,10.,0.));
#1233=CARTESIAN_POINT('Origin',(78.,20.,0.));
#1234=CARTESIAN_POINT('',(80.5,20.,-3.06161699786838E-16));
#1235=CARTESIAN_POINT('Origin',(78.,20.,0.));
#1236=CARTESIAN_POINT('',(80.5,10.,-3.06161699786838E-16));
#1237=CARTESIAN_POINT('',(80.5,20.,3.06161699786838E-16));
#1238=CARTESIAN_POINT('Origin',(78.,10.,0.));
#1239=CARTESIAN_POINT('Origin',(52.,20.,0.));
#1240=CARTESIAN_POINT('',(54.5,20.,-3.06161699786838E-16));
#1241=CARTESIAN_POINT('Origin',(52.,20.,0.));
#1242=CARTESIAN_POINT('',(54.5,10.,-3.06161699786838E-16));
#1243=CARTESIAN_POINT('',(54.5,20.,3.06161699786838E-16));
#1244=CARTESIAN_POINT('Origin',(52.,10.,0.));
#1245=CARTESIAN_POINT('Origin',(26.,20.,0.));
#1246=CARTESIAN_POINT('',(28.5,20.,-3.06161699786839E-16));
#1247=CARTESIAN_POINT('Origin',(26.,20.,0.));
#1248=CARTESIAN_POINT('',(28.5,10.,-3.06161699786839E-16));
#1249=CARTESIAN_POINT('',(28.5,20.,3.06161699786839E-16));
#1250=CARTESIAN_POINT('Origin',(26.,10.,0.));
#1251=CARTESIAN_POINT('Origin',(91.,20.,0.));
#1252=CARTESIAN_POINT('',(93.5,20.,-3.06161699786838E-16));
#1253=CARTESIAN_POINT('Origin',(91.,20.,0.));
#1254=CARTESIAN_POINT('',(93.5,10.,-3.06161699786838E-16));
#1255=CARTESIAN_POINT('',(93.5,20.,3.06161699786838E-16));
#1256=CARTESIAN_POINT('Origin',(91.,10.,0.));
#1257=CARTESIAN_POINT('Origin',(130.,20.,0.));
#1258=CARTESIAN_POINT('',(132.5,20.,-3.06161699786838E-16));
#1259=CARTESIAN_POINT('Origin',(130.,20.,0.));
#1260=CARTESIAN_POINT('',(132.5,10.,-3.06161699786838E-16));
#1261=CARTESIAN_POINT('',(132.5,20.,3.06161699786838E-16));
#1262=CARTESIAN_POINT('Origin',(130.,10.,0.));
#1263=CARTESIAN_POINT('Origin',(4.94974746830545,-1.37383090134823E-15,
4.94974746830559));
#1264=CARTESIAN_POINT('',(3.24974746830545,10.,4.94974746830559));
#1265=CARTESIAN_POINT('Origin',(4.94974746830545,10.,4.94974746830559));
#1266=CARTESIAN_POINT('',(3.24974746830545,19.,4.94974746830559));
#1267=CARTESIAN_POINT('',(3.24974746830545,-1.37383090134823E-15,4.94974746830559));
#1268=CARTESIAN_POINT('Origin',(4.94974746830545,19.,4.94974746830559));
#1269=CARTESIAN_POINT('Origin',(65.,19.,0.));
#1270=CARTESIAN_POINT('Origin',(4.94974746830545,1.37383090134819E-15,-4.94974746830541));
#1271=CARTESIAN_POINT('',(3.24974746830545,10.,-4.94974746830541));
#1272=CARTESIAN_POINT('Origin',(4.94974746830545,10.,-4.94974746830541));
#1273=CARTESIAN_POINT('',(3.24974746830545,19.,-4.94974746830541));
#1274=CARTESIAN_POINT('',(3.24974746830545,1.37383090134819E-15,-4.94974746830541));
#1275=CARTESIAN_POINT('Origin',(4.94974746830545,19.,-4.94974746830541));
#1276=CARTESIAN_POINT('Origin',(65.,19.,0.));
#1277=CARTESIAN_POINT('Origin',(134.949747468306,-1.37383090134819E-15,
4.94974746830541));
#1278=CARTESIAN_POINT('',(133.249747468306,10.,4.94974746830541));
#1279=CARTESIAN_POINT('Origin',(134.949747468306,10.,4.94974746830541));
#1280=CARTESIAN_POINT('',(133.249747468306,19.,4.94974746830541));
#1281=CARTESIAN_POINT('',(133.249747468306,-1.37383090134819E-15,4.94974746830541));
#1282=CARTESIAN_POINT('Origin',(134.949747468306,19.,4.94974746830541));
#1283=CARTESIAN_POINT('Origin',(65.,19.,0.));
#1284=CARTESIAN_POINT('Origin',(134.949747468306,1.37383090134824E-15,-4.94974746830559));
#1285=CARTESIAN_POINT('',(133.249747468306,10.,-4.94974746830559));
#1286=CARTESIAN_POINT('Origin',(134.949747468306,10.,-4.94974746830559));
#1287=CARTESIAN_POINT('',(133.249747468306,19.,-4.94974746830559));
#1288=CARTESIAN_POINT('',(133.249747468306,1.37383090134824E-15,-4.94974746830559));
#1289=CARTESIAN_POINT('Origin',(134.949747468306,19.,-4.94974746830559));
#1290=CARTESIAN_POINT('Origin',(65.,19.,0.));
#1291=CARTESIAN_POINT('Origin',(125.050252531695,1.37383090134824E-15,-4.94974746830559));
#1292=CARTESIAN_POINT('',(123.350252531695,10.,-4.94974746830559));
#1293=CARTESIAN_POINT('Origin',(125.050252531695,10.,-4.94974746830559));
#1294=CARTESIAN_POINT('',(123.350252531695,19.,-4.94974746830559));
#1295=CARTESIAN_POINT('',(123.350252531695,1.37383090134824E-15,-4.94974746830559));
#1296=CARTESIAN_POINT('Origin',(125.050252531695,19.,-4.94974746830559));
#1297=CARTESIAN_POINT('Origin',(65.,19.,0.));
#1298=CARTESIAN_POINT('Origin',(125.050252531695,-1.37383090134819E-15,
4.94974746830541));
#1299=CARTESIAN_POINT('',(123.350252531695,10.,4.94974746830541));
#1300=CARTESIAN_POINT('Origin',(125.050252531695,10.,4.94974746830541));
#1301=CARTESIAN_POINT('',(123.350252531695,19.,4.94974746830541));
#1302=CARTESIAN_POINT('',(123.350252531695,-1.37383090134819E-15,4.94974746830541));
#1303=CARTESIAN_POINT('Origin',(125.050252531695,19.,4.94974746830541));
#1304=CARTESIAN_POINT('Origin',(65.,19.,0.));
#1305=CARTESIAN_POINT('Origin',(-4.94974746830555,1.37383090134819E-15,
-4.94974746830541));
#1306=CARTESIAN_POINT('',(-6.64974746830555,10.,-4.94974746830541));
#1307=CARTESIAN_POINT('Origin',(-4.94974746830555,10.,-4.94974746830541));
#1308=CARTESIAN_POINT('',(-6.64974746830555,19.,-4.94974746830541));
#1309=CARTESIAN_POINT('',(-6.64974746830555,1.37383090134819E-15,-4.94974746830541));
#1310=CARTESIAN_POINT('Origin',(-4.94974746830555,19.,-4.94974746830541));
#1311=CARTESIAN_POINT('Origin',(65.,19.,0.));
#1312=CARTESIAN_POINT('Origin',(-4.94974746830555,-1.37383090134823E-15,
4.94974746830559));
#1313=CARTESIAN_POINT('',(-6.64974746830555,10.,4.94974746830559));
#1314=CARTESIAN_POINT('Origin',(-4.94974746830555,10.,4.94974746830559));
#1315=CARTESIAN_POINT('',(-6.64974746830555,19.,4.94974746830559));
#1316=CARTESIAN_POINT('',(-6.64974746830555,-1.37383090134823E-15,4.94974746830559));
#1317=CARTESIAN_POINT('Origin',(-4.94974746830555,19.,4.94974746830559));
#1318=CARTESIAN_POINT('Origin',(65.,19.,0.));
#1319=CARTESIAN_POINT('Origin',(1.41226792497325E-16,20.,20.));
#1320=CARTESIAN_POINT('',(0.,16.,23.));
#1321=CARTESIAN_POINT('',(0.,19.7979589711326,17.0000000000006));
#1322=CARTESIAN_POINT('Ctrl Pts',(2.63677968348475E-15,16.,23.));
#1323=CARTESIAN_POINT('Ctrl Pts',(-0.241767285316644,16.,23.));
#1324=CARTESIAN_POINT('Ctrl Pts',(-0.477660291880841,16.0340242531015,22.9709268449047));
#1325=CARTESIAN_POINT('Ctrl Pts',(-0.948809144610491,16.1631761891863,22.8570652715273));
#1326=CARTESIAN_POINT('Ctrl Pts',(-1.1760487527359,16.2607063498714,22.7697279293283));
#1327=CARTESIAN_POINT('Ctrl Pts',(-1.76022459482385,16.5838167723456,22.4662024459321));
#1328=CARTESIAN_POINT('Ctrl Pts',(-2.09546345340512,16.8621230506802,22.1902954551993));
#1329=CARTESIAN_POINT('Ctrl Pts',(-2.65592818055831,17.4969339030615,21.4738563735003));
#1330=CARTESIAN_POINT('Ctrl Pts',(-2.85872815730189,17.8475446309894,21.0305557401541));
#1331=CARTESIAN_POINT('Ctrl Pts',(-2.98759150389621,18.3129231534305,20.3457476503135));
#1332=CARTESIAN_POINT('Ctrl Pts',(-3.00525000616629,18.450615323661,20.1296581212959));
#1333=CARTESIAN_POINT('Ctrl Pts',(-2.99434716833243,18.6662690402405,19.766811905519));
#1334=CARTESIAN_POINT('Ctrl Pts',(-2.97976025253161,18.7482229483338,19.6223415998615));
#1335=CARTESIAN_POINT('Ctrl Pts',(-2.93066377990257,18.8983322090129,19.3446866152689));
#1336=CARTESIAN_POINT('Ctrl Pts',(-2.89791795811606,18.9669219101297,19.2118106994296));
#1337=CARTESIAN_POINT('Ctrl Pts',(-2.80229206129698,19.1131564497163,18.9150035946817));
#1338=CARTESIAN_POINT('Ctrl Pts',(-2.73413721049369,19.1883448362234,18.7524314688286));
#1339=CARTESIAN_POINT('Ctrl Pts',(-2.49601879718487,19.3837235281735,18.3033823486386));
#1340=CARTESIAN_POINT('Ctrl Pts',(-2.29170966695768,19.4856867666007,18.0337714869907));
#1341=CARTESIAN_POINT('Ctrl Pts',(-1.77439307384362,19.6489708122828,17.5540690358628));
#1342=CARTESIAN_POINT('Ctrl Pts',(-1.46369949013771,19.7056943244868,17.3553777732115));
#1343=CARTESIAN_POINT('Ctrl Pts',(-0.765938165601849,19.7810757650697,17.0742633428469));
#1344=CARTESIAN_POINT('Ctrl Pts',(-0.384831007550618,19.7979589711327,17.));
#1345=CARTESIAN_POINT('Ctrl Pts',(1.73472347597681E-15,19.7979589711327,
17.));
#1346=CARTESIAN_POINT('',(3.,18.6602540378444,20.));
#1347=CARTESIAN_POINT('Ctrl Pts',(3.,18.6602540378444,20.));
#1348=CARTESIAN_POINT('Ctrl Pts',(3.,18.4162897400677,20.4225585589821));
#1349=CARTESIAN_POINT('Ctrl Pts',(2.90707908105136,18.1233648377453,20.8525853710193));
#1350=CARTESIAN_POINT('Ctrl Pts',(2.55915138741083,17.5099680273107,21.621343582216));
#1351=CARTESIAN_POINT('Ctrl Pts',(2.30530218686052,17.1899336670008,21.9609472575279));
#1352=CARTESIAN_POINT('Ctrl Pts',(1.76978815848933,16.6850654238879,22.4435719526601));
#1353=CARTESIAN_POINT('Ctrl Pts',(1.46829134374366,16.4532361469425,22.6422996252278));
#1354=CARTESIAN_POINT('Ctrl Pts',(0.952381897153857,16.1948628063511,22.8508550722011));
#1355=CARTESIAN_POINT('Ctrl Pts',(0.769676603386524,16.1236603810056,22.905982075912));
#1356=CARTESIAN_POINT('Ctrl Pts',(0.391560497377079,16.0261286679981,22.980572807533));
#1357=CARTESIAN_POINT('Ctrl Pts',(0.196090759527968,16.,23.));
#1358=CARTESIAN_POINT('Ctrl Pts',(1.04083408558608E-16,16.,23.));
#1359=CARTESIAN_POINT('',(3.,20.,20.));
#1360=CARTESIAN_POINT('Ctrl Pts',(3.46944695195361E-16,19.7979589711327,
17.));
#1361=CARTESIAN_POINT('Ctrl Pts',(0.37413519882753,19.7979589711327,17.));
#1362=CARTESIAN_POINT('Ctrl Pts',(0.772841453399446,19.783683823781,17.074419848979));
#1363=CARTESIAN_POINT('Ctrl Pts',(1.50438091437914,19.715211678139,17.3745209468969));
#1364=CARTESIAN_POINT('Ctrl Pts',(1.83710732216819,19.6597412875922,17.6001706298779));
#1365=CARTESIAN_POINT('Ctrl Pts',(2.38669019582649,19.4993557427448,18.1382713460362));
#1366=CARTESIAN_POINT('Ctrl Pts',(2.62590125584164,19.3788575868869,18.4933915858481));
#1367=CARTESIAN_POINT('Ctrl Pts',(2.93213492438755,19.0627955549482,19.2464681930009));
#1368=CARTESIAN_POINT('Ctrl Pts',(3.,18.8660341311643,19.6435784231837));
#1369=CARTESIAN_POINT('Ctrl Pts',(3.,18.6602540378444,20.));
#1370=CARTESIAN_POINT('Origin',(130.,20.,20.));
#1371=CARTESIAN_POINT('',(130.,19.7979589711327,17.));
#1372=CARTESIAN_POINT('',(133.,18.5271596962119,20.));
#1373=CARTESIAN_POINT('Ctrl Pts',(130.,19.7979589711327,17.));
#1374=CARTESIAN_POINT('Ctrl Pts',(130.199411518715,19.7979589711327,17.));
#1375=CARTESIAN_POINT('Ctrl Pts',(130.398333077589,19.7932551381305,17.019899494933));
#1376=CARTESIAN_POINT('Ctrl Pts',(130.801889602896,19.773065555003,17.1013554063316));
#1377=CARTESIAN_POINT('Ctrl Pts',(131.004789059338,19.7569283972488,17.1653667125441));
#1378=CARTESIAN_POINT('Ctrl Pts',(131.492722415181,19.6990188843234,17.3780445092454));
#1379=CARTESIAN_POINT('Ctrl Pts',(131.761653287709,19.6488041491926,17.5513592102089));
#1380=CARTESIAN_POINT('Ctrl Pts',(132.261293998976,19.4992437854361,17.9969620067211));
#1381=CARTESIAN_POINT('Ctrl Pts',(132.475995574341,19.3964019643004,18.2722733289936));
#1382=CARTESIAN_POINT('Ctrl Pts',(132.725527126716,19.1972222428943,18.7329797008001));
#1383=CARTESIAN_POINT('Ctrl Pts',(132.796690864614,19.120399787864,18.8998518573465));
#1384=CARTESIAN_POINT('Ctrl Pts',(132.895076013157,18.9722257249515,19.2013718364864));
#1385=CARTESIAN_POINT('Ctrl Pts',(132.928378513319,18.9036836474679,19.3344780850634));
#1386=CARTESIAN_POINT('Ctrl Pts',(132.978329035594,18.7542425822313,19.6115187574221));
#1387=CARTESIAN_POINT('Ctrl Pts',(132.99337935404,18.6729666493773,19.7551485665764));
#1388=CARTESIAN_POINT('Ctrl Pts',(132.999418989154,18.5683009978957,19.931721623262));
#1389=CARTESIAN_POINT('Ctrl Pts',(133.,18.5478116967965,19.9659108689448));
#1390=CARTESIAN_POINT('Ctrl Pts',(133.,18.5271596962119,19.9999999999999));
#1391=CARTESIAN_POINT('',(130.,16.,23.));
#1392=CARTESIAN_POINT('Ctrl Pts',(130.,16.,23.));
#1393=CARTESIAN_POINT('Ctrl Pts',(129.803909240472,16.,23.));
#1394=CARTESIAN_POINT('Ctrl Pts',(129.608439502623,16.0261286679981,22.980572807533));
#1395=CARTESIAN_POINT('Ctrl Pts',(129.230323396613,16.1236603810056,22.905982075912));
#1396=CARTESIAN_POINT('Ctrl Pts',(129.047618102846,16.1948628063511,22.8508550722011));
#1397=CARTESIAN_POINT('Ctrl Pts',(128.531708656256,16.4532361469425,22.6422996252278));
#1398=CARTESIAN_POINT('Ctrl Pts',(128.230211841511,16.6850654238879,22.4435719526601));
#1399=CARTESIAN_POINT('Ctrl Pts',(127.694697813139,17.1899336670008,21.9609472575279));
#1400=CARTESIAN_POINT('Ctrl Pts',(127.440848612589,17.5099680273107,21.621343582216));
#1401=CARTESIAN_POINT('Ctrl Pts',(127.092920918949,18.1233648377453,20.8525853710193));
#1402=CARTESIAN_POINT('Ctrl Pts',(127.,18.4162897400677,20.4225585589821));
#1403=CARTESIAN_POINT('Ctrl Pts',(127.,18.8660341311643,19.6435784231837));
#1404=CARTESIAN_POINT('Ctrl Pts',(127.067865075612,19.0627955549482,19.2464681930009));
#1405=CARTESIAN_POINT('Ctrl Pts',(127.374098744158,19.3788575868869,18.4933915858481));
#1406=CARTESIAN_POINT('Ctrl Pts',(127.613309804173,19.4993557427448,18.1382713460362));
#1407=CARTESIAN_POINT('Ctrl Pts',(128.162892677832,19.6597412875922,17.6001706298779));
#1408=CARTESIAN_POINT('Ctrl Pts',(128.495619085621,19.715211678139,17.3745209468969));
#1409=CARTESIAN_POINT('Ctrl Pts',(129.227158546601,19.783683823781,17.074419848979));
#1410=CARTESIAN_POINT('Ctrl Pts',(129.625864801172,19.7979589711327,17.));
#1411=CARTESIAN_POINT('Ctrl Pts',(130.,19.7979589711327,17.));
#1412=CARTESIAN_POINT('Ctrl Pts',(133.,18.5271596962119,19.9999999999999));
#1413=CARTESIAN_POINT('Ctrl Pts',(133.,18.4173904792152,20.1811900599507));
#1414=CARTESIAN_POINT('Ctrl Pts',(132.983596607551,18.3029999999712,20.3595367348874));
#1415=CARTESIAN_POINT('Ctrl Pts',(132.874119899963,17.8928289412886,20.9657788193054));
#1416=CARTESIAN_POINT('Ctrl Pts',(132.702647832887,17.5780730635867,21.3714889055717));
#1417=CARTESIAN_POINT('Ctrl Pts',(132.215472219338,16.9792078844619,22.0654087095311));
#1418=CARTESIAN_POINT('Ctrl Pts',(131.910972169166,16.7030683291517,22.347747506344));
#1419=CARTESIAN_POINT('Ctrl Pts',(131.326246161076,16.3314950348599,22.7055421747344));
#1420=CARTESIAN_POINT('Ctrl Pts',(131.055326905503,16.1992609221771,22.8249591813555));
#1421=CARTESIAN_POINT('Ctrl Pts',(130.51543433218,16.0397795655125,22.9660503749832));
#1422=CARTESIAN_POINT('Ctrl Pts',(130.26134468965,16.,23.));
#1423=CARTESIAN_POINT('Ctrl Pts',(130.,16.,23.));
#1424=CARTESIAN_POINT('',(133.,20.,20.));
#1425=CARTESIAN_POINT('Origin',(0.,20.,-20.));
#1426=CARTESIAN_POINT('',(0.,19.7979589711327,-17.));
#1427=CARTESIAN_POINT('',(0.,16.,-23.));
#1428=CARTESIAN_POINT('Ctrl Pts',(-2.15105711021124E-15,19.7979589711327,
-17.));
#1429=CARTESIAN_POINT('Ctrl Pts',(-0.199411518715451,19.7979589711327,-17.));
#1430=CARTESIAN_POINT('Ctrl Pts',(-0.398333077589005,19.7932551381305,-17.019899494933));
#1431=CARTESIAN_POINT('Ctrl Pts',(-0.801889602896354,19.773065555003,-17.1013554063316));
#1432=CARTESIAN_POINT('Ctrl Pts',(-1.00478905933804,19.7569283972488,-17.1653667125441));
#1433=CARTESIAN_POINT('Ctrl Pts',(-1.49272241518122,19.6990188843234,-17.3780445092454));
#1434=CARTESIAN_POINT('Ctrl Pts',(-1.76165328770941,19.6488041491926,-17.5513592102089));
#1435=CARTESIAN_POINT('Ctrl Pts',(-2.26129399897613,19.4992437854361,-17.9969620067211));
#1436=CARTESIAN_POINT('Ctrl Pts',(-2.47599557434137,19.3964019643004,-18.2722733289935));
#1437=CARTESIAN_POINT('Ctrl Pts',(-2.72552712671578,19.1972222428942,-18.7329797008002));
#1438=CARTESIAN_POINT('Ctrl Pts',(-2.7966908646144,19.1203997878639,-18.8998518573467));
#1439=CARTESIAN_POINT('Ctrl Pts',(-2.89507601315679,18.9722257249515,-19.2013718364865));
#1440=CARTESIAN_POINT('Ctrl Pts',(-2.9283785133192,18.9036836474679,-19.3344780850635));
#1441=CARTESIAN_POINT('Ctrl Pts',(-2.97832903559444,18.7542425822314,-19.611518757422));
#1442=CARTESIAN_POINT('Ctrl Pts',(-2.99337935403987,18.6729666493775,-19.7551485665761));
#1443=CARTESIAN_POINT('Ctrl Pts',(-3.00565049617414,18.4603102451912,-20.1139041925089));
#1444=CARTESIAN_POINT('Ctrl Pts',(-2.98949422495192,18.325096316405,-20.3268778803699));
#1445=CARTESIAN_POINT('Ctrl Pts',(-2.87411989996293,17.8928289412886,-20.9657788193054));
#1446=CARTESIAN_POINT('Ctrl Pts',(-2.70264783288691,17.5780730635867,-21.3714889055717));
#1447=CARTESIAN_POINT('Ctrl Pts',(-2.21547221933844,16.9792078844622,-22.0654087095307));
#1448=CARTESIAN_POINT('Ctrl Pts',(-1.91097216916664,16.703068329152,-22.3477475063438));
#1449=CARTESIAN_POINT('Ctrl Pts',(-1.32624616107622,16.3314950348599,-22.7055421747344));
#1450=CARTESIAN_POINT('Ctrl Pts',(-1.05532690550322,16.1992609221771,-22.8249591813555));
#1451=CARTESIAN_POINT('Ctrl Pts',(-0.515434332179804,16.0397795655125,-22.9660503749832));
#1452=CARTESIAN_POINT('Ctrl Pts',(-0.261344689649934,16.,-23.));
#1453=CARTESIAN_POINT('Ctrl Pts',(7.35522753814166E-15,16.,-23.));
#1454=CARTESIAN_POINT('',(3.,18.6602540378444,-20.));
#1455=CARTESIAN_POINT('Ctrl Pts',(3.,18.6602540378444,-20.));
#1456=CARTESIAN_POINT('Ctrl Pts',(3.,18.8660341311642,-19.6435784231837));
#1457=CARTESIAN_POINT('Ctrl Pts',(2.93213492438755,19.0627955549482,-19.2464681930009));
#1458=CARTESIAN_POINT('Ctrl Pts',(2.62590125584164,19.3788575868869,-18.4933915858481));
#1459=CARTESIAN_POINT('Ctrl Pts',(2.3866901958265,19.4993557427448,-18.1382713460362));
#1460=CARTESIAN_POINT('Ctrl Pts',(1.83710732216819,19.6597412875922,-17.6001706298779));
#1461=CARTESIAN_POINT('Ctrl Pts',(1.50438091437914,19.715211678139,-17.3745209468969));
#1462=CARTESIAN_POINT('Ctrl Pts',(0.77284145339945,19.783683823781,-17.074419848979));
#1463=CARTESIAN_POINT('Ctrl Pts',(0.374135198827531,19.7979589711327,-17.));
#1464=CARTESIAN_POINT('Ctrl Pts',(1.38777878078145E-16,19.7979589711327,
-17.));
#1465=CARTESIAN_POINT('',(3.,20.,-20.));
#1466=CARTESIAN_POINT('Ctrl Pts',(-2.08166817117217E-16,16.,-23.));
#1467=CARTESIAN_POINT('Ctrl Pts',(0.196090759527967,16.,-23.));
#1468=CARTESIAN_POINT('Ctrl Pts',(0.391560497377072,16.0261286679981,-22.980572807533));
#1469=CARTESIAN_POINT('Ctrl Pts',(0.769676603386515,16.1236603810055,-22.905982075912));
#1470=CARTESIAN_POINT('Ctrl Pts',(0.95238189715385,16.1948628063511,-22.8508550722011));
#1471=CARTESIAN_POINT('Ctrl Pts',(1.46829134374366,16.4532361469425,-22.6422996252278));
#1472=CARTESIAN_POINT('Ctrl Pts',(1.76978815848932,16.6850654238879,-22.4435719526601));
#1473=CARTESIAN_POINT('Ctrl Pts',(2.30530218686051,17.1899336670008,-21.9609472575279));
#1474=CARTESIAN_POINT('Ctrl Pts',(2.55915138741083,17.5099680273107,-21.621343582216));
#1475=CARTESIAN_POINT('Ctrl Pts',(2.90707908105136,18.1233648377453,-20.8525853710193));
#1476=CARTESIAN_POINT('Ctrl Pts',(3.,18.4162897400677,-20.4225585589821));
#1477=CARTESIAN_POINT('Ctrl Pts',(3.,18.6602540378444,-20.));
#1478=CARTESIAN_POINT('Origin',(130.,20.,-20.));
#1479=CARTESIAN_POINT('',(130.,19.7979589711327,-17.));
#1480=CARTESIAN_POINT('',(130.,16.,-23.));
#1481=CARTESIAN_POINT('Ctrl Pts',(130.,19.7979589711327,-17.));
#1482=CARTESIAN_POINT('Ctrl Pts',(129.625864801172,19.7979589711327,-17.));
#1483=CARTESIAN_POINT('Ctrl Pts',(129.227158546601,19.783683823781,-17.074419848979));
#1484=CARTESIAN_POINT('Ctrl Pts',(128.495619085621,19.715211678139,-17.3745209468969));
#1485=CARTESIAN_POINT('Ctrl Pts',(128.162892677832,19.6597412875922,-17.6001706298779));
#1486=CARTESIAN_POINT('Ctrl Pts',(127.613309804173,19.4993557427448,-18.1382713460362));
#1487=CARTESIAN_POINT('Ctrl Pts',(127.374098744158,19.3788575868869,-18.4933915858481));
#1488=CARTESIAN_POINT('Ctrl Pts',(127.067865075612,19.0627955549482,-19.2464681930009));
#1489=CARTESIAN_POINT('Ctrl Pts',(127.,18.8660341311642,-19.6435784231837));
#1490=CARTESIAN_POINT('Ctrl Pts',(127.,18.4162897400677,-20.4225585589821));
#1491=CARTESIAN_POINT('Ctrl Pts',(127.092920918949,18.1233648377452,-20.8525853710193));
#1492=CARTESIAN_POINT('Ctrl Pts',(127.440848612589,17.5099680273107,-21.621343582216));
#1493=CARTESIAN_POINT('Ctrl Pts',(127.694697813139,17.1899336670008,-21.9609472575279));
#1494=CARTESIAN_POINT('Ctrl Pts',(128.230211841511,16.6850654238879,-22.4435719526601));
#1495=CARTESIAN_POINT('Ctrl Pts',(128.531708656256,16.4532361469425,-22.6422996252278));
#1496=CARTESIAN_POINT('Ctrl Pts',(129.047618102846,16.1948628063511,-22.8508550722011));
#1497=CARTESIAN_POINT('Ctrl Pts',(129.230323396613,16.1236603810056,-22.905982075912));
#1498=CARTESIAN_POINT('Ctrl Pts',(129.608439502623,16.0261286679981,-22.980572807533));
#1499=CARTESIAN_POINT('Ctrl Pts',(129.803909240472,16.,-23.));
#1500=CARTESIAN_POINT('Ctrl Pts',(130.,16.,-23.));
#1501=CARTESIAN_POINT('',(133.,18.5271596962119,-20.));
#1502=CARTESIAN_POINT('Ctrl Pts',(133.,18.5271596962119,-19.9999999999999));
#1503=CARTESIAN_POINT('Ctrl Pts',(133.,18.5453102603018,-19.9700398537444));
#1504=CARTESIAN_POINT('Ctrl Pts',(132.999551209033,18.5633352228774,-19.9400022715283));
#1505=CARTESIAN_POINT('Ctrl Pts',(132.994347168332,18.6662690402405,-19.766811905519));
#1506=CARTESIAN_POINT('Ctrl Pts',(132.979760252532,18.7482229483338,-19.6223415998615));
#1507=CARTESIAN_POINT('Ctrl Pts',(132.930663779903,18.8983322090129,-19.3446866152688));
#1508=CARTESIAN_POINT('Ctrl Pts',(132.897917958116,18.9669219101297,-19.2118106994296));
#1509=CARTESIAN_POINT('Ctrl Pts',(132.802292061297,19.1131564497164,-18.9150035946817));
#1510=CARTESIAN_POINT('Ctrl Pts',(132.734137210494,19.1883448362234,-18.7524314688286));
#1511=CARTESIAN_POINT('Ctrl Pts',(132.496018797185,19.3837235281735,-18.3033823486386));
#1512=CARTESIAN_POINT('Ctrl Pts',(132.291709666958,19.4856867666007,-18.0337714869908));
#1513=CARTESIAN_POINT('Ctrl Pts',(131.774393073844,19.6489708122828,-17.5540690358628));
#1514=CARTESIAN_POINT('Ctrl Pts',(131.463699490138,19.7056943244868,-17.3553777732115));
#1515=CARTESIAN_POINT('Ctrl Pts',(130.765938165602,19.7810757650697,-17.0742633428469));
#1516=CARTESIAN_POINT('Ctrl Pts',(130.384831007551,19.7979589711327,-17.));
#1517=CARTESIAN_POINT('Ctrl Pts',(130.,19.7979589711327,-17.));
#1518=CARTESIAN_POINT('',(133.,20.,-20.));
#1519=CARTESIAN_POINT('Ctrl Pts',(130.,16.,-23.));
#1520=CARTESIAN_POINT('Ctrl Pts',(130.241767285317,16.,-23.));
#1521=CARTESIAN_POINT('Ctrl Pts',(130.477660291881,16.0340242531015,-22.9709268449047));
#1522=CARTESIAN_POINT('Ctrl Pts',(130.948809144611,16.1631761891864,-22.8570652715273));
#1523=CARTESIAN_POINT('Ctrl Pts',(131.176048752736,16.2607063498715,-22.7697279293282));
#1524=CARTESIAN_POINT('Ctrl Pts',(131.760224594824,16.583816772346,-22.4662024459318));
#1525=CARTESIAN_POINT('Ctrl Pts',(132.095463453406,16.8621230506807,-22.1902954551988));
#1526=CARTESIAN_POINT('Ctrl Pts',(132.655928180558,17.4969339030615,-21.4738563735002));
#1527=CARTESIAN_POINT('Ctrl Pts',(132.858728157302,17.8475446309894,-21.0305557401541));
#1528=CARTESIAN_POINT('Ctrl Pts',(132.982202774193,18.293462235075,-20.3743845419682));
#1529=CARTESIAN_POINT('Ctrl Pts',(133.,18.4128179339307,-20.1887377110762));
#1530=CARTESIAN_POINT('Ctrl Pts',(133.,18.5271596962119,-19.9999999999999));
#1531=CARTESIAN_POINT('Origin',(32.5,10.,15.));
#1532=CARTESIAN_POINT('',(0.,10.,25.));
#1533=CARTESIAN_POINT('Origin',(0.,10.,15.));
#1534=CARTESIAN_POINT('',(130.,10.,25.));
#1535=CARTESIAN_POINT('',(32.5,10.,25.));
#1536=CARTESIAN_POINT('Origin',(130.,10.,15.));
#1537=CARTESIAN_POINT('',(130.,20.,15.));
#1538=CARTESIAN_POINT('Origin',(130.,10.,15.));
#1539=CARTESIAN_POINT('',(0.,20.,15.));
#1540=CARTESIAN_POINT('',(32.5,20.,15.));
#1541=CARTESIAN_POINT('Origin',(0.,10.,15.));
#1542=CARTESIAN_POINT('Origin',(97.5,10.,-15.));
#1543=CARTESIAN_POINT('',(0.,20.,-15.));
#1544=CARTESIAN_POINT('Origin',(0.,10.,-15.));
#1545=CARTESIAN_POINT('',(130.,20.,-15.));
#1546=CARTESIAN_POINT('',(97.5,20.,-15.));
#1547=CARTESIAN_POINT('Origin',(130.,10.,-15.));
#1548=CARTESIAN_POINT('',(130.,10.,-25.));
#1549=CARTESIAN_POINT('Origin',(130.,10.,-15.));
#1550=CARTESIAN_POINT('',(0.,10.,-25.));
#1551=CARTESIAN_POINT('',(97.5,10.,-25.));
#1552=CARTESIAN_POINT('Origin',(0.,10.,-15.));
#1553=CARTESIAN_POINT('Origin',(65.,20.,0.));
#1554=CARTESIAN_POINT('Origin',(130.,20.,0.));
#1555=CARTESIAN_POINT('Origin',(0.,20.,0.));
#1556=CARTESIAN_POINT('Origin',(0.,10.,0.));
#1557=CARTESIAN_POINT('Origin',(0.,10.,0.));
#1558=CARTESIAN_POINT('Origin',(130.,10.,0.));
#1559=CARTESIAN_POINT('Origin',(130.,10.,0.));
#1560=CARTESIAN_POINT('Origin',(65.,10.,0.));
#1561=UNCERTAINTY_MEASURE_WITH_UNIT(LENGTH_MEASURE(0.01),#1565,
'DISTANCE_ACCURACY_VALUE',
'Maximum model space distance between geometric entities at asserted c
onnectivities');
#1562=UNCERTAINTY_MEASURE_WITH_UNIT(LENGTH_MEASURE(0.01),#1565,
'DISTANCE_ACCURACY_VALUE',
'Maximum model space distance between geometric entities at asserted c
onnectivities');
#1563=(
GEOMETRIC_REPRESENTATION_CONTEXT(3)
GLOBAL_UNCERTAINTY_ASSIGNED_CONTEXT((#1561))
GLOBAL_UNIT_ASSIGNED_CONTEXT((#1565,#1567,#1568))
REPRESENTATION_CONTEXT('','3D')
);
#1564=(
GEOMETRIC_REPRESENTATION_CONTEXT(3)
GLOBAL_UNCERTAINTY_ASSIGNED_CONTEXT((#1562))
GLOBAL_UNIT_ASSIGNED_CONTEXT((#1565,#1567,#1568))
REPRESENTATION_CONTEXT('','3D')
);
#1565=(
LENGTH_UNIT()
NAMED_UNIT(*)
SI_UNIT(.MILLI.,.METRE.)
);
#1566=(
LENGTH_UNIT()
NAMED_UNIT(*)
SI_UNIT($,.METRE.)
);
#1567=(
NAMED_UNIT(*)
PLANE_ANGLE_UNIT()
SI_UNIT($,.RADIAN.)
);
#1568=(
NAMED_UNIT(*)
SI_UNIT($,.STERADIAN.)
SOLID_ANGLE_UNIT()
);
#1569=SHAPE_DEFINITION_REPRESENTATION(#1570,#1571);
#1570=PRODUCT_DEFINITION_SHAPE('',$,#1573);
#1571=SHAPE_REPRESENTATION('',(#805),#1563);
#1572=PRODUCT_DEFINITION_CONTEXT('part definition',#1577,'design');
#1573=PRODUCT_DEFINITION('Cover','Cover',#1574,#1572);
#1574=PRODUCT_DEFINITION_FORMATION('',$,#1579);
#1575=PRODUCT_RELATED_PRODUCT_CATEGORY('Cover','Cover',(#1579));
#1576=APPLICATION_PROTOCOL_DEFINITION('international standard',
'automotive_design',2009,#1577);
#1577=APPLICATION_CONTEXT(
'Core Data for Automotive Mechanical Design Process');
#1578=PRODUCT_CONTEXT('part definition',#1577,'mechanical');
#1579=PRODUCT('Cover','Cover',$,(#1578));
#1580=PRESENTATION_STYLE_ASSIGNMENT((#1582));
#1581=PRESENTATION_STYLE_ASSIGNMENT((#1583));
#1582=SURFACE_STYLE_USAGE(.BOTH.,#1584);
#1583=SURFACE_STYLE_USAGE(.BOTH.,#1585);
#1584=SURFACE_SIDE_STYLE('',(#1586));
#1585=SURFACE_SIDE_STYLE('',(#1587));
#1586=SURFACE_STYLE_FILL_AREA(#1588);
#1587=SURFACE_STYLE_FILL_AREA(#1589);
#1588=FILL_AREA_STYLE('Steel - Satin',(#1590));
#1589=FILL_AREA_STYLE('Plastic - Translucent Matte (Blue)',(#1591));
#1590=FILL_AREA_STYLE_COLOUR('Steel - Satin',#1592);
#1591=FILL_AREA_STYLE_COLOUR('Plastic - Translucent Matte (Blue)',#1593);
#1592=COLOUR_RGB('Steel - Satin',0.627450980392157,0.627450980392157,0.627450980392157);
#1593=COLOUR_RGB('Plastic - Translucent Matte (Blue)',0.,0.,0.);
ENDSEC;
END-ISO-10303-21;
