ISO-10303-21;
HEADER;
/* Generated by software containing ST-Developer
 * from STEP Tools, Inc. (www.steptools.com) 
 */

FILE_DESCRIPTION(
/* description */ (''),
/* implementation_level */ '2;1');

FILE_NAME(
/* name */ 'Joint 2 Body.step',
/* time_stamp */ '2026-04-06T15:09:24+02:00',
/* author */ (''),
/* organization */ (''),
/* preprocessor_version */ 'ST-DEVELOPER v20.1',
/* originating_system */ 'Autodesk Translation Framework v14.24.0.0',
/* authorisation */ '');

FILE_SCHEMA (('AUTOMOTIVE_DESIGN { 1 0 10303 214 3 1 1 }'));
ENDSEC;

DATA;
#10=MECHANICAL_DESIGN_GEOMETRIC_PRESENTATION_REPRESENTATION('',(#13),#1335);
#11=SHAPE_REPRESENTATION_RELATIONSHIP('SRR','None',#1342,#12);
#12=ADVANCED_BREP_SHAPE_REPRESENTATION('',(#14),#1334);
#13=STYLED_ITEM('',(#1352),#14);
#14=MANIFOLD_SOLID_BREP('Body1',#771);
#15=LINE('',#1150,#69);
#16=LINE('',#1154,#70);
#17=LINE('',#1155,#71);
#18=LINE('',#1156,#72);
#19=LINE('',#1160,#73);
#20=LINE('',#1164,#74);
#21=LINE('',#1165,#75);
#22=LINE('',#1166,#76);
#23=LINE('',#1169,#77);
#24=LINE('',#1172,#78);
#25=LINE('',#1177,#79);
#26=LINE('',#1182,#80);
#27=LINE('',#1185,#81);
#28=LINE('',#1186,#82);
#29=LINE('',#1190,#83);
#30=LINE('',#1192,#84);
#31=LINE('',#1193,#85);
#32=LINE('',#1195,#86);
#33=LINE('',#1198,#87);
#34=LINE('',#1200,#88);
#35=LINE('',#1205,#89);
#36=LINE('',#1206,#90);
#37=LINE('',#1208,#91);
#38=LINE('',#1209,#92);
#39=LINE('',#1213,#93);
#40=LINE('',#1216,#94);
#41=LINE('',#1217,#95);
#42=LINE('',#1224,#96);
#43=LINE('',#1226,#97);
#44=LINE('',#1227,#98);
#45=LINE('',#1232,#99);
#46=LINE('',#1239,#100);
#47=LINE('',#1246,#101);
#48=LINE('',#1253,#102);
#49=LINE('',#1259,#103);
#50=LINE('',#1263,#104);
#51=LINE('',#1267,#105);
#52=LINE('',#1271,#106);
#53=LINE('',#1275,#107);
#54=LINE('',#1279,#108);
#55=LINE('',#1283,#109);
#56=LINE('',#1287,#110);
#57=LINE('',#1292,#111);
#58=LINE('',#1299,#112);
#59=LINE('',#1307,#113);
#60=LINE('',#1310,#114);
#61=LINE('',#1312,#115);
#62=LINE('',#1314,#116);
#63=LINE('',#1318,#117);
#64=LINE('',#1322,#118);
#65=LINE('',#1325,#119);
#66=LINE('',#1326,#120);
#67=LINE('',#1328,#121);
#68=LINE('',#1330,#122);
#69=VECTOR('',#910,10.);
#70=VECTOR('',#913,10.);
#71=VECTOR('',#914,10.);
#72=VECTOR('',#915,10.);
#73=VECTOR('',#918,10.);
#74=VECTOR('',#921,10.);
#75=VECTOR('',#922,10.);
#76=VECTOR('',#923,10.);
#77=VECTOR('',#926,10.);
#78=VECTOR('',#929,10.);
#79=VECTOR('',#934,10.);
#80=VECTOR('',#939,10.);
#81=VECTOR('',#942,10.);
#82=VECTOR('',#943,10.);
#83=VECTOR('',#948,10.);
#84=VECTOR('',#951,10.);
#85=VECTOR('',#952,10.);
#86=VECTOR('',#955,10.);
#87=VECTOR('',#958,10.);
#88=VECTOR('',#959,10.);
#89=VECTOR('',#964,10.);
#90=VECTOR('',#965,10.);
#91=VECTOR('',#966,10.);
#92=VECTOR('',#967,10.);
#93=VECTOR('',#972,10.);
#94=VECTOR('',#975,10.);
#95=VECTOR('',#976,10.);
#96=VECTOR('',#987,10.);
#97=VECTOR('',#990,10.);
#98=VECTOR('',#991,10.);
#99=VECTOR('',#996,1.8);
#100=VECTOR('',#1005,1.8);
#101=VECTOR('',#1014,1.8);
#102=VECTOR('',#1023,1.8);
#103=VECTOR('',#1032,1.7);
#104=VECTOR('',#1037,1.7);
#105=VECTOR('',#1042,1.7);
#106=VECTOR('',#1047,1.7);
#107=VECTOR('',#1052,1.7);
#108=VECTOR('',#1057,1.7);
#109=VECTOR('',#1062,1.7);
#110=VECTOR('',#1067,1.7);
#111=VECTOR('',#1072,10.);
#112=VECTOR('',#1081,10.);
#113=VECTOR('',#1090,10.);
#114=VECTOR('',#1093,10.);
#115=VECTOR('',#1096,10.);
#116=VECTOR('',#1099,10.);
#117=VECTOR('',#1102,10.);
#118=VECTOR('',#1105,10.);
#119=VECTOR('',#1110,10.);
#120=VECTOR('',#1111,10.);
#121=VECTOR('',#1114,10.);
#122=VECTOR('',#1117,10.);
#123=CYLINDRICAL_SURFACE('',#799,15.);
#124=CYLINDRICAL_SURFACE('',#801,15.);
#125=CYLINDRICAL_SURFACE('',#805,20.);
#126=CYLINDRICAL_SURFACE('',#810,15.);
#127=CYLINDRICAL_SURFACE('',#817,15.);
#128=CYLINDRICAL_SURFACE('',#820,20.);
#129=CYLINDRICAL_SURFACE('',#826,1.8);
#130=CYLINDRICAL_SURFACE('',#830,1.8);
#131=CYLINDRICAL_SURFACE('',#834,1.8);
#132=CYLINDRICAL_SURFACE('',#838,1.8);
#133=CYLINDRICAL_SURFACE('',#842,1.7);
#134=CYLINDRICAL_SURFACE('',#844,1.7);
#135=CYLINDRICAL_SURFACE('',#846,1.7);
#136=CYLINDRICAL_SURFACE('',#848,1.7);
#137=CYLINDRICAL_SURFACE('',#850,1.7);
#138=CYLINDRICAL_SURFACE('',#852,1.7);
#139=CYLINDRICAL_SURFACE('',#854,1.7);
#140=CYLINDRICAL_SURFACE('',#856,1.7);
#141=CYLINDRICAL_SURFACE('',#858,10.);
#142=CYLINDRICAL_SURFACE('',#862,10.);
#143=CYLINDRICAL_SURFACE('',#874,25.);
#144=CYLINDRICAL_SURFACE('',#877,25.);
#145=FACE_BOUND('',#216,.T.);
#146=FACE_BOUND('',#217,.T.);
#147=FACE_BOUND('',#218,.T.);
#148=FACE_BOUND('',#219,.T.);
#149=FACE_BOUND('',#221,.T.);
#150=FACE_BOUND('',#222,.T.);
#151=FACE_BOUND('',#223,.T.);
#152=FACE_BOUND('',#224,.T.);
#153=FACE_BOUND('',#258,.T.);
#154=FACE_BOUND('',#259,.T.);
#155=FACE_BOUND('',#260,.T.);
#156=FACE_BOUND('',#261,.T.);
#157=FACE_BOUND('',#264,.T.);
#158=FACE_BOUND('',#265,.T.);
#159=FACE_BOUND('',#266,.T.);
#160=FACE_BOUND('',#267,.T.);
#161=FACE_BOUND('',#269,.T.);
#162=FACE_BOUND('',#270,.T.);
#163=FACE_BOUND('',#271,.T.);
#164=FACE_BOUND('',#272,.T.);
#165=FACE_BOUND('',#276,.T.);
#166=FACE_BOUND('',#277,.T.);
#167=FACE_BOUND('',#278,.T.);
#168=FACE_BOUND('',#279,.T.);
#169=FACE_BOUND('',#280,.T.);
#170=FACE_OUTER_BOUND('',#215,.T.);
#171=FACE_OUTER_BOUND('',#220,.T.);
#172=FACE_OUTER_BOUND('',#225,.T.);
#173=FACE_OUTER_BOUND('',#226,.T.);
#174=FACE_OUTER_BOUND('',#227,.T.);
#175=FACE_OUTER_BOUND('',#228,.T.);
#176=FACE_OUTER_BOUND('',#229,.T.);
#177=FACE_OUTER_BOUND('',#230,.T.);
#178=FACE_OUTER_BOUND('',#231,.T.);
#179=FACE_OUTER_BOUND('',#232,.T.);
#180=FACE_OUTER_BOUND('',#233,.T.);
#181=FACE_OUTER_BOUND('',#234,.T.);
#182=FACE_OUTER_BOUND('',#235,.T.);
#183=FACE_OUTER_BOUND('',#236,.T.);
#184=FACE_OUTER_BOUND('',#237,.T.);
#185=FACE_OUTER_BOUND('',#238,.T.);
#186=FACE_OUTER_BOUND('',#239,.T.);
#187=FACE_OUTER_BOUND('',#240,.T.);
#188=FACE_OUTER_BOUND('',#241,.T.);
#189=FACE_OUTER_BOUND('',#242,.T.);
#190=FACE_OUTER_BOUND('',#243,.T.);
#191=FACE_OUTER_BOUND('',#244,.T.);
#192=FACE_OUTER_BOUND('',#245,.T.);
#193=FACE_OUTER_BOUND('',#246,.T.);
#194=FACE_OUTER_BOUND('',#247,.T.);
#195=FACE_OUTER_BOUND('',#248,.T.);
#196=FACE_OUTER_BOUND('',#249,.T.);
#197=FACE_OUTER_BOUND('',#250,.T.);
#198=FACE_OUTER_BOUND('',#251,.T.);
#199=FACE_OUTER_BOUND('',#252,.T.);
#200=FACE_OUTER_BOUND('',#253,.T.);
#201=FACE_OUTER_BOUND('',#254,.T.);
#202=FACE_OUTER_BOUND('',#255,.T.);
#203=FACE_OUTER_BOUND('',#256,.T.);
#204=FACE_OUTER_BOUND('',#257,.T.);
#205=FACE_OUTER_BOUND('',#262,.T.);
#206=FACE_OUTER_BOUND('',#263,.T.);
#207=FACE_OUTER_BOUND('',#268,.T.);
#208=FACE_OUTER_BOUND('',#273,.T.);
#209=FACE_OUTER_BOUND('',#274,.T.);
#210=FACE_OUTER_BOUND('',#275,.T.);
#211=FACE_OUTER_BOUND('',#281,.T.);
#212=FACE_OUTER_BOUND('',#282,.T.);
#213=FACE_OUTER_BOUND('',#283,.T.);
#214=FACE_OUTER_BOUND('',#284,.T.);
#215=EDGE_LOOP('',(#499,#500));
#216=EDGE_LOOP('',(#501));
#217=EDGE_LOOP('',(#502));
#218=EDGE_LOOP('',(#503));
#219=EDGE_LOOP('',(#504));
#220=EDGE_LOOP('',(#505,#506));
#221=EDGE_LOOP('',(#507));
#222=EDGE_LOOP('',(#508));
#223=EDGE_LOOP('',(#509));
#224=EDGE_LOOP('',(#510));
#225=EDGE_LOOP('',(#511,#512,#513,#514,#515,#516));
#226=EDGE_LOOP('',(#517,#518,#519,#520,#521,#522));
#227=EDGE_LOOP('',(#523,#524,#525));
#228=EDGE_LOOP('',(#526,#527,#528,#529,#530,#531));
#229=EDGE_LOOP('',(#532,#533,#534,#535,#536));
#230=EDGE_LOOP('',(#537,#538,#539,#540));
#231=EDGE_LOOP('',(#541,#542,#543,#544,#545));
#232=EDGE_LOOP('',(#546,#547,#548));
#233=EDGE_LOOP('',(#549,#550,#551));
#234=EDGE_LOOP('',(#552,#553,#554,#555,#556));
#235=EDGE_LOOP('',(#557,#558,#559,#560));
#236=EDGE_LOOP('',(#561,#562,#563,#564,#565));
#237=EDGE_LOOP('',(#566,#567,#568,#569,#570,#571));
#238=EDGE_LOOP('',(#572,#573,#574));
#239=EDGE_LOOP('',(#575,#576,#577,#578));
#240=EDGE_LOOP('',(#579,#580,#581,#582));
#241=EDGE_LOOP('',(#583));
#242=EDGE_LOOP('',(#584,#585,#586,#587));
#243=EDGE_LOOP('',(#588));
#244=EDGE_LOOP('',(#589,#590,#591,#592));
#245=EDGE_LOOP('',(#593));
#246=EDGE_LOOP('',(#594,#595,#596,#597));
#247=EDGE_LOOP('',(#598));
#248=EDGE_LOOP('',(#599,#600,#601,#602));
#249=EDGE_LOOP('',(#603,#604,#605,#606));
#250=EDGE_LOOP('',(#607,#608,#609,#610));
#251=EDGE_LOOP('',(#611,#612,#613,#614));
#252=EDGE_LOOP('',(#615,#616,#617,#618));
#253=EDGE_LOOP('',(#619,#620,#621,#622));
#254=EDGE_LOOP('',(#623,#624,#625,#626));
#255=EDGE_LOOP('',(#627,#628,#629,#630));
#256=EDGE_LOOP('',(#631,#632,#633,#634));
#257=EDGE_LOOP('',(#635));
#258=EDGE_LOOP('',(#636));
#259=EDGE_LOOP('',(#637));
#260=EDGE_LOOP('',(#638));
#261=EDGE_LOOP('',(#639));
#262=EDGE_LOOP('',(#640,#641,#642,#643));
#263=EDGE_LOOP('',(#644));
#264=EDGE_LOOP('',(#645));
#265=EDGE_LOOP('',(#646));
#266=EDGE_LOOP('',(#647));
#267=EDGE_LOOP('',(#648));
#268=EDGE_LOOP('',(#649,#650,#651,#652));
#269=EDGE_LOOP('',(#653,#654,#655,#656));
#270=EDGE_LOOP('',(#657,#658,#659,#660));
#271=EDGE_LOOP('',(#661));
#272=EDGE_LOOP('',(#662));
#273=EDGE_LOOP('',(#663,#664,#665,#666,#667,#668));
#274=EDGE_LOOP('',(#669,#670,#671,#672,#673,#674));
#275=EDGE_LOOP('',(#675,#676,#677,#678));
#276=EDGE_LOOP('',(#679));
#277=EDGE_LOOP('',(#680));
#278=EDGE_LOOP('',(#681));
#279=EDGE_LOOP('',(#682));
#280=EDGE_LOOP('',(#683,#684,#685,#686));
#281=EDGE_LOOP('',(#687,#688,#689,#690));
#282=EDGE_LOOP('',(#691,#692,#693,#694));
#283=EDGE_LOOP('',(#695,#696,#697,#698));
#284=EDGE_LOOP('',(#699,#700,#701,#702));
#285=CIRCLE('',#786,15.);
#286=CIRCLE('',#787,15.);
#287=CIRCLE('',#788,1.7);
#288=CIRCLE('',#789,1.7);
#289=CIRCLE('',#790,1.7);
#290=CIRCLE('',#791,1.7);
#291=CIRCLE('',#793,15.);
#292=CIRCLE('',#794,15.);
#293=CIRCLE('',#795,1.7);
#294=CIRCLE('',#796,1.7);
#295=CIRCLE('',#797,1.7);
#296=CIRCLE('',#798,1.7);
#297=CIRCLE('',#800,15.);
#298=CIRCLE('',#802,15.);
#299=CIRCLE('',#804,20.);
#300=CIRCLE('',#806,20.);
#301=CIRCLE('',#807,20.);
#302=CIRCLE('',#808,20.);
#303=CIRCLE('',#811,15.);
#304=CIRCLE('',#815,20.);
#305=CIRCLE('',#818,15.);
#306=CIRCLE('',#821,20.);
#307=CIRCLE('',#822,20.);
#308=CIRCLE('',#823,20.);
#309=CIRCLE('',#827,1.8);
#310=CIRCLE('',#828,1.8);
#311=CIRCLE('',#831,1.8);
#312=CIRCLE('',#832,1.8);
#313=CIRCLE('',#835,1.8);
#314=CIRCLE('',#836,1.8);
#315=CIRCLE('',#839,1.8);
#316=CIRCLE('',#840,1.8);
#317=CIRCLE('',#843,1.7);
#318=CIRCLE('',#845,1.7);
#319=CIRCLE('',#847,1.7);
#320=CIRCLE('',#849,1.7);
#321=CIRCLE('',#851,1.7);
#322=CIRCLE('',#853,1.7);
#323=CIRCLE('',#855,1.7);
#324=CIRCLE('',#857,1.7);
#325=CIRCLE('',#859,10.);
#326=CIRCLE('',#860,10.);
#327=CIRCLE('',#863,10.);
#328=CIRCLE('',#864,10.);
#329=CIRCLE('',#867,25.);
#330=CIRCLE('',#868,25.);
#331=CIRCLE('',#872,25.);
#332=CIRCLE('',#873,25.);
#333=VERTEX_POINT('',#1122);
#334=VERTEX_POINT('',#1123);
#335=VERTEX_POINT('',#1126);
#336=VERTEX_POINT('',#1128);
#337=VERTEX_POINT('',#1130);
#338=VERTEX_POINT('',#1132);
#339=VERTEX_POINT('',#1135);
#340=VERTEX_POINT('',#1136);
#341=VERTEX_POINT('',#1139);
#342=VERTEX_POINT('',#1141);
#343=VERTEX_POINT('',#1143);
#344=VERTEX_POINT('',#1145);
#345=VERTEX_POINT('',#1148);
#346=VERTEX_POINT('',#1149);
#347=VERTEX_POINT('',#1151);
#348=VERTEX_POINT('',#1153);
#349=VERTEX_POINT('',#1158);
#350=VERTEX_POINT('',#1159);
#351=VERTEX_POINT('',#1161);
#352=VERTEX_POINT('',#1163);
#353=VERTEX_POINT('',#1168);
#354=VERTEX_POINT('',#1170);
#355=VERTEX_POINT('',#1174);
#356=VERTEX_POINT('',#1175);
#357=VERTEX_POINT('',#1178);
#358=VERTEX_POINT('',#1180);
#359=VERTEX_POINT('',#1184);
#360=VERTEX_POINT('',#1188);
#361=VERTEX_POINT('',#1197);
#362=VERTEX_POINT('',#1199);
#363=VERTEX_POINT('',#1203);
#364=VERTEX_POINT('',#1204);
#365=VERTEX_POINT('',#1207);
#366=VERTEX_POINT('',#1211);
#367=VERTEX_POINT('',#1215);
#368=VERTEX_POINT('',#1220);
#369=VERTEX_POINT('',#1229);
#370=VERTEX_POINT('',#1231);
#371=VERTEX_POINT('',#1236);
#372=VERTEX_POINT('',#1238);
#373=VERTEX_POINT('',#1243);
#374=VERTEX_POINT('',#1245);
#375=VERTEX_POINT('',#1250);
#376=VERTEX_POINT('',#1252);
#377=VERTEX_POINT('',#1257);
#378=VERTEX_POINT('',#1261);
#379=VERTEX_POINT('',#1265);
#380=VERTEX_POINT('',#1269);
#381=VERTEX_POINT('',#1273);
#382=VERTEX_POINT('',#1277);
#383=VERTEX_POINT('',#1281);
#384=VERTEX_POINT('',#1285);
#385=VERTEX_POINT('',#1289);
#386=VERTEX_POINT('',#1291);
#387=VERTEX_POINT('',#1296);
#388=VERTEX_POINT('',#1298);
#389=VERTEX_POINT('',#1303);
#390=VERTEX_POINT('',#1304);
#391=VERTEX_POINT('',#1306);
#392=VERTEX_POINT('',#1308);
#393=VERTEX_POINT('',#1316);
#394=VERTEX_POINT('',#1317);
#395=VERTEX_POINT('',#1319);
#396=VERTEX_POINT('',#1321);
#397=EDGE_CURVE('',#333,#334,#285,.T.);
#398=EDGE_CURVE('',#334,#333,#286,.T.);
#399=EDGE_CURVE('',#335,#335,#287,.T.);
#400=EDGE_CURVE('',#336,#336,#288,.T.);
#401=EDGE_CURVE('',#337,#337,#289,.T.);
#402=EDGE_CURVE('',#338,#338,#290,.T.);
#403=EDGE_CURVE('',#339,#340,#291,.T.);
#404=EDGE_CURVE('',#340,#339,#292,.T.);
#405=EDGE_CURVE('',#341,#341,#293,.T.);
#406=EDGE_CURVE('',#342,#342,#294,.T.);
#407=EDGE_CURVE('',#343,#343,#295,.T.);
#408=EDGE_CURVE('',#344,#344,#296,.T.);
#409=EDGE_CURVE('',#345,#346,#15,.T.);
#410=EDGE_CURVE('',#347,#345,#297,.T.);
#411=EDGE_CURVE('',#347,#348,#16,.T.);
#412=EDGE_CURVE('',#340,#348,#17,.T.);
#413=EDGE_CURVE('',#339,#346,#18,.T.);
#414=EDGE_CURVE('',#349,#350,#19,.T.);
#415=EDGE_CURVE('',#351,#349,#298,.T.);
#416=EDGE_CURVE('',#351,#352,#20,.T.);
#417=EDGE_CURVE('',#334,#352,#21,.T.);
#418=EDGE_CURVE('',#333,#350,#22,.T.);
#419=EDGE_CURVE('',#353,#348,#23,.T.);
#420=EDGE_CURVE('',#354,#353,#299,.T.);
#421=EDGE_CURVE('',#348,#354,#24,.T.);
#422=EDGE_CURVE('',#355,#356,#300,.T.);
#423=EDGE_CURVE('',#355,#354,#25,.T.);
#424=EDGE_CURVE('',#357,#353,#301,.T.);
#425=EDGE_CURVE('',#357,#358,#302,.T.);
#426=EDGE_CURVE('',#356,#358,#26,.T.);
#427=EDGE_CURVE('',#359,#355,#27,.T.);
#428=EDGE_CURVE('',#359,#340,#28,.T.);
#429=EDGE_CURVE('',#360,#359,#303,.T.);
#430=EDGE_CURVE('',#360,#339,#29,.T.);
#431=EDGE_CURVE('',#356,#360,#30,.T.);
#432=EDGE_CURVE('',#358,#346,#31,.T.);
#433=EDGE_CURVE('',#346,#357,#32,.T.);
#434=EDGE_CURVE('',#350,#361,#33,.T.);
#435=EDGE_CURVE('',#362,#350,#34,.T.);
#436=EDGE_CURVE('',#361,#362,#304,.T.);
#437=EDGE_CURVE('',#363,#364,#35,.T.);
#438=EDGE_CURVE('',#363,#334,#36,.T.);
#439=EDGE_CURVE('',#352,#365,#37,.T.);
#440=EDGE_CURVE('',#364,#365,#38,.T.);
#441=EDGE_CURVE('',#366,#363,#305,.T.);
#442=EDGE_CURVE('',#366,#333,#39,.T.);
#443=EDGE_CURVE('',#367,#366,#40,.T.);
#444=EDGE_CURVE('',#367,#362,#41,.T.);
#445=EDGE_CURVE('',#364,#367,#306,.T.);
#446=EDGE_CURVE('',#365,#368,#307,.T.);
#447=EDGE_CURVE('',#361,#368,#308,.T.);
#448=EDGE_CURVE('',#368,#352,#42,.T.);
#449=EDGE_CURVE('',#361,#353,#43,.T.);
#450=EDGE_CURVE('',#357,#368,#44,.T.);
#451=EDGE_CURVE('',#369,#369,#309,.T.);
#452=EDGE_CURVE('',#369,#370,#45,.T.);
#453=EDGE_CURVE('',#370,#370,#310,.T.);
#454=EDGE_CURVE('',#371,#371,#311,.T.);
#455=EDGE_CURVE('',#371,#372,#46,.T.);
#456=EDGE_CURVE('',#372,#372,#312,.T.);
#457=EDGE_CURVE('',#373,#373,#313,.T.);
#458=EDGE_CURVE('',#373,#374,#47,.T.);
#459=EDGE_CURVE('',#374,#374,#314,.T.);
#460=EDGE_CURVE('',#375,#375,#315,.T.);
#461=EDGE_CURVE('',#375,#376,#48,.T.);
#462=EDGE_CURVE('',#376,#376,#316,.T.);
#463=EDGE_CURVE('',#377,#377,#317,.T.);
#464=EDGE_CURVE('',#377,#335,#49,.T.);
#465=EDGE_CURVE('',#378,#378,#318,.T.);
#466=EDGE_CURVE('',#378,#336,#50,.T.);
#467=EDGE_CURVE('',#379,#379,#319,.T.);
#468=EDGE_CURVE('',#379,#341,#51,.T.);
#469=EDGE_CURVE('',#380,#380,#320,.T.);
#470=EDGE_CURVE('',#380,#342,#52,.T.);
#471=EDGE_CURVE('',#381,#381,#321,.T.);
#472=EDGE_CURVE('',#381,#343,#53,.T.);
#473=EDGE_CURVE('',#382,#382,#322,.T.);
#474=EDGE_CURVE('',#382,#344,#54,.T.);
#475=EDGE_CURVE('',#383,#383,#323,.T.);
#476=EDGE_CURVE('',#383,#337,#55,.T.);
#477=EDGE_CURVE('',#384,#384,#324,.T.);
#478=EDGE_CURVE('',#384,#338,#56,.T.);
#479=EDGE_CURVE('',#385,#385,#325,.T.);
#480=EDGE_CURVE('',#385,#386,#57,.T.);
#481=EDGE_CURVE('',#386,#386,#326,.T.);
#482=EDGE_CURVE('',#387,#387,#327,.T.);
#483=EDGE_CURVE('',#387,#388,#58,.T.);
#484=EDGE_CURVE('',#388,#388,#328,.T.);
#485=EDGE_CURVE('',#389,#390,#329,.T.);
#486=EDGE_CURVE('',#389,#391,#59,.T.);
#487=EDGE_CURVE('',#392,#391,#330,.T.);
#488=EDGE_CURVE('',#390,#392,#60,.T.);
#489=EDGE_CURVE('',#345,#351,#61,.T.);
#490=EDGE_CURVE('',#349,#347,#62,.T.);
#491=EDGE_CURVE('',#393,#394,#63,.T.);
#492=EDGE_CURVE('',#394,#395,#331,.T.);
#493=EDGE_CURVE('',#395,#396,#64,.T.);
#494=EDGE_CURVE('',#396,#393,#332,.T.);
#495=EDGE_CURVE('',#392,#394,#65,.T.);
#496=EDGE_CURVE('',#391,#395,#66,.T.);
#497=EDGE_CURVE('',#390,#393,#67,.T.);
#498=EDGE_CURVE('',#389,#396,#68,.T.);
#499=ORIENTED_EDGE('',*,*,#397,.F.);
#500=ORIENTED_EDGE('',*,*,#398,.F.);
#501=ORIENTED_EDGE('',*,*,#399,.F.);
#502=ORIENTED_EDGE('',*,*,#400,.F.);
#503=ORIENTED_EDGE('',*,*,#401,.F.);
#504=ORIENTED_EDGE('',*,*,#402,.F.);
#505=ORIENTED_EDGE('',*,*,#403,.F.);
#506=ORIENTED_EDGE('',*,*,#404,.F.);
#507=ORIENTED_EDGE('',*,*,#405,.F.);
#508=ORIENTED_EDGE('',*,*,#406,.F.);
#509=ORIENTED_EDGE('',*,*,#407,.F.);
#510=ORIENTED_EDGE('',*,*,#408,.F.);
#511=ORIENTED_EDGE('',*,*,#409,.F.);
#512=ORIENTED_EDGE('',*,*,#410,.F.);
#513=ORIENTED_EDGE('',*,*,#411,.T.);
#514=ORIENTED_EDGE('',*,*,#412,.F.);
#515=ORIENTED_EDGE('',*,*,#404,.T.);
#516=ORIENTED_EDGE('',*,*,#413,.T.);
#517=ORIENTED_EDGE('',*,*,#414,.F.);
#518=ORIENTED_EDGE('',*,*,#415,.F.);
#519=ORIENTED_EDGE('',*,*,#416,.T.);
#520=ORIENTED_EDGE('',*,*,#417,.F.);
#521=ORIENTED_EDGE('',*,*,#398,.T.);
#522=ORIENTED_EDGE('',*,*,#418,.T.);
#523=ORIENTED_EDGE('',*,*,#419,.F.);
#524=ORIENTED_EDGE('',*,*,#420,.F.);
#525=ORIENTED_EDGE('',*,*,#421,.F.);
#526=ORIENTED_EDGE('',*,*,#422,.F.);
#527=ORIENTED_EDGE('',*,*,#423,.T.);
#528=ORIENTED_EDGE('',*,*,#420,.T.);
#529=ORIENTED_EDGE('',*,*,#424,.F.);
#530=ORIENTED_EDGE('',*,*,#425,.T.);
#531=ORIENTED_EDGE('',*,*,#426,.F.);
#532=ORIENTED_EDGE('',*,*,#427,.F.);
#533=ORIENTED_EDGE('',*,*,#428,.T.);
#534=ORIENTED_EDGE('',*,*,#412,.T.);
#535=ORIENTED_EDGE('',*,*,#421,.T.);
#536=ORIENTED_EDGE('',*,*,#423,.F.);
#537=ORIENTED_EDGE('',*,*,#403,.T.);
#538=ORIENTED_EDGE('',*,*,#428,.F.);
#539=ORIENTED_EDGE('',*,*,#429,.F.);
#540=ORIENTED_EDGE('',*,*,#430,.T.);
#541=ORIENTED_EDGE('',*,*,#431,.F.);
#542=ORIENTED_EDGE('',*,*,#426,.T.);
#543=ORIENTED_EDGE('',*,*,#432,.T.);
#544=ORIENTED_EDGE('',*,*,#413,.F.);
#545=ORIENTED_EDGE('',*,*,#430,.F.);
#546=ORIENTED_EDGE('',*,*,#433,.F.);
#547=ORIENTED_EDGE('',*,*,#432,.F.);
#548=ORIENTED_EDGE('',*,*,#425,.F.);
#549=ORIENTED_EDGE('',*,*,#434,.F.);
#550=ORIENTED_EDGE('',*,*,#435,.F.);
#551=ORIENTED_EDGE('',*,*,#436,.F.);
#552=ORIENTED_EDGE('',*,*,#437,.F.);
#553=ORIENTED_EDGE('',*,*,#438,.T.);
#554=ORIENTED_EDGE('',*,*,#417,.T.);
#555=ORIENTED_EDGE('',*,*,#439,.T.);
#556=ORIENTED_EDGE('',*,*,#440,.F.);
#557=ORIENTED_EDGE('',*,*,#397,.T.);
#558=ORIENTED_EDGE('',*,*,#438,.F.);
#559=ORIENTED_EDGE('',*,*,#441,.F.);
#560=ORIENTED_EDGE('',*,*,#442,.T.);
#561=ORIENTED_EDGE('',*,*,#443,.F.);
#562=ORIENTED_EDGE('',*,*,#444,.T.);
#563=ORIENTED_EDGE('',*,*,#435,.T.);
#564=ORIENTED_EDGE('',*,*,#418,.F.);
#565=ORIENTED_EDGE('',*,*,#442,.F.);
#566=ORIENTED_EDGE('',*,*,#445,.F.);
#567=ORIENTED_EDGE('',*,*,#440,.T.);
#568=ORIENTED_EDGE('',*,*,#446,.T.);
#569=ORIENTED_EDGE('',*,*,#447,.F.);
#570=ORIENTED_EDGE('',*,*,#436,.T.);
#571=ORIENTED_EDGE('',*,*,#444,.F.);
#572=ORIENTED_EDGE('',*,*,#448,.F.);
#573=ORIENTED_EDGE('',*,*,#446,.F.);
#574=ORIENTED_EDGE('',*,*,#439,.F.);
#575=ORIENTED_EDGE('',*,*,#424,.T.);
#576=ORIENTED_EDGE('',*,*,#449,.F.);
#577=ORIENTED_EDGE('',*,*,#447,.T.);
#578=ORIENTED_EDGE('',*,*,#450,.F.);
#579=ORIENTED_EDGE('',*,*,#451,.F.);
#580=ORIENTED_EDGE('',*,*,#452,.T.);
#581=ORIENTED_EDGE('',*,*,#453,.T.);
#582=ORIENTED_EDGE('',*,*,#452,.F.);
#583=ORIENTED_EDGE('',*,*,#453,.F.);
#584=ORIENTED_EDGE('',*,*,#454,.F.);
#585=ORIENTED_EDGE('',*,*,#455,.T.);
#586=ORIENTED_EDGE('',*,*,#456,.T.);
#587=ORIENTED_EDGE('',*,*,#455,.F.);
#588=ORIENTED_EDGE('',*,*,#456,.F.);
#589=ORIENTED_EDGE('',*,*,#457,.F.);
#590=ORIENTED_EDGE('',*,*,#458,.T.);
#591=ORIENTED_EDGE('',*,*,#459,.T.);
#592=ORIENTED_EDGE('',*,*,#458,.F.);
#593=ORIENTED_EDGE('',*,*,#459,.F.);
#594=ORIENTED_EDGE('',*,*,#460,.F.);
#595=ORIENTED_EDGE('',*,*,#461,.T.);
#596=ORIENTED_EDGE('',*,*,#462,.T.);
#597=ORIENTED_EDGE('',*,*,#461,.F.);
#598=ORIENTED_EDGE('',*,*,#462,.F.);
#599=ORIENTED_EDGE('',*,*,#463,.T.);
#600=ORIENTED_EDGE('',*,*,#464,.T.);
#601=ORIENTED_EDGE('',*,*,#399,.T.);
#602=ORIENTED_EDGE('',*,*,#464,.F.);
#603=ORIENTED_EDGE('',*,*,#465,.T.);
#604=ORIENTED_EDGE('',*,*,#466,.T.);
#605=ORIENTED_EDGE('',*,*,#400,.T.);
#606=ORIENTED_EDGE('',*,*,#466,.F.);
#607=ORIENTED_EDGE('',*,*,#467,.T.);
#608=ORIENTED_EDGE('',*,*,#468,.T.);
#609=ORIENTED_EDGE('',*,*,#405,.T.);
#610=ORIENTED_EDGE('',*,*,#468,.F.);
#611=ORIENTED_EDGE('',*,*,#469,.T.);
#612=ORIENTED_EDGE('',*,*,#470,.T.);
#613=ORIENTED_EDGE('',*,*,#406,.T.);
#614=ORIENTED_EDGE('',*,*,#470,.F.);
#615=ORIENTED_EDGE('',*,*,#471,.T.);
#616=ORIENTED_EDGE('',*,*,#472,.T.);
#617=ORIENTED_EDGE('',*,*,#407,.T.);
#618=ORIENTED_EDGE('',*,*,#472,.F.);
#619=ORIENTED_EDGE('',*,*,#473,.T.);
#620=ORIENTED_EDGE('',*,*,#474,.T.);
#621=ORIENTED_EDGE('',*,*,#408,.T.);
#622=ORIENTED_EDGE('',*,*,#474,.F.);
#623=ORIENTED_EDGE('',*,*,#475,.T.);
#624=ORIENTED_EDGE('',*,*,#476,.T.);
#625=ORIENTED_EDGE('',*,*,#401,.T.);
#626=ORIENTED_EDGE('',*,*,#476,.F.);
#627=ORIENTED_EDGE('',*,*,#477,.T.);
#628=ORIENTED_EDGE('',*,*,#478,.T.);
#629=ORIENTED_EDGE('',*,*,#402,.T.);
#630=ORIENTED_EDGE('',*,*,#478,.F.);
#631=ORIENTED_EDGE('',*,*,#479,.F.);
#632=ORIENTED_EDGE('',*,*,#480,.T.);
#633=ORIENTED_EDGE('',*,*,#481,.T.);
#634=ORIENTED_EDGE('',*,*,#480,.F.);
#635=ORIENTED_EDGE('',*,*,#481,.F.);
#636=ORIENTED_EDGE('',*,*,#473,.F.);
#637=ORIENTED_EDGE('',*,*,#469,.F.);
#638=ORIENTED_EDGE('',*,*,#471,.F.);
#639=ORIENTED_EDGE('',*,*,#467,.F.);
#640=ORIENTED_EDGE('',*,*,#482,.F.);
#641=ORIENTED_EDGE('',*,*,#483,.T.);
#642=ORIENTED_EDGE('',*,*,#484,.T.);
#643=ORIENTED_EDGE('',*,*,#483,.F.);
#644=ORIENTED_EDGE('',*,*,#484,.F.);
#645=ORIENTED_EDGE('',*,*,#475,.F.);
#646=ORIENTED_EDGE('',*,*,#465,.F.);
#647=ORIENTED_EDGE('',*,*,#477,.F.);
#648=ORIENTED_EDGE('',*,*,#463,.F.);
#649=ORIENTED_EDGE('',*,*,#485,.F.);
#650=ORIENTED_EDGE('',*,*,#486,.T.);
#651=ORIENTED_EDGE('',*,*,#487,.F.);
#652=ORIENTED_EDGE('',*,*,#488,.F.);
#653=ORIENTED_EDGE('',*,*,#422,.T.);
#654=ORIENTED_EDGE('',*,*,#431,.T.);
#655=ORIENTED_EDGE('',*,*,#429,.T.);
#656=ORIENTED_EDGE('',*,*,#427,.T.);
#657=ORIENTED_EDGE('',*,*,#437,.T.);
#658=ORIENTED_EDGE('',*,*,#445,.T.);
#659=ORIENTED_EDGE('',*,*,#443,.T.);
#660=ORIENTED_EDGE('',*,*,#441,.T.);
#661=ORIENTED_EDGE('',*,*,#479,.T.);
#662=ORIENTED_EDGE('',*,*,#482,.T.);
#663=ORIENTED_EDGE('',*,*,#489,.F.);
#664=ORIENTED_EDGE('',*,*,#409,.T.);
#665=ORIENTED_EDGE('',*,*,#433,.T.);
#666=ORIENTED_EDGE('',*,*,#450,.T.);
#667=ORIENTED_EDGE('',*,*,#448,.T.);
#668=ORIENTED_EDGE('',*,*,#416,.F.);
#669=ORIENTED_EDGE('',*,*,#490,.F.);
#670=ORIENTED_EDGE('',*,*,#414,.T.);
#671=ORIENTED_EDGE('',*,*,#434,.T.);
#672=ORIENTED_EDGE('',*,*,#449,.T.);
#673=ORIENTED_EDGE('',*,*,#419,.T.);
#674=ORIENTED_EDGE('',*,*,#411,.F.);
#675=ORIENTED_EDGE('',*,*,#491,.T.);
#676=ORIENTED_EDGE('',*,*,#492,.T.);
#677=ORIENTED_EDGE('',*,*,#493,.T.);
#678=ORIENTED_EDGE('',*,*,#494,.T.);
#679=ORIENTED_EDGE('',*,*,#451,.T.);
#680=ORIENTED_EDGE('',*,*,#454,.T.);
#681=ORIENTED_EDGE('',*,*,#457,.T.);
#682=ORIENTED_EDGE('',*,*,#460,.T.);
#683=ORIENTED_EDGE('',*,*,#489,.T.);
#684=ORIENTED_EDGE('',*,*,#415,.T.);
#685=ORIENTED_EDGE('',*,*,#490,.T.);
#686=ORIENTED_EDGE('',*,*,#410,.T.);
#687=ORIENTED_EDGE('',*,*,#492,.F.);
#688=ORIENTED_EDGE('',*,*,#495,.F.);
#689=ORIENTED_EDGE('',*,*,#487,.T.);
#690=ORIENTED_EDGE('',*,*,#496,.T.);
#691=ORIENTED_EDGE('',*,*,#491,.F.);
#692=ORIENTED_EDGE('',*,*,#497,.F.);
#693=ORIENTED_EDGE('',*,*,#488,.T.);
#694=ORIENTED_EDGE('',*,*,#495,.T.);
#695=ORIENTED_EDGE('',*,*,#493,.F.);
#696=ORIENTED_EDGE('',*,*,#496,.F.);
#697=ORIENTED_EDGE('',*,*,#486,.F.);
#698=ORIENTED_EDGE('',*,*,#498,.T.);
#699=ORIENTED_EDGE('',*,*,#494,.F.);
#700=ORIENTED_EDGE('',*,*,#498,.F.);
#701=ORIENTED_EDGE('',*,*,#485,.T.);
#702=ORIENTED_EDGE('',*,*,#497,.T.);
#703=PLANE('',#785);
#704=PLANE('',#792);
#705=PLANE('',#803);
#706=PLANE('',#809);
#707=PLANE('',#812);
#708=PLANE('',#813);
#709=PLANE('',#814);
#710=PLANE('',#816);
#711=PLANE('',#819);
#712=PLANE('',#824);
#713=PLANE('',#825);
#714=PLANE('',#829);
#715=PLANE('',#833);
#716=PLANE('',#837);
#717=PLANE('',#841);
#718=PLANE('',#861);
#719=PLANE('',#865);
#720=PLANE('',#866);
#721=PLANE('',#869);
#722=PLANE('',#870);
#723=PLANE('',#871);
#724=PLANE('',#875);
#725=PLANE('',#876);
#726=ADVANCED_FACE('',(#170,#145,#146,#147,#148),#703,.T.);
#727=ADVANCED_FACE('',(#171,#149,#150,#151,#152),#704,.T.);
#728=ADVANCED_FACE('',(#172),#123,.F.);
#729=ADVANCED_FACE('',(#173),#124,.F.);
#730=ADVANCED_FACE('',(#174),#705,.T.);
#731=ADVANCED_FACE('',(#175),#125,.F.);
#732=ADVANCED_FACE('',(#176),#706,.F.);
#733=ADVANCED_FACE('',(#177),#126,.T.);
#734=ADVANCED_FACE('',(#178),#707,.F.);
#735=ADVANCED_FACE('',(#179),#708,.T.);
#736=ADVANCED_FACE('',(#180),#709,.T.);
#737=ADVANCED_FACE('',(#181),#710,.F.);
#738=ADVANCED_FACE('',(#182),#127,.T.);
#739=ADVANCED_FACE('',(#183),#711,.F.);
#740=ADVANCED_FACE('',(#184),#128,.F.);
#741=ADVANCED_FACE('',(#185),#712,.T.);
#742=ADVANCED_FACE('',(#186),#713,.T.);
#743=ADVANCED_FACE('',(#187),#129,.F.);
#744=ADVANCED_FACE('',(#188),#714,.T.);
#745=ADVANCED_FACE('',(#189),#130,.F.);
#746=ADVANCED_FACE('',(#190),#715,.T.);
#747=ADVANCED_FACE('',(#191),#131,.F.);
#748=ADVANCED_FACE('',(#192),#716,.T.);
#749=ADVANCED_FACE('',(#193),#132,.F.);
#750=ADVANCED_FACE('',(#194),#717,.T.);
#751=ADVANCED_FACE('',(#195),#133,.F.);
#752=ADVANCED_FACE('',(#196),#134,.F.);
#753=ADVANCED_FACE('',(#197),#135,.F.);
#754=ADVANCED_FACE('',(#198),#136,.F.);
#755=ADVANCED_FACE('',(#199),#137,.F.);
#756=ADVANCED_FACE('',(#200),#138,.F.);
#757=ADVANCED_FACE('',(#201),#139,.F.);
#758=ADVANCED_FACE('',(#202),#140,.F.);
#759=ADVANCED_FACE('',(#203),#141,.F.);
#760=ADVANCED_FACE('',(#204,#153,#154,#155,#156),#718,.T.);
#761=ADVANCED_FACE('',(#205),#142,.F.);
#762=ADVANCED_FACE('',(#206,#157,#158,#159,#160),#719,.T.);
#763=ADVANCED_FACE('',(#207,#161,#162,#163,#164),#720,.F.);
#764=ADVANCED_FACE('',(#208),#721,.F.);
#765=ADVANCED_FACE('',(#209),#722,.F.);
#766=ADVANCED_FACE('',(#210,#165,#166,#167,#168,#169),#723,.F.);
#767=ADVANCED_FACE('',(#211),#143,.T.);
#768=ADVANCED_FACE('',(#212),#724,.T.);
#769=ADVANCED_FACE('',(#213),#725,.T.);
#770=ADVANCED_FACE('',(#214),#144,.T.);
#771=CLOSED_SHELL('',(#726,#727,#728,#729,#730,#731,#732,#733,#734,#735,
#736,#737,#738,#739,#740,#741,#742,#743,#744,#745,#746,#747,#748,#749,#750,
#751,#752,#753,#754,#755,#756,#757,#758,#759,#760,#761,#762,#763,#764,#765,
#766,#767,#768,#769,#770));
#772=DERIVED_UNIT_ELEMENT(#774,1.);
#773=DERIVED_UNIT_ELEMENT(#1337,-3.);
#774=(
MASS_UNIT()
NAMED_UNIT(*)
SI_UNIT(.KILO.,.GRAM.)
);
#775=DERIVED_UNIT((#772,#773));
#776=MEASURE_REPRESENTATION_ITEM('density measure',
POSITIVE_RATIO_MEASURE(7850.),#775);
#777=PROPERTY_DEFINITION_REPRESENTATION(#782,#779);
#778=PROPERTY_DEFINITION_REPRESENTATION(#783,#780);
#779=REPRESENTATION('material name',(#781),#1334);
#780=REPRESENTATION('density',(#776),#1334);
#781=DESCRIPTIVE_REPRESENTATION_ITEM('Steel','Steel');
#782=PROPERTY_DEFINITION('material property','material name',#1344);
#783=PROPERTY_DEFINITION('material property','density of part',#1344);
#784=AXIS2_PLACEMENT_3D('',#1120,#878,#879);
#785=AXIS2_PLACEMENT_3D('',#1121,#880,#881);
#786=AXIS2_PLACEMENT_3D('',#1124,#882,#883);
#787=AXIS2_PLACEMENT_3D('',#1125,#884,#885);
#788=AXIS2_PLACEMENT_3D('',#1127,#886,#887);
#789=AXIS2_PLACEMENT_3D('',#1129,#888,#889);
#790=AXIS2_PLACEMENT_3D('',#1131,#890,#891);
#791=AXIS2_PLACEMENT_3D('',#1133,#892,#893);
#792=AXIS2_PLACEMENT_3D('',#1134,#894,#895);
#793=AXIS2_PLACEMENT_3D('',#1137,#896,#897);
#794=AXIS2_PLACEMENT_3D('',#1138,#898,#899);
#795=AXIS2_PLACEMENT_3D('',#1140,#900,#901);
#796=AXIS2_PLACEMENT_3D('',#1142,#902,#903);
#797=AXIS2_PLACEMENT_3D('',#1144,#904,#905);
#798=AXIS2_PLACEMENT_3D('',#1146,#906,#907);
#799=AXIS2_PLACEMENT_3D('',#1147,#908,#909);
#800=AXIS2_PLACEMENT_3D('',#1152,#911,#912);
#801=AXIS2_PLACEMENT_3D('',#1157,#916,#917);
#802=AXIS2_PLACEMENT_3D('',#1162,#919,#920);
#803=AXIS2_PLACEMENT_3D('',#1167,#924,#925);
#804=AXIS2_PLACEMENT_3D('',#1171,#927,#928);
#805=AXIS2_PLACEMENT_3D('',#1173,#930,#931);
#806=AXIS2_PLACEMENT_3D('',#1176,#932,#933);
#807=AXIS2_PLACEMENT_3D('',#1179,#935,#936);
#808=AXIS2_PLACEMENT_3D('',#1181,#937,#938);
#809=AXIS2_PLACEMENT_3D('',#1183,#940,#941);
#810=AXIS2_PLACEMENT_3D('',#1187,#944,#945);
#811=AXIS2_PLACEMENT_3D('',#1189,#946,#947);
#812=AXIS2_PLACEMENT_3D('',#1191,#949,#950);
#813=AXIS2_PLACEMENT_3D('',#1194,#953,#954);
#814=AXIS2_PLACEMENT_3D('',#1196,#956,#957);
#815=AXIS2_PLACEMENT_3D('',#1201,#960,#961);
#816=AXIS2_PLACEMENT_3D('',#1202,#962,#963);
#817=AXIS2_PLACEMENT_3D('',#1210,#968,#969);
#818=AXIS2_PLACEMENT_3D('',#1212,#970,#971);
#819=AXIS2_PLACEMENT_3D('',#1214,#973,#974);
#820=AXIS2_PLACEMENT_3D('',#1218,#977,#978);
#821=AXIS2_PLACEMENT_3D('',#1219,#979,#980);
#822=AXIS2_PLACEMENT_3D('',#1221,#981,#982);
#823=AXIS2_PLACEMENT_3D('',#1222,#983,#984);
#824=AXIS2_PLACEMENT_3D('',#1223,#985,#986);
#825=AXIS2_PLACEMENT_3D('',#1225,#988,#989);
#826=AXIS2_PLACEMENT_3D('',#1228,#992,#993);
#827=AXIS2_PLACEMENT_3D('',#1230,#994,#995);
#828=AXIS2_PLACEMENT_3D('',#1233,#997,#998);
#829=AXIS2_PLACEMENT_3D('',#1234,#999,#1000);
#830=AXIS2_PLACEMENT_3D('',#1235,#1001,#1002);
#831=AXIS2_PLACEMENT_3D('',#1237,#1003,#1004);
#832=AXIS2_PLACEMENT_3D('',#1240,#1006,#1007);
#833=AXIS2_PLACEMENT_3D('',#1241,#1008,#1009);
#834=AXIS2_PLACEMENT_3D('',#1242,#1010,#1011);
#835=AXIS2_PLACEMENT_3D('',#1244,#1012,#1013);
#836=AXIS2_PLACEMENT_3D('',#1247,#1015,#1016);
#837=AXIS2_PLACEMENT_3D('',#1248,#1017,#1018);
#838=AXIS2_PLACEMENT_3D('',#1249,#1019,#1020);
#839=AXIS2_PLACEMENT_3D('',#1251,#1021,#1022);
#840=AXIS2_PLACEMENT_3D('',#1254,#1024,#1025);
#841=AXIS2_PLACEMENT_3D('',#1255,#1026,#1027);
#842=AXIS2_PLACEMENT_3D('',#1256,#1028,#1029);
#843=AXIS2_PLACEMENT_3D('',#1258,#1030,#1031);
#844=AXIS2_PLACEMENT_3D('',#1260,#1033,#1034);
#845=AXIS2_PLACEMENT_3D('',#1262,#1035,#1036);
#846=AXIS2_PLACEMENT_3D('',#1264,#1038,#1039);
#847=AXIS2_PLACEMENT_3D('',#1266,#1040,#1041);
#848=AXIS2_PLACEMENT_3D('',#1268,#1043,#1044);
#849=AXIS2_PLACEMENT_3D('',#1270,#1045,#1046);
#850=AXIS2_PLACEMENT_3D('',#1272,#1048,#1049);
#851=AXIS2_PLACEMENT_3D('',#1274,#1050,#1051);
#852=AXIS2_PLACEMENT_3D('',#1276,#1053,#1054);
#853=AXIS2_PLACEMENT_3D('',#1278,#1055,#1056);
#854=AXIS2_PLACEMENT_3D('',#1280,#1058,#1059);
#855=AXIS2_PLACEMENT_3D('',#1282,#1060,#1061);
#856=AXIS2_PLACEMENT_3D('',#1284,#1063,#1064);
#857=AXIS2_PLACEMENT_3D('',#1286,#1065,#1066);
#858=AXIS2_PLACEMENT_3D('',#1288,#1068,#1069);
#859=AXIS2_PLACEMENT_3D('',#1290,#1070,#1071);
#860=AXIS2_PLACEMENT_3D('',#1293,#1073,#1074);
#861=AXIS2_PLACEMENT_3D('',#1294,#1075,#1076);
#862=AXIS2_PLACEMENT_3D('',#1295,#1077,#1078);
#863=AXIS2_PLACEMENT_3D('',#1297,#1079,#1080);
#864=AXIS2_PLACEMENT_3D('',#1300,#1082,#1083);
#865=AXIS2_PLACEMENT_3D('',#1301,#1084,#1085);
#866=AXIS2_PLACEMENT_3D('',#1302,#1086,#1087);
#867=AXIS2_PLACEMENT_3D('',#1305,#1088,#1089);
#868=AXIS2_PLACEMENT_3D('',#1309,#1091,#1092);
#869=AXIS2_PLACEMENT_3D('',#1311,#1094,#1095);
#870=AXIS2_PLACEMENT_3D('',#1313,#1097,#1098);
#871=AXIS2_PLACEMENT_3D('',#1315,#1100,#1101);
#872=AXIS2_PLACEMENT_3D('',#1320,#1103,#1104);
#873=AXIS2_PLACEMENT_3D('',#1323,#1106,#1107);
#874=AXIS2_PLACEMENT_3D('',#1324,#1108,#1109);
#875=AXIS2_PLACEMENT_3D('',#1327,#1112,#1113);
#876=AXIS2_PLACEMENT_3D('',#1329,#1115,#1116);
#877=AXIS2_PLACEMENT_3D('',#1331,#1118,#1119);
#878=DIRECTION('axis',(0.,0.,1.));
#879=DIRECTION('refdir',(1.,0.,0.));
#880=DIRECTION('center_axis',(0.,1.,0.));
#881=DIRECTION('ref_axis',(-1.,0.,0.));
#882=DIRECTION('center_axis',(0.,-1.,0.));
#883=DIRECTION('ref_axis',(1.,0.,0.));
#884=DIRECTION('center_axis',(0.,-1.,0.));
#885=DIRECTION('ref_axis',(-1.,0.,0.));
#886=DIRECTION('center_axis',(0.,1.,0.));
#887=DIRECTION('ref_axis',(1.,0.,-3.6361557350031E-31));
#888=DIRECTION('center_axis',(0.,1.,0.));
#889=DIRECTION('ref_axis',(1.,0.,-3.6361557350031E-31));
#890=DIRECTION('center_axis',(0.,1.,0.));
#891=DIRECTION('ref_axis',(1.,0.,-3.6361557350031E-31));
#892=DIRECTION('center_axis',(0.,1.,0.));
#893=DIRECTION('ref_axis',(1.,0.,-3.6361557350031E-31));
#894=DIRECTION('center_axis',(0.,1.,0.));
#895=DIRECTION('ref_axis',(-1.,0.,0.));
#896=DIRECTION('center_axis',(0.,-1.,0.));
#897=DIRECTION('ref_axis',(1.,0.,0.));
#898=DIRECTION('center_axis',(0.,-1.,0.));
#899=DIRECTION('ref_axis',(-1.,0.,0.));
#900=DIRECTION('center_axis',(0.,1.,0.));
#901=DIRECTION('ref_axis',(1.,0.,-3.6361557350031E-31));
#902=DIRECTION('center_axis',(0.,1.,0.));
#903=DIRECTION('ref_axis',(1.,0.,-3.6361557350031E-31));
#904=DIRECTION('center_axis',(0.,1.,0.));
#905=DIRECTION('ref_axis',(1.,0.,-3.6361557350031E-31));
#906=DIRECTION('center_axis',(0.,1.,0.));
#907=DIRECTION('ref_axis',(1.,0.,-3.6361557350031E-31));
#908=DIRECTION('center_axis',(0.,-1.,0.));
#909=DIRECTION('ref_axis',(1.,0.,1.22464679914735E-16));
#910=DIRECTION('',(0.,-1.,0.));
#911=DIRECTION('center_axis',(0.,-1.,0.));
#912=DIRECTION('ref_axis',(-1.,0.,0.));
#913=DIRECTION('',(0.,-1.,0.));
#914=DIRECTION('',(0.,1.,0.));
#915=DIRECTION('',(0.,1.,0.));
#916=DIRECTION('center_axis',(0.,-1.,0.));
#917=DIRECTION('ref_axis',(-1.,0.,0.));
#918=DIRECTION('',(0.,-1.,0.));
#919=DIRECTION('center_axis',(0.,-1.,0.));
#920=DIRECTION('ref_axis',(-1.,0.,0.));
#921=DIRECTION('',(0.,-1.,0.));
#922=DIRECTION('',(0.,1.,0.));
#923=DIRECTION('',(0.,1.,0.));
#924=DIRECTION('center_axis',(0.,-1.,0.));
#925=DIRECTION('ref_axis',(1.,0.,0.));
#926=DIRECTION('',(1.,0.,0.));
#927=DIRECTION('center_axis',(0.,1.,0.));
#928=DIRECTION('ref_axis',(1.,0.,0.));
#929=DIRECTION('',(0.,0.,-1.));
#930=DIRECTION('center_axis',(0.,1.,0.));
#931=DIRECTION('ref_axis',(-1.,0.,-1.22464679914735E-16));
#932=DIRECTION('center_axis',(0.,1.,0.));
#933=DIRECTION('ref_axis',(1.,0.,0.));
#934=DIRECTION('',(0.,1.,0.));
#935=DIRECTION('center_axis',(0.,-1.,0.));
#936=DIRECTION('ref_axis',(1.,0.,0.));
#937=DIRECTION('center_axis',(0.,1.,0.));
#938=DIRECTION('ref_axis',(1.,0.,0.));
#939=DIRECTION('',(0.,1.,0.));
#940=DIRECTION('center_axis',(1.,0.,0.));
#941=DIRECTION('ref_axis',(0.,0.,-1.));
#942=DIRECTION('',(0.,0.,-1.));
#943=DIRECTION('',(0.,1.,0.));
#944=DIRECTION('center_axis',(0.,1.,0.));
#945=DIRECTION('ref_axis',(-1.,0.,-1.22464679914735E-16));
#946=DIRECTION('center_axis',(0.,-1.,0.));
#947=DIRECTION('ref_axis',(1.,0.,0.));
#948=DIRECTION('',(0.,1.,0.));
#949=DIRECTION('center_axis',(1.,0.,0.));
#950=DIRECTION('ref_axis',(0.,0.,-1.));
#951=DIRECTION('',(0.,0.,-1.));
#952=DIRECTION('',(0.,0.,-1.));
#953=DIRECTION('center_axis',(0.,-1.,0.));
#954=DIRECTION('ref_axis',(1.,0.,0.));
#955=DIRECTION('',(-1.,0.,-1.70803542250024E-17));
#956=DIRECTION('center_axis',(0.,-1.,0.));
#957=DIRECTION('ref_axis',(1.,0.,0.));
#958=DIRECTION('',(1.,0.,0.));
#959=DIRECTION('',(0.,0.,1.));
#960=DIRECTION('center_axis',(0.,1.,0.));
#961=DIRECTION('ref_axis',(1.,0.,0.));
#962=DIRECTION('center_axis',(-1.,0.,0.));
#963=DIRECTION('ref_axis',(0.,0.,1.));
#964=DIRECTION('',(0.,0.,1.));
#965=DIRECTION('',(0.,1.,0.));
#966=DIRECTION('',(0.,0.,1.));
#967=DIRECTION('',(0.,1.,0.));
#968=DIRECTION('center_axis',(0.,1.,0.));
#969=DIRECTION('ref_axis',(1.,0.,0.));
#970=DIRECTION('center_axis',(0.,-1.,0.));
#971=DIRECTION('ref_axis',(1.,0.,0.));
#972=DIRECTION('',(0.,1.,0.));
#973=DIRECTION('center_axis',(-1.,0.,0.));
#974=DIRECTION('ref_axis',(0.,0.,1.));
#975=DIRECTION('',(0.,0.,1.));
#976=DIRECTION('',(0.,1.,0.));
#977=DIRECTION('center_axis',(0.,1.,0.));
#978=DIRECTION('ref_axis',(1.,0.,0.));
#979=DIRECTION('center_axis',(0.,1.,0.));
#980=DIRECTION('ref_axis',(1.,0.,0.));
#981=DIRECTION('center_axis',(0.,1.,0.));
#982=DIRECTION('ref_axis',(1.,0.,0.));
#983=DIRECTION('center_axis',(0.,-1.,0.));
#984=DIRECTION('ref_axis',(1.,0.,0.));
#985=DIRECTION('center_axis',(0.,-1.,0.));
#986=DIRECTION('ref_axis',(1.,0.,0.));
#987=DIRECTION('',(-1.,0.,-1.70803542250024E-17));
#988=DIRECTION('center_axis',(0.,1.,0.));
#989=DIRECTION('ref_axis',(-1.,0.,0.));
#990=DIRECTION('',(1.,0.,0.));
#991=DIRECTION('',(-1.,0.,-1.70803542250024E-17));
#992=DIRECTION('center_axis',(0.,-1.,0.));
#993=DIRECTION('ref_axis',(-1.,0.,0.));
#994=DIRECTION('center_axis',(0.,-1.,0.));
#995=DIRECTION('ref_axis',(-1.,0.,0.));
#996=DIRECTION('',(0.,-1.,0.));
#997=DIRECTION('center_axis',(0.,-1.,0.));
#998=DIRECTION('ref_axis',(-1.,0.,0.));
#999=DIRECTION('center_axis',(0.,1.,0.));
#1000=DIRECTION('ref_axis',(-1.,0.,0.));
#1001=DIRECTION('center_axis',(0.,-1.,0.));
#1002=DIRECTION('ref_axis',(-1.,0.,0.));
#1003=DIRECTION('center_axis',(0.,-1.,0.));
#1004=DIRECTION('ref_axis',(-1.,0.,0.));
#1005=DIRECTION('',(0.,-1.,0.));
#1006=DIRECTION('center_axis',(0.,-1.,0.));
#1007=DIRECTION('ref_axis',(-1.,0.,0.));
#1008=DIRECTION('center_axis',(0.,1.,0.));
#1009=DIRECTION('ref_axis',(-1.,0.,0.));
#1010=DIRECTION('center_axis',(0.,-1.,0.));
#1011=DIRECTION('ref_axis',(-1.,0.,0.));
#1012=DIRECTION('center_axis',(0.,-1.,0.));
#1013=DIRECTION('ref_axis',(-1.,0.,0.));
#1014=DIRECTION('',(0.,-1.,0.));
#1015=DIRECTION('center_axis',(0.,-1.,0.));
#1016=DIRECTION('ref_axis',(-1.,0.,0.));
#1017=DIRECTION('center_axis',(0.,1.,0.));
#1018=DIRECTION('ref_axis',(-1.,0.,0.));
#1019=DIRECTION('center_axis',(0.,-1.,0.));
#1020=DIRECTION('ref_axis',(-1.,0.,0.));
#1021=DIRECTION('center_axis',(0.,-1.,0.));
#1022=DIRECTION('ref_axis',(-1.,0.,0.));
#1023=DIRECTION('',(0.,-1.,0.));
#1024=DIRECTION('center_axis',(0.,-1.,0.));
#1025=DIRECTION('ref_axis',(-1.,0.,0.));
#1026=DIRECTION('center_axis',(0.,1.,0.));
#1027=DIRECTION('ref_axis',(-1.,0.,0.));
#1028=DIRECTION('center_axis',(0.,1.,0.));
#1029=DIRECTION('ref_axis',(1.,0.,-3.6361557350031E-31));
#1030=DIRECTION('center_axis',(-1.11022302462515E-16,-1.,-3.10766276891795E-16));
#1031=DIRECTION('ref_axis',(1.,-1.11022302462515E-16,-3.94430452610506E-31));
#1032=DIRECTION('',(0.,1.,0.));
#1033=DIRECTION('center_axis',(0.,1.,0.));
#1034=DIRECTION('ref_axis',(1.,0.,-3.6361557350031E-31));
#1035=DIRECTION('center_axis',(-1.11022302462515E-16,-1.,-3.10766276891795E-16));
#1036=DIRECTION('ref_axis',(1.,-1.11022302462515E-16,-3.94430452610506E-31));
#1037=DIRECTION('',(0.,1.,0.));
#1038=DIRECTION('center_axis',(0.,1.,0.));
#1039=DIRECTION('ref_axis',(1.,0.,-3.6361557350031E-31));
#1040=DIRECTION('center_axis',(-1.11022302462515E-16,-1.,-3.10766276891795E-16));
#1041=DIRECTION('ref_axis',(1.,-1.11022302462515E-16,-3.94430452610506E-31));
#1042=DIRECTION('',(0.,1.,0.));
#1043=DIRECTION('center_axis',(0.,1.,0.));
#1044=DIRECTION('ref_axis',(1.,0.,-3.6361557350031E-31));
#1045=DIRECTION('center_axis',(-1.11022302462515E-16,-1.,-3.10766276891795E-16));
#1046=DIRECTION('ref_axis',(1.,-1.11022302462515E-16,-3.94430452610506E-31));
#1047=DIRECTION('',(0.,1.,0.));
#1048=DIRECTION('center_axis',(0.,1.,0.));
#1049=DIRECTION('ref_axis',(1.,0.,-3.6361557350031E-31));
#1050=DIRECTION('center_axis',(-1.11022302462515E-16,-1.,-3.10766276891795E-16));
#1051=DIRECTION('ref_axis',(1.,-1.11022302462515E-16,-3.94430452610506E-31));
#1052=DIRECTION('',(0.,1.,0.));
#1053=DIRECTION('center_axis',(0.,1.,0.));
#1054=DIRECTION('ref_axis',(1.,0.,-3.6361557350031E-31));
#1055=DIRECTION('center_axis',(-1.11022302462515E-16,-1.,-3.10766276891795E-16));
#1056=DIRECTION('ref_axis',(1.,-1.11022302462515E-16,-3.94430452610506E-31));
#1057=DIRECTION('',(0.,1.,0.));
#1058=DIRECTION('center_axis',(0.,1.,0.));
#1059=DIRECTION('ref_axis',(1.,0.,-3.6361557350031E-31));
#1060=DIRECTION('center_axis',(-1.11022302462515E-16,-1.,-3.10766276891795E-16));
#1061=DIRECTION('ref_axis',(1.,-1.11022302462515E-16,-3.94430452610506E-31));
#1062=DIRECTION('',(0.,1.,0.));
#1063=DIRECTION('center_axis',(0.,1.,0.));
#1064=DIRECTION('ref_axis',(1.,0.,-3.6361557350031E-31));
#1065=DIRECTION('center_axis',(-1.11022302462515E-16,-1.,-3.10766276891795E-16));
#1066=DIRECTION('ref_axis',(1.,-1.11022302462515E-16,-3.94430452610506E-31));
#1067=DIRECTION('',(0.,1.,0.));
#1068=DIRECTION('center_axis',(0.,1.,2.77555756156289E-16));
#1069=DIRECTION('ref_axis',(1.,0.,-3.6361557350031E-31));
#1070=DIRECTION('center_axis',(0.,1.,0.));
#1071=DIRECTION('ref_axis',(1.,0.,-3.6361557350031E-31));
#1072=DIRECTION('',(0.,1.,2.77555756156289E-16));
#1073=DIRECTION('center_axis',(1.11022302462515E-16,1.,3.10766276891795E-16));
#1074=DIRECTION('ref_axis',(1.,-1.11022302462515E-16,-3.94430452610506E-31));
#1075=DIRECTION('center_axis',(-1.11022302462515E-16,-1.,-3.10766276891795E-16));
#1076=DIRECTION('ref_axis',(1.,-1.11022302462515E-16,-3.94430452610506E-31));
#1077=DIRECTION('center_axis',(0.,1.,2.77555756156289E-16));
#1078=DIRECTION('ref_axis',(1.,0.,-3.6361557350031E-31));
#1079=DIRECTION('center_axis',(0.,1.,0.));
#1080=DIRECTION('ref_axis',(1.,0.,-3.6361557350031E-31));
#1081=DIRECTION('',(0.,1.,2.77555756156289E-16));
#1082=DIRECTION('center_axis',(1.11022302462515E-16,1.,3.10766276891795E-16));
#1083=DIRECTION('ref_axis',(1.,-1.11022302462515E-16,-3.94430452610506E-31));
#1084=DIRECTION('center_axis',(-1.11022302462515E-16,-1.,-3.10766276891795E-16));
#1085=DIRECTION('ref_axis',(1.,-1.11022302462515E-16,-3.94430452610506E-31));
#1086=DIRECTION('center_axis',(0.,1.,0.));
#1087=DIRECTION('ref_axis',(1.,0.,0.));
#1088=DIRECTION('center_axis',(0.,1.,0.));
#1089=DIRECTION('ref_axis',(1.,0.,0.));
#1090=DIRECTION('',(1.,0.,0.));
#1091=DIRECTION('center_axis',(0.,1.,0.));
#1092=DIRECTION('ref_axis',(1.,0.,0.));
#1093=DIRECTION('',(1.,0.,0.));
#1094=DIRECTION('center_axis',(-1.70803542250024E-17,0.,1.));
#1095=DIRECTION('ref_axis',(-1.,0.,-1.70803542250024E-17));
#1096=DIRECTION('',(-1.,0.,-1.70803542250024E-17));
#1097=DIRECTION('center_axis',(0.,0.,-1.));
#1098=DIRECTION('ref_axis',(1.,0.,0.));
#1099=DIRECTION('',(1.,0.,0.));
#1100=DIRECTION('center_axis',(0.,-1.,0.));
#1101=DIRECTION('ref_axis',(0.,0.,-1.));
#1102=DIRECTION('',(1.,0.,0.));
#1103=DIRECTION('center_axis',(0.,1.,0.));
#1104=DIRECTION('ref_axis',(1.,0.,0.));
#1105=DIRECTION('',(-1.,0.,0.));
#1106=DIRECTION('center_axis',(0.,1.,0.));
#1107=DIRECTION('ref_axis',(-1.,0.,-1.22464679914735E-16));
#1108=DIRECTION('center_axis',(0.,1.,0.));
#1109=DIRECTION('ref_axis',(1.,0.,0.));
#1110=DIRECTION('',(0.,1.,0.));
#1111=DIRECTION('',(0.,1.,0.));
#1112=DIRECTION('center_axis',(0.,0.,1.));
#1113=DIRECTION('ref_axis',(1.,0.,0.));
#1114=DIRECTION('',(0.,1.,0.));
#1115=DIRECTION('center_axis',(0.,0.,-1.));
#1116=DIRECTION('ref_axis',(-1.,0.,0.));
#1117=DIRECTION('',(0.,1.,0.));
#1118=DIRECTION('center_axis',(0.,1.,0.));
#1119=DIRECTION('ref_axis',(-1.,0.,-1.22464679914735E-16));
#1120=CARTESIAN_POINT('',(0.,0.,0.));
#1121=CARTESIAN_POINT('Origin',(65.,4.,0.));
#1122=CARTESIAN_POINT('',(0.,4.,-15.));
#1123=CARTESIAN_POINT('',(0.,4.,15.));
#1124=CARTESIAN_POINT('Origin',(1.94773373336554E-16,4.,5.99366072130859E-16));
#1125=CARTESIAN_POINT('Origin',(0.,4.,0.));
#1126=CARTESIAN_POINT('',(3.24974746830545,4.,4.94974746830559));
#1127=CARTESIAN_POINT('Origin',(4.94974746830545,4.,4.94974746830559));
#1128=CARTESIAN_POINT('',(3.24974746830545,4.,-4.94974746830541));
#1129=CARTESIAN_POINT('Origin',(4.94974746830545,4.,-4.94974746830541));
#1130=CARTESIAN_POINT('',(-6.64974746830555,4.,-4.94974746830541));
#1131=CARTESIAN_POINT('Origin',(-4.94974746830555,4.,-4.94974746830541));
#1132=CARTESIAN_POINT('',(-6.64974746830555,4.,4.94974746830559));
#1133=CARTESIAN_POINT('Origin',(-4.94974746830555,4.,4.94974746830559));
#1134=CARTESIAN_POINT('Origin',(65.,4.,0.));
#1135=CARTESIAN_POINT('',(130.,4.,15.));
#1136=CARTESIAN_POINT('',(130.,4.,-15.));
#1137=CARTESIAN_POINT('Origin',(130.,4.,5.99366072130859E-16));
#1138=CARTESIAN_POINT('Origin',(130.,4.,0.));
#1139=CARTESIAN_POINT('',(133.249747468306,4.,4.94974746830541));
#1140=CARTESIAN_POINT('Origin',(134.949747468306,4.,4.94974746830541));
#1141=CARTESIAN_POINT('',(133.249747468306,4.,-4.94974746830558));
#1142=CARTESIAN_POINT('Origin',(134.949747468306,4.,-4.94974746830559));
#1143=CARTESIAN_POINT('',(123.350252531695,4.,-4.94974746830558));
#1144=CARTESIAN_POINT('Origin',(125.050252531695,4.,-4.94974746830559));
#1145=CARTESIAN_POINT('',(123.350252531695,4.,4.94974746830541));
#1146=CARTESIAN_POINT('Origin',(125.050252531695,4.,4.94974746830541));
#1147=CARTESIAN_POINT('Origin',(130.,10.,0.));
#1148=CARTESIAN_POINT('',(130.,10.,15.));
#1149=CARTESIAN_POINT('',(130.,5.,15.));
#1150=CARTESIAN_POINT('',(130.,10.,15.));
#1151=CARTESIAN_POINT('',(130.,10.,-15.));
#1152=CARTESIAN_POINT('Origin',(130.,10.,0.));
#1153=CARTESIAN_POINT('',(130.,5.,-15.));
#1154=CARTESIAN_POINT('',(130.,10.,-15.));
#1155=CARTESIAN_POINT('',(130.,0.,-15.));
#1156=CARTESIAN_POINT('',(130.,0.,15.));
#1157=CARTESIAN_POINT('Origin',(0.,10.,0.));
#1158=CARTESIAN_POINT('',(0.,10.,-15.));
#1159=CARTESIAN_POINT('',(0.,5.,-15.));
#1160=CARTESIAN_POINT('',(0.,10.,-15.));
#1161=CARTESIAN_POINT('',(0.,10.,15.));
#1162=CARTESIAN_POINT('Origin',(0.,10.,0.));
#1163=CARTESIAN_POINT('',(0.,5.,15.));
#1164=CARTESIAN_POINT('',(0.,10.,15.));
#1165=CARTESIAN_POINT('',(0.,0.,15.));
#1166=CARTESIAN_POINT('',(0.,0.,-15.));
#1167=CARTESIAN_POINT('Origin',(120.,5.,0.));
#1168=CARTESIAN_POINT('',(116.771243444677,5.,-15.));
#1169=CARTESIAN_POINT('',(0.,5.,-15.));
#1170=CARTESIAN_POINT('',(130.,5.,-20.));
#1171=CARTESIAN_POINT('Origin',(130.,5.,5.99366072130859E-16));
#1172=CARTESIAN_POINT('',(130.,5.,-20.));
#1173=CARTESIAN_POINT('Origin',(130.,0.,5.99366072130859E-16));
#1174=CARTESIAN_POINT('',(130.,0.,-20.));
#1175=CARTESIAN_POINT('',(130.,0.,20.));
#1176=CARTESIAN_POINT('Origin',(130.,0.,5.99366072130859E-16));
#1177=CARTESIAN_POINT('',(130.,0.,-20.));
#1178=CARTESIAN_POINT('',(116.771243444677,5.,15.));
#1179=CARTESIAN_POINT('Origin',(130.,5.,5.99366072130859E-16));
#1180=CARTESIAN_POINT('',(130.,5.,20.));
#1181=CARTESIAN_POINT('Origin',(130.,5.,5.99366072130859E-16));
#1182=CARTESIAN_POINT('',(130.,0.,20.));
#1183=CARTESIAN_POINT('Origin',(130.,0.,-15.));
#1184=CARTESIAN_POINT('',(130.,0.,-15.));
#1185=CARTESIAN_POINT('',(130.,0.,-7.5));
#1186=CARTESIAN_POINT('',(130.,0.,-15.));
#1187=CARTESIAN_POINT('Origin',(130.,0.,5.99366072130859E-16));
#1188=CARTESIAN_POINT('',(130.,0.,15.));
#1189=CARTESIAN_POINT('Origin',(130.,0.,5.99366072130859E-16));
#1190=CARTESIAN_POINT('',(130.,0.,15.));
#1191=CARTESIAN_POINT('Origin',(130.,0.,20.));
#1192=CARTESIAN_POINT('',(130.,0.,10.));
#1193=CARTESIAN_POINT('',(130.,5.,-20.));
#1194=CARTESIAN_POINT('Origin',(120.,5.,0.));
#1195=CARTESIAN_POINT('',(130.,5.,15.));
#1196=CARTESIAN_POINT('Origin',(10.,5.,0.));
#1197=CARTESIAN_POINT('',(13.2287565553229,5.,-15.));
#1198=CARTESIAN_POINT('',(0.,5.,-15.));
#1199=CARTESIAN_POINT('',(0.,5.,-20.));
#1200=CARTESIAN_POINT('',(0.,5.,-20.));
#1201=CARTESIAN_POINT('Origin',(1.94773373336554E-16,5.,5.99366072130859E-16));
#1202=CARTESIAN_POINT('Origin',(0.,0.,15.));
#1203=CARTESIAN_POINT('',(0.,0.,15.));
#1204=CARTESIAN_POINT('',(0.,0.,20.));
#1205=CARTESIAN_POINT('',(0.,0.,7.5));
#1206=CARTESIAN_POINT('',(0.,0.,15.));
#1207=CARTESIAN_POINT('',(0.,5.,20.));
#1208=CARTESIAN_POINT('',(0.,5.,-20.));
#1209=CARTESIAN_POINT('',(0.,0.,20.));
#1210=CARTESIAN_POINT('Origin',(1.94773373336554E-16,0.,5.99366072130859E-16));
#1211=CARTESIAN_POINT('',(0.,0.,-15.));
#1212=CARTESIAN_POINT('Origin',(1.94773373336554E-16,0.,5.99366072130859E-16));
#1213=CARTESIAN_POINT('',(0.,0.,-15.));
#1214=CARTESIAN_POINT('Origin',(0.,0.,-20.));
#1215=CARTESIAN_POINT('',(0.,0.,-20.));
#1216=CARTESIAN_POINT('',(0.,0.,-10.));
#1217=CARTESIAN_POINT('',(0.,0.,-20.));
#1218=CARTESIAN_POINT('Origin',(1.94773373336554E-16,0.,5.99366072130859E-16));
#1219=CARTESIAN_POINT('Origin',(1.94773373336554E-16,0.,5.99366072130859E-16));
#1220=CARTESIAN_POINT('',(13.2287565553229,5.,15.));
#1221=CARTESIAN_POINT('Origin',(1.94773373336554E-16,5.,5.99366072130859E-16));
#1222=CARTESIAN_POINT('Origin',(1.94773373336554E-16,5.,5.99366072130859E-16));
#1223=CARTESIAN_POINT('Origin',(10.,5.,0.));
#1224=CARTESIAN_POINT('',(130.,5.,15.));
#1225=CARTESIAN_POINT('Origin',(65.,5.,0.));
#1226=CARTESIAN_POINT('',(0.,5.,-15.));
#1227=CARTESIAN_POINT('',(130.,5.,15.));
#1228=CARTESIAN_POINT('Origin',(0.,10.,20.));
#1229=CARTESIAN_POINT('',(1.8,10.,20.));
#1230=CARTESIAN_POINT('Origin',(0.,10.,20.));
#1231=CARTESIAN_POINT('',(1.8,6.,20.));
#1232=CARTESIAN_POINT('',(1.8,10.,20.));
#1233=CARTESIAN_POINT('Origin',(0.,6.,20.));
#1234=CARTESIAN_POINT('Origin',(0.,6.,20.));
#1235=CARTESIAN_POINT('Origin',(130.,10.,20.));
#1236=CARTESIAN_POINT('',(131.8,10.,20.));
#1237=CARTESIAN_POINT('Origin',(130.,10.,20.));
#1238=CARTESIAN_POINT('',(131.8,6.,20.));
#1239=CARTESIAN_POINT('',(131.8,10.,20.));
#1240=CARTESIAN_POINT('Origin',(130.,6.,20.));
#1241=CARTESIAN_POINT('Origin',(130.,6.,20.));
#1242=CARTESIAN_POINT('Origin',(0.,10.,-20.0000002980232));
#1243=CARTESIAN_POINT('',(1.8,10.,-20.0000002980232));
#1244=CARTESIAN_POINT('Origin',(0.,10.,-20.0000002980232));
#1245=CARTESIAN_POINT('',(1.8,6.,-20.0000002980232));
#1246=CARTESIAN_POINT('',(1.8,10.,-20.0000002980232));
#1247=CARTESIAN_POINT('Origin',(0.,6.,-20.0000002980232));
#1248=CARTESIAN_POINT('Origin',(0.,6.,-20.0000002980232));
#1249=CARTESIAN_POINT('Origin',(130.000001937151,10.,-20.0000002980232));
#1250=CARTESIAN_POINT('',(131.800001937151,10.,-20.0000002980232));
#1251=CARTESIAN_POINT('Origin',(130.000001937151,10.,-20.0000002980232));
#1252=CARTESIAN_POINT('',(131.800001937151,6.,-20.0000002980232));
#1253=CARTESIAN_POINT('',(131.800001937151,10.,-20.0000002980232));
#1254=CARTESIAN_POINT('Origin',(130.000001937151,6.,-20.0000002980232));
#1255=CARTESIAN_POINT('Origin',(130.000001937151,6.,-20.0000002980232));
#1256=CARTESIAN_POINT('Origin',(4.94974746830545,-1.37383090134823E-15,
4.94974746830559));
#1257=CARTESIAN_POINT('',(3.24974746830545,2.,4.94974746830559));
#1258=CARTESIAN_POINT('Origin',(4.94974746830545,2.,4.94974746830559));
#1259=CARTESIAN_POINT('',(3.24974746830545,-1.37383090134823E-15,4.94974746830559));
#1260=CARTESIAN_POINT('Origin',(4.94974746830545,1.37383090134819E-15,-4.94974746830541));
#1261=CARTESIAN_POINT('',(3.24974746830545,2.,-4.94974746830541));
#1262=CARTESIAN_POINT('Origin',(4.94974746830545,2.,-4.94974746830541));
#1263=CARTESIAN_POINT('',(3.24974746830545,1.37383090134819E-15,-4.94974746830541));
#1264=CARTESIAN_POINT('Origin',(134.949747468306,-1.37383090134819E-15,
4.94974746830541));
#1265=CARTESIAN_POINT('',(133.249747468306,1.99999999999998,4.94974746830541));
#1266=CARTESIAN_POINT('Origin',(134.949747468306,1.99999999999998,4.94974746830541));
#1267=CARTESIAN_POINT('',(133.249747468306,-1.37383090134819E-15,4.94974746830541));
#1268=CARTESIAN_POINT('Origin',(134.949747468306,1.37383090134824E-15,-4.94974746830559));
#1269=CARTESIAN_POINT('',(133.249747468306,1.99999999999999,-4.94974746830558));
#1270=CARTESIAN_POINT('Origin',(134.949747468306,1.99999999999999,-4.94974746830558));
#1271=CARTESIAN_POINT('',(133.249747468306,1.37383090134824E-15,-4.94974746830559));
#1272=CARTESIAN_POINT('Origin',(125.050252531695,1.37383090134824E-15,-4.94974746830559));
#1273=CARTESIAN_POINT('',(123.350252531695,1.99999999999999,-4.94974746830558));
#1274=CARTESIAN_POINT('Origin',(125.050252531695,1.99999999999999,-4.94974746830558));
#1275=CARTESIAN_POINT('',(123.350252531695,1.37383090134824E-15,-4.94974746830559));
#1276=CARTESIAN_POINT('Origin',(125.050252531695,-1.37383090134819E-15,
4.94974746830541));
#1277=CARTESIAN_POINT('',(123.350252531695,1.99999999999998,4.94974746830541));
#1278=CARTESIAN_POINT('Origin',(125.050252531695,1.99999999999998,4.94974746830541));
#1279=CARTESIAN_POINT('',(123.350252531695,-1.37383090134819E-15,4.94974746830541));
#1280=CARTESIAN_POINT('Origin',(-4.94974746830555,1.37383090134819E-15,
-4.94974746830541));
#1281=CARTESIAN_POINT('',(-6.64974746830555,2.,-4.94974746830541));
#1282=CARTESIAN_POINT('Origin',(-4.94974746830555,2.,-4.94974746830541));
#1283=CARTESIAN_POINT('',(-6.64974746830555,1.37383090134819E-15,-4.94974746830541));
#1284=CARTESIAN_POINT('Origin',(-4.94974746830555,-1.37383090134823E-15,
4.94974746830559));
#1285=CARTESIAN_POINT('',(-6.64974746830555,2.,4.94974746830559));
#1286=CARTESIAN_POINT('Origin',(-4.94974746830555,2.,4.94974746830559));
#1287=CARTESIAN_POINT('',(-6.64974746830555,-1.37383090134823E-15,4.94974746830559));
#1288=CARTESIAN_POINT('Origin',(130.,-1.4432899320127E-14,7.65871573737373E-16));
#1289=CARTESIAN_POINT('',(120.,-1.33226762955019E-14,-4.58775278847794E-16));
#1290=CARTESIAN_POINT('Origin',(130.,0.,7.65871573737377E-16));
#1291=CARTESIAN_POINT('',(120.,1.99999999999999,0.));
#1292=CARTESIAN_POINT('',(120.,-1.4432899320127E-14,1.99051837288473E-15));
#1293=CARTESIAN_POINT('Origin',(130.,1.99999999999999,1.32098308604995E-15));
#1294=CARTESIAN_POINT('Origin',(130.,1.99999999999999,1.11022302462516E-15));
#1295=CARTESIAN_POINT('Origin',(1.94773373336554E-16,1.17549435082229E-37,
5.99366072130859E-16));
#1296=CARTESIAN_POINT('',(-10.,1.11022302462515E-15,-6.25280780454309E-16));
#1297=CARTESIAN_POINT('Origin',(1.94773373336554E-16,-1.66357503364706E-31,
5.99366072130859E-16));
#1298=CARTESIAN_POINT('',(-10.,2.,0.));
#1299=CARTESIAN_POINT('',(-10.,-3.39907650812288E-31,1.82401287127822E-15));
#1300=CARTESIAN_POINT('Origin',(1.94773373336554E-16,2.,1.15447758444344E-15));
#1301=CARTESIAN_POINT('Origin',(0.,2.,1.11022302462516E-15));
#1302=CARTESIAN_POINT('Origin',(65.,0.,0.));
#1303=CARTESIAN_POINT('',(0.,0.,-25.));
#1304=CARTESIAN_POINT('',(0.,0.,25.));
#1305=CARTESIAN_POINT('Origin',(0.,0.,0.));
#1306=CARTESIAN_POINT('',(130.,0.,-25.));
#1307=CARTESIAN_POINT('',(0.,0.,-25.));
#1308=CARTESIAN_POINT('',(130.,0.,25.));
#1309=CARTESIAN_POINT('Origin',(130.,0.,0.));
#1310=CARTESIAN_POINT('',(0.,0.,25.));
#1311=CARTESIAN_POINT('Origin',(130.,10.,15.));
#1312=CARTESIAN_POINT('',(97.5,10.,15.));
#1313=CARTESIAN_POINT('Origin',(0.,10.,-15.));
#1314=CARTESIAN_POINT('',(32.5,10.,-15.));
#1315=CARTESIAN_POINT('Origin',(65.,10.,0.));
#1316=CARTESIAN_POINT('',(0.,10.,25.));
#1317=CARTESIAN_POINT('',(130.,10.,25.));
#1318=CARTESIAN_POINT('',(32.5,10.,25.));
#1319=CARTESIAN_POINT('',(130.,10.,-25.));
#1320=CARTESIAN_POINT('Origin',(130.,10.,0.));
#1321=CARTESIAN_POINT('',(0.,10.,-25.));
#1322=CARTESIAN_POINT('',(97.5,10.,-25.));
#1323=CARTESIAN_POINT('Origin',(0.,10.,0.));
#1324=CARTESIAN_POINT('Origin',(130.,0.,0.));
#1325=CARTESIAN_POINT('',(130.,0.,25.));
#1326=CARTESIAN_POINT('',(130.,0.,-25.));
#1327=CARTESIAN_POINT('Origin',(0.,0.,25.));
#1328=CARTESIAN_POINT('',(0.,0.,25.));
#1329=CARTESIAN_POINT('Origin',(130.,0.,-25.));
#1330=CARTESIAN_POINT('',(0.,0.,-25.));
#1331=CARTESIAN_POINT('Origin',(0.,0.,0.));
#1332=UNCERTAINTY_MEASURE_WITH_UNIT(LENGTH_MEASURE(0.01),#1336,
'DISTANCE_ACCURACY_VALUE',
'Maximum model space distance between geometric entities at asserted c
onnectivities');
#1333=UNCERTAINTY_MEASURE_WITH_UNIT(LENGTH_MEASURE(0.01),#1336,
'DISTANCE_ACCURACY_VALUE',
'Maximum model space distance between geometric entities at asserted c
onnectivities');
#1334=(
GEOMETRIC_REPRESENTATION_CONTEXT(3)
GLOBAL_UNCERTAINTY_ASSIGNED_CONTEXT((#1332))
GLOBAL_UNIT_ASSIGNED_CONTEXT((#1336,#1338,#1339))
REPRESENTATION_CONTEXT('','3D')
);
#1335=(
GEOMETRIC_REPRESENTATION_CONTEXT(3)
GLOBAL_UNCERTAINTY_ASSIGNED_CONTEXT((#1333))
GLOBAL_UNIT_ASSIGNED_CONTEXT((#1336,#1338,#1339))
REPRESENTATION_CONTEXT('','3D')
);
#1336=(
LENGTH_UNIT()
NAMED_UNIT(*)
SI_UNIT(.MILLI.,.METRE.)
);
#1337=(
LENGTH_UNIT()
NAMED_UNIT(*)
SI_UNIT($,.METRE.)
);
#1338=(
NAMED_UNIT(*)
PLANE_ANGLE_UNIT()
SI_UNIT($,.RADIAN.)
);
#1339=(
NAMED_UNIT(*)
SI_UNIT($,.STERADIAN.)
SOLID_ANGLE_UNIT()
);
#1340=SHAPE_DEFINITION_REPRESENTATION(#1341,#1342);
#1341=PRODUCT_DEFINITION_SHAPE('',$,#1344);
#1342=SHAPE_REPRESENTATION('',(#784),#1334);
#1343=PRODUCT_DEFINITION_CONTEXT('part definition',#1348,'design');
#1344=PRODUCT_DEFINITION('FusionComponent','FusionComponent',#1345,#1343);
#1345=PRODUCT_DEFINITION_FORMATION('',$,#1350);
#1346=PRODUCT_RELATED_PRODUCT_CATEGORY('FusionComponent',
'FusionComponent',(#1350));
#1347=APPLICATION_PROTOCOL_DEFINITION('international standard',
'automotive_design',2009,#1348);
#1348=APPLICATION_CONTEXT(
'Core Data for Automotive Mechanical Design Process');
#1349=PRODUCT_CONTEXT('part definition',#1348,'mechanical');
#1350=PRODUCT('FusionComponent','FusionComponent',$,(#1349));
#1351=PRESENTATION_STYLE_ASSIGNMENT((#1353));
#1352=PRESENTATION_STYLE_ASSIGNMENT((#1354));
#1353=SURFACE_STYLE_USAGE(.BOTH.,#1355);
#1354=SURFACE_STYLE_USAGE(.BOTH.,#1356);
#1355=SURFACE_SIDE_STYLE('',(#1357));
#1356=SURFACE_SIDE_STYLE('',(#1358));
#1357=SURFACE_STYLE_FILL_AREA(#1359);
#1358=SURFACE_STYLE_FILL_AREA(#1360);
#1359=FILL_AREA_STYLE('Steel - Satin',(#1361));
#1360=FILL_AREA_STYLE('Plastic - Translucent Matte (Blue)',(#1362));
#1361=FILL_AREA_STYLE_COLOUR('Steel - Satin',#1363);
#1362=FILL_AREA_STYLE_COLOUR('Plastic - Translucent Matte (Blue)',#1364);
#1363=COLOUR_RGB('Steel - Satin',0.627450980392157,0.627450980392157,0.627450980392157);
#1364=COLOUR_RGB('Plastic - Translucent Matte (Blue)',0.215686274509804,
0.811764705882353,0.823529411764706);
ENDSEC;
END-ISO-10303-21;
