ISO-10303-21;
HEADER;
/* Generated by software containing ST-Developer
 * from STEP Tools, Inc. (www.steptools.com) 
 */

FILE_DESCRIPTION(
/* description */ (''),
/* implementation_level */ '2;1');

FILE_NAME(
/* name */ 'Joint 1 Bracket.step',
/* time_stamp */ '2026-04-06T15:07:54+02:00',
/* author */ (''),
/* organization */ (''),
/* preprocessor_version */ 'ST-DEVELOPER v20.1',
/* originating_system */ 'Autodesk Translation Framework v14.24.0.0',
/* authorisation */ '');

FILE_SCHEMA (('AUTOMOTIVE_DESIGN { 1 0 10303 214 3 1 1 }'));
ENDSEC;

DATA;
#10=MECHANICAL_DESIGN_GEOMETRIC_PRESENTATION_REPRESENTATION('',(#13),#585);
#11=SHAPE_REPRESENTATION_RELATIONSHIP('SRR','None',#592,#12);
#12=ADVANCED_BREP_SHAPE_REPRESENTATION('',(#14),#584);
#13=STYLED_ITEM('',(#602),#14);
#14=MANIFOLD_SOLID_BREP('Connection',#333);
#15=CYLINDRICAL_SURFACE('',#354,20.);
#16=CYLINDRICAL_SURFACE('',#357,1.7);
#17=CYLINDRICAL_SURFACE('',#359,1.7);
#18=CYLINDRICAL_SURFACE('',#361,1.7);
#19=CYLINDRICAL_SURFACE('',#363,1.7);
#20=CYLINDRICAL_SURFACE('',#366,35.);
#21=CYLINDRICAL_SURFACE('',#369,30.);
#22=CYLINDRICAL_SURFACE('',#371,1.8);
#23=CYLINDRICAL_SURFACE('',#375,1.8);
#24=CYLINDRICAL_SURFACE('',#379,11.);
#25=CYLINDRICAL_SURFACE('',#383,50.);
#26=FACE_BOUND('',#59,.T.);
#27=FACE_BOUND('',#60,.T.);
#28=FACE_BOUND('',#61,.T.);
#29=FACE_BOUND('',#62,.T.);
#30=FACE_BOUND('',#78,.T.);
#31=FACE_BOUND('',#79,.T.);
#32=FACE_BOUND('',#80,.T.);
#33=FACE_BOUND('',#81,.T.);
#34=FACE_BOUND('',#84,.T.);
#35=FACE_BOUND('',#85,.T.);
#36=FACE_BOUND('',#86,.T.);
#37=FACE_BOUND('',#88,.T.);
#38=FACE_BOUND('',#89,.T.);
#39=FACE_OUTER_BOUND('',#58,.T.);
#40=FACE_OUTER_BOUND('',#63,.T.);
#41=FACE_OUTER_BOUND('',#64,.T.);
#42=FACE_OUTER_BOUND('',#65,.T.);
#43=FACE_OUTER_BOUND('',#66,.T.);
#44=FACE_OUTER_BOUND('',#67,.T.);
#45=FACE_OUTER_BOUND('',#68,.T.);
#46=FACE_OUTER_BOUND('',#69,.T.);
#47=FACE_OUTER_BOUND('',#70,.T.);
#48=FACE_OUTER_BOUND('',#71,.T.);
#49=FACE_OUTER_BOUND('',#72,.T.);
#50=FACE_OUTER_BOUND('',#73,.T.);
#51=FACE_OUTER_BOUND('',#74,.T.);
#52=FACE_OUTER_BOUND('',#75,.T.);
#53=FACE_OUTER_BOUND('',#76,.T.);
#54=FACE_OUTER_BOUND('',#77,.T.);
#55=FACE_OUTER_BOUND('',#82,.T.);
#56=FACE_OUTER_BOUND('',#83,.T.);
#57=FACE_OUTER_BOUND('',#87,.T.);
#58=EDGE_LOOP('',(#222,#223,#224,#225));
#59=EDGE_LOOP('',(#226));
#60=EDGE_LOOP('',(#227));
#61=EDGE_LOOP('',(#228));
#62=EDGE_LOOP('',(#229));
#63=EDGE_LOOP('',(#230,#231,#232,#233));
#64=EDGE_LOOP('',(#234,#235,#236,#237,#238,#239));
#65=EDGE_LOOP('',(#240,#241,#242,#243));
#66=EDGE_LOOP('',(#244,#245,#246,#247));
#67=EDGE_LOOP('',(#248,#249,#250,#251));
#68=EDGE_LOOP('',(#252,#253,#254,#255));
#69=EDGE_LOOP('',(#256,#257,#258,#259,#260,#261));
#70=EDGE_LOOP('',(#262,#263,#264,#265));
#71=EDGE_LOOP('',(#266,#267,#268,#269));
#72=EDGE_LOOP('',(#270,#271,#272,#273));
#73=EDGE_LOOP('',(#274));
#74=EDGE_LOOP('',(#275,#276,#277,#278));
#75=EDGE_LOOP('',(#279));
#76=EDGE_LOOP('',(#280,#281,#282,#283));
#77=EDGE_LOOP('',(#284));
#78=EDGE_LOOP('',(#285));
#79=EDGE_LOOP('',(#286));
#80=EDGE_LOOP('',(#287));
#81=EDGE_LOOP('',(#288));
#82=EDGE_LOOP('',(#289,#290,#291,#292));
#83=EDGE_LOOP('',(#293));
#84=EDGE_LOOP('',(#294,#295,#296,#297));
#85=EDGE_LOOP('',(#298));
#86=EDGE_LOOP('',(#299));
#87=EDGE_LOOP('',(#300));
#88=EDGE_LOOP('',(#301,#302,#303,#304));
#89=EDGE_LOOP('',(#305));
#90=CIRCLE('',#348,20.);
#91=CIRCLE('',#349,30.);
#92=CIRCLE('',#350,1.7);
#93=CIRCLE('',#351,1.7);
#94=CIRCLE('',#352,1.7);
#95=CIRCLE('',#353,1.7);
#96=CIRCLE('',#355,20.);
#97=CIRCLE('',#358,1.7);
#98=CIRCLE('',#360,1.7);
#99=CIRCLE('',#362,1.7);
#100=CIRCLE('',#364,1.7);
#101=CIRCLE('',#367,35.);
#102=CIRCLE('',#368,35.);
#103=CIRCLE('',#370,30.);
#104=CIRCLE('',#372,1.8);
#105=CIRCLE('',#373,1.8);
#106=CIRCLE('',#376,1.8);
#107=CIRCLE('',#377,1.8);
#108=CIRCLE('',#380,11.);
#109=CIRCLE('',#381,11.);
#110=CIRCLE('',#384,50.);
#111=CIRCLE('',#385,50.);
#112=LINE('',#496,#132);
#113=LINE('',#500,#133);
#114=LINE('',#512,#134);
#115=LINE('',#515,#135);
#116=LINE('',#518,#136);
#117=LINE('',#520,#137);
#118=LINE('',#522,#138);
#119=LINE('',#523,#139);
#120=LINE('',#527,#140);
#121=LINE('',#531,#141);
#122=LINE('',#535,#142);
#123=LINE('',#539,#143);
#124=LINE('',#542,#144);
#125=LINE('',#544,#145);
#126=LINE('',#546,#146);
#127=LINE('',#547,#147);
#128=LINE('',#557,#148);
#129=LINE('',#564,#149);
#130=LINE('',#571,#150);
#131=LINE('',#578,#151);
#132=VECTOR('',#392,10.);
#133=VECTOR('',#395,10.);
#134=VECTOR('',#408,10.);
#135=VECTOR('',#411,10.);
#136=VECTOR('',#414,10.);
#137=VECTOR('',#415,10.);
#138=VECTOR('',#416,10.);
#139=VECTOR('',#417,10.);
#140=VECTOR('',#422,1.7);
#141=VECTOR('',#427,1.7);
#142=VECTOR('',#432,1.7);
#143=VECTOR('',#437,1.7);
#144=VECTOR('',#440,10.);
#145=VECTOR('',#441,10.);
#146=VECTOR('',#442,10.);
#147=VECTOR('',#443,10.);
#148=VECTOR('',#458,1.8);
#149=VECTOR('',#467,1.8);
#150=VECTOR('',#476,11.);
#151=VECTOR('',#485,50.);
#152=VERTEX_POINT('',#494);
#153=VERTEX_POINT('',#495);
#154=VERTEX_POINT('',#497);
#155=VERTEX_POINT('',#499);
#156=VERTEX_POINT('',#502);
#157=VERTEX_POINT('',#504);
#158=VERTEX_POINT('',#506);
#159=VERTEX_POINT('',#508);
#160=VERTEX_POINT('',#511);
#161=VERTEX_POINT('',#513);
#162=VERTEX_POINT('',#517);
#163=VERTEX_POINT('',#519);
#164=VERTEX_POINT('',#521);
#165=VERTEX_POINT('',#525);
#166=VERTEX_POINT('',#529);
#167=VERTEX_POINT('',#533);
#168=VERTEX_POINT('',#537);
#169=VERTEX_POINT('',#541);
#170=VERTEX_POINT('',#543);
#171=VERTEX_POINT('',#545);
#172=VERTEX_POINT('',#554);
#173=VERTEX_POINT('',#556);
#174=VERTEX_POINT('',#561);
#175=VERTEX_POINT('',#563);
#176=VERTEX_POINT('',#568);
#177=VERTEX_POINT('',#570);
#178=VERTEX_POINT('',#575);
#179=VERTEX_POINT('',#577);
#180=EDGE_CURVE('',#152,#153,#112,.T.);
#181=EDGE_CURVE('',#154,#152,#90,.T.);
#182=EDGE_CURVE('',#155,#154,#113,.T.);
#183=EDGE_CURVE('',#153,#155,#91,.T.);
#184=EDGE_CURVE('',#156,#156,#92,.T.);
#185=EDGE_CURVE('',#157,#157,#93,.T.);
#186=EDGE_CURVE('',#158,#158,#94,.T.);
#187=EDGE_CURVE('',#159,#159,#95,.T.);
#188=EDGE_CURVE('',#160,#152,#114,.T.);
#189=EDGE_CURVE('',#161,#160,#96,.T.);
#190=EDGE_CURVE('',#161,#154,#115,.T.);
#191=EDGE_CURVE('',#153,#162,#116,.T.);
#192=EDGE_CURVE('',#163,#162,#117,.T.);
#193=EDGE_CURVE('',#164,#163,#118,.T.);
#194=EDGE_CURVE('',#160,#164,#119,.T.);
#195=EDGE_CURVE('',#165,#165,#97,.T.);
#196=EDGE_CURVE('',#165,#156,#120,.T.);
#197=EDGE_CURVE('',#166,#166,#98,.T.);
#198=EDGE_CURVE('',#166,#157,#121,.T.);
#199=EDGE_CURVE('',#167,#167,#99,.T.);
#200=EDGE_CURVE('',#167,#158,#122,.T.);
#201=EDGE_CURVE('',#168,#168,#100,.T.);
#202=EDGE_CURVE('',#168,#159,#123,.T.);
#203=EDGE_CURVE('',#169,#161,#124,.T.);
#204=EDGE_CURVE('',#169,#170,#125,.T.);
#205=EDGE_CURVE('',#171,#170,#126,.T.);
#206=EDGE_CURVE('',#155,#171,#127,.T.);
#207=EDGE_CURVE('',#170,#163,#101,.T.);
#208=EDGE_CURVE('',#164,#169,#102,.T.);
#209=EDGE_CURVE('',#162,#171,#103,.T.);
#210=EDGE_CURVE('',#172,#172,#104,.T.);
#211=EDGE_CURVE('',#172,#173,#128,.T.);
#212=EDGE_CURVE('',#173,#173,#105,.T.);
#213=EDGE_CURVE('',#174,#174,#106,.T.);
#214=EDGE_CURVE('',#174,#175,#129,.T.);
#215=EDGE_CURVE('',#175,#175,#107,.T.);
#216=EDGE_CURVE('',#176,#176,#108,.T.);
#217=EDGE_CURVE('',#176,#177,#130,.T.);
#218=EDGE_CURVE('',#177,#177,#109,.T.);
#219=EDGE_CURVE('',#178,#178,#110,.T.);
#220=EDGE_CURVE('',#178,#179,#131,.T.);
#221=EDGE_CURVE('',#179,#179,#111,.T.);
#222=ORIENTED_EDGE('',*,*,#180,.F.);
#223=ORIENTED_EDGE('',*,*,#181,.F.);
#224=ORIENTED_EDGE('',*,*,#182,.F.);
#225=ORIENTED_EDGE('',*,*,#183,.F.);
#226=ORIENTED_EDGE('',*,*,#184,.F.);
#227=ORIENTED_EDGE('',*,*,#185,.F.);
#228=ORIENTED_EDGE('',*,*,#186,.F.);
#229=ORIENTED_EDGE('',*,*,#187,.F.);
#230=ORIENTED_EDGE('',*,*,#181,.T.);
#231=ORIENTED_EDGE('',*,*,#188,.F.);
#232=ORIENTED_EDGE('',*,*,#189,.F.);
#233=ORIENTED_EDGE('',*,*,#190,.T.);
#234=ORIENTED_EDGE('',*,*,#180,.T.);
#235=ORIENTED_EDGE('',*,*,#191,.T.);
#236=ORIENTED_EDGE('',*,*,#192,.F.);
#237=ORIENTED_EDGE('',*,*,#193,.F.);
#238=ORIENTED_EDGE('',*,*,#194,.F.);
#239=ORIENTED_EDGE('',*,*,#188,.T.);
#240=ORIENTED_EDGE('',*,*,#195,.F.);
#241=ORIENTED_EDGE('',*,*,#196,.T.);
#242=ORIENTED_EDGE('',*,*,#184,.T.);
#243=ORIENTED_EDGE('',*,*,#196,.F.);
#244=ORIENTED_EDGE('',*,*,#197,.F.);
#245=ORIENTED_EDGE('',*,*,#198,.T.);
#246=ORIENTED_EDGE('',*,*,#185,.T.);
#247=ORIENTED_EDGE('',*,*,#198,.F.);
#248=ORIENTED_EDGE('',*,*,#199,.F.);
#249=ORIENTED_EDGE('',*,*,#200,.T.);
#250=ORIENTED_EDGE('',*,*,#186,.T.);
#251=ORIENTED_EDGE('',*,*,#200,.F.);
#252=ORIENTED_EDGE('',*,*,#201,.F.);
#253=ORIENTED_EDGE('',*,*,#202,.T.);
#254=ORIENTED_EDGE('',*,*,#187,.T.);
#255=ORIENTED_EDGE('',*,*,#202,.F.);
#256=ORIENTED_EDGE('',*,*,#182,.T.);
#257=ORIENTED_EDGE('',*,*,#190,.F.);
#258=ORIENTED_EDGE('',*,*,#203,.F.);
#259=ORIENTED_EDGE('',*,*,#204,.T.);
#260=ORIENTED_EDGE('',*,*,#205,.F.);
#261=ORIENTED_EDGE('',*,*,#206,.F.);
#262=ORIENTED_EDGE('',*,*,#207,.F.);
#263=ORIENTED_EDGE('',*,*,#204,.F.);
#264=ORIENTED_EDGE('',*,*,#208,.F.);
#265=ORIENTED_EDGE('',*,*,#193,.T.);
#266=ORIENTED_EDGE('',*,*,#191,.F.);
#267=ORIENTED_EDGE('',*,*,#183,.T.);
#268=ORIENTED_EDGE('',*,*,#206,.T.);
#269=ORIENTED_EDGE('',*,*,#209,.F.);
#270=ORIENTED_EDGE('',*,*,#210,.F.);
#271=ORIENTED_EDGE('',*,*,#211,.T.);
#272=ORIENTED_EDGE('',*,*,#212,.T.);
#273=ORIENTED_EDGE('',*,*,#211,.F.);
#274=ORIENTED_EDGE('',*,*,#212,.F.);
#275=ORIENTED_EDGE('',*,*,#213,.F.);
#276=ORIENTED_EDGE('',*,*,#214,.T.);
#277=ORIENTED_EDGE('',*,*,#215,.T.);
#278=ORIENTED_EDGE('',*,*,#214,.F.);
#279=ORIENTED_EDGE('',*,*,#215,.F.);
#280=ORIENTED_EDGE('',*,*,#216,.F.);
#281=ORIENTED_EDGE('',*,*,#217,.T.);
#282=ORIENTED_EDGE('',*,*,#218,.T.);
#283=ORIENTED_EDGE('',*,*,#217,.F.);
#284=ORIENTED_EDGE('',*,*,#218,.F.);
#285=ORIENTED_EDGE('',*,*,#195,.T.);
#286=ORIENTED_EDGE('',*,*,#197,.T.);
#287=ORIENTED_EDGE('',*,*,#199,.T.);
#288=ORIENTED_EDGE('',*,*,#201,.T.);
#289=ORIENTED_EDGE('',*,*,#219,.F.);
#290=ORIENTED_EDGE('',*,*,#220,.T.);
#291=ORIENTED_EDGE('',*,*,#221,.F.);
#292=ORIENTED_EDGE('',*,*,#220,.F.);
#293=ORIENTED_EDGE('',*,*,#221,.T.);
#294=ORIENTED_EDGE('',*,*,#192,.T.);
#295=ORIENTED_EDGE('',*,*,#209,.T.);
#296=ORIENTED_EDGE('',*,*,#205,.T.);
#297=ORIENTED_EDGE('',*,*,#207,.T.);
#298=ORIENTED_EDGE('',*,*,#210,.T.);
#299=ORIENTED_EDGE('',*,*,#213,.T.);
#300=ORIENTED_EDGE('',*,*,#219,.T.);
#301=ORIENTED_EDGE('',*,*,#194,.T.);
#302=ORIENTED_EDGE('',*,*,#208,.T.);
#303=ORIENTED_EDGE('',*,*,#203,.T.);
#304=ORIENTED_EDGE('',*,*,#189,.T.);
#305=ORIENTED_EDGE('',*,*,#216,.T.);
#306=PLANE('',#347);
#307=PLANE('',#356);
#308=PLANE('',#365);
#309=PLANE('',#374);
#310=PLANE('',#378);
#311=PLANE('',#382);
#312=PLANE('',#386);
#313=PLANE('',#387);
#314=ADVANCED_FACE('',(#39,#26,#27,#28,#29),#306,.T.);
#315=ADVANCED_FACE('',(#40),#15,.T.);
#316=ADVANCED_FACE('',(#41),#307,.F.);
#317=ADVANCED_FACE('',(#42),#16,.F.);
#318=ADVANCED_FACE('',(#43),#17,.F.);
#319=ADVANCED_FACE('',(#44),#18,.F.);
#320=ADVANCED_FACE('',(#45),#19,.F.);
#321=ADVANCED_FACE('',(#46),#308,.F.);
#322=ADVANCED_FACE('',(#47),#20,.F.);
#323=ADVANCED_FACE('',(#48),#21,.F.);
#324=ADVANCED_FACE('',(#49),#22,.F.);
#325=ADVANCED_FACE('',(#50),#309,.T.);
#326=ADVANCED_FACE('',(#51),#23,.F.);
#327=ADVANCED_FACE('',(#52),#310,.T.);
#328=ADVANCED_FACE('',(#53),#24,.F.);
#329=ADVANCED_FACE('',(#54,#30,#31,#32,#33),#311,.T.);
#330=ADVANCED_FACE('',(#55),#25,.T.);
#331=ADVANCED_FACE('',(#56,#34,#35,#36),#312,.T.);
#332=ADVANCED_FACE('',(#57,#37,#38),#313,.F.);
#333=CLOSED_SHELL('',(#314,#315,#316,#317,#318,#319,#320,#321,#322,#323,
#324,#325,#326,#327,#328,#329,#330,#331,#332));
#334=DERIVED_UNIT_ELEMENT(#336,1.);
#335=DERIVED_UNIT_ELEMENT(#587,-3.);
#336=(
MASS_UNIT()
NAMED_UNIT(*)
SI_UNIT(.KILO.,.GRAM.)
);
#337=DERIVED_UNIT((#334,#335));
#338=MEASURE_REPRESENTATION_ITEM('density measure',
POSITIVE_RATIO_MEASURE(7850.),#337);
#339=PROPERTY_DEFINITION_REPRESENTATION(#344,#341);
#340=PROPERTY_DEFINITION_REPRESENTATION(#345,#342);
#341=REPRESENTATION('material name',(#343),#584);
#342=REPRESENTATION('density',(#338),#584);
#343=DESCRIPTIVE_REPRESENTATION_ITEM('Steel','Steel');
#344=PROPERTY_DEFINITION('material property','material name',#594);
#345=PROPERTY_DEFINITION('material property','density of part',#594);
#346=AXIS2_PLACEMENT_3D('',#492,#388,#389);
#347=AXIS2_PLACEMENT_3D('',#493,#390,#391);
#348=AXIS2_PLACEMENT_3D('',#498,#393,#394);
#349=AXIS2_PLACEMENT_3D('',#501,#396,#397);
#350=AXIS2_PLACEMENT_3D('',#503,#398,#399);
#351=AXIS2_PLACEMENT_3D('',#505,#400,#401);
#352=AXIS2_PLACEMENT_3D('',#507,#402,#403);
#353=AXIS2_PLACEMENT_3D('',#509,#404,#405);
#354=AXIS2_PLACEMENT_3D('',#510,#406,#407);
#355=AXIS2_PLACEMENT_3D('',#514,#409,#410);
#356=AXIS2_PLACEMENT_3D('',#516,#412,#413);
#357=AXIS2_PLACEMENT_3D('',#524,#418,#419);
#358=AXIS2_PLACEMENT_3D('',#526,#420,#421);
#359=AXIS2_PLACEMENT_3D('',#528,#423,#424);
#360=AXIS2_PLACEMENT_3D('',#530,#425,#426);
#361=AXIS2_PLACEMENT_3D('',#532,#428,#429);
#362=AXIS2_PLACEMENT_3D('',#534,#430,#431);
#363=AXIS2_PLACEMENT_3D('',#536,#433,#434);
#364=AXIS2_PLACEMENT_3D('',#538,#435,#436);
#365=AXIS2_PLACEMENT_3D('',#540,#438,#439);
#366=AXIS2_PLACEMENT_3D('',#548,#444,#445);
#367=AXIS2_PLACEMENT_3D('',#549,#446,#447);
#368=AXIS2_PLACEMENT_3D('',#550,#448,#449);
#369=AXIS2_PLACEMENT_3D('',#551,#450,#451);
#370=AXIS2_PLACEMENT_3D('',#552,#452,#453);
#371=AXIS2_PLACEMENT_3D('',#553,#454,#455);
#372=AXIS2_PLACEMENT_3D('',#555,#456,#457);
#373=AXIS2_PLACEMENT_3D('',#558,#459,#460);
#374=AXIS2_PLACEMENT_3D('',#559,#461,#462);
#375=AXIS2_PLACEMENT_3D('',#560,#463,#464);
#376=AXIS2_PLACEMENT_3D('',#562,#465,#466);
#377=AXIS2_PLACEMENT_3D('',#565,#468,#469);
#378=AXIS2_PLACEMENT_3D('',#566,#470,#471);
#379=AXIS2_PLACEMENT_3D('',#567,#472,#473);
#380=AXIS2_PLACEMENT_3D('',#569,#474,#475);
#381=AXIS2_PLACEMENT_3D('',#572,#477,#478);
#382=AXIS2_PLACEMENT_3D('',#573,#479,#480);
#383=AXIS2_PLACEMENT_3D('',#574,#481,#482);
#384=AXIS2_PLACEMENT_3D('',#576,#483,#484);
#385=AXIS2_PLACEMENT_3D('',#579,#486,#487);
#386=AXIS2_PLACEMENT_3D('',#580,#488,#489);
#387=AXIS2_PLACEMENT_3D('',#581,#490,#491);
#388=DIRECTION('axis',(0.,0.,1.));
#389=DIRECTION('refdir',(1.,0.,0.));
#390=DIRECTION('center_axis',(-9.64077206394492E-16,1.,3.31284709714931E-15));
#391=DIRECTION('ref_axis',(5.55111512312525E-16,3.31284709714931E-15,-1.));
#392=DIRECTION('',(0.707106781186548,-1.66083111719952E-15,0.707106781186548));
#393=DIRECTION('center_axis',(9.64077206394492E-16,-1.,-3.31284709714931E-15));
#394=DIRECTION('ref_axis',(1.,0.,0.));
#395=DIRECTION('',(-0.707106781186547,-3.02424217765737E-15,0.707106781186548));
#396=DIRECTION('center_axis',(9.64077206394492E-16,-1.,-3.31284709714931E-15));
#397=DIRECTION('ref_axis',(5.55111512312525E-16,3.31284709714931E-15,-1.));
#398=DIRECTION('center_axis',(-9.64077206394492E-16,1.,3.31284709714931E-15));
#399=DIRECTION('ref_axis',(1.,0.,0.));
#400=DIRECTION('center_axis',(-9.64077206394492E-16,1.,3.31284709714931E-15));
#401=DIRECTION('ref_axis',(1.,0.,0.));
#402=DIRECTION('center_axis',(-9.64077206394492E-16,1.,3.31284709714931E-15));
#403=DIRECTION('ref_axis',(1.,0.,0.));
#404=DIRECTION('center_axis',(-9.64077206394492E-16,1.,3.31284709714931E-15));
#405=DIRECTION('ref_axis',(1.,0.,0.));
#406=DIRECTION('center_axis',(0.,1.,0.));
#407=DIRECTION('ref_axis',(1.,0.,0.));
#408=DIRECTION('',(0.,1.,0.));
#409=DIRECTION('center_axis',(9.64077206394492E-16,-1.,-3.31284709714931E-15));
#410=DIRECTION('ref_axis',(1.,0.,0.));
#411=DIRECTION('',(0.,1.,0.));
#412=DIRECTION('center_axis',(-0.707106781186548,0.,0.707106781186548));
#413=DIRECTION('ref_axis',(0.707106781186548,0.,0.707106781186548));
#414=DIRECTION('',(-1.11022302462516E-15,1.,3.33066907387547E-15));
#415=DIRECTION('',(-0.707106781186548,1.66083111719952E-15,-0.707106781186548));
#416=DIRECTION('',(0.,1.,0.));
#417=DIRECTION('',(0.707106781186548,-1.66083111719952E-15,0.707106781186548));
#418=DIRECTION('center_axis',(0.,1.,0.));
#419=DIRECTION('ref_axis',(1.,0.,0.));
#420=DIRECTION('center_axis',(-9.64077206394492E-16,1.,3.31284709714931E-15));
#421=DIRECTION('ref_axis',(1.,0.,0.));
#422=DIRECTION('',(0.,1.,0.));
#423=DIRECTION('center_axis',(0.,1.,0.));
#424=DIRECTION('ref_axis',(1.,0.,0.));
#425=DIRECTION('center_axis',(-9.64077206394492E-16,1.,3.31284709714931E-15));
#426=DIRECTION('ref_axis',(1.,0.,0.));
#427=DIRECTION('',(0.,1.,0.));
#428=DIRECTION('center_axis',(0.,1.,0.));
#429=DIRECTION('ref_axis',(1.,0.,0.));
#430=DIRECTION('center_axis',(-9.64077206394492E-16,1.,3.31284709714931E-15));
#431=DIRECTION('ref_axis',(1.,0.,0.));
#432=DIRECTION('',(0.,1.,0.));
#433=DIRECTION('center_axis',(0.,1.,0.));
#434=DIRECTION('ref_axis',(1.,0.,0.));
#435=DIRECTION('center_axis',(-9.64077206394492E-16,1.,3.31284709714931E-15));
#436=DIRECTION('ref_axis',(1.,0.,0.));
#437=DIRECTION('',(0.,1.,0.));
#438=DIRECTION('center_axis',(-0.707106781186548,0.,-0.707106781186547));
#439=DIRECTION('ref_axis',(-0.707106781186547,0.,0.707106781186548));
#440=DIRECTION('',(-0.707106781186547,-3.02424217765737E-15,0.707106781186548));
#441=DIRECTION('',(0.,1.,0.));
#442=DIRECTION('',(0.707106781186547,3.02424217765737E-15,-0.707106781186548));
#443=DIRECTION('',(-9.64077206394492E-16,1.,3.31284709714931E-15));
#444=DIRECTION('center_axis',(0.,1.,0.));
#445=DIRECTION('ref_axis',(1.,0.,0.));
#446=DIRECTION('center_axis',(9.64077206394492E-16,-1.,-3.31284709714931E-15));
#447=DIRECTION('ref_axis',(1.,0.,0.));
#448=DIRECTION('center_axis',(-9.64077206394492E-16,1.,3.31284709714931E-15));
#449=DIRECTION('ref_axis',(1.,0.,0.));
#450=DIRECTION('center_axis',(9.64077206394492E-16,-1.,-3.31284709714931E-15));
#451=DIRECTION('ref_axis',(-1.,-9.64077206394499E-16,2.29312076665995E-15));
#452=DIRECTION('center_axis',(9.64077206394492E-16,-1.,-3.31284709714931E-15));
#453=DIRECTION('ref_axis',(5.55111512312525E-16,3.31284709714931E-15,-1.));
#454=DIRECTION('center_axis',(0.,-1.,0.));
#455=DIRECTION('ref_axis',(-1.,0.,0.));
#456=DIRECTION('center_axis',(9.64077206394492E-16,-1.,-3.31284709714931E-15));
#457=DIRECTION('ref_axis',(-1.,0.,0.));
#458=DIRECTION('',(0.,-1.,0.));
#459=DIRECTION('center_axis',(0.,-1.,0.));
#460=DIRECTION('ref_axis',(-1.,0.,0.));
#461=DIRECTION('center_axis',(0.,1.,0.));
#462=DIRECTION('ref_axis',(-1.,0.,0.));
#463=DIRECTION('center_axis',(0.,-1.,0.));
#464=DIRECTION('ref_axis',(-1.,0.,0.));
#465=DIRECTION('center_axis',(9.64077206394492E-16,-1.,-3.31284709714931E-15));
#466=DIRECTION('ref_axis',(-1.,0.,0.));
#467=DIRECTION('',(0.,-1.,0.));
#468=DIRECTION('center_axis',(0.,-1.,0.));
#469=DIRECTION('ref_axis',(-1.,0.,0.));
#470=DIRECTION('center_axis',(0.,1.,0.));
#471=DIRECTION('ref_axis',(-1.,0.,0.));
#472=DIRECTION('center_axis',(-9.64077206394492E-16,1.,3.31284709714931E-15));
#473=DIRECTION('ref_axis',(-5.55111512312525E-16,-3.31284709714931E-15,
1.));
#474=DIRECTION('center_axis',(-9.64077206394492E-16,1.,3.31284709714931E-15));
#475=DIRECTION('ref_axis',(-5.55111512312525E-16,-3.31284709714931E-15,
1.));
#476=DIRECTION('',(-9.64077206394492E-16,1.,3.31284709714931E-15));
#477=DIRECTION('center_axis',(-9.64077206394492E-16,1.,3.31284709714931E-15));
#478=DIRECTION('ref_axis',(-5.55111512312525E-16,-3.31284709714931E-15,
1.));
#479=DIRECTION('center_axis',(9.64077206394492E-16,-1.,-3.31284709714931E-15));
#480=DIRECTION('ref_axis',(-5.55111512312525E-16,-3.31284709714931E-15,
1.));
#481=DIRECTION('center_axis',(9.64077206394492E-16,-1.,-3.31284709714931E-15));
#482=DIRECTION('ref_axis',(-5.55111512312525E-16,-3.31284709714931E-15,
1.));
#483=DIRECTION('center_axis',(9.64077206394492E-16,-1.,-3.31284709714931E-15));
#484=DIRECTION('ref_axis',(-5.55111512312525E-16,-3.31284709714931E-15,
1.));
#485=DIRECTION('',(-9.64077206394492E-16,1.,3.31284709714931E-15));
#486=DIRECTION('center_axis',(-9.64077206394492E-16,1.,3.31284709714931E-15));
#487=DIRECTION('ref_axis',(-5.55111512312525E-16,-3.31284709714931E-15,
1.));
#488=DIRECTION('center_axis',(-9.64077206394492E-16,1.,3.31284709714931E-15));
#489=DIRECTION('ref_axis',(-5.55111512312525E-16,-3.31284709714931E-15,
1.));
#490=DIRECTION('center_axis',(-9.64077206394492E-16,1.,3.31284709714931E-15));
#491=DIRECTION('ref_axis',(-5.55111512312525E-16,-3.31284709714931E-15,
1.));
#492=CARTESIAN_POINT('',(0.,0.,0.));
#493=CARTESIAN_POINT('Origin',(-5.00000000000027,20.9999999999998,3.15842527496999E-13));
#494=CARTESIAN_POINT('',(9.14213562373071,20.9999999999998,14.1421356237312));
#495=CARTESIAN_POINT('',(16.2132034355962,20.9999999999998,21.2132034355967));
#496=CARTESIAN_POINT('',(2.07106781186524,20.9999999999998,7.07106781186574));
#497=CARTESIAN_POINT('',(9.14213562373071,20.9999999999999,-14.1421356237307));
#498=CARTESIAN_POINT('Origin',(-5.00000000000025,20.9999999999998,2.46344026363768E-13));
#499=CARTESIAN_POINT('',(16.2132034355961,20.9999999999999,-21.2132034355961));
#500=CARTESIAN_POINT('',(7.37436867076431,20.9999999999999,-12.3743686707643));
#501=CARTESIAN_POINT('Origin',(-5.00000000000027,20.9999999999998,3.15842527496999E-13));
#502=CARTESIAN_POINT('',(-11.6497474683057,20.9999999999998,4.94974746830566));
#503=CARTESIAN_POINT('Origin',(-9.94974746830568,20.9999999999998,4.94974746830567));
#504=CARTESIAN_POINT('',(-1.7502525316947,20.9999999999998,4.94974746830566));
#505=CARTESIAN_POINT('Origin',(-0.0502525316947068,20.9999999999998,4.94974746830567));
#506=CARTESIAN_POINT('',(-11.6497474683057,20.9999999999998,-4.94974746830535));
#507=CARTESIAN_POINT('Origin',(-9.94974746830568,20.9999999999998,-4.94974746830534));
#508=CARTESIAN_POINT('',(-1.7502525316947,20.9999999999998,-4.94974746830535));
#509=CARTESIAN_POINT('Origin',(-0.0502525316947068,20.9999999999998,-4.94974746830534));
#510=CARTESIAN_POINT('Origin',(-5.00000000000025,17.9999999999998,2.46344026363768E-13));
#511=CARTESIAN_POINT('',(9.14213562373071,17.9999999999998,14.1421356237312));
#512=CARTESIAN_POINT('',(9.14213562373071,17.9999999999998,14.1421356237312));
#513=CARTESIAN_POINT('',(9.14213562373071,17.9999999999998,-14.1421356237307));
#514=CARTESIAN_POINT('Origin',(-5.00000000000025,17.9999999999998,2.46344026363768E-13));
#515=CARTESIAN_POINT('',(9.14213562373071,17.9999999999998,-14.1421356237307));
#516=CARTESIAN_POINT('Origin',(9.14213562373071,17.9999999999998,14.1421356237312));
#517=CARTESIAN_POINT('',(16.2132034355962,27.9999999999998,21.2132034355967));
#518=CARTESIAN_POINT('',(16.2132034355962,24.9999999999998,21.2132034355967));
#519=CARTESIAN_POINT('',(19.7487373415289,27.9999999999998,24.7487373415294));
#520=CARTESIAN_POINT('',(2.07106781186525,27.9999999999998,7.07106781186575));
#521=CARTESIAN_POINT('',(19.7487373415289,17.9999999999998,24.7487373415294));
#522=CARTESIAN_POINT('',(19.7487373415289,17.9999999999998,24.7487373415294));
#523=CARTESIAN_POINT('',(2.07106781186524,17.9999999999998,7.07106781186573));
#524=CARTESIAN_POINT('Origin',(-9.94974746830568,17.9999999999998,4.94974746830567));
#525=CARTESIAN_POINT('',(-11.6497474683057,19.9999999999998,4.94974746830567));
#526=CARTESIAN_POINT('Origin',(-9.94974746830568,19.9999999999998,4.94974746830567));
#527=CARTESIAN_POINT('',(-11.6497474683057,17.9999999999998,4.94974746830567));
#528=CARTESIAN_POINT('Origin',(-0.0502525316947068,17.9999999999998,4.94974746830567));
#529=CARTESIAN_POINT('',(-1.75025253169471,19.9999999999998,4.94974746830567));
#530=CARTESIAN_POINT('Origin',(-0.0502525316947068,19.9999999999998,4.94974746830567));
#531=CARTESIAN_POINT('',(-1.75025253169471,17.9999999999998,4.94974746830567));
#532=CARTESIAN_POINT('Origin',(-9.94974746830568,17.9999999999998,-4.94974746830534));
#533=CARTESIAN_POINT('',(-11.6497474683057,19.9999999999998,-4.94974746830534));
#534=CARTESIAN_POINT('Origin',(-9.94974746830568,19.9999999999998,-4.94974746830534));
#535=CARTESIAN_POINT('',(-11.6497474683057,17.9999999999998,-4.94974746830534));
#536=CARTESIAN_POINT('Origin',(-0.0502525316947068,17.9999999999998,-4.94974746830534));
#537=CARTESIAN_POINT('',(-1.75025253169471,19.9999999999998,-4.94974746830534));
#538=CARTESIAN_POINT('Origin',(-0.0502525316947068,19.9999999999998,-4.94974746830534));
#539=CARTESIAN_POINT('',(-1.75025253169471,17.9999999999998,-4.94974746830534));
#540=CARTESIAN_POINT('Origin',(19.7487373415289,17.9999999999998,-24.7487373415289));
#541=CARTESIAN_POINT('',(19.7487373415289,17.9999999999998,-24.7487373415289));
#542=CARTESIAN_POINT('',(7.37436867076432,17.9999999999999,-12.3743686707643));
#543=CARTESIAN_POINT('',(19.7487373415289,27.9999999999999,-24.7487373415289));
#544=CARTESIAN_POINT('',(19.7487373415289,17.9999999999998,-24.7487373415289));
#545=CARTESIAN_POINT('',(16.2132034355961,27.9999999999999,-21.2132034355961));
#546=CARTESIAN_POINT('',(7.3743686707643,27.9999999999999,-12.3743686707643));
#547=CARTESIAN_POINT('',(16.2132034355961,27.9999999999999,-21.2132034355961));
#548=CARTESIAN_POINT('Origin',(-5.00000000000025,17.9999999999998,2.46344026363768E-13));
#549=CARTESIAN_POINT('Origin',(-5.00000000000025,27.9999999999998,2.46344026363768E-13));
#550=CARTESIAN_POINT('Origin',(-5.00000000000025,17.9999999999998,2.46344026363768E-13));
#551=CARTESIAN_POINT('Origin',(-5.00000000000027,27.9999999999998,3.39103745083948E-13));
#552=CARTESIAN_POINT('Origin',(-5.00000000000027,27.9999999999998,3.39103745083948E-13));
#553=CARTESIAN_POINT('Origin',(-5.,27.9999999999999,-40.));
#554=CARTESIAN_POINT('',(-3.2,27.9999999999999,-40.));
#555=CARTESIAN_POINT('Origin',(-5.,27.9999999999998,-40.));
#556=CARTESIAN_POINT('',(-3.2,23.9999999999999,-40.));
#557=CARTESIAN_POINT('',(-3.2,27.9999999999999,-40.));
#558=CARTESIAN_POINT('Origin',(-5.,23.9999999999999,-40.));
#559=CARTESIAN_POINT('Origin',(-5.,23.9999999999999,-40.));
#560=CARTESIAN_POINT('Origin',(-5.,27.9999999999999,40.));
#561=CARTESIAN_POINT('',(-3.2,27.9999999999999,40.));
#562=CARTESIAN_POINT('Origin',(-5.,27.9999999999998,40.));
#563=CARTESIAN_POINT('',(-3.2,23.9999999999999,40.));
#564=CARTESIAN_POINT('',(-3.2,27.9999999999999,40.));
#565=CARTESIAN_POINT('Origin',(-5.,23.9999999999999,40.));
#566=CARTESIAN_POINT('Origin',(-5.,23.9999999999999,40.));
#567=CARTESIAN_POINT('Origin',(-5.00000000000026,17.9999999999998,3.05975274112455E-13));
#568=CARTESIAN_POINT('',(-5.00000000000026,17.9999999999999,-10.9999999999997));
#569=CARTESIAN_POINT('Origin',(-5.00000000000026,17.9999999999998,3.05975274112455E-13));
#570=CARTESIAN_POINT('',(-5.00000000000026,19.9999999999999,-10.9999999999997));
#571=CARTESIAN_POINT('',(-5.00000000000026,17.9999999999999,-10.9999999999997));
#572=CARTESIAN_POINT('Origin',(-5.00000000000027,19.9999999999998,3.12600968306754E-13));
#573=CARTESIAN_POINT('Origin',(-5.00000000000027,19.9999999999998,3.12600968306754E-13));
#574=CARTESIAN_POINT('Origin',(-5.00000000000027,27.9999999999998,3.39103745083948E-13));
#575=CARTESIAN_POINT('',(-5.00000000000023,18.,-49.9999999999997));
#576=CARTESIAN_POINT('Origin',(-5.00000000000026,17.9999999999998,3.05975274112455E-13));
#577=CARTESIAN_POINT('',(-5.00000000000024,28.,-49.9999999999997));
#578=CARTESIAN_POINT('',(-5.00000000000024,28.,-49.9999999999997));
#579=CARTESIAN_POINT('Origin',(-5.00000000000027,27.9999999999998,3.39103745083948E-13));
#580=CARTESIAN_POINT('Origin',(-5.00000000000027,27.9999999999998,3.39103745083948E-13));
#581=CARTESIAN_POINT('Origin',(-5.00000000000026,17.9999999999998,3.05975274112455E-13));
#582=UNCERTAINTY_MEASURE_WITH_UNIT(LENGTH_MEASURE(0.01),#586,
'DISTANCE_ACCURACY_VALUE',
'Maximum model space distance between geometric entities at asserted c
onnectivities');
#583=UNCERTAINTY_MEASURE_WITH_UNIT(LENGTH_MEASURE(0.01),#586,
'DISTANCE_ACCURACY_VALUE',
'Maximum model space distance between geometric entities at asserted c
onnectivities');
#584=(
GEOMETRIC_REPRESENTATION_CONTEXT(3)
GLOBAL_UNCERTAINTY_ASSIGNED_CONTEXT((#582))
GLOBAL_UNIT_ASSIGNED_CONTEXT((#586,#588,#589))
REPRESENTATION_CONTEXT('','3D')
);
#585=(
GEOMETRIC_REPRESENTATION_CONTEXT(3)
GLOBAL_UNCERTAINTY_ASSIGNED_CONTEXT((#583))
GLOBAL_UNIT_ASSIGNED_CONTEXT((#586,#588,#589))
REPRESENTATION_CONTEXT('','3D')
);
#586=(
LENGTH_UNIT()
NAMED_UNIT(*)
SI_UNIT(.MILLI.,.METRE.)
);
#587=(
LENGTH_UNIT()
NAMED_UNIT(*)
SI_UNIT($,.METRE.)
);
#588=(
NAMED_UNIT(*)
PLANE_ANGLE_UNIT()
SI_UNIT($,.RADIAN.)
);
#589=(
NAMED_UNIT(*)
SI_UNIT($,.STERADIAN.)
SOLID_ANGLE_UNIT()
);
#590=SHAPE_DEFINITION_REPRESENTATION(#591,#592);
#591=PRODUCT_DEFINITION_SHAPE('',$,#594);
#592=SHAPE_REPRESENTATION('',(#346),#584);
#593=PRODUCT_DEFINITION_CONTEXT('part definition',#598,'design');
#594=PRODUCT_DEFINITION('Connection','Connection',#595,#593);
#595=PRODUCT_DEFINITION_FORMATION('',$,#600);
#596=PRODUCT_RELATED_PRODUCT_CATEGORY('Connection','Connection',(#600));
#597=APPLICATION_PROTOCOL_DEFINITION('international standard',
'automotive_design',2009,#598);
#598=APPLICATION_CONTEXT(
'Core Data for Automotive Mechanical Design Process');
#599=PRODUCT_CONTEXT('part definition',#598,'mechanical');
#600=PRODUCT('Connection','Connection',$,(#599));
#601=PRESENTATION_STYLE_ASSIGNMENT((#603));
#602=PRESENTATION_STYLE_ASSIGNMENT((#604));
#603=SURFACE_STYLE_USAGE(.BOTH.,#605);
#604=SURFACE_STYLE_USAGE(.BOTH.,#606);
#605=SURFACE_SIDE_STYLE('',(#607));
#606=SURFACE_SIDE_STYLE('',(#608));
#607=SURFACE_STYLE_FILL_AREA(#609);
#608=SURFACE_STYLE_FILL_AREA(#610);
#609=FILL_AREA_STYLE('Steel - Satin',(#611));
#610=FILL_AREA_STYLE('Plastic - Translucent Matte (Blue)(1)',(#612));
#611=FILL_AREA_STYLE_COLOUR('Steel - Satin',#613);
#612=FILL_AREA_STYLE_COLOUR('Plastic - Translucent Matte (Blue)(1)',#614);
#613=COLOUR_RGB('Steel - Satin',0.627450980392157,0.627450980392157,0.627450980392157);
#614=COLOUR_RGB('Plastic - Translucent Matte (Blue)(1)',0.,0.,0.);
ENDSEC;
END-ISO-10303-21;
