ISO-10303-21;
HEADER;
/* Generated by software containing ST-Developer
 * from STEP Tools, Inc. (www.steptools.com) 
 */

FILE_DESCRIPTION(
/* description */ (''),
/* implementation_level */ '2;1');

FILE_NAME(
/* name */ 'Car Cover.step',
/* time_stamp */ '2026-04-06T15:04:01+02:00',
/* author */ (''),
/* organization */ (''),
/* preprocessor_version */ 'ST-DEVELOPER v20.1',
/* originating_system */ 'Autodesk Translation Framework v14.24.0.0',
/* authorisation */ '');

FILE_SCHEMA (('AUTOMOTIVE_DESIGN { 1 0 10303 214 3 1 1 }'));
ENDSEC;

DATA;
#10=MECHANICAL_DESIGN_GEOMETRIC_PRESENTATION_REPRESENTATION('',(#13),#1718);
#11=SHAPE_REPRESENTATION_RELATIONSHIP('SRR','None',#1725,#12);
#12=ADVANCED_BREP_SHAPE_REPRESENTATION('',(#14),#1717);
#13=STYLED_ITEM('',(#1735),#14);
#14=MANIFOLD_SOLID_BREP('Cover',#898);
#15=SPHERICAL_SURFACE('',#1004,20.);
#16=SPHERICAL_SURFACE('',#1009,20.);
#17=SPHERICAL_SURFACE('',#1011,20.);
#18=SPHERICAL_SURFACE('',#1013,20.);
#19=B_SPLINE_CURVE_WITH_KNOTS('',3,(#1484,#1485,#1486,#1487,#1488,#1489,
#1490,#1491,#1492,#1493,#1494,#1495,#1496,#1497,#1498,#1499,#1500,#1501,
#1502,#1503,#1504,#1505),.UNSPECIFIED.,.F.,.F.,(4,2,2,2,2,2,2,2,2,2,4),
(0.,0.12007972576599,0.180119588648985,0.24015945153198,0.30445922991215,
0.368759008292321,0.497358565052662,0.654415748436508,0.811472931820354,
0.993232840521082,1.17499274922181),.UNSPECIFIED.);
#20=B_SPLINE_CURVE_WITH_KNOTS('',3,(#1506,#1507,#1508,#1509,#1510,#1511,
#1512,#1513,#1514,#1515,#1516,#1517,#1518,#1519,#1520,#1521,#1522,#1523,
#1524,#1525,#1526,#1527),.UNSPECIFIED.,.F.,.F.,(4,2,2,2,2,2,2,2,2,2,4),
(1.17499274922181,1.33077401194809,1.3809952551645,1.43121649838092,1.50725979286682,
1.58330308735273,1.73538967632454,1.92339335911703,2.11139704190951,2.25618558636354,
2.40097413081756),.UNSPECIFIED.);
#21=B_SPLINE_CURVE_WITH_KNOTS('',3,(#1532,#1533,#1534,#1535,#1536,#1537,
#1538,#1539,#1540,#1541,#1542,#1543,#1544,#1545,#1546,#1547,#1548,#1549,
#1550,#1551,#1552,#1553),.UNSPECIFIED.,.F.,.F.,(4,2,2,2,2,2,2,2,2,2,4),
(0.,0.144788544454024,0.289577088908049,0.477580771700536,0.665584454493023,
0.817671043464833,0.893714337950738,0.969757632436642,1.01997887565306,
1.07020011886948,1.22598138159575),.UNSPECIFIED.);
#22=B_SPLINE_CURVE_WITH_KNOTS('',3,(#1554,#1555,#1556,#1557,#1558,#1559,
#1560,#1561,#1562,#1563,#1564,#1565,#1566,#1567,#1568,#1569,#1570,#1571,
#1572,#1573,#1574,#1575),.UNSPECIFIED.,.F.,.F.,(4,2,2,2,2,2,2,2,2,2,4),
(1.22598138159575,1.40774129029648,1.58950119899721,1.74655838238105,1.9036155657649,
2.03221512252524,2.09651490090541,2.16081467928558,2.22085454216858,2.28089440505157,
2.40097413081756),.UNSPECIFIED.);
#23=B_SPLINE_CURVE_WITH_KNOTS('',3,(#1580,#1581,#1582,#1583,#1584,#1585,
#1586,#1587,#1588,#1589,#1590,#1591,#1592,#1593,#1594,#1595,#1596,#1597,
#1598,#1599,#1600,#1601),.UNSPECIFIED.,.F.,.F.,(4,2,2,2,2,2,2,2,2,2,4),
(0.,0.181759908700728,0.363519817401455,0.520577000785301,0.677634184169147,
0.806233740929488,0.870533519309659,0.934833297689829,0.994873160572824,
1.05491302345582,1.17499274922181),.UNSPECIFIED.);
#24=B_SPLINE_CURVE_WITH_KNOTS('',3,(#1602,#1603,#1604,#1605,#1606,#1607,
#1608,#1609,#1610,#1611,#1612,#1613,#1614,#1615,#1616,#1617,#1618,#1619,
#1620,#1621,#1622,#1623),.UNSPECIFIED.,.F.,.F.,(4,2,2,2,2,2,2,2,2,2,4),
(1.17499274922181,1.31978129367583,1.46456983812986,1.65257352092235,1.84057720371483,
1.99266379268664,2.06870708717255,2.14475038165845,2.19497162487487,2.24519286809129,
2.40097413081756),.UNSPECIFIED.);
#25=B_SPLINE_CURVE_WITH_KNOTS('',3,(#1628,#1629,#1630,#1631,#1632,#1633,
#1634,#1635,#1636,#1637,#1638,#1639,#1640,#1641,#1642,#1643,#1644,#1645,
#1646,#1647,#1648,#1649),.UNSPECIFIED.,.F.,.F.,(4,2,2,2,2,2,2,2,2,2,4),
(0.,0.155781262726277,0.206002505942694,0.256223749159111,0.332267043645015,
0.40831033813092,0.56039692710273,0.748400609895217,0.936404292687704,1.08119283714173,
1.22598138159575),.UNSPECIFIED.);
#26=B_SPLINE_CURVE_WITH_KNOTS('',3,(#1650,#1651,#1652,#1653,#1654,#1655,
#1656,#1657,#1658,#1659,#1660,#1661,#1662,#1663,#1664,#1665,#1666,#1667,
#1668,#1669,#1670,#1671),.UNSPECIFIED.,.F.,.F.,(4,2,2,2,2,2,2,2,2,2,4),
(1.22598138159575,1.34606110736174,1.40610097024474,1.46614083312773,1.5304406115079,
1.59474038988807,1.72333994664841,1.88039713003226,2.03745431341611,2.21921422211683,
2.40097413081756),.UNSPECIFIED.);
#27=FACE_BOUND('',#207,.T.);
#28=FACE_BOUND('',#209,.T.);
#29=FACE_BOUND('',#211,.T.);
#30=FACE_BOUND('',#213,.T.);
#31=FACE_BOUND('',#223,.T.);
#32=FACE_BOUND('',#224,.T.);
#33=FACE_BOUND('',#225,.T.);
#34=FACE_BOUND('',#226,.T.);
#35=FACE_BOUND('',#227,.T.);
#36=FACE_BOUND('',#228,.T.);
#37=FACE_BOUND('',#233,.T.);
#38=FACE_BOUND('',#236,.T.);
#39=FACE_BOUND('',#238,.T.);
#40=FACE_BOUND('',#240,.T.);
#41=FACE_BOUND('',#242,.T.);
#42=FACE_BOUND('',#243,.T.);
#43=FACE_BOUND('',#244,.T.);
#44=FACE_BOUND('',#245,.T.);
#45=FACE_BOUND('',#246,.T.);
#46=CIRCLE('',#914,29.9999999999999);
#47=CIRCLE('',#915,29.9999999999999);
#48=CIRCLE('',#918,29.9999999999999);
#49=CIRCLE('',#919,29.9999999999999);
#50=CIRCLE('',#922,30.);
#51=CIRCLE('',#923,30.);
#52=CIRCLE('',#927,4.99999999999999);
#53=CIRCLE('',#928,4.99999999999999);
#54=CIRCLE('',#931,5.);
#55=CIRCLE('',#932,5.);
#56=CIRCLE('',#935,29.9999999999999);
#57=CIRCLE('',#936,29.9999999999999);
#58=CIRCLE('',#940,0.499999999999998);
#59=CIRCLE('',#941,0.499999999999998);
#60=CIRCLE('',#944,0.499999999999998);
#61=CIRCLE('',#945,0.499999999999998);
#62=CIRCLE('',#948,0.499999999999998);
#63=CIRCLE('',#949,0.499999999999998);
#64=CIRCLE('',#952,0.499999999999989);
#65=CIRCLE('',#953,0.499999999999989);
#66=CIRCLE('',#955,1.8);
#67=CIRCLE('',#956,1.8);
#68=CIRCLE('',#959,1.8);
#69=CIRCLE('',#960,1.8);
#70=CIRCLE('',#963,1.8);
#71=CIRCLE('',#964,1.8);
#72=CIRCLE('',#967,1.80000000000001);
#73=CIRCLE('',#968,1.80000000000001);
#74=CIRCLE('',#971,3.00000000000001);
#75=CIRCLE('',#972,1.6);
#76=CIRCLE('',#974,3.00000000000001);
#77=CIRCLE('',#975,1.6);
#78=CIRCLE('',#977,3.00000000000001);
#79=CIRCLE('',#978,1.6);
#80=CIRCLE('',#980,3.00000000000001);
#81=CIRCLE('',#981,1.6);
#82=CIRCLE('',#983,1.6);
#83=CIRCLE('',#985,1.6);
#84=CIRCLE('',#987,1.6);
#85=CIRCLE('',#989,1.6);
#86=CIRCLE('',#996,20.);
#87=CIRCLE('',#997,20.);
#88=CIRCLE('',#999,20.);
#89=CIRCLE('',#1000,20.);
#90=CIRCLE('',#1002,20.);
#91=CIRCLE('',#1003,20.);
#92=CIRCLE('',#1005,20.);
#93=CIRCLE('',#1007,20.);
#94=CIRCLE('',#1008,20.);
#95=CIRCLE('',#1010,20.);
#96=CIRCLE('',#1012,20.);
#97=CIRCLE('',#1014,20.);
#98=CYLINDRICAL_SURFACE('',#913,29.9999999999999);
#99=CYLINDRICAL_SURFACE('',#917,29.9999999999999);
#100=CYLINDRICAL_SURFACE('',#921,30.);
#101=CYLINDRICAL_SURFACE('',#926,4.99999999999999);
#102=CYLINDRICAL_SURFACE('',#930,5.);
#103=CYLINDRICAL_SURFACE('',#934,29.9999999999999);
#104=CYLINDRICAL_SURFACE('',#939,0.499999999999998);
#105=CYLINDRICAL_SURFACE('',#943,0.499999999999998);
#106=CYLINDRICAL_SURFACE('',#947,0.499999999999998);
#107=CYLINDRICAL_SURFACE('',#951,0.499999999999989);
#108=CYLINDRICAL_SURFACE('',#954,1.8);
#109=CYLINDRICAL_SURFACE('',#958,1.8);
#110=CYLINDRICAL_SURFACE('',#962,1.8);
#111=CYLINDRICAL_SURFACE('',#966,1.80000000000001);
#112=CYLINDRICAL_SURFACE('',#982,1.6);
#113=CYLINDRICAL_SURFACE('',#984,1.6);
#114=CYLINDRICAL_SURFACE('',#986,1.6);
#115=CYLINDRICAL_SURFACE('',#988,1.6);
#116=CYLINDRICAL_SURFACE('',#990,3.00000000000001);
#117=CYLINDRICAL_SURFACE('',#991,3.00000000000001);
#118=CYLINDRICAL_SURFACE('',#992,3.00000000000001);
#119=CYLINDRICAL_SURFACE('',#993,3.00000000000001);
#120=CYLINDRICAL_SURFACE('',#995,20.);
#121=CYLINDRICAL_SURFACE('',#998,20.);
#122=CYLINDRICAL_SURFACE('',#1001,20.);
#123=CYLINDRICAL_SURFACE('',#1006,20.);
#124=FACE_OUTER_BOUND('',#176,.T.);
#125=FACE_OUTER_BOUND('',#177,.T.);
#126=FACE_OUTER_BOUND('',#178,.T.);
#127=FACE_OUTER_BOUND('',#179,.T.);
#128=FACE_OUTER_BOUND('',#180,.T.);
#129=FACE_OUTER_BOUND('',#181,.T.);
#130=FACE_OUTER_BOUND('',#182,.T.);
#131=FACE_OUTER_BOUND('',#183,.T.);
#132=FACE_OUTER_BOUND('',#184,.T.);
#133=FACE_OUTER_BOUND('',#185,.T.);
#134=FACE_OUTER_BOUND('',#186,.T.);
#135=FACE_OUTER_BOUND('',#187,.T.);
#136=FACE_OUTER_BOUND('',#188,.T.);
#137=FACE_OUTER_BOUND('',#189,.T.);
#138=FACE_OUTER_BOUND('',#190,.T.);
#139=FACE_OUTER_BOUND('',#191,.T.);
#140=FACE_OUTER_BOUND('',#192,.T.);
#141=FACE_OUTER_BOUND('',#193,.T.);
#142=FACE_OUTER_BOUND('',#194,.T.);
#143=FACE_OUTER_BOUND('',#195,.T.);
#144=FACE_OUTER_BOUND('',#196,.T.);
#145=FACE_OUTER_BOUND('',#197,.T.);
#146=FACE_OUTER_BOUND('',#198,.T.);
#147=FACE_OUTER_BOUND('',#199,.T.);
#148=FACE_OUTER_BOUND('',#200,.T.);
#149=FACE_OUTER_BOUND('',#201,.T.);
#150=FACE_OUTER_BOUND('',#202,.T.);
#151=FACE_OUTER_BOUND('',#203,.T.);
#152=FACE_OUTER_BOUND('',#204,.T.);
#153=FACE_OUTER_BOUND('',#205,.T.);
#154=FACE_OUTER_BOUND('',#206,.T.);
#155=FACE_OUTER_BOUND('',#208,.T.);
#156=FACE_OUTER_BOUND('',#210,.T.);
#157=FACE_OUTER_BOUND('',#212,.T.);
#158=FACE_OUTER_BOUND('',#214,.T.);
#159=FACE_OUTER_BOUND('',#215,.T.);
#160=FACE_OUTER_BOUND('',#216,.T.);
#161=FACE_OUTER_BOUND('',#217,.T.);
#162=FACE_OUTER_BOUND('',#218,.T.);
#163=FACE_OUTER_BOUND('',#219,.T.);
#164=FACE_OUTER_BOUND('',#220,.T.);
#165=FACE_OUTER_BOUND('',#221,.T.);
#166=FACE_OUTER_BOUND('',#222,.T.);
#167=FACE_OUTER_BOUND('',#229,.T.);
#168=FACE_OUTER_BOUND('',#230,.T.);
#169=FACE_OUTER_BOUND('',#231,.T.);
#170=FACE_OUTER_BOUND('',#232,.T.);
#171=FACE_OUTER_BOUND('',#234,.T.);
#172=FACE_OUTER_BOUND('',#235,.T.);
#173=FACE_OUTER_BOUND('',#237,.T.);
#174=FACE_OUTER_BOUND('',#239,.T.);
#175=FACE_OUTER_BOUND('',#241,.T.);
#176=EDGE_LOOP('',(#578,#579,#580,#581));
#177=EDGE_LOOP('',(#582,#583,#584,#585));
#178=EDGE_LOOP('',(#586,#587,#588,#589));
#179=EDGE_LOOP('',(#590,#591,#592,#593));
#180=EDGE_LOOP('',(#594,#595,#596,#597));
#181=EDGE_LOOP('',(#598,#599,#600,#601));
#182=EDGE_LOOP('',(#602,#603,#604,#605));
#183=EDGE_LOOP('',(#606,#607,#608,#609));
#184=EDGE_LOOP('',(#610,#611,#612,#613));
#185=EDGE_LOOP('',(#614,#615,#616,#617));
#186=EDGE_LOOP('',(#618,#619,#620,#621));
#187=EDGE_LOOP('',(#622,#623,#624,#625));
#188=EDGE_LOOP('',(#626,#627,#628,#629));
#189=EDGE_LOOP('',(#630,#631,#632,#633,#634,#635,#636,#637,#638,#639,#640,
#641,#642));
#190=EDGE_LOOP('',(#643,#644,#645,#646));
#191=EDGE_LOOP('',(#647,#648,#649,#650));
#192=EDGE_LOOP('',(#651,#652,#653,#654));
#193=EDGE_LOOP('',(#655,#656,#657,#658));
#194=EDGE_LOOP('',(#659,#660,#661,#662));
#195=EDGE_LOOP('',(#663,#664,#665,#666));
#196=EDGE_LOOP('',(#667,#668,#669,#670));
#197=EDGE_LOOP('',(#671,#672,#673,#674));
#198=EDGE_LOOP('',(#675,#676,#677,#678));
#199=EDGE_LOOP('',(#679));
#200=EDGE_LOOP('',(#680,#681,#682,#683));
#201=EDGE_LOOP('',(#684));
#202=EDGE_LOOP('',(#685,#686,#687,#688));
#203=EDGE_LOOP('',(#689));
#204=EDGE_LOOP('',(#690,#691,#692,#693));
#205=EDGE_LOOP('',(#694));
#206=EDGE_LOOP('',(#695));
#207=EDGE_LOOP('',(#696));
#208=EDGE_LOOP('',(#697));
#209=EDGE_LOOP('',(#698));
#210=EDGE_LOOP('',(#699));
#211=EDGE_LOOP('',(#700));
#212=EDGE_LOOP('',(#701));
#213=EDGE_LOOP('',(#702));
#214=EDGE_LOOP('',(#703,#704,#705,#706));
#215=EDGE_LOOP('',(#707,#708,#709,#710));
#216=EDGE_LOOP('',(#711,#712,#713,#714));
#217=EDGE_LOOP('',(#715,#716,#717,#718));
#218=EDGE_LOOP('',(#719,#720,#721,#722,#723));
#219=EDGE_LOOP('',(#724,#725,#726,#727,#728));
#220=EDGE_LOOP('',(#729,#730,#731,#732,#733));
#221=EDGE_LOOP('',(#734,#735,#736,#737,#738));
#222=EDGE_LOOP('',(#739,#740,#741,#742));
#223=EDGE_LOOP('',(#743,#744,#745,#746,#747,#748,#749,#750,#751,#752,#753,
#754,#755));
#224=EDGE_LOOP('',(#756,#757,#758,#759,#760,#761,#762,#763));
#225=EDGE_LOOP('',(#764));
#226=EDGE_LOOP('',(#765));
#227=EDGE_LOOP('',(#766));
#228=EDGE_LOOP('',(#767));
#229=EDGE_LOOP('',(#768,#769,#770,#771));
#230=EDGE_LOOP('',(#772,#773,#774,#775));
#231=EDGE_LOOP('',(#776,#777,#778,#779));
#232=EDGE_LOOP('',(#780,#781,#782));
#233=EDGE_LOOP('',(#783,#784));
#234=EDGE_LOOP('',(#785,#786,#787,#788));
#235=EDGE_LOOP('',(#789,#790,#791));
#236=EDGE_LOOP('',(#792,#793));
#237=EDGE_LOOP('',(#794,#795,#796));
#238=EDGE_LOOP('',(#797,#798));
#239=EDGE_LOOP('',(#799,#800,#801));
#240=EDGE_LOOP('',(#802,#803));
#241=EDGE_LOOP('',(#804,#805,#806,#807,#808,#809,#810,#811));
#242=EDGE_LOOP('',(#812,#813,#814,#815,#816,#817,#818,#819));
#243=EDGE_LOOP('',(#820));
#244=EDGE_LOOP('',(#821));
#245=EDGE_LOOP('',(#822));
#246=EDGE_LOOP('',(#823));
#247=LINE('',#1293,#310);
#248=LINE('',#1295,#311);
#249=LINE('',#1297,#312);
#250=LINE('',#1298,#313);
#251=LINE('',#1303,#314);
#252=LINE('',#1307,#315);
#253=LINE('',#1309,#316);
#254=LINE('',#1310,#317);
#255=LINE('',#1315,#318);
#256=LINE('',#1319,#319);
#257=LINE('',#1321,#320);
#258=LINE('',#1322,#321);
#259=LINE('',#1327,#322);
#260=LINE('',#1331,#323);
#261=LINE('',#1333,#324);
#262=LINE('',#1334,#325);
#263=LINE('',#1337,#326);
#264=LINE('',#1339,#327);
#265=LINE('',#1340,#328);
#266=LINE('',#1345,#329);
#267=LINE('',#1349,#330);
#268=LINE('',#1351,#331);
#269=LINE('',#1352,#332);
#270=LINE('',#1357,#333);
#271=LINE('',#1361,#334);
#272=LINE('',#1363,#335);
#273=LINE('',#1364,#336);
#274=LINE('',#1372,#337);
#275=LINE('',#1374,#338);
#276=LINE('',#1376,#339);
#277=LINE('',#1377,#340);
#278=LINE('',#1382,#341);
#279=LINE('',#1386,#342);
#280=LINE('',#1388,#343);
#281=LINE('',#1389,#344);
#282=LINE('',#1394,#345);
#283=LINE('',#1398,#346);
#284=LINE('',#1400,#347);
#285=LINE('',#1401,#348);
#286=LINE('',#1406,#349);
#287=LINE('',#1410,#350);
#288=LINE('',#1412,#351);
#289=LINE('',#1413,#352);
#290=LINE('',#1421,#353);
#291=LINE('',#1428,#354);
#292=LINE('',#1435,#355);
#293=LINE('',#1442,#356);
#294=LINE('',#1467,#357);
#295=LINE('',#1471,#358);
#296=LINE('',#1475,#359);
#297=LINE('',#1479,#360);
#298=LINE('',#1528,#361);
#299=LINE('',#1576,#362);
#300=LINE('',#1624,#363);
#301=LINE('',#1672,#364);
#302=LINE('',#1676,#365);
#303=LINE('',#1678,#366);
#304=LINE('',#1680,#367);
#305=LINE('',#1681,#368);
#306=LINE('',#1687,#369);
#307=LINE('',#1693,#370);
#308=LINE('',#1699,#371);
#309=LINE('',#1707,#372);
#310=VECTOR('',#1020,10.);
#311=VECTOR('',#1021,10.);
#312=VECTOR('',#1022,10.);
#313=VECTOR('',#1023,10.);
#314=VECTOR('',#1028,10.);
#315=VECTOR('',#1033,10.);
#316=VECTOR('',#1034,10.);
#317=VECTOR('',#1035,10.);
#318=VECTOR('',#1040,10.);
#319=VECTOR('',#1045,10.);
#320=VECTOR('',#1046,10.);
#321=VECTOR('',#1047,10.);
#322=VECTOR('',#1052,10.);
#323=VECTOR('',#1057,10.);
#324=VECTOR('',#1058,10.);
#325=VECTOR('',#1059,10.);
#326=VECTOR('',#1062,10.);
#327=VECTOR('',#1063,10.);
#328=VECTOR('',#1064,10.);
#329=VECTOR('',#1069,10.);
#330=VECTOR('',#1074,10.);
#331=VECTOR('',#1075,10.);
#332=VECTOR('',#1076,10.);
#333=VECTOR('',#1081,10.);
#334=VECTOR('',#1086,10.);
#335=VECTOR('',#1087,10.);
#336=VECTOR('',#1088,10.);
#337=VECTOR('',#1099,10.);
#338=VECTOR('',#1100,10.);
#339=VECTOR('',#1101,10.);
#340=VECTOR('',#1102,10.);
#341=VECTOR('',#1107,10.);
#342=VECTOR('',#1112,10.);
#343=VECTOR('',#1113,10.);
#344=VECTOR('',#1114,10.);
#345=VECTOR('',#1119,10.);
#346=VECTOR('',#1124,10.);
#347=VECTOR('',#1125,10.);
#348=VECTOR('',#1126,10.);
#349=VECTOR('',#1131,10.);
#350=VECTOR('',#1136,10.);
#351=VECTOR('',#1137,10.);
#352=VECTOR('',#1138,10.);
#353=VECTOR('',#1149,1.8);
#354=VECTOR('',#1158,1.8);
#355=VECTOR('',#1167,1.8);
#356=VECTOR('',#1176,1.80000000000001);
#357=VECTOR('',#1207,1.6);
#358=VECTOR('',#1212,1.6);
#359=VECTOR('',#1217,1.6);
#360=VECTOR('',#1222,1.6);
#361=VECTOR('',#1227,3.00000000000001);
#362=VECTOR('',#1230,3.00000000000001);
#363=VECTOR('',#1233,3.00000000000001);
#364=VECTOR('',#1236,3.00000000000001);
#365=VECTOR('',#1239,10.);
#366=VECTOR('',#1240,10.);
#367=VECTOR('',#1241,10.);
#368=VECTOR('',#1242,10.);
#369=VECTOR('',#1249,10.);
#370=VECTOR('',#1256,10.);
#371=VECTOR('',#1263,10.);
#372=VECTOR('',#1274,10.);
#373=VERTEX_POINT('',#1291);
#374=VERTEX_POINT('',#1292);
#375=VERTEX_POINT('',#1294);
#376=VERTEX_POINT('',#1296);
#377=VERTEX_POINT('',#1300);
#378=VERTEX_POINT('',#1302);
#379=VERTEX_POINT('',#1306);
#380=VERTEX_POINT('',#1308);
#381=VERTEX_POINT('',#1312);
#382=VERTEX_POINT('',#1314);
#383=VERTEX_POINT('',#1318);
#384=VERTEX_POINT('',#1320);
#385=VERTEX_POINT('',#1324);
#386=VERTEX_POINT('',#1326);
#387=VERTEX_POINT('',#1330);
#388=VERTEX_POINT('',#1332);
#389=VERTEX_POINT('',#1336);
#390=VERTEX_POINT('',#1338);
#391=VERTEX_POINT('',#1342);
#392=VERTEX_POINT('',#1344);
#393=VERTEX_POINT('',#1348);
#394=VERTEX_POINT('',#1350);
#395=VERTEX_POINT('',#1354);
#396=VERTEX_POINT('',#1356);
#397=VERTEX_POINT('',#1360);
#398=VERTEX_POINT('',#1362);
#399=VERTEX_POINT('',#1370);
#400=VERTEX_POINT('',#1371);
#401=VERTEX_POINT('',#1373);
#402=VERTEX_POINT('',#1375);
#403=VERTEX_POINT('',#1379);
#404=VERTEX_POINT('',#1381);
#405=VERTEX_POINT('',#1385);
#406=VERTEX_POINT('',#1387);
#407=VERTEX_POINT('',#1391);
#408=VERTEX_POINT('',#1393);
#409=VERTEX_POINT('',#1397);
#410=VERTEX_POINT('',#1399);
#411=VERTEX_POINT('',#1403);
#412=VERTEX_POINT('',#1405);
#413=VERTEX_POINT('',#1409);
#414=VERTEX_POINT('',#1411);
#415=VERTEX_POINT('',#1418);
#416=VERTEX_POINT('',#1420);
#417=VERTEX_POINT('',#1425);
#418=VERTEX_POINT('',#1427);
#419=VERTEX_POINT('',#1432);
#420=VERTEX_POINT('',#1434);
#421=VERTEX_POINT('',#1439);
#422=VERTEX_POINT('',#1441);
#423=VERTEX_POINT('',#1446);
#424=VERTEX_POINT('',#1448);
#425=VERTEX_POINT('',#1451);
#426=VERTEX_POINT('',#1453);
#427=VERTEX_POINT('',#1456);
#428=VERTEX_POINT('',#1458);
#429=VERTEX_POINT('',#1461);
#430=VERTEX_POINT('',#1463);
#431=VERTEX_POINT('',#1466);
#432=VERTEX_POINT('',#1470);
#433=VERTEX_POINT('',#1474);
#434=VERTEX_POINT('',#1478);
#435=VERTEX_POINT('',#1482);
#436=VERTEX_POINT('',#1483);
#437=VERTEX_POINT('',#1530);
#438=VERTEX_POINT('',#1531);
#439=VERTEX_POINT('',#1578);
#440=VERTEX_POINT('',#1579);
#441=VERTEX_POINT('',#1626);
#442=VERTEX_POINT('',#1627);
#443=VERTEX_POINT('',#1674);
#444=VERTEX_POINT('',#1675);
#445=VERTEX_POINT('',#1677);
#446=VERTEX_POINT('',#1679);
#447=VERTEX_POINT('',#1683);
#448=VERTEX_POINT('',#1685);
#449=VERTEX_POINT('',#1689);
#450=VERTEX_POINT('',#1691);
#451=VERTEX_POINT('',#1695);
#452=VERTEX_POINT('',#1697);
#453=VERTEX_POINT('',#1703);
#454=VERTEX_POINT('',#1705);
#455=EDGE_CURVE('',#373,#374,#247,.T.);
#456=EDGE_CURVE('',#373,#375,#248,.T.);
#457=EDGE_CURVE('',#375,#376,#249,.T.);
#458=EDGE_CURVE('',#374,#376,#250,.T.);
#459=EDGE_CURVE('',#377,#373,#46,.T.);
#460=EDGE_CURVE('',#377,#378,#251,.T.);
#461=EDGE_CURVE('',#378,#375,#47,.T.);
#462=EDGE_CURVE('',#379,#377,#252,.T.);
#463=EDGE_CURVE('',#379,#380,#253,.T.);
#464=EDGE_CURVE('',#380,#378,#254,.T.);
#465=EDGE_CURVE('',#381,#379,#48,.T.);
#466=EDGE_CURVE('',#381,#382,#255,.T.);
#467=EDGE_CURVE('',#382,#380,#49,.T.);
#468=EDGE_CURVE('',#383,#381,#256,.T.);
#469=EDGE_CURVE('',#383,#384,#257,.T.);
#470=EDGE_CURVE('',#384,#382,#258,.T.);
#471=EDGE_CURVE('',#385,#383,#50,.T.);
#472=EDGE_CURVE('',#385,#386,#259,.T.);
#473=EDGE_CURVE('',#386,#384,#51,.T.);
#474=EDGE_CURVE('',#387,#385,#260,.T.);
#475=EDGE_CURVE('',#387,#388,#261,.T.);
#476=EDGE_CURVE('',#388,#386,#262,.T.);
#477=EDGE_CURVE('',#389,#387,#263,.T.);
#478=EDGE_CURVE('',#389,#390,#264,.T.);
#479=EDGE_CURVE('',#390,#388,#265,.T.);
#480=EDGE_CURVE('',#391,#389,#52,.T.);
#481=EDGE_CURVE('',#391,#392,#266,.T.);
#482=EDGE_CURVE('',#392,#390,#53,.T.);
#483=EDGE_CURVE('',#393,#391,#267,.T.);
#484=EDGE_CURVE('',#393,#394,#268,.T.);
#485=EDGE_CURVE('',#394,#392,#269,.T.);
#486=EDGE_CURVE('',#395,#393,#54,.T.);
#487=EDGE_CURVE('',#395,#396,#270,.T.);
#488=EDGE_CURVE('',#396,#394,#55,.T.);
#489=EDGE_CURVE('',#397,#395,#271,.T.);
#490=EDGE_CURVE('',#397,#398,#272,.T.);
#491=EDGE_CURVE('',#398,#396,#273,.T.);
#492=EDGE_CURVE('',#374,#397,#56,.T.);
#493=EDGE_CURVE('',#376,#398,#57,.T.);
#494=EDGE_CURVE('',#399,#400,#274,.T.);
#495=EDGE_CURVE('',#399,#401,#275,.T.);
#496=EDGE_CURVE('',#402,#401,#276,.T.);
#497=EDGE_CURVE('',#400,#402,#277,.T.);
#498=EDGE_CURVE('',#403,#399,#58,.T.);
#499=EDGE_CURVE('',#403,#404,#278,.T.);
#500=EDGE_CURVE('',#401,#404,#59,.T.);
#501=EDGE_CURVE('',#405,#403,#279,.T.);
#502=EDGE_CURVE('',#405,#406,#280,.T.);
#503=EDGE_CURVE('',#404,#406,#281,.T.);
#504=EDGE_CURVE('',#407,#405,#60,.T.);
#505=EDGE_CURVE('',#407,#408,#282,.T.);
#506=EDGE_CURVE('',#406,#408,#61,.T.);
#507=EDGE_CURVE('',#409,#407,#283,.T.);
#508=EDGE_CURVE('',#409,#410,#284,.T.);
#509=EDGE_CURVE('',#408,#410,#285,.T.);
#510=EDGE_CURVE('',#411,#409,#62,.T.);
#511=EDGE_CURVE('',#411,#412,#286,.T.);
#512=EDGE_CURVE('',#410,#412,#63,.T.);
#513=EDGE_CURVE('',#413,#411,#287,.T.);
#514=EDGE_CURVE('',#413,#414,#288,.T.);
#515=EDGE_CURVE('',#412,#414,#289,.T.);
#516=EDGE_CURVE('',#400,#413,#64,.T.);
#517=EDGE_CURVE('',#414,#402,#65,.T.);
#518=EDGE_CURVE('',#415,#415,#66,.T.);
#519=EDGE_CURVE('',#415,#416,#290,.T.);
#520=EDGE_CURVE('',#416,#416,#67,.T.);
#521=EDGE_CURVE('',#417,#417,#68,.T.);
#522=EDGE_CURVE('',#417,#418,#291,.T.);
#523=EDGE_CURVE('',#418,#418,#69,.T.);
#524=EDGE_CURVE('',#419,#419,#70,.T.);
#525=EDGE_CURVE('',#419,#420,#292,.T.);
#526=EDGE_CURVE('',#420,#420,#71,.T.);
#527=EDGE_CURVE('',#421,#421,#72,.T.);
#528=EDGE_CURVE('',#421,#422,#293,.T.);
#529=EDGE_CURVE('',#422,#422,#73,.T.);
#530=EDGE_CURVE('',#423,#423,#74,.T.);
#531=EDGE_CURVE('',#424,#424,#75,.T.);
#532=EDGE_CURVE('',#425,#425,#76,.T.);
#533=EDGE_CURVE('',#426,#426,#77,.T.);
#534=EDGE_CURVE('',#427,#427,#78,.T.);
#535=EDGE_CURVE('',#428,#428,#79,.T.);
#536=EDGE_CURVE('',#429,#429,#80,.T.);
#537=EDGE_CURVE('',#430,#430,#81,.T.);
#538=EDGE_CURVE('',#430,#431,#294,.T.);
#539=EDGE_CURVE('',#431,#431,#82,.T.);
#540=EDGE_CURVE('',#428,#432,#295,.T.);
#541=EDGE_CURVE('',#432,#432,#83,.T.);
#542=EDGE_CURVE('',#424,#433,#296,.T.);
#543=EDGE_CURVE('',#433,#433,#84,.T.);
#544=EDGE_CURVE('',#426,#434,#297,.T.);
#545=EDGE_CURVE('',#434,#434,#85,.T.);
#546=EDGE_CURVE('',#435,#436,#19,.T.);
#547=EDGE_CURVE('',#436,#435,#20,.T.);
#548=EDGE_CURVE('',#436,#425,#298,.T.);
#549=EDGE_CURVE('',#437,#438,#21,.T.);
#550=EDGE_CURVE('',#438,#437,#22,.T.);
#551=EDGE_CURVE('',#438,#423,#299,.T.);
#552=EDGE_CURVE('',#439,#440,#23,.T.);
#553=EDGE_CURVE('',#440,#439,#24,.T.);
#554=EDGE_CURVE('',#440,#427,#300,.T.);
#555=EDGE_CURVE('',#441,#442,#25,.T.);
#556=EDGE_CURVE('',#442,#441,#26,.T.);
#557=EDGE_CURVE('',#442,#429,#301,.T.);
#558=EDGE_CURVE('',#443,#444,#302,.T.);
#559=EDGE_CURVE('',#445,#443,#303,.T.);
#560=EDGE_CURVE('',#446,#445,#304,.T.);
#561=EDGE_CURVE('',#444,#446,#305,.T.);
#562=EDGE_CURVE('',#447,#445,#86,.F.);
#563=EDGE_CURVE('',#443,#448,#87,.F.);
#564=EDGE_CURVE('',#448,#447,#306,.T.);
#565=EDGE_CURVE('',#449,#446,#88,.F.);
#566=EDGE_CURVE('',#445,#450,#89,.F.);
#567=EDGE_CURVE('',#450,#449,#307,.T.);
#568=EDGE_CURVE('',#451,#444,#90,.F.);
#569=EDGE_CURVE('',#446,#452,#91,.F.);
#570=EDGE_CURVE('',#452,#451,#308,.T.);
#571=EDGE_CURVE('',#452,#449,#92,.F.);
#572=EDGE_CURVE('',#453,#443,#93,.F.);
#573=EDGE_CURVE('',#444,#454,#94,.F.);
#574=EDGE_CURVE('',#454,#453,#309,.T.);
#575=EDGE_CURVE('',#454,#451,#95,.F.);
#576=EDGE_CURVE('',#450,#447,#96,.F.);
#577=EDGE_CURVE('',#448,#453,#97,.F.);
#578=ORIENTED_EDGE('',*,*,#455,.F.);
#579=ORIENTED_EDGE('',*,*,#456,.T.);
#580=ORIENTED_EDGE('',*,*,#457,.T.);
#581=ORIENTED_EDGE('',*,*,#458,.F.);
#582=ORIENTED_EDGE('',*,*,#459,.F.);
#583=ORIENTED_EDGE('',*,*,#460,.T.);
#584=ORIENTED_EDGE('',*,*,#461,.T.);
#585=ORIENTED_EDGE('',*,*,#456,.F.);
#586=ORIENTED_EDGE('',*,*,#462,.F.);
#587=ORIENTED_EDGE('',*,*,#463,.T.);
#588=ORIENTED_EDGE('',*,*,#464,.T.);
#589=ORIENTED_EDGE('',*,*,#460,.F.);
#590=ORIENTED_EDGE('',*,*,#465,.F.);
#591=ORIENTED_EDGE('',*,*,#466,.T.);
#592=ORIENTED_EDGE('',*,*,#467,.T.);
#593=ORIENTED_EDGE('',*,*,#463,.F.);
#594=ORIENTED_EDGE('',*,*,#468,.F.);
#595=ORIENTED_EDGE('',*,*,#469,.T.);
#596=ORIENTED_EDGE('',*,*,#470,.T.);
#597=ORIENTED_EDGE('',*,*,#466,.F.);
#598=ORIENTED_EDGE('',*,*,#471,.F.);
#599=ORIENTED_EDGE('',*,*,#472,.T.);
#600=ORIENTED_EDGE('',*,*,#473,.T.);
#601=ORIENTED_EDGE('',*,*,#469,.F.);
#602=ORIENTED_EDGE('',*,*,#474,.F.);
#603=ORIENTED_EDGE('',*,*,#475,.T.);
#604=ORIENTED_EDGE('',*,*,#476,.T.);
#605=ORIENTED_EDGE('',*,*,#472,.F.);
#606=ORIENTED_EDGE('',*,*,#477,.F.);
#607=ORIENTED_EDGE('',*,*,#478,.T.);
#608=ORIENTED_EDGE('',*,*,#479,.T.);
#609=ORIENTED_EDGE('',*,*,#475,.F.);
#610=ORIENTED_EDGE('',*,*,#480,.F.);
#611=ORIENTED_EDGE('',*,*,#481,.T.);
#612=ORIENTED_EDGE('',*,*,#482,.T.);
#613=ORIENTED_EDGE('',*,*,#478,.F.);
#614=ORIENTED_EDGE('',*,*,#483,.F.);
#615=ORIENTED_EDGE('',*,*,#484,.T.);
#616=ORIENTED_EDGE('',*,*,#485,.T.);
#617=ORIENTED_EDGE('',*,*,#481,.F.);
#618=ORIENTED_EDGE('',*,*,#486,.F.);
#619=ORIENTED_EDGE('',*,*,#487,.T.);
#620=ORIENTED_EDGE('',*,*,#488,.T.);
#621=ORIENTED_EDGE('',*,*,#484,.F.);
#622=ORIENTED_EDGE('',*,*,#489,.F.);
#623=ORIENTED_EDGE('',*,*,#490,.T.);
#624=ORIENTED_EDGE('',*,*,#491,.T.);
#625=ORIENTED_EDGE('',*,*,#487,.F.);
#626=ORIENTED_EDGE('',*,*,#492,.F.);
#627=ORIENTED_EDGE('',*,*,#458,.T.);
#628=ORIENTED_EDGE('',*,*,#493,.T.);
#629=ORIENTED_EDGE('',*,*,#490,.F.);
#630=ORIENTED_EDGE('',*,*,#493,.F.);
#631=ORIENTED_EDGE('',*,*,#457,.F.);
#632=ORIENTED_EDGE('',*,*,#461,.F.);
#633=ORIENTED_EDGE('',*,*,#464,.F.);
#634=ORIENTED_EDGE('',*,*,#467,.F.);
#635=ORIENTED_EDGE('',*,*,#470,.F.);
#636=ORIENTED_EDGE('',*,*,#473,.F.);
#637=ORIENTED_EDGE('',*,*,#476,.F.);
#638=ORIENTED_EDGE('',*,*,#479,.F.);
#639=ORIENTED_EDGE('',*,*,#482,.F.);
#640=ORIENTED_EDGE('',*,*,#485,.F.);
#641=ORIENTED_EDGE('',*,*,#488,.F.);
#642=ORIENTED_EDGE('',*,*,#491,.F.);
#643=ORIENTED_EDGE('',*,*,#494,.F.);
#644=ORIENTED_EDGE('',*,*,#495,.T.);
#645=ORIENTED_EDGE('',*,*,#496,.F.);
#646=ORIENTED_EDGE('',*,*,#497,.F.);
#647=ORIENTED_EDGE('',*,*,#498,.F.);
#648=ORIENTED_EDGE('',*,*,#499,.T.);
#649=ORIENTED_EDGE('',*,*,#500,.F.);
#650=ORIENTED_EDGE('',*,*,#495,.F.);
#651=ORIENTED_EDGE('',*,*,#501,.F.);
#652=ORIENTED_EDGE('',*,*,#502,.T.);
#653=ORIENTED_EDGE('',*,*,#503,.F.);
#654=ORIENTED_EDGE('',*,*,#499,.F.);
#655=ORIENTED_EDGE('',*,*,#504,.F.);
#656=ORIENTED_EDGE('',*,*,#505,.T.);
#657=ORIENTED_EDGE('',*,*,#506,.F.);
#658=ORIENTED_EDGE('',*,*,#502,.F.);
#659=ORIENTED_EDGE('',*,*,#507,.F.);
#660=ORIENTED_EDGE('',*,*,#508,.T.);
#661=ORIENTED_EDGE('',*,*,#509,.F.);
#662=ORIENTED_EDGE('',*,*,#505,.F.);
#663=ORIENTED_EDGE('',*,*,#510,.F.);
#664=ORIENTED_EDGE('',*,*,#511,.T.);
#665=ORIENTED_EDGE('',*,*,#512,.F.);
#666=ORIENTED_EDGE('',*,*,#508,.F.);
#667=ORIENTED_EDGE('',*,*,#513,.F.);
#668=ORIENTED_EDGE('',*,*,#514,.T.);
#669=ORIENTED_EDGE('',*,*,#515,.F.);
#670=ORIENTED_EDGE('',*,*,#511,.F.);
#671=ORIENTED_EDGE('',*,*,#516,.F.);
#672=ORIENTED_EDGE('',*,*,#497,.T.);
#673=ORIENTED_EDGE('',*,*,#517,.F.);
#674=ORIENTED_EDGE('',*,*,#514,.F.);
#675=ORIENTED_EDGE('',*,*,#518,.F.);
#676=ORIENTED_EDGE('',*,*,#519,.T.);
#677=ORIENTED_EDGE('',*,*,#520,.T.);
#678=ORIENTED_EDGE('',*,*,#519,.F.);
#679=ORIENTED_EDGE('',*,*,#520,.F.);
#680=ORIENTED_EDGE('',*,*,#521,.F.);
#681=ORIENTED_EDGE('',*,*,#522,.T.);
#682=ORIENTED_EDGE('',*,*,#523,.T.);
#683=ORIENTED_EDGE('',*,*,#522,.F.);
#684=ORIENTED_EDGE('',*,*,#523,.F.);
#685=ORIENTED_EDGE('',*,*,#524,.F.);
#686=ORIENTED_EDGE('',*,*,#525,.T.);
#687=ORIENTED_EDGE('',*,*,#526,.T.);
#688=ORIENTED_EDGE('',*,*,#525,.F.);
#689=ORIENTED_EDGE('',*,*,#526,.F.);
#690=ORIENTED_EDGE('',*,*,#527,.F.);
#691=ORIENTED_EDGE('',*,*,#528,.T.);
#692=ORIENTED_EDGE('',*,*,#529,.T.);
#693=ORIENTED_EDGE('',*,*,#528,.F.);
#694=ORIENTED_EDGE('',*,*,#529,.F.);
#695=ORIENTED_EDGE('',*,*,#530,.F.);
#696=ORIENTED_EDGE('',*,*,#531,.F.);
#697=ORIENTED_EDGE('',*,*,#532,.F.);
#698=ORIENTED_EDGE('',*,*,#533,.F.);
#699=ORIENTED_EDGE('',*,*,#534,.F.);
#700=ORIENTED_EDGE('',*,*,#535,.F.);
#701=ORIENTED_EDGE('',*,*,#536,.F.);
#702=ORIENTED_EDGE('',*,*,#537,.F.);
#703=ORIENTED_EDGE('',*,*,#537,.T.);
#704=ORIENTED_EDGE('',*,*,#538,.T.);
#705=ORIENTED_EDGE('',*,*,#539,.F.);
#706=ORIENTED_EDGE('',*,*,#538,.F.);
#707=ORIENTED_EDGE('',*,*,#535,.T.);
#708=ORIENTED_EDGE('',*,*,#540,.T.);
#709=ORIENTED_EDGE('',*,*,#541,.F.);
#710=ORIENTED_EDGE('',*,*,#540,.F.);
#711=ORIENTED_EDGE('',*,*,#531,.T.);
#712=ORIENTED_EDGE('',*,*,#542,.T.);
#713=ORIENTED_EDGE('',*,*,#543,.F.);
#714=ORIENTED_EDGE('',*,*,#542,.F.);
#715=ORIENTED_EDGE('',*,*,#533,.T.);
#716=ORIENTED_EDGE('',*,*,#544,.T.);
#717=ORIENTED_EDGE('',*,*,#545,.F.);
#718=ORIENTED_EDGE('',*,*,#544,.F.);
#719=ORIENTED_EDGE('',*,*,#546,.F.);
#720=ORIENTED_EDGE('',*,*,#547,.F.);
#721=ORIENTED_EDGE('',*,*,#548,.T.);
#722=ORIENTED_EDGE('',*,*,#532,.T.);
#723=ORIENTED_EDGE('',*,*,#548,.F.);
#724=ORIENTED_EDGE('',*,*,#549,.F.);
#725=ORIENTED_EDGE('',*,*,#550,.F.);
#726=ORIENTED_EDGE('',*,*,#551,.T.);
#727=ORIENTED_EDGE('',*,*,#530,.T.);
#728=ORIENTED_EDGE('',*,*,#551,.F.);
#729=ORIENTED_EDGE('',*,*,#552,.F.);
#730=ORIENTED_EDGE('',*,*,#553,.F.);
#731=ORIENTED_EDGE('',*,*,#554,.T.);
#732=ORIENTED_EDGE('',*,*,#534,.T.);
#733=ORIENTED_EDGE('',*,*,#554,.F.);
#734=ORIENTED_EDGE('',*,*,#555,.F.);
#735=ORIENTED_EDGE('',*,*,#556,.F.);
#736=ORIENTED_EDGE('',*,*,#557,.T.);
#737=ORIENTED_EDGE('',*,*,#536,.T.);
#738=ORIENTED_EDGE('',*,*,#557,.F.);
#739=ORIENTED_EDGE('',*,*,#558,.F.);
#740=ORIENTED_EDGE('',*,*,#559,.F.);
#741=ORIENTED_EDGE('',*,*,#560,.F.);
#742=ORIENTED_EDGE('',*,*,#561,.F.);
#743=ORIENTED_EDGE('',*,*,#455,.T.);
#744=ORIENTED_EDGE('',*,*,#492,.T.);
#745=ORIENTED_EDGE('',*,*,#489,.T.);
#746=ORIENTED_EDGE('',*,*,#486,.T.);
#747=ORIENTED_EDGE('',*,*,#483,.T.);
#748=ORIENTED_EDGE('',*,*,#480,.T.);
#749=ORIENTED_EDGE('',*,*,#477,.T.);
#750=ORIENTED_EDGE('',*,*,#474,.T.);
#751=ORIENTED_EDGE('',*,*,#471,.T.);
#752=ORIENTED_EDGE('',*,*,#468,.T.);
#753=ORIENTED_EDGE('',*,*,#465,.T.);
#754=ORIENTED_EDGE('',*,*,#462,.T.);
#755=ORIENTED_EDGE('',*,*,#459,.T.);
#756=ORIENTED_EDGE('',*,*,#494,.T.);
#757=ORIENTED_EDGE('',*,*,#516,.T.);
#758=ORIENTED_EDGE('',*,*,#513,.T.);
#759=ORIENTED_EDGE('',*,*,#510,.T.);
#760=ORIENTED_EDGE('',*,*,#507,.T.);
#761=ORIENTED_EDGE('',*,*,#504,.T.);
#762=ORIENTED_EDGE('',*,*,#501,.T.);
#763=ORIENTED_EDGE('',*,*,#498,.T.);
#764=ORIENTED_EDGE('',*,*,#518,.T.);
#765=ORIENTED_EDGE('',*,*,#521,.T.);
#766=ORIENTED_EDGE('',*,*,#524,.T.);
#767=ORIENTED_EDGE('',*,*,#527,.T.);
#768=ORIENTED_EDGE('',*,*,#562,.T.);
#769=ORIENTED_EDGE('',*,*,#559,.T.);
#770=ORIENTED_EDGE('',*,*,#563,.T.);
#771=ORIENTED_EDGE('',*,*,#564,.T.);
#772=ORIENTED_EDGE('',*,*,#565,.T.);
#773=ORIENTED_EDGE('',*,*,#560,.T.);
#774=ORIENTED_EDGE('',*,*,#566,.T.);
#775=ORIENTED_EDGE('',*,*,#567,.T.);
#776=ORIENTED_EDGE('',*,*,#568,.T.);
#777=ORIENTED_EDGE('',*,*,#561,.T.);
#778=ORIENTED_EDGE('',*,*,#569,.T.);
#779=ORIENTED_EDGE('',*,*,#570,.T.);
#780=ORIENTED_EDGE('',*,*,#565,.F.);
#781=ORIENTED_EDGE('',*,*,#571,.F.);
#782=ORIENTED_EDGE('',*,*,#569,.F.);
#783=ORIENTED_EDGE('',*,*,#546,.T.);
#784=ORIENTED_EDGE('',*,*,#547,.T.);
#785=ORIENTED_EDGE('',*,*,#572,.T.);
#786=ORIENTED_EDGE('',*,*,#558,.T.);
#787=ORIENTED_EDGE('',*,*,#573,.T.);
#788=ORIENTED_EDGE('',*,*,#574,.T.);
#789=ORIENTED_EDGE('',*,*,#568,.F.);
#790=ORIENTED_EDGE('',*,*,#575,.F.);
#791=ORIENTED_EDGE('',*,*,#573,.F.);
#792=ORIENTED_EDGE('',*,*,#549,.T.);
#793=ORIENTED_EDGE('',*,*,#550,.T.);
#794=ORIENTED_EDGE('',*,*,#562,.F.);
#795=ORIENTED_EDGE('',*,*,#576,.F.);
#796=ORIENTED_EDGE('',*,*,#566,.F.);
#797=ORIENTED_EDGE('',*,*,#552,.T.);
#798=ORIENTED_EDGE('',*,*,#553,.T.);
#799=ORIENTED_EDGE('',*,*,#572,.F.);
#800=ORIENTED_EDGE('',*,*,#577,.F.);
#801=ORIENTED_EDGE('',*,*,#563,.F.);
#802=ORIENTED_EDGE('',*,*,#555,.T.);
#803=ORIENTED_EDGE('',*,*,#556,.T.);
#804=ORIENTED_EDGE('',*,*,#571,.T.);
#805=ORIENTED_EDGE('',*,*,#567,.F.);
#806=ORIENTED_EDGE('',*,*,#576,.T.);
#807=ORIENTED_EDGE('',*,*,#564,.F.);
#808=ORIENTED_EDGE('',*,*,#577,.T.);
#809=ORIENTED_EDGE('',*,*,#574,.F.);
#810=ORIENTED_EDGE('',*,*,#575,.T.);
#811=ORIENTED_EDGE('',*,*,#570,.F.);
#812=ORIENTED_EDGE('',*,*,#496,.T.);
#813=ORIENTED_EDGE('',*,*,#500,.T.);
#814=ORIENTED_EDGE('',*,*,#503,.T.);
#815=ORIENTED_EDGE('',*,*,#506,.T.);
#816=ORIENTED_EDGE('',*,*,#509,.T.);
#817=ORIENTED_EDGE('',*,*,#512,.T.);
#818=ORIENTED_EDGE('',*,*,#515,.T.);
#819=ORIENTED_EDGE('',*,*,#517,.T.);
#820=ORIENTED_EDGE('',*,*,#539,.T.);
#821=ORIENTED_EDGE('',*,*,#541,.T.);
#822=ORIENTED_EDGE('',*,*,#543,.T.);
#823=ORIENTED_EDGE('',*,*,#545,.T.);
#824=PLANE('',#912);
#825=PLANE('',#916);
#826=PLANE('',#920);
#827=PLANE('',#924);
#828=PLANE('',#925);
#829=PLANE('',#929);
#830=PLANE('',#933);
#831=PLANE('',#937);
#832=PLANE('',#938);
#833=PLANE('',#942);
#834=PLANE('',#946);
#835=PLANE('',#950);
#836=PLANE('',#957);
#837=PLANE('',#961);
#838=PLANE('',#965);
#839=PLANE('',#969);
#840=PLANE('',#970);
#841=PLANE('',#973);
#842=PLANE('',#976);
#843=PLANE('',#979);
#844=PLANE('',#994);
#845=PLANE('',#1015);
#846=ADVANCED_FACE('',(#124),#824,.F.);
#847=ADVANCED_FACE('',(#125),#98,.F.);
#848=ADVANCED_FACE('',(#126),#825,.F.);
#849=ADVANCED_FACE('',(#127),#99,.F.);
#850=ADVANCED_FACE('',(#128),#826,.F.);
#851=ADVANCED_FACE('',(#129),#100,.F.);
#852=ADVANCED_FACE('',(#130),#827,.F.);
#853=ADVANCED_FACE('',(#131),#828,.F.);
#854=ADVANCED_FACE('',(#132),#101,.T.);
#855=ADVANCED_FACE('',(#133),#829,.F.);
#856=ADVANCED_FACE('',(#134),#102,.T.);
#857=ADVANCED_FACE('',(#135),#830,.F.);
#858=ADVANCED_FACE('',(#136),#103,.F.);
#859=ADVANCED_FACE('',(#137),#831,.T.);
#860=ADVANCED_FACE('',(#138),#832,.F.);
#861=ADVANCED_FACE('',(#139),#104,.F.);
#862=ADVANCED_FACE('',(#140),#833,.F.);
#863=ADVANCED_FACE('',(#141),#105,.F.);
#864=ADVANCED_FACE('',(#142),#834,.F.);
#865=ADVANCED_FACE('',(#143),#106,.F.);
#866=ADVANCED_FACE('',(#144),#835,.F.);
#867=ADVANCED_FACE('',(#145),#107,.F.);
#868=ADVANCED_FACE('',(#146),#108,.F.);
#869=ADVANCED_FACE('',(#147),#836,.T.);
#870=ADVANCED_FACE('',(#148),#109,.F.);
#871=ADVANCED_FACE('',(#149),#837,.T.);
#872=ADVANCED_FACE('',(#150),#110,.F.);
#873=ADVANCED_FACE('',(#151),#838,.T.);
#874=ADVANCED_FACE('',(#152),#111,.F.);
#875=ADVANCED_FACE('',(#153),#839,.T.);
#876=ADVANCED_FACE('',(#154,#27),#840,.T.);
#877=ADVANCED_FACE('',(#155,#28),#841,.T.);
#878=ADVANCED_FACE('',(#156,#29),#842,.T.);
#879=ADVANCED_FACE('',(#157,#30),#843,.T.);
#880=ADVANCED_FACE('',(#158),#112,.F.);
#881=ADVANCED_FACE('',(#159),#113,.F.);
#882=ADVANCED_FACE('',(#160),#114,.F.);
#883=ADVANCED_FACE('',(#161),#115,.F.);
#884=ADVANCED_FACE('',(#162),#116,.F.);
#885=ADVANCED_FACE('',(#163),#117,.F.);
#886=ADVANCED_FACE('',(#164),#118,.F.);
#887=ADVANCED_FACE('',(#165),#119,.F.);
#888=ADVANCED_FACE('',(#166,#31,#32,#33,#34,#35,#36),#844,.T.);
#889=ADVANCED_FACE('',(#167),#120,.T.);
#890=ADVANCED_FACE('',(#168),#121,.T.);
#891=ADVANCED_FACE('',(#169),#122,.T.);
#892=ADVANCED_FACE('',(#170,#37),#15,.T.);
#893=ADVANCED_FACE('',(#171),#123,.T.);
#894=ADVANCED_FACE('',(#172,#38),#16,.T.);
#895=ADVANCED_FACE('',(#173,#39),#17,.T.);
#896=ADVANCED_FACE('',(#174,#40),#18,.T.);
#897=ADVANCED_FACE('',(#175,#41,#42,#43,#44,#45),#845,.T.);
#898=CLOSED_SHELL('',(#846,#847,#848,#849,#850,#851,#852,#853,#854,#855,
#856,#857,#858,#859,#860,#861,#862,#863,#864,#865,#866,#867,#868,#869,#870,
#871,#872,#873,#874,#875,#876,#877,#878,#879,#880,#881,#882,#883,#884,#885,
#886,#887,#888,#889,#890,#891,#892,#893,#894,#895,#896,#897));
#899=DERIVED_UNIT_ELEMENT(#901,1.);
#900=DERIVED_UNIT_ELEMENT(#1720,-3.);
#901=(
MASS_UNIT()
NAMED_UNIT(*)
SI_UNIT(.KILO.,.GRAM.)
);
#902=DERIVED_UNIT((#899,#900));
#903=MEASURE_REPRESENTATION_ITEM('density measure',
POSITIVE_RATIO_MEASURE(7850.),#902);
#904=PROPERTY_DEFINITION_REPRESENTATION(#909,#906);
#905=PROPERTY_DEFINITION_REPRESENTATION(#910,#907);
#906=REPRESENTATION('material name',(#908),#1717);
#907=REPRESENTATION('density',(#903),#1717);
#908=DESCRIPTIVE_REPRESENTATION_ITEM('Steel','Steel');
#909=PROPERTY_DEFINITION('material property','material name',#1727);
#910=PROPERTY_DEFINITION('material property','density of part',#1727);
#911=AXIS2_PLACEMENT_3D('',#1289,#1016,#1017);
#912=AXIS2_PLACEMENT_3D('',#1290,#1018,#1019);
#913=AXIS2_PLACEMENT_3D('',#1299,#1024,#1025);
#914=AXIS2_PLACEMENT_3D('',#1301,#1026,#1027);
#915=AXIS2_PLACEMENT_3D('',#1304,#1029,#1030);
#916=AXIS2_PLACEMENT_3D('',#1305,#1031,#1032);
#917=AXIS2_PLACEMENT_3D('',#1311,#1036,#1037);
#918=AXIS2_PLACEMENT_3D('',#1313,#1038,#1039);
#919=AXIS2_PLACEMENT_3D('',#1316,#1041,#1042);
#920=AXIS2_PLACEMENT_3D('',#1317,#1043,#1044);
#921=AXIS2_PLACEMENT_3D('',#1323,#1048,#1049);
#922=AXIS2_PLACEMENT_3D('',#1325,#1050,#1051);
#923=AXIS2_PLACEMENT_3D('',#1328,#1053,#1054);
#924=AXIS2_PLACEMENT_3D('',#1329,#1055,#1056);
#925=AXIS2_PLACEMENT_3D('',#1335,#1060,#1061);
#926=AXIS2_PLACEMENT_3D('',#1341,#1065,#1066);
#927=AXIS2_PLACEMENT_3D('',#1343,#1067,#1068);
#928=AXIS2_PLACEMENT_3D('',#1346,#1070,#1071);
#929=AXIS2_PLACEMENT_3D('',#1347,#1072,#1073);
#930=AXIS2_PLACEMENT_3D('',#1353,#1077,#1078);
#931=AXIS2_PLACEMENT_3D('',#1355,#1079,#1080);
#932=AXIS2_PLACEMENT_3D('',#1358,#1082,#1083);
#933=AXIS2_PLACEMENT_3D('',#1359,#1084,#1085);
#934=AXIS2_PLACEMENT_3D('',#1365,#1089,#1090);
#935=AXIS2_PLACEMENT_3D('',#1366,#1091,#1092);
#936=AXIS2_PLACEMENT_3D('',#1367,#1093,#1094);
#937=AXIS2_PLACEMENT_3D('',#1368,#1095,#1096);
#938=AXIS2_PLACEMENT_3D('',#1369,#1097,#1098);
#939=AXIS2_PLACEMENT_3D('',#1378,#1103,#1104);
#940=AXIS2_PLACEMENT_3D('',#1380,#1105,#1106);
#941=AXIS2_PLACEMENT_3D('',#1383,#1108,#1109);
#942=AXIS2_PLACEMENT_3D('',#1384,#1110,#1111);
#943=AXIS2_PLACEMENT_3D('',#1390,#1115,#1116);
#944=AXIS2_PLACEMENT_3D('',#1392,#1117,#1118);
#945=AXIS2_PLACEMENT_3D('',#1395,#1120,#1121);
#946=AXIS2_PLACEMENT_3D('',#1396,#1122,#1123);
#947=AXIS2_PLACEMENT_3D('',#1402,#1127,#1128);
#948=AXIS2_PLACEMENT_3D('',#1404,#1129,#1130);
#949=AXIS2_PLACEMENT_3D('',#1407,#1132,#1133);
#950=AXIS2_PLACEMENT_3D('',#1408,#1134,#1135);
#951=AXIS2_PLACEMENT_3D('',#1414,#1139,#1140);
#952=AXIS2_PLACEMENT_3D('',#1415,#1141,#1142);
#953=AXIS2_PLACEMENT_3D('',#1416,#1143,#1144);
#954=AXIS2_PLACEMENT_3D('',#1417,#1145,#1146);
#955=AXIS2_PLACEMENT_3D('',#1419,#1147,#1148);
#956=AXIS2_PLACEMENT_3D('',#1422,#1150,#1151);
#957=AXIS2_PLACEMENT_3D('',#1423,#1152,#1153);
#958=AXIS2_PLACEMENT_3D('',#1424,#1154,#1155);
#959=AXIS2_PLACEMENT_3D('',#1426,#1156,#1157);
#960=AXIS2_PLACEMENT_3D('',#1429,#1159,#1160);
#961=AXIS2_PLACEMENT_3D('',#1430,#1161,#1162);
#962=AXIS2_PLACEMENT_3D('',#1431,#1163,#1164);
#963=AXIS2_PLACEMENT_3D('',#1433,#1165,#1166);
#964=AXIS2_PLACEMENT_3D('',#1436,#1168,#1169);
#965=AXIS2_PLACEMENT_3D('',#1437,#1170,#1171);
#966=AXIS2_PLACEMENT_3D('',#1438,#1172,#1173);
#967=AXIS2_PLACEMENT_3D('',#1440,#1174,#1175);
#968=AXIS2_PLACEMENT_3D('',#1443,#1177,#1178);
#969=AXIS2_PLACEMENT_3D('',#1444,#1179,#1180);
#970=AXIS2_PLACEMENT_3D('',#1445,#1181,#1182);
#971=AXIS2_PLACEMENT_3D('',#1447,#1183,#1184);
#972=AXIS2_PLACEMENT_3D('',#1449,#1185,#1186);
#973=AXIS2_PLACEMENT_3D('',#1450,#1187,#1188);
#974=AXIS2_PLACEMENT_3D('',#1452,#1189,#1190);
#975=AXIS2_PLACEMENT_3D('',#1454,#1191,#1192);
#976=AXIS2_PLACEMENT_3D('',#1455,#1193,#1194);
#977=AXIS2_PLACEMENT_3D('',#1457,#1195,#1196);
#978=AXIS2_PLACEMENT_3D('',#1459,#1197,#1198);
#979=AXIS2_PLACEMENT_3D('',#1460,#1199,#1200);
#980=AXIS2_PLACEMENT_3D('',#1462,#1201,#1202);
#981=AXIS2_PLACEMENT_3D('',#1464,#1203,#1204);
#982=AXIS2_PLACEMENT_3D('',#1465,#1205,#1206);
#983=AXIS2_PLACEMENT_3D('',#1468,#1208,#1209);
#984=AXIS2_PLACEMENT_3D('',#1469,#1210,#1211);
#985=AXIS2_PLACEMENT_3D('',#1472,#1213,#1214);
#986=AXIS2_PLACEMENT_3D('',#1473,#1215,#1216);
#987=AXIS2_PLACEMENT_3D('',#1476,#1218,#1219);
#988=AXIS2_PLACEMENT_3D('',#1477,#1220,#1221);
#989=AXIS2_PLACEMENT_3D('',#1480,#1223,#1224);
#990=AXIS2_PLACEMENT_3D('',#1481,#1225,#1226);
#991=AXIS2_PLACEMENT_3D('',#1529,#1228,#1229);
#992=AXIS2_PLACEMENT_3D('',#1577,#1231,#1232);
#993=AXIS2_PLACEMENT_3D('',#1625,#1234,#1235);
#994=AXIS2_PLACEMENT_3D('',#1673,#1237,#1238);
#995=AXIS2_PLACEMENT_3D('',#1682,#1243,#1244);
#996=AXIS2_PLACEMENT_3D('',#1684,#1245,#1246);
#997=AXIS2_PLACEMENT_3D('',#1686,#1247,#1248);
#998=AXIS2_PLACEMENT_3D('',#1688,#1250,#1251);
#999=AXIS2_PLACEMENT_3D('',#1690,#1252,#1253);
#1000=AXIS2_PLACEMENT_3D('',#1692,#1254,#1255);
#1001=AXIS2_PLACEMENT_3D('',#1694,#1257,#1258);
#1002=AXIS2_PLACEMENT_3D('',#1696,#1259,#1260);
#1003=AXIS2_PLACEMENT_3D('',#1698,#1261,#1262);
#1004=AXIS2_PLACEMENT_3D('',#1700,#1264,#1265);
#1005=AXIS2_PLACEMENT_3D('',#1701,#1266,#1267);
#1006=AXIS2_PLACEMENT_3D('',#1702,#1268,#1269);
#1007=AXIS2_PLACEMENT_3D('',#1704,#1270,#1271);
#1008=AXIS2_PLACEMENT_3D('',#1706,#1272,#1273);
#1009=AXIS2_PLACEMENT_3D('',#1708,#1275,#1276);
#1010=AXIS2_PLACEMENT_3D('',#1709,#1277,#1278);
#1011=AXIS2_PLACEMENT_3D('',#1710,#1279,#1280);
#1012=AXIS2_PLACEMENT_3D('',#1711,#1281,#1282);
#1013=AXIS2_PLACEMENT_3D('',#1712,#1283,#1284);
#1014=AXIS2_PLACEMENT_3D('',#1713,#1285,#1286);
#1015=AXIS2_PLACEMENT_3D('',#1714,#1287,#1288);
#1016=DIRECTION('axis',(0.,0.,1.));
#1017=DIRECTION('refdir',(1.,0.,0.));
#1018=DIRECTION('center_axis',(0.,0.,-1.));
#1019=DIRECTION('ref_axis',(1.,0.,0.));
#1020=DIRECTION('',(1.,0.,0.));
#1021=DIRECTION('',(0.,-1.,0.));
#1022=DIRECTION('',(1.,0.,0.));
#1023=DIRECTION('',(0.,-1.,0.));
#1024=DIRECTION('center_axis',(0.,-1.,0.));
#1025=DIRECTION('ref_axis',(1.62832710278357E-15,0.,-1.));
#1026=DIRECTION('center_axis',(0.,-1.,0.));
#1027=DIRECTION('ref_axis',(1.62832710278357E-15,0.,-1.));
#1028=DIRECTION('',(0.,-1.,0.));
#1029=DIRECTION('center_axis',(0.,-1.,0.));
#1030=DIRECTION('ref_axis',(1.62832710278357E-15,0.,-1.));
#1031=DIRECTION('center_axis',(-1.,0.,0.));
#1032=DIRECTION('ref_axis',(0.,0.,-1.));
#1033=DIRECTION('',(0.,0.,-1.));
#1034=DIRECTION('',(0.,-1.,0.));
#1035=DIRECTION('',(0.,0.,-1.));
#1036=DIRECTION('center_axis',(0.,-1.,0.));
#1037=DIRECTION('ref_axis',(-1.,0.,-1.48029736616688E-15));
#1038=DIRECTION('center_axis',(0.,-1.,0.));
#1039=DIRECTION('ref_axis',(-1.,0.,-1.48029736616688E-15));
#1040=DIRECTION('',(0.,-1.,0.));
#1041=DIRECTION('center_axis',(0.,-1.,0.));
#1042=DIRECTION('ref_axis',(-1.,0.,-1.48029736616688E-15));
#1043=DIRECTION('center_axis',(0.,0.,1.));
#1044=DIRECTION('ref_axis',(-1.,0.,0.));
#1045=DIRECTION('',(-1.,0.,0.));
#1046=DIRECTION('',(0.,-1.,0.));
#1047=DIRECTION('',(-1.,0.,0.));
#1048=DIRECTION('center_axis',(0.,-1.,0.));
#1049=DIRECTION('ref_axis',(0.,0.,1.));
#1050=DIRECTION('center_axis',(0.,-1.,0.));
#1051=DIRECTION('ref_axis',(0.,0.,1.));
#1052=DIRECTION('',(0.,-1.,0.));
#1053=DIRECTION('center_axis',(0.,-1.,0.));
#1054=DIRECTION('ref_axis',(0.,0.,1.));
#1055=DIRECTION('center_axis',(1.,0.,0.));
#1056=DIRECTION('ref_axis',(0.,0.,1.));
#1057=DIRECTION('',(0.,0.,1.));
#1058=DIRECTION('',(0.,-1.,0.));
#1059=DIRECTION('',(0.,0.,1.));
#1060=DIRECTION('center_axis',(0.,0.,-1.));
#1061=DIRECTION('ref_axis',(1.,0.,0.));
#1062=DIRECTION('',(1.,0.,0.));
#1063=DIRECTION('',(0.,-1.,0.));
#1064=DIRECTION('',(1.,0.,0.));
#1065=DIRECTION('center_axis',(0.,-1.,0.));
#1066=DIRECTION('ref_axis',(-1.,0.,0.));
#1067=DIRECTION('center_axis',(0.,1.,0.));
#1068=DIRECTION('ref_axis',(-1.,0.,0.));
#1069=DIRECTION('',(0.,-1.,0.));
#1070=DIRECTION('center_axis',(0.,1.,0.));
#1071=DIRECTION('ref_axis',(-1.,0.,0.));
#1072=DIRECTION('center_axis',(1.,0.,-2.96059473233374E-16));
#1073=DIRECTION('ref_axis',(2.96059473233374E-16,0.,1.));
#1074=DIRECTION('',(2.96059473233374E-16,0.,1.));
#1075=DIRECTION('',(0.,-1.,0.));
#1076=DIRECTION('',(2.96059473233374E-16,0.,1.));
#1077=DIRECTION('center_axis',(0.,-1.,0.));
#1078=DIRECTION('ref_axis',(1.77635683940025E-15,0.,-1.));
#1079=DIRECTION('center_axis',(0.,1.,0.));
#1080=DIRECTION('ref_axis',(1.77635683940025E-15,0.,-1.));
#1081=DIRECTION('',(0.,-1.,0.));
#1082=DIRECTION('center_axis',(0.,1.,0.));
#1083=DIRECTION('ref_axis',(1.77635683940025E-15,0.,-1.));
#1084=DIRECTION('center_axis',(0.,0.,1.));
#1085=DIRECTION('ref_axis',(-1.,0.,0.));
#1086=DIRECTION('',(-1.,0.,0.));
#1087=DIRECTION('',(0.,-1.,0.));
#1088=DIRECTION('',(-1.,0.,0.));
#1089=DIRECTION('center_axis',(0.,-1.,0.));
#1090=DIRECTION('ref_axis',(1.,0.,1.1842378929335E-15));
#1091=DIRECTION('center_axis',(0.,-1.,0.));
#1092=DIRECTION('ref_axis',(1.,0.,1.1842378929335E-15));
#1093=DIRECTION('center_axis',(0.,-1.,0.));
#1094=DIRECTION('ref_axis',(1.,0.,1.1842378929335E-15));
#1095=DIRECTION('center_axis',(0.,1.,0.));
#1096=DIRECTION('ref_axis',(-1.,0.,0.));
#1097=DIRECTION('center_axis',(0.,0.,-1.));
#1098=DIRECTION('ref_axis',(1.,0.,0.));
#1099=DIRECTION('',(1.,0.,0.));
#1100=DIRECTION('',(0.,-1.,0.));
#1101=DIRECTION('',(-1.,0.,0.));
#1102=DIRECTION('',(0.,-1.,0.));
#1103=DIRECTION('center_axis',(0.,-1.,0.));
#1104=DIRECTION('ref_axis',(0.,0.,-1.));
#1105=DIRECTION('center_axis',(0.,-1.,0.));
#1106=DIRECTION('ref_axis',(0.,0.,-1.));
#1107=DIRECTION('',(0.,-1.,0.));
#1108=DIRECTION('center_axis',(0.,1.,0.));
#1109=DIRECTION('ref_axis',(0.,0.,-1.));
#1110=DIRECTION('center_axis',(-1.,0.,0.));
#1111=DIRECTION('ref_axis',(0.,0.,-1.));
#1112=DIRECTION('',(0.,0.,-1.));
#1113=DIRECTION('',(0.,-1.,0.));
#1114=DIRECTION('',(0.,0.,1.));
#1115=DIRECTION('center_axis',(0.,-1.,0.));
#1116=DIRECTION('ref_axis',(-1.,0.,0.));
#1117=DIRECTION('center_axis',(0.,-1.,0.));
#1118=DIRECTION('ref_axis',(-1.,0.,0.));
#1119=DIRECTION('',(0.,-1.,0.));
#1120=DIRECTION('center_axis',(0.,1.,0.));
#1121=DIRECTION('ref_axis',(-1.,0.,0.));
#1122=DIRECTION('center_axis',(0.,0.,1.));
#1123=DIRECTION('ref_axis',(-1.,0.,0.));
#1124=DIRECTION('',(-1.,0.,0.));
#1125=DIRECTION('',(0.,-1.,0.));
#1126=DIRECTION('',(1.,0.,0.));
#1127=DIRECTION('center_axis',(0.,-1.,0.));
#1128=DIRECTION('ref_axis',(0.,0.,1.));
#1129=DIRECTION('center_axis',(0.,-1.,0.));
#1130=DIRECTION('ref_axis',(0.,0.,1.));
#1131=DIRECTION('',(0.,-1.,0.));
#1132=DIRECTION('center_axis',(0.,1.,0.));
#1133=DIRECTION('ref_axis',(0.,0.,1.));
#1134=DIRECTION('center_axis',(1.,0.,-6.34413156928661E-16));
#1135=DIRECTION('ref_axis',(6.34413156928661E-16,0.,1.));
#1136=DIRECTION('',(6.34413156928661E-16,0.,1.));
#1137=DIRECTION('',(0.,-1.,0.));
#1138=DIRECTION('',(-6.34413156928661E-16,0.,-1.));
#1139=DIRECTION('center_axis',(0.,-1.,0.));
#1140=DIRECTION('ref_axis',(1.,0.,1.77635683940029E-14));
#1141=DIRECTION('center_axis',(0.,-1.,0.));
#1142=DIRECTION('ref_axis',(1.,0.,1.77635683940029E-14));
#1143=DIRECTION('center_axis',(0.,1.,0.));
#1144=DIRECTION('ref_axis',(1.,0.,1.77635683940029E-14));
#1145=DIRECTION('center_axis',(0.,-1.,0.));
#1146=DIRECTION('ref_axis',(-1.,0.,0.));
#1147=DIRECTION('center_axis',(0.,-1.,0.));
#1148=DIRECTION('ref_axis',(-1.,0.,0.));
#1149=DIRECTION('',(0.,-1.,0.));
#1150=DIRECTION('center_axis',(0.,-1.,0.));
#1151=DIRECTION('ref_axis',(-1.,0.,0.));
#1152=DIRECTION('center_axis',(0.,1.,0.));
#1153=DIRECTION('ref_axis',(-1.,0.,0.));
#1154=DIRECTION('center_axis',(0.,-1.,0.));
#1155=DIRECTION('ref_axis',(-1.,0.,0.));
#1156=DIRECTION('center_axis',(0.,-1.,0.));
#1157=DIRECTION('ref_axis',(-1.,0.,0.));
#1158=DIRECTION('',(0.,-1.,0.));
#1159=DIRECTION('center_axis',(0.,-1.,0.));
#1160=DIRECTION('ref_axis',(-1.,0.,0.));
#1161=DIRECTION('center_axis',(0.,1.,0.));
#1162=DIRECTION('ref_axis',(-1.,0.,0.));
#1163=DIRECTION('center_axis',(0.,-1.,0.));
#1164=DIRECTION('ref_axis',(-1.,0.,0.));
#1165=DIRECTION('center_axis',(0.,-1.,0.));
#1166=DIRECTION('ref_axis',(-1.,0.,0.));
#1167=DIRECTION('',(0.,-1.,0.));
#1168=DIRECTION('center_axis',(0.,-1.,0.));
#1169=DIRECTION('ref_axis',(-1.,0.,0.));
#1170=DIRECTION('center_axis',(0.,1.,0.));
#1171=DIRECTION('ref_axis',(-1.,0.,0.));
#1172=DIRECTION('center_axis',(0.,-1.,0.));
#1173=DIRECTION('ref_axis',(-1.,0.,0.));
#1174=DIRECTION('center_axis',(0.,-1.,0.));
#1175=DIRECTION('ref_axis',(-1.,0.,0.));
#1176=DIRECTION('',(0.,-1.,0.));
#1177=DIRECTION('center_axis',(0.,-1.,0.));
#1178=DIRECTION('ref_axis',(-1.,0.,0.));
#1179=DIRECTION('center_axis',(0.,1.,0.));
#1180=DIRECTION('ref_axis',(-1.,0.,0.));
#1181=DIRECTION('center_axis',(0.,1.,0.));
#1182=DIRECTION('ref_axis',(-1.,0.,0.));
#1183=DIRECTION('center_axis',(0.,-1.,0.));
#1184=DIRECTION('ref_axis',(-1.,0.,0.));
#1185=DIRECTION('center_axis',(0.,1.,0.));
#1186=DIRECTION('ref_axis',(-1.,0.,0.));
#1187=DIRECTION('center_axis',(0.,1.,0.));
#1188=DIRECTION('ref_axis',(-1.,0.,0.));
#1189=DIRECTION('center_axis',(0.,-1.,0.));
#1190=DIRECTION('ref_axis',(-1.,0.,0.));
#1191=DIRECTION('center_axis',(0.,1.,0.));
#1192=DIRECTION('ref_axis',(-1.,0.,0.));
#1193=DIRECTION('center_axis',(0.,1.,0.));
#1194=DIRECTION('ref_axis',(-1.,0.,0.));
#1195=DIRECTION('center_axis',(0.,-1.,0.));
#1196=DIRECTION('ref_axis',(-1.,0.,0.));
#1197=DIRECTION('center_axis',(0.,1.,0.));
#1198=DIRECTION('ref_axis',(-1.,0.,0.));
#1199=DIRECTION('center_axis',(0.,1.,0.));
#1200=DIRECTION('ref_axis',(-1.,0.,0.));
#1201=DIRECTION('center_axis',(0.,-1.,0.));
#1202=DIRECTION('ref_axis',(-1.,0.,0.));
#1203=DIRECTION('center_axis',(0.,1.,0.));
#1204=DIRECTION('ref_axis',(-1.,0.,0.));
#1205=DIRECTION('center_axis',(0.,-1.,0.));
#1206=DIRECTION('ref_axis',(-1.,0.,0.));
#1207=DIRECTION('',(0.,-1.,0.));
#1208=DIRECTION('center_axis',(0.,1.,0.));
#1209=DIRECTION('ref_axis',(-1.,0.,0.));
#1210=DIRECTION('center_axis',(0.,-1.,0.));
#1211=DIRECTION('ref_axis',(-1.,0.,0.));
#1212=DIRECTION('',(0.,-1.,0.));
#1213=DIRECTION('center_axis',(0.,1.,0.));
#1214=DIRECTION('ref_axis',(-1.,0.,0.));
#1215=DIRECTION('center_axis',(0.,-1.,0.));
#1216=DIRECTION('ref_axis',(-1.,0.,0.));
#1217=DIRECTION('',(0.,-1.,0.));
#1218=DIRECTION('center_axis',(0.,1.,0.));
#1219=DIRECTION('ref_axis',(-1.,0.,0.));
#1220=DIRECTION('center_axis',(0.,-1.,0.));
#1221=DIRECTION('ref_axis',(-1.,0.,0.));
#1222=DIRECTION('',(0.,-1.,0.));
#1223=DIRECTION('center_axis',(0.,1.,0.));
#1224=DIRECTION('ref_axis',(-1.,0.,0.));
#1225=DIRECTION('center_axis',(0.,-1.,0.));
#1226=DIRECTION('ref_axis',(-1.,0.,0.));
#1227=DIRECTION('',(0.,-1.,0.));
#1228=DIRECTION('center_axis',(0.,-1.,0.));
#1229=DIRECTION('ref_axis',(-1.,0.,0.));
#1230=DIRECTION('',(0.,-1.,0.));
#1231=DIRECTION('center_axis',(0.,-1.,0.));
#1232=DIRECTION('ref_axis',(-1.,0.,0.));
#1233=DIRECTION('',(0.,-1.,0.));
#1234=DIRECTION('center_axis',(0.,-1.,0.));
#1235=DIRECTION('ref_axis',(-1.,0.,0.));
#1236=DIRECTION('',(0.,-1.,0.));
#1237=DIRECTION('center_axis',(0.,1.,0.));
#1238=DIRECTION('ref_axis',(0.,0.,1.));
#1239=DIRECTION('',(1.,0.,0.));
#1240=DIRECTION('',(0.,0.,-1.));
#1241=DIRECTION('',(-1.,0.,0.));
#1242=DIRECTION('',(0.,0.,1.));
#1243=DIRECTION('center_axis',(0.,0.,1.));
#1244=DIRECTION('ref_axis',(-0.707106781186547,0.707106781186547,0.));
#1245=DIRECTION('center_axis',(0.,0.,1.));
#1246=DIRECTION('ref_axis',(-1.,0.,0.));
#1247=DIRECTION('center_axis',(0.,0.,-1.));
#1248=DIRECTION('ref_axis',(0.,1.,0.));
#1249=DIRECTION('',(0.,0.,1.));
#1250=DIRECTION('center_axis',(1.,0.,0.));
#1251=DIRECTION('ref_axis',(0.,0.707106781186547,0.707106781186547));
#1252=DIRECTION('center_axis',(1.,0.,0.));
#1253=DIRECTION('ref_axis',(0.,0.,1.));
#1254=DIRECTION('center_axis',(-1.,0.,0.));
#1255=DIRECTION('ref_axis',(0.,1.,0.));
#1256=DIRECTION('',(1.,0.,0.));
#1257=DIRECTION('center_axis',(0.,0.,-1.));
#1258=DIRECTION('ref_axis',(0.707106781186547,0.707106781186547,0.));
#1259=DIRECTION('center_axis',(0.,0.,-1.));
#1260=DIRECTION('ref_axis',(1.,0.,0.));
#1261=DIRECTION('center_axis',(0.,0.,1.));
#1262=DIRECTION('ref_axis',(0.,1.,0.));
#1263=DIRECTION('',(0.,0.,-1.));
#1264=DIRECTION('center_axis',(0.408248290463863,-0.816496580927726,0.408248290463862));
#1265=DIRECTION('ref_axis',(0.577350269189626,0.577350269189626,0.577350269189626));
#1266=DIRECTION('center_axis',(0.,1.,0.));
#1267=DIRECTION('ref_axis',(1.,0.,0.));
#1268=DIRECTION('center_axis',(-1.,0.,0.));
#1269=DIRECTION('ref_axis',(0.,0.707106781186547,-0.707106781186547));
#1270=DIRECTION('center_axis',(-1.,0.,0.));
#1271=DIRECTION('ref_axis',(0.,0.,-1.));
#1272=DIRECTION('center_axis',(1.,0.,0.));
#1273=DIRECTION('ref_axis',(0.,1.,0.));
#1274=DIRECTION('',(-1.,0.,0.));
#1275=DIRECTION('center_axis',(-0.816496580927726,0.408248290463863,-0.408248290463863));
#1276=DIRECTION('ref_axis',(0.577350269189626,0.577350269189626,-0.577350269189625));
#1277=DIRECTION('center_axis',(0.,1.,0.));
#1278=DIRECTION('ref_axis',(0.,0.,-1.));
#1279=DIRECTION('center_axis',(-0.816496580927726,-0.408248290463863,-0.408248290463863));
#1280=DIRECTION('ref_axis',(-0.577350269189626,0.577350269189626,0.577350269189625));
#1281=DIRECTION('center_axis',(0.,1.,0.));
#1282=DIRECTION('ref_axis',(0.,0.,1.));
#1283=DIRECTION('center_axis',(-0.408248290463863,-0.816496580927726,-0.408248290463862));
#1284=DIRECTION('ref_axis',(-0.577350269189626,0.577350269189626,-0.577350269189626));
#1285=DIRECTION('center_axis',(0.,1.,0.));
#1286=DIRECTION('ref_axis',(-1.,0.,0.));
#1287=DIRECTION('center_axis',(0.,-1.,0.));
#1288=DIRECTION('ref_axis',(0.,0.,-1.));
#1289=CARTESIAN_POINT('',(0.,0.,0.));
#1290=CARTESIAN_POINT('Origin',(-30.,95.,-105.));
#1291=CARTESIAN_POINT('',(-30.,95.,-105.));
#1292=CARTESIAN_POINT('',(30.,95.,-105.));
#1293=CARTESIAN_POINT('',(-15.,95.,-105.));
#1294=CARTESIAN_POINT('',(-30.,85.,-105.));
#1295=CARTESIAN_POINT('',(-30.,95.,-105.));
#1296=CARTESIAN_POINT('',(30.,85.,-105.));
#1297=CARTESIAN_POINT('',(30.,85.,-105.));
#1298=CARTESIAN_POINT('',(30.,95.,-105.));
#1299=CARTESIAN_POINT('Origin',(-30.0000000000001,95.,-75.0000000000001));
#1300=CARTESIAN_POINT('',(-60.,95.,-75.));
#1301=CARTESIAN_POINT('Origin',(-30.0000000000001,95.,-75.0000000000001));
#1302=CARTESIAN_POINT('',(-60.,85.,-75.));
#1303=CARTESIAN_POINT('',(-60.,95.,-75.));
#1304=CARTESIAN_POINT('Origin',(-30.0000000000001,85.,-75.0000000000001));
#1305=CARTESIAN_POINT('Origin',(-60.,95.,75.));
#1306=CARTESIAN_POINT('',(-60.,95.,75.));
#1307=CARTESIAN_POINT('',(-60.,95.,37.5));
#1308=CARTESIAN_POINT('',(-60.,85.,75.));
#1309=CARTESIAN_POINT('',(-60.,95.,75.));
#1310=CARTESIAN_POINT('',(-60.,85.,-75.));
#1311=CARTESIAN_POINT('Origin',(-30.0000000000001,95.,75.0000000000001));
#1312=CARTESIAN_POINT('',(-30.,95.,105.));
#1313=CARTESIAN_POINT('Origin',(-30.0000000000001,95.,75.0000000000001));
#1314=CARTESIAN_POINT('',(-30.,85.,105.));
#1315=CARTESIAN_POINT('',(-30.,95.,105.));
#1316=CARTESIAN_POINT('Origin',(-30.0000000000001,85.,75.0000000000001));
#1317=CARTESIAN_POINT('Origin',(30.,95.,105.));
#1318=CARTESIAN_POINT('',(30.,95.,105.));
#1319=CARTESIAN_POINT('',(15.,95.,105.));
#1320=CARTESIAN_POINT('',(30.,85.,105.));
#1321=CARTESIAN_POINT('',(30.,95.,105.));
#1322=CARTESIAN_POINT('',(-30.,85.,105.));
#1323=CARTESIAN_POINT('Origin',(30.,95.,75.));
#1324=CARTESIAN_POINT('',(60.,95.,75.));
#1325=CARTESIAN_POINT('Origin',(30.,95.,75.));
#1326=CARTESIAN_POINT('',(60.,85.,75.));
#1327=CARTESIAN_POINT('',(60.,95.,75.));
#1328=CARTESIAN_POINT('Origin',(30.,85.,75.));
#1329=CARTESIAN_POINT('Origin',(60.,95.,-35.));
#1330=CARTESIAN_POINT('',(60.,95.,-35.));
#1331=CARTESIAN_POINT('',(60.,95.,-17.5));
#1332=CARTESIAN_POINT('',(60.,85.,-35.));
#1333=CARTESIAN_POINT('',(60.,95.,-35.));
#1334=CARTESIAN_POINT('',(60.,85.,75.));
#1335=CARTESIAN_POINT('Origin',(35.,95.,-35.));
#1336=CARTESIAN_POINT('',(35.,95.,-35.));
#1337=CARTESIAN_POINT('',(17.5,95.,-35.));
#1338=CARTESIAN_POINT('',(35.,85.,-35.));
#1339=CARTESIAN_POINT('',(35.,95.,-35.));
#1340=CARTESIAN_POINT('',(35.,85.,-35.));
#1341=CARTESIAN_POINT('Origin',(35.,95.,-40.));
#1342=CARTESIAN_POINT('',(30.,95.,-40.));
#1343=CARTESIAN_POINT('Origin',(35.,95.,-40.));
#1344=CARTESIAN_POINT('',(30.,85.,-40.));
#1345=CARTESIAN_POINT('',(30.,95.,-40.));
#1346=CARTESIAN_POINT('Origin',(35.,85.,-40.));
#1347=CARTESIAN_POINT('Origin',(30.,95.,-70.0000000000001));
#1348=CARTESIAN_POINT('',(30.,95.,-70.0000000000001));
#1349=CARTESIAN_POINT('',(30.,95.,-35.));
#1350=CARTESIAN_POINT('',(30.,85.,-70.0000000000001));
#1351=CARTESIAN_POINT('',(30.,95.,-70.0000000000001));
#1352=CARTESIAN_POINT('',(30.,85.,-70.0000000000001));
#1353=CARTESIAN_POINT('Origin',(35.,95.,-70.0000000000001));
#1354=CARTESIAN_POINT('',(35.,95.,-75.0000000000001));
#1355=CARTESIAN_POINT('Origin',(35.,95.,-70.0000000000001));
#1356=CARTESIAN_POINT('',(35.,85.,-75.0000000000001));
#1357=CARTESIAN_POINT('',(35.,95.,-75.0000000000001));
#1358=CARTESIAN_POINT('Origin',(35.,85.,-70.0000000000001));
#1359=CARTESIAN_POINT('Origin',(60.,95.,-75.0000000000001));
#1360=CARTESIAN_POINT('',(60.,95.,-75.0000000000001));
#1361=CARTESIAN_POINT('',(30.,95.,-75.0000000000001));
#1362=CARTESIAN_POINT('',(60.,85.,-75.0000000000001));
#1363=CARTESIAN_POINT('',(60.,95.,-75.0000000000001));
#1364=CARTESIAN_POINT('',(60.,85.,-75.0000000000001));
#1365=CARTESIAN_POINT('Origin',(30.0000000000001,95.,-75.0000000000001));
#1366=CARTESIAN_POINT('Origin',(30.0000000000001,95.,-75.0000000000001));
#1367=CARTESIAN_POINT('Origin',(30.0000000000001,85.,-75.0000000000001));
#1368=CARTESIAN_POINT('Origin',(0.,85.,0.));
#1369=CARTESIAN_POINT('Origin',(40.5,95.,-63.5));
#1370=CARTESIAN_POINT('',(40.5,95.,-63.5));
#1371=CARTESIAN_POINT('',(47.5,95.,-63.5));
#1372=CARTESIAN_POINT('',(20.25,95.,-63.5));
#1373=CARTESIAN_POINT('',(40.5,75.,-63.5));
#1374=CARTESIAN_POINT('',(40.5,95.,-63.5));
#1375=CARTESIAN_POINT('',(47.5,75.,-63.5));
#1376=CARTESIAN_POINT('',(20.25,75.,-63.5));
#1377=CARTESIAN_POINT('',(47.5,95.,-63.5));
#1378=CARTESIAN_POINT('Origin',(40.5,95.,-63.));
#1379=CARTESIAN_POINT('',(40.,95.,-63.));
#1380=CARTESIAN_POINT('Origin',(40.5,95.,-63.));
#1381=CARTESIAN_POINT('',(40.,75.,-63.));
#1382=CARTESIAN_POINT('',(40.,95.,-63.));
#1383=CARTESIAN_POINT('Origin',(40.5,75.,-63.));
#1384=CARTESIAN_POINT('Origin',(40.,95.,-49.));
#1385=CARTESIAN_POINT('',(40.,95.,-49.));
#1386=CARTESIAN_POINT('',(40.,95.,-24.5));
#1387=CARTESIAN_POINT('',(40.,75.,-49.));
#1388=CARTESIAN_POINT('',(40.,95.,-49.));
#1389=CARTESIAN_POINT('',(40.,75.,-24.5012731567867));
#1390=CARTESIAN_POINT('Origin',(40.5,95.,-49.));
#1391=CARTESIAN_POINT('',(40.5,95.,-48.5));
#1392=CARTESIAN_POINT('Origin',(40.5,95.,-49.));
#1393=CARTESIAN_POINT('',(40.5,75.,-48.5));
#1394=CARTESIAN_POINT('',(40.5,95.,-48.5));
#1395=CARTESIAN_POINT('Origin',(40.5,75.,-49.));
#1396=CARTESIAN_POINT('Origin',(47.5,95.,-48.5));
#1397=CARTESIAN_POINT('',(47.5,95.,-48.5));
#1398=CARTESIAN_POINT('',(23.75,95.,-48.5));
#1399=CARTESIAN_POINT('',(47.5,75.,-48.5));
#1400=CARTESIAN_POINT('',(47.5,95.,-48.5));
#1401=CARTESIAN_POINT('',(23.75,75.,-48.5));
#1402=CARTESIAN_POINT('Origin',(47.5,95.,-49.));
#1403=CARTESIAN_POINT('',(48.,95.,-49.));
#1404=CARTESIAN_POINT('Origin',(47.5,95.,-49.));
#1405=CARTESIAN_POINT('',(48.,75.,-49.));
#1406=CARTESIAN_POINT('',(48.,95.,-49.));
#1407=CARTESIAN_POINT('Origin',(47.5,75.,-49.));
#1408=CARTESIAN_POINT('Origin',(48.,95.,-63.));
#1409=CARTESIAN_POINT('',(48.,95.,-63.));
#1410=CARTESIAN_POINT('',(48.,95.,-31.5));
#1411=CARTESIAN_POINT('',(48.,75.,-63.));
#1412=CARTESIAN_POINT('',(48.,95.,-63.));
#1413=CARTESIAN_POINT('',(48.,75.,-31.5012731567867));
#1414=CARTESIAN_POINT('Origin',(47.5,95.,-63.));
#1415=CARTESIAN_POINT('Origin',(47.5,95.,-63.));
#1416=CARTESIAN_POINT('Origin',(47.5,75.,-63.));
#1417=CARTESIAN_POINT('Origin',(-64.,95.,-114.));
#1418=CARTESIAN_POINT('',(-62.2,95.,-114.));
#1419=CARTESIAN_POINT('Origin',(-64.,95.,-114.));
#1420=CARTESIAN_POINT('',(-62.2,91.,-114.));
#1421=CARTESIAN_POINT('',(-62.2,95.,-114.));
#1422=CARTESIAN_POINT('Origin',(-64.,91.,-114.));
#1423=CARTESIAN_POINT('Origin',(-64.,91.,-114.));
#1424=CARTESIAN_POINT('Origin',(-64.,95.,114.));
#1425=CARTESIAN_POINT('',(-62.2,95.,114.));
#1426=CARTESIAN_POINT('Origin',(-64.,95.,114.));
#1427=CARTESIAN_POINT('',(-62.2,91.,114.));
#1428=CARTESIAN_POINT('',(-62.2,95.,114.));
#1429=CARTESIAN_POINT('Origin',(-64.,91.,114.));
#1430=CARTESIAN_POINT('Origin',(-64.,91.,114.));
#1431=CARTESIAN_POINT('Origin',(64.,95.,-114.));
#1432=CARTESIAN_POINT('',(65.8,95.,-114.));
#1433=CARTESIAN_POINT('Origin',(64.,95.,-114.));
#1434=CARTESIAN_POINT('',(65.8,91.,-114.));
#1435=CARTESIAN_POINT('',(65.8,95.,-114.));
#1436=CARTESIAN_POINT('Origin',(64.,91.,-114.));
#1437=CARTESIAN_POINT('Origin',(64.,91.,-114.));
#1438=CARTESIAN_POINT('Origin',(64.,95.,114.));
#1439=CARTESIAN_POINT('',(65.8,95.,114.));
#1440=CARTESIAN_POINT('Origin',(64.,95.,114.));
#1441=CARTESIAN_POINT('',(65.8,91.,114.));
#1442=CARTESIAN_POINT('',(65.8,95.,114.));
#1443=CARTESIAN_POINT('Origin',(64.,91.,114.));
#1444=CARTESIAN_POINT('Origin',(64.,91.,114.));
#1445=CARTESIAN_POINT('Origin',(91.6503154199033,77.,-139.857357803628));
#1446=CARTESIAN_POINT('',(94.6503154199033,77.,-139.857357803628));
#1447=CARTESIAN_POINT('Origin',(91.6503154199033,77.,-139.857357803628));
#1448=CARTESIAN_POINT('',(93.2503154199033,77.,-139.857357803628));
#1449=CARTESIAN_POINT('Origin',(91.6503154199033,77.,-139.857357803628));
#1450=CARTESIAN_POINT('Origin',(91.6503154199033,77.,139.857357803628));
#1451=CARTESIAN_POINT('',(94.6503154199033,77.,139.857357803628));
#1452=CARTESIAN_POINT('Origin',(91.6503154199033,77.,139.857357803628));
#1453=CARTESIAN_POINT('',(93.2503154199033,77.,139.857357803628));
#1454=CARTESIAN_POINT('Origin',(91.6503154199033,77.,139.857357803628));
#1455=CARTESIAN_POINT('Origin',(-91.6503154199033,77.,139.857357803628));
#1456=CARTESIAN_POINT('',(-88.6503154199033,77.,139.857357803628));
#1457=CARTESIAN_POINT('Origin',(-91.6503154199033,77.,139.857357803628));
#1458=CARTESIAN_POINT('',(-90.0503154199033,77.,139.857357803628));
#1459=CARTESIAN_POINT('Origin',(-91.6503154199033,77.,139.857357803628));
#1460=CARTESIAN_POINT('Origin',(-91.6503154199033,77.,-139.857357803628));
#1461=CARTESIAN_POINT('',(-88.6503154199033,77.,-139.857357803628));
#1462=CARTESIAN_POINT('Origin',(-91.6503154199033,77.,-139.857357803628));
#1463=CARTESIAN_POINT('',(-90.0503154199033,77.,-139.857357803628));
#1464=CARTESIAN_POINT('Origin',(-91.6503154199033,77.,-139.857357803628));
#1465=CARTESIAN_POINT('Origin',(-91.6503154199033,95.,-139.857357803628));
#1466=CARTESIAN_POINT('',(-90.0503154199033,75.,-139.857357803628));
#1467=CARTESIAN_POINT('',(-90.0503154199033,95.,-139.857357803628));
#1468=CARTESIAN_POINT('Origin',(-91.6503154199033,75.,-139.857357803628));
#1469=CARTESIAN_POINT('Origin',(-91.6503154199033,95.,139.857357803628));
#1470=CARTESIAN_POINT('',(-90.0503154199033,75.,139.857357803628));
#1471=CARTESIAN_POINT('',(-90.0503154199033,95.,139.857357803628));
#1472=CARTESIAN_POINT('Origin',(-91.6503154199033,75.,139.857357803628));
#1473=CARTESIAN_POINT('Origin',(91.6503154199033,95.,-139.857357803628));
#1474=CARTESIAN_POINT('',(93.2503154199033,75.,-139.857357803628));
#1475=CARTESIAN_POINT('',(93.2503154199033,95.,-139.857357803628));
#1476=CARTESIAN_POINT('Origin',(91.6503154199033,75.,-139.857357803628));
#1477=CARTESIAN_POINT('Origin',(91.6503154199033,95.,139.857357803628));
#1478=CARTESIAN_POINT('',(93.2503154199033,75.,139.857357803628));
#1479=CARTESIAN_POINT('',(93.2503154199033,95.,139.857357803628));
#1480=CARTESIAN_POINT('Origin',(91.6503154199033,75.,139.857357803628));
#1481=CARTESIAN_POINT('Origin',(91.6503154199033,95.,139.857357803628));
#1482=CARTESIAN_POINT('',(88.6503154199033,90.0998192130712,139.857357803628));
#1483=CARTESIAN_POINT('',(94.6503154199033,84.3915257135672,139.857357803628));
#1484=CARTESIAN_POINT('Ctrl Pts',(88.6503154199033,90.0998192130712,139.857357803628));
#1485=CARTESIAN_POINT('Ctrl Pts',(88.6503154199033,90.318621750275,139.522189006781));
#1486=CARTESIAN_POINT('Ctrl Pts',(88.7108361322926,90.5172417338657,139.138371807121));
#1487=CARTESIAN_POINT('Ctrl Pts',(88.9268692146124,90.705874114431,138.583696664953));
#1488=CARTESIAN_POINT('Ctrl Pts',(89.0191493922232,90.7513255080451,138.401940582715));
#1489=CARTESIAN_POINT('Ctrl Pts',(89.2393940150328,90.8020254066044,138.060490547052));
#1490=CARTESIAN_POINT('Ctrl Pts',(89.3673835182809,90.8072570817106,137.900810258595));
#1491=CARTESIAN_POINT('Ctrl Pts',(89.6566817646547,90.7782043012903,137.605439157868));
#1492=CARTESIAN_POINT('Ctrl Pts',(89.822920901451,90.740876759936,137.468799191317));
#1493=CARTESIAN_POINT('Ctrl Pts',(90.1755032399916,90.6250389102208,137.236382413532));
#1494=CARTESIAN_POINT('Ctrl Pts',(90.3618312301707,90.5465294320526,137.140582113026));
#1495=CARTESIAN_POINT('Ctrl Pts',(90.9273954857562,90.2622963002795,136.917693726133));
#1496=CARTESIAN_POINT('Ctrl Pts',(91.314019250236,90.0051113358995,136.857357803628));
#1497=CARTESIAN_POINT('Ctrl Pts',(92.0610301262467,89.4146548195707,136.857357803628));
#1498=CARTESIAN_POINT('Ctrl Pts',(92.4651277792192,89.0254524360362,136.944507391738));
#1499=CARTESIAN_POINT('Ctrl Pts',(93.1751102474591,88.2001189960555,137.245152721576));
#1500=CARTESIAN_POINT('Ctrl Pts',(93.4810550780973,87.7637852675422,137.457949915759));
#1501=CARTESIAN_POINT('Ctrl Pts',(93.9961331349525,86.8866654490804,137.948743033923));
#1502=CARTESIAN_POINT('Ctrl Pts',(94.2355879287773,86.3661084525066,138.281881965642));
#1503=CARTESIAN_POINT('Ctrl Pts',(94.5619677391727,85.3381086307536,139.02787679507));
#1504=CARTESIAN_POINT('Ctrl Pts',(94.6503154199033,84.8301772729912,139.439435731437));
#1505=CARTESIAN_POINT('Ctrl Pts',(94.6503154199033,84.3915257135673,139.857357803628));
#1506=CARTESIAN_POINT('Ctrl Pts',(94.6503154199033,84.3915257135672,139.857357803628));
#1507=CARTESIAN_POINT('Ctrl Pts',(94.6503154199033,84.0155699028916,140.215546958721));
#1508=CARTESIAN_POINT('Ctrl Pts',(94.574548550521,83.5990619729477,140.672783609552));
#1509=CARTESIAN_POINT('Ctrl Pts',(94.3207365269304,83.2929550100561,141.232605515858));
#1510=CARTESIAN_POINT('Ctrl Pts',(94.239142860181,83.2278051752461,141.383419591116));
#1511=CARTESIAN_POINT('Ctrl Pts',(94.0432284886327,83.1552232122129,141.675284876905));
#1512=CARTESIAN_POINT('Ctrl Pts',(93.9285290345634,83.1485951682505,141.816281135143));
#1513=CARTESIAN_POINT('Ctrl Pts',(93.6389045086158,83.1980069831521,142.117640703835));
#1514=CARTESIAN_POINT('Ctrl Pts',(93.4594380821496,83.2818126985869,142.260321049016));
#1515=CARTESIAN_POINT('Ctrl Pts',(93.0945114748919,83.5116831951078,142.495814727607));
#1516=CARTESIAN_POINT('Ctrl Pts',(92.9090455616103,83.6586023004673,142.587783721639));
#1517=CARTESIAN_POINT('Ctrl Pts',(92.3513561494168,84.1563241234279,142.801340958854));
#1518=CARTESIAN_POINT('Ctrl Pts',(91.9795083144453,84.5622557237475,142.857357803628));
#1519=CARTESIAN_POINT('Ctrl Pts',(91.2433796279875,85.4243700695816,142.857357803628));
#1520=CARTESIAN_POINT('Ctrl Pts',(90.8261521812585,85.9601733286184,142.77220289264));
#1521=CARTESIAN_POINT('Ctrl Pts',(90.05904272519,87.0270747738025,142.434840932398));
#1522=CARTESIAN_POINT('Ctrl Pts',(89.7100075407925,87.5584772322556,142.181671874657));
#1523=CARTESIAN_POINT('Ctrl Pts',(89.2220543768043,88.3990516568807,141.646976346618));
#1524=CARTESIAN_POINT('Ctrl Pts',(89.0207615680694,88.7872688892098,141.349296468053));
#1525=CARTESIAN_POINT('Ctrl Pts',(88.7345567031184,89.505649048838,140.656599733641));
#1526=CARTESIAN_POINT('Ctrl Pts',(88.6503154199033,89.8359936531568,140.261494321532));
#1527=CARTESIAN_POINT('Ctrl Pts',(88.6503154199033,90.0998192130712,139.857357803628));
#1528=CARTESIAN_POINT('',(94.6503154199033,95.,139.857357803628));
#1529=CARTESIAN_POINT('Origin',(91.6503154199033,95.,-139.857357803628));
#1530=CARTESIAN_POINT('',(88.6503154199033,90.0998192130712,-139.857357803628));
#1531=CARTESIAN_POINT('',(94.6503154199033,84.3915257135673,-139.857357803628));
#1532=CARTESIAN_POINT('Ctrl Pts',(88.6503154199033,90.0998192130712,-139.857357803628));
#1533=CARTESIAN_POINT('Ctrl Pts',(88.6503154199033,89.8359936531568,-140.261494321532));
#1534=CARTESIAN_POINT('Ctrl Pts',(88.7345567031184,89.505649048838,-140.656599733641));
#1535=CARTESIAN_POINT('Ctrl Pts',(89.0207615680694,88.7872688892098,-141.349296468053));
#1536=CARTESIAN_POINT('Ctrl Pts',(89.2220543768043,88.3990516568807,-141.646976346618));
#1537=CARTESIAN_POINT('Ctrl Pts',(89.7100075407925,87.5584772322556,-142.181671874657));
#1538=CARTESIAN_POINT('Ctrl Pts',(90.05904272519,87.0270747738026,-142.434840932398));
#1539=CARTESIAN_POINT('Ctrl Pts',(90.8261521812585,85.9601733286185,-142.77220289264));
#1540=CARTESIAN_POINT('Ctrl Pts',(91.2433796279875,85.4243700695816,-142.857357803628));
#1541=CARTESIAN_POINT('Ctrl Pts',(91.9795083144453,84.5622557237475,-142.857357803628));
#1542=CARTESIAN_POINT('Ctrl Pts',(92.3513561494168,84.1563241234279,-142.801340958854));
#1543=CARTESIAN_POINT('Ctrl Pts',(92.9090455616103,83.6586023004673,-142.587783721639));
#1544=CARTESIAN_POINT('Ctrl Pts',(93.0945114748919,83.5116831951078,-142.495814727607));
#1545=CARTESIAN_POINT('Ctrl Pts',(93.4594380821495,83.2818126985869,-142.260321049016));
#1546=CARTESIAN_POINT('Ctrl Pts',(93.6389045086158,83.1980069831521,-142.117640703835));
#1547=CARTESIAN_POINT('Ctrl Pts',(93.9285290345634,83.1485951682505,-141.816281135143));
#1548=CARTESIAN_POINT('Ctrl Pts',(94.0432284886327,83.1552232122129,-141.675284876905));
#1549=CARTESIAN_POINT('Ctrl Pts',(94.239142860181,83.2278051752461,-141.383419591116));
#1550=CARTESIAN_POINT('Ctrl Pts',(94.3207365269304,83.2929550100561,-141.232605515858));
#1551=CARTESIAN_POINT('Ctrl Pts',(94.574548550521,83.5990619729477,-140.672783609552));
#1552=CARTESIAN_POINT('Ctrl Pts',(94.6503154199033,84.0155699028916,-140.215546958721));
#1553=CARTESIAN_POINT('Ctrl Pts',(94.6503154199033,84.3915257135672,-139.857357803628));
#1554=CARTESIAN_POINT('Ctrl Pts',(94.6503154199033,84.3915257135673,-139.857357803628));
#1555=CARTESIAN_POINT('Ctrl Pts',(94.6503154199033,84.8301772729912,-139.439435731437));
#1556=CARTESIAN_POINT('Ctrl Pts',(94.5619677391727,85.3381086307536,-139.02787679507));
#1557=CARTESIAN_POINT('Ctrl Pts',(94.2355879287773,86.3661084525066,-138.281881965642));
#1558=CARTESIAN_POINT('Ctrl Pts',(93.9961331349525,86.8866654490804,-137.948743033923));
#1559=CARTESIAN_POINT('Ctrl Pts',(93.4810550780973,87.7637852675422,-137.457949915759));
#1560=CARTESIAN_POINT('Ctrl Pts',(93.1751102474591,88.2001189960555,-137.245152721576));
#1561=CARTESIAN_POINT('Ctrl Pts',(92.4651277792192,89.0254524360362,-136.944507391738));
#1562=CARTESIAN_POINT('Ctrl Pts',(92.0610301262467,89.4146548195707,-136.857357803628));
#1563=CARTESIAN_POINT('Ctrl Pts',(91.314019250236,90.0051113358996,-136.857357803628));
#1564=CARTESIAN_POINT('Ctrl Pts',(90.9273954857562,90.2622963002795,-136.917693726133));
#1565=CARTESIAN_POINT('Ctrl Pts',(90.3618312301707,90.5465294320526,-137.140582113026));
#1566=CARTESIAN_POINT('Ctrl Pts',(90.1755032399916,90.6250389102208,-137.236382413532));
#1567=CARTESIAN_POINT('Ctrl Pts',(89.822920901451,90.740876759936,-137.468799191317));
#1568=CARTESIAN_POINT('Ctrl Pts',(89.6566817646547,90.7782043012903,-137.605439157868));
#1569=CARTESIAN_POINT('Ctrl Pts',(89.3673835182809,90.8072570817106,-137.900810258595));
#1570=CARTESIAN_POINT('Ctrl Pts',(89.2393940150328,90.8020254066044,-138.060490547052));
#1571=CARTESIAN_POINT('Ctrl Pts',(89.0191493922232,90.7513255080451,-138.401940582715));
#1572=CARTESIAN_POINT('Ctrl Pts',(88.9268692146125,90.705874114431,-138.583696664953));
#1573=CARTESIAN_POINT('Ctrl Pts',(88.7108361322926,90.5172417338657,-139.138371807121));
#1574=CARTESIAN_POINT('Ctrl Pts',(88.6503154199033,90.318621750275,-139.522189006781));
#1575=CARTESIAN_POINT('Ctrl Pts',(88.6503154199033,90.0998192130712,-139.857357803628));
#1576=CARTESIAN_POINT('',(94.6503154199033,95.,-139.857357803628));
#1577=CARTESIAN_POINT('Origin',(-91.6503154199033,95.,139.857357803628));
#1578=CARTESIAN_POINT('',(-94.6503154199033,84.3915257135673,139.857357803628));
#1579=CARTESIAN_POINT('',(-88.6503154199033,90.0998192130712,139.857357803628));
#1580=CARTESIAN_POINT('Ctrl Pts',(-94.6503154199033,84.3915257135673,139.857357803628));
#1581=CARTESIAN_POINT('Ctrl Pts',(-94.6503154199033,84.8301772729912,139.439435731437));
#1582=CARTESIAN_POINT('Ctrl Pts',(-94.5619677391727,85.3381086307536,139.02787679507));
#1583=CARTESIAN_POINT('Ctrl Pts',(-94.2355879287773,86.3661084525066,138.281881965642));
#1584=CARTESIAN_POINT('Ctrl Pts',(-93.9961331349525,86.8866654490804,137.948743033923));
#1585=CARTESIAN_POINT('Ctrl Pts',(-93.4810550780973,87.7637852675422,137.457949915759));
#1586=CARTESIAN_POINT('Ctrl Pts',(-93.1751102474591,88.2001189960555,137.245152721576));
#1587=CARTESIAN_POINT('Ctrl Pts',(-92.4651277792192,89.0254524360362,136.944507391738));
#1588=CARTESIAN_POINT('Ctrl Pts',(-92.0610301262467,89.4146548195707,136.857357803628));
#1589=CARTESIAN_POINT('Ctrl Pts',(-91.314019250236,90.0051113358996,136.857357803628));
#1590=CARTESIAN_POINT('Ctrl Pts',(-90.9273954857562,90.2622963002795,136.917693726133));
#1591=CARTESIAN_POINT('Ctrl Pts',(-90.3618312301707,90.5465294320526,137.140582113026));
#1592=CARTESIAN_POINT('Ctrl Pts',(-90.1755032399916,90.6250389102208,137.236382413532));
#1593=CARTESIAN_POINT('Ctrl Pts',(-89.822920901451,90.740876759936,137.468799191317));
#1594=CARTESIAN_POINT('Ctrl Pts',(-89.6566817646547,90.7782043012903,137.605439157868));
#1595=CARTESIAN_POINT('Ctrl Pts',(-89.3673835182809,90.8072570817106,137.900810258595));
#1596=CARTESIAN_POINT('Ctrl Pts',(-89.2393940150328,90.8020254066044,138.060490547052));
#1597=CARTESIAN_POINT('Ctrl Pts',(-89.0191493922232,90.7513255080451,138.401940582715));
#1598=CARTESIAN_POINT('Ctrl Pts',(-88.9268692146124,90.705874114431,138.583696664953));
#1599=CARTESIAN_POINT('Ctrl Pts',(-88.7108361322926,90.5172417338657,139.138371807121));
#1600=CARTESIAN_POINT('Ctrl Pts',(-88.6503154199033,90.318621750275,139.522189006781));
#1601=CARTESIAN_POINT('Ctrl Pts',(-88.6503154199033,90.0998192130712,139.857357803628));
#1602=CARTESIAN_POINT('Ctrl Pts',(-88.6503154199033,90.0998192130712,139.857357803628));
#1603=CARTESIAN_POINT('Ctrl Pts',(-88.6503154199033,89.8359936531568,140.261494321532));
#1604=CARTESIAN_POINT('Ctrl Pts',(-88.7345567031184,89.505649048838,140.656599733641));
#1605=CARTESIAN_POINT('Ctrl Pts',(-89.0207615680694,88.7872688892098,141.349296468053));
#1606=CARTESIAN_POINT('Ctrl Pts',(-89.2220543768043,88.3990516568807,141.646976346618));
#1607=CARTESIAN_POINT('Ctrl Pts',(-89.7100075407925,87.5584772322556,142.181671874657));
#1608=CARTESIAN_POINT('Ctrl Pts',(-90.05904272519,87.0270747738026,142.434840932398));
#1609=CARTESIAN_POINT('Ctrl Pts',(-90.8261521812585,85.9601733286184,142.77220289264));
#1610=CARTESIAN_POINT('Ctrl Pts',(-91.2433796279875,85.4243700695816,142.857357803628));
#1611=CARTESIAN_POINT('Ctrl Pts',(-91.9795083144453,84.5622557237475,142.857357803628));
#1612=CARTESIAN_POINT('Ctrl Pts',(-92.3513561494168,84.1563241234279,142.801340958854));
#1613=CARTESIAN_POINT('Ctrl Pts',(-92.9090455616103,83.6586023004673,142.587783721639));
#1614=CARTESIAN_POINT('Ctrl Pts',(-93.0945114748919,83.5116831951078,142.495814727607));
#1615=CARTESIAN_POINT('Ctrl Pts',(-93.4594380821495,83.2818126985869,142.260321049016));
#1616=CARTESIAN_POINT('Ctrl Pts',(-93.6389045086158,83.1980069831521,142.117640703835));
#1617=CARTESIAN_POINT('Ctrl Pts',(-93.9285290345634,83.1485951682505,141.816281135143));
#1618=CARTESIAN_POINT('Ctrl Pts',(-94.0432284886327,83.1552232122129,141.675284876905));
#1619=CARTESIAN_POINT('Ctrl Pts',(-94.239142860181,83.2278051752461,141.383419591116));
#1620=CARTESIAN_POINT('Ctrl Pts',(-94.3207365269304,83.2929550100561,141.232605515858));
#1621=CARTESIAN_POINT('Ctrl Pts',(-94.574548550521,83.5990619729477,140.672783609552));
#1622=CARTESIAN_POINT('Ctrl Pts',(-94.6503154199033,84.0155699028916,140.215546958721));
#1623=CARTESIAN_POINT('Ctrl Pts',(-94.6503154199033,84.3915257135672,139.857357803628));
#1624=CARTESIAN_POINT('',(-88.6503154199033,95.,139.857357803628));
#1625=CARTESIAN_POINT('Origin',(-91.6503154199033,95.,-139.857357803628));
#1626=CARTESIAN_POINT('',(-94.6503154199033,84.3915257135673,-139.857357803628));
#1627=CARTESIAN_POINT('',(-88.6503154199033,90.0998192130712,-139.857357803628));
#1628=CARTESIAN_POINT('Ctrl Pts',(-94.6503154199033,84.3915257135673,-139.857357803628));
#1629=CARTESIAN_POINT('Ctrl Pts',(-94.6503154199033,84.0155699028916,-140.215546958721));
#1630=CARTESIAN_POINT('Ctrl Pts',(-94.574548550521,83.5990619729477,-140.672783609552));
#1631=CARTESIAN_POINT('Ctrl Pts',(-94.3207365269304,83.2929550100561,-141.232605515858));
#1632=CARTESIAN_POINT('Ctrl Pts',(-94.239142860181,83.2278051752461,-141.383419591116));
#1633=CARTESIAN_POINT('Ctrl Pts',(-94.0432284886327,83.1552232122129,-141.675284876905));
#1634=CARTESIAN_POINT('Ctrl Pts',(-93.9285290345634,83.1485951682505,-141.816281135143));
#1635=CARTESIAN_POINT('Ctrl Pts',(-93.6389045086158,83.1980069831521,-142.117640703835));
#1636=CARTESIAN_POINT('Ctrl Pts',(-93.4594380821495,83.2818126985869,-142.260321049016));
#1637=CARTESIAN_POINT('Ctrl Pts',(-93.0945114748919,83.5116831951078,-142.495814727607));
#1638=CARTESIAN_POINT('Ctrl Pts',(-92.9090455616103,83.6586023004673,-142.587783721639));
#1639=CARTESIAN_POINT('Ctrl Pts',(-92.3513561494168,84.1563241234279,-142.801340958854));
#1640=CARTESIAN_POINT('Ctrl Pts',(-91.9795083144453,84.5622557237475,-142.857357803628));
#1641=CARTESIAN_POINT('Ctrl Pts',(-91.2433796279875,85.4243700695816,-142.857357803628));
#1642=CARTESIAN_POINT('Ctrl Pts',(-90.8261521812585,85.9601733286184,-142.77220289264));
#1643=CARTESIAN_POINT('Ctrl Pts',(-90.05904272519,87.0270747738026,-142.434840932398));
#1644=CARTESIAN_POINT('Ctrl Pts',(-89.7100075407925,87.5584772322556,-142.181671874657));
#1645=CARTESIAN_POINT('Ctrl Pts',(-89.2220543768043,88.3990516568807,-141.646976346618));
#1646=CARTESIAN_POINT('Ctrl Pts',(-89.0207615680694,88.7872688892098,-141.349296468053));
#1647=CARTESIAN_POINT('Ctrl Pts',(-88.7345567031184,89.505649048838,-140.656599733641));
#1648=CARTESIAN_POINT('Ctrl Pts',(-88.6503154199033,89.8359936531568,-140.261494321532));
#1649=CARTESIAN_POINT('Ctrl Pts',(-88.6503154199033,90.0998192130712,-139.857357803628));
#1650=CARTESIAN_POINT('Ctrl Pts',(-88.6503154199033,90.0998192130712,-139.857357803628));
#1651=CARTESIAN_POINT('Ctrl Pts',(-88.6503154199033,90.318621750275,-139.522189006781));
#1652=CARTESIAN_POINT('Ctrl Pts',(-88.7108361322926,90.5172417338657,-139.138371807121));
#1653=CARTESIAN_POINT('Ctrl Pts',(-88.9268692146124,90.705874114431,-138.583696664953));
#1654=CARTESIAN_POINT('Ctrl Pts',(-89.0191493922232,90.7513255080451,-138.401940582715));
#1655=CARTESIAN_POINT('Ctrl Pts',(-89.2393940150328,90.8020254066044,-138.060490547052));
#1656=CARTESIAN_POINT('Ctrl Pts',(-89.3673835182809,90.8072570817105,-137.900810258595));
#1657=CARTESIAN_POINT('Ctrl Pts',(-89.6566817646547,90.7782043012903,-137.605439157868));
#1658=CARTESIAN_POINT('Ctrl Pts',(-89.822920901451,90.740876759936,-137.468799191317));
#1659=CARTESIAN_POINT('Ctrl Pts',(-90.1755032399916,90.6250389102208,-137.236382413532));
#1660=CARTESIAN_POINT('Ctrl Pts',(-90.3618312301707,90.5465294320526,-137.140582113026));
#1661=CARTESIAN_POINT('Ctrl Pts',(-90.9273954857562,90.2622963002795,-136.917693726133));
#1662=CARTESIAN_POINT('Ctrl Pts',(-91.314019250236,90.0051113358996,-136.857357803628));
#1663=CARTESIAN_POINT('Ctrl Pts',(-92.0610301262467,89.4146548195707,-136.857357803628));
#1664=CARTESIAN_POINT('Ctrl Pts',(-92.4651277792192,89.0254524360362,-136.944507391738));
#1665=CARTESIAN_POINT('Ctrl Pts',(-93.1751102474591,88.2001189960555,-137.245152721576));
#1666=CARTESIAN_POINT('Ctrl Pts',(-93.4810550780973,87.7637852675422,-137.457949915759));
#1667=CARTESIAN_POINT('Ctrl Pts',(-93.9961331349525,86.8866654490804,-137.948743033923));
#1668=CARTESIAN_POINT('Ctrl Pts',(-94.2355879287773,86.3661084525066,-138.281881965642));
#1669=CARTESIAN_POINT('Ctrl Pts',(-94.5619677391727,85.3381086307536,-139.02787679507));
#1670=CARTESIAN_POINT('Ctrl Pts',(-94.6503154199033,84.8301772729912,-139.439435731437));
#1671=CARTESIAN_POINT('Ctrl Pts',(-94.6503154199033,84.3915257135673,-139.857357803628));
#1672=CARTESIAN_POINT('',(-88.6503154199033,95.,-139.857357803628));
#1673=CARTESIAN_POINT('Origin',(0.,95.,0.));
#1674=CARTESIAN_POINT('',(-80.,95.,-130.));
#1675=CARTESIAN_POINT('',(80.,95.,-130.));
#1676=CARTESIAN_POINT('',(50.,95.,-130.));
#1677=CARTESIAN_POINT('',(-80.,95.,130.));
#1678=CARTESIAN_POINT('',(-80.,95.,-75.));
#1679=CARTESIAN_POINT('',(80.,95.,130.));
#1680=CARTESIAN_POINT('',(-50.,95.,130.));
#1681=CARTESIAN_POINT('',(80.,95.,75.));
#1682=CARTESIAN_POINT('Origin',(-80.,75.,-75.));
#1683=CARTESIAN_POINT('',(-100.,75.,130.));
#1684=CARTESIAN_POINT('Origin',(-80.,75.,130.));
#1685=CARTESIAN_POINT('',(-100.,75.,-130.));
#1686=CARTESIAN_POINT('Origin',(-80.,75.,-130.));
#1687=CARTESIAN_POINT('',(-100.,75.,-75.));
#1688=CARTESIAN_POINT('Origin',(-50.,75.,130.));
#1689=CARTESIAN_POINT('',(80.,75.,150.));
#1690=CARTESIAN_POINT('Origin',(80.,75.,130.));
#1691=CARTESIAN_POINT('',(-80.,75.,150.));
#1692=CARTESIAN_POINT('Origin',(-80.,75.,130.));
#1693=CARTESIAN_POINT('',(-50.,75.,150.));
#1694=CARTESIAN_POINT('Origin',(80.,75.,75.));
#1695=CARTESIAN_POINT('',(100.,75.,-130.));
#1696=CARTESIAN_POINT('Origin',(80.,75.,-130.));
#1697=CARTESIAN_POINT('',(100.,75.,130.));
#1698=CARTESIAN_POINT('Origin',(80.,75.,130.));
#1699=CARTESIAN_POINT('',(100.,75.,75.));
#1700=CARTESIAN_POINT('Origin',(80.,75.,130.));
#1701=CARTESIAN_POINT('Origin',(80.,75.,130.));
#1702=CARTESIAN_POINT('Origin',(50.,75.,-130.));
#1703=CARTESIAN_POINT('',(-80.,75.,-150.));
#1704=CARTESIAN_POINT('Origin',(-80.,75.,-130.));
#1705=CARTESIAN_POINT('',(80.,75.,-150.));
#1706=CARTESIAN_POINT('Origin',(80.,75.,-130.));
#1707=CARTESIAN_POINT('',(50.,75.,-150.));
#1708=CARTESIAN_POINT('Origin',(80.,75.,-130.));
#1709=CARTESIAN_POINT('Origin',(80.,75.,-130.));
#1710=CARTESIAN_POINT('Origin',(-80.,75.,130.));
#1711=CARTESIAN_POINT('Origin',(-80.,75.,130.));
#1712=CARTESIAN_POINT('Origin',(-80.,75.,-130.));
#1713=CARTESIAN_POINT('Origin',(-80.,75.,-130.));
#1714=CARTESIAN_POINT('Origin',(0.,75.,-0.00254631357340607));
#1715=UNCERTAINTY_MEASURE_WITH_UNIT(LENGTH_MEASURE(0.01),#1719,
'DISTANCE_ACCURACY_VALUE',
'Maximum model space distance between geometric entities at asserted c
onnectivities');
#1716=UNCERTAINTY_MEASURE_WITH_UNIT(LENGTH_MEASURE(0.01),#1719,
'DISTANCE_ACCURACY_VALUE',
'Maximum model space distance between geometric entities at asserted c
onnectivities');
#1717=(
GEOMETRIC_REPRESENTATION_CONTEXT(3)
GLOBAL_UNCERTAINTY_ASSIGNED_CONTEXT((#1715))
GLOBAL_UNIT_ASSIGNED_CONTEXT((#1719,#1721,#1722))
REPRESENTATION_CONTEXT('','3D')
);
#1718=(
GEOMETRIC_REPRESENTATION_CONTEXT(3)
GLOBAL_UNCERTAINTY_ASSIGNED_CONTEXT((#1716))
GLOBAL_UNIT_ASSIGNED_CONTEXT((#1719,#1721,#1722))
REPRESENTATION_CONTEXT('','3D')
);
#1719=(
LENGTH_UNIT()
NAMED_UNIT(*)
SI_UNIT(.MILLI.,.METRE.)
);
#1720=(
LENGTH_UNIT()
NAMED_UNIT(*)
SI_UNIT($,.METRE.)
);
#1721=(
NAMED_UNIT(*)
PLANE_ANGLE_UNIT()
SI_UNIT($,.RADIAN.)
);
#1722=(
NAMED_UNIT(*)
SI_UNIT($,.STERADIAN.)
SOLID_ANGLE_UNIT()
);
#1723=SHAPE_DEFINITION_REPRESENTATION(#1724,#1725);
#1724=PRODUCT_DEFINITION_SHAPE('',$,#1727);
#1725=SHAPE_REPRESENTATION('',(#911),#1717);
#1726=PRODUCT_DEFINITION_CONTEXT('part definition',#1731,'design');
#1727=PRODUCT_DEFINITION('Cover','Cover',#1728,#1726);
#1728=PRODUCT_DEFINITION_FORMATION('',$,#1733);
#1729=PRODUCT_RELATED_PRODUCT_CATEGORY('Cover','Cover',(#1733));
#1730=APPLICATION_PROTOCOL_DEFINITION('international standard',
'automotive_design',2009,#1731);
#1731=APPLICATION_CONTEXT(
'Core Data for Automotive Mechanical Design Process');
#1732=PRODUCT_CONTEXT('part definition',#1731,'mechanical');
#1733=PRODUCT('Cover','Cover',$,(#1732));
#1734=PRESENTATION_STYLE_ASSIGNMENT((#1736));
#1735=PRESENTATION_STYLE_ASSIGNMENT((#1737));
#1736=SURFACE_STYLE_USAGE(.BOTH.,#1738);
#1737=SURFACE_STYLE_USAGE(.BOTH.,#1739);
#1738=SURFACE_SIDE_STYLE('',(#1740));
#1739=SURFACE_SIDE_STYLE('',(#1741));
#1740=SURFACE_STYLE_FILL_AREA(#1742);
#1741=SURFACE_STYLE_FILL_AREA(#1743);
#1742=FILL_AREA_STYLE('Steel - Satin',(#1744));
#1743=FILL_AREA_STYLE('Plastic - Translucent Matte (Blue)(1)',(#1745));
#1744=FILL_AREA_STYLE_COLOUR('Steel - Satin',#1746);
#1745=FILL_AREA_STYLE_COLOUR('Plastic - Translucent Matte (Blue)(1)',#1747);
#1746=COLOUR_RGB('Steel - Satin',0.627450980392157,0.627450980392157,0.627450980392157);
#1747=COLOUR_RGB('Plastic - Translucent Matte (Blue)(1)',0.,0.,0.);
ENDSEC;
END-ISO-10303-21;
