ISO-10303-21;
HEADER;
/* Generated by software containing ST-Developer
 * from STEP Tools, Inc. (www.steptools.com) 
 */

FILE_DESCRIPTION(
/* description */ (''),
/* implementation_level */ '2;1');

FILE_NAME(
/* name */ 'Platform Container.step',
/* time_stamp */ '2026-04-06T15:05:13+02:00',
/* author */ (''),
/* organization */ (''),
/* preprocessor_version */ 'ST-DEVELOPER v20.1',
/* originating_system */ 'Autodesk Translation Framework v14.24.0.0',
/* authorisation */ '');

FILE_SCHEMA (('AUTOMOTIVE_DESIGN { 1 0 10303 214 3 1 1 }'));
ENDSEC;

DATA;
#10=MECHANICAL_DESIGN_GEOMETRIC_PRESENTATION_REPRESENTATION('',(#13),#1992);
#11=SHAPE_REPRESENTATION_RELATIONSHIP('SRR','None',#1999,#12);
#12=ADVANCED_BREP_SHAPE_REPRESENTATION('',(#14),#1991);
#13=STYLED_ITEM('',(#2009),#14);
#14=MANIFOLD_SOLID_BREP('Container',#1200);
#15=FACE_BOUND('',#158,.T.);
#16=FACE_BOUND('',#160,.T.);
#17=FACE_BOUND('',#170,.T.);
#18=FACE_BOUND('',#171,.T.);
#19=FACE_BOUND('',#172,.T.);
#20=FACE_BOUND('',#173,.T.);
#21=FACE_BOUND('',#177,.T.);
#22=FACE_BOUND('',#178,.T.);
#23=FACE_BOUND('',#179,.T.);
#24=FACE_BOUND('',#180,.T.);
#25=FACE_BOUND('',#181,.T.);
#26=FACE_BOUND('',#190,.T.);
#27=FACE_BOUND('',#192,.T.);
#28=FACE_BOUND('',#220,.T.);
#29=FACE_BOUND('',#221,.T.);
#30=FACE_BOUND('',#222,.T.);
#31=FACE_BOUND('',#223,.T.);
#32=FACE_BOUND('',#224,.T.);
#33=FACE_BOUND('',#225,.T.);
#34=FACE_BOUND('',#229,.T.);
#35=FACE_BOUND('',#230,.T.);
#36=FACE_BOUND('',#231,.T.);
#37=FACE_BOUND('',#232,.T.);
#38=FACE_BOUND('',#233,.T.);
#39=FACE_BOUND('',#234,.T.);
#40=PLANE('',#1217);
#41=PLANE('',#1218);
#42=PLANE('',#1219);
#43=PLANE('',#1220);
#44=PLANE('',#1236);
#45=PLANE('',#1239);
#46=PLANE('',#1254);
#47=PLANE('',#1255);
#48=PLANE('',#1256);
#49=PLANE('',#1257);
#50=PLANE('',#1260);
#51=PLANE('',#1261);
#52=PLANE('',#1266);
#53=PLANE('',#1275);
#54=PLANE('',#1276);
#55=PLANE('',#1277);
#56=PLANE('',#1278);
#57=PLANE('',#1279);
#58=PLANE('',#1280);
#59=PLANE('',#1281);
#60=PLANE('',#1282);
#61=PLANE('',#1284);
#62=PLANE('',#1285);
#63=PLANE('',#1286);
#64=PLANE('',#1287);
#65=PLANE('',#1288);
#66=PLANE('',#1289);
#67=PLANE('',#1290);
#68=PLANE('',#1291);
#69=PLANE('',#1292);
#70=PLANE('',#1293);
#71=PLANE('',#1294);
#72=PLANE('',#1295);
#73=PLANE('',#1296);
#74=PLANE('',#1301);
#75=PLANE('',#1302);
#76=PLANE('',#1306);
#77=PLANE('',#1310);
#78=PLANE('',#1314);
#79=PLANE('',#1315);
#80=PLANE('',#1316);
#81=PLANE('',#1318);
#82=PLANE('',#1319);
#83=FACE_OUTER_BOUND('',#147,.T.);
#84=FACE_OUTER_BOUND('',#148,.T.);
#85=FACE_OUTER_BOUND('',#149,.T.);
#86=FACE_OUTER_BOUND('',#150,.T.);
#87=FACE_OUTER_BOUND('',#151,.T.);
#88=FACE_OUTER_BOUND('',#152,.T.);
#89=FACE_OUTER_BOUND('',#153,.T.);
#90=FACE_OUTER_BOUND('',#154,.T.);
#91=FACE_OUTER_BOUND('',#155,.T.);
#92=FACE_OUTER_BOUND('',#156,.T.);
#93=FACE_OUTER_BOUND('',#157,.T.);
#94=FACE_OUTER_BOUND('',#159,.T.);
#95=FACE_OUTER_BOUND('',#161,.T.);
#96=FACE_OUTER_BOUND('',#162,.T.);
#97=FACE_OUTER_BOUND('',#163,.T.);
#98=FACE_OUTER_BOUND('',#164,.T.);
#99=FACE_OUTER_BOUND('',#165,.T.);
#100=FACE_OUTER_BOUND('',#166,.T.);
#101=FACE_OUTER_BOUND('',#167,.T.);
#102=FACE_OUTER_BOUND('',#168,.T.);
#103=FACE_OUTER_BOUND('',#169,.T.);
#104=FACE_OUTER_BOUND('',#174,.T.);
#105=FACE_OUTER_BOUND('',#175,.T.);
#106=FACE_OUTER_BOUND('',#176,.T.);
#107=FACE_OUTER_BOUND('',#182,.T.);
#108=FACE_OUTER_BOUND('',#183,.T.);
#109=FACE_OUTER_BOUND('',#184,.T.);
#110=FACE_OUTER_BOUND('',#185,.T.);
#111=FACE_OUTER_BOUND('',#186,.T.);
#112=FACE_OUTER_BOUND('',#187,.T.);
#113=FACE_OUTER_BOUND('',#188,.T.);
#114=FACE_OUTER_BOUND('',#189,.T.);
#115=FACE_OUTER_BOUND('',#191,.T.);
#116=FACE_OUTER_BOUND('',#193,.T.);
#117=FACE_OUTER_BOUND('',#194,.T.);
#118=FACE_OUTER_BOUND('',#195,.T.);
#119=FACE_OUTER_BOUND('',#196,.T.);
#120=FACE_OUTER_BOUND('',#197,.T.);
#121=FACE_OUTER_BOUND('',#198,.T.);
#122=FACE_OUTER_BOUND('',#199,.T.);
#123=FACE_OUTER_BOUND('',#200,.T.);
#124=FACE_OUTER_BOUND('',#201,.T.);
#125=FACE_OUTER_BOUND('',#202,.T.);
#126=FACE_OUTER_BOUND('',#203,.T.);
#127=FACE_OUTER_BOUND('',#204,.T.);
#128=FACE_OUTER_BOUND('',#205,.T.);
#129=FACE_OUTER_BOUND('',#206,.T.);
#130=FACE_OUTER_BOUND('',#207,.T.);
#131=FACE_OUTER_BOUND('',#208,.T.);
#132=FACE_OUTER_BOUND('',#209,.T.);
#133=FACE_OUTER_BOUND('',#210,.T.);
#134=FACE_OUTER_BOUND('',#211,.T.);
#135=FACE_OUTER_BOUND('',#212,.T.);
#136=FACE_OUTER_BOUND('',#213,.T.);
#137=FACE_OUTER_BOUND('',#214,.T.);
#138=FACE_OUTER_BOUND('',#215,.T.);
#139=FACE_OUTER_BOUND('',#216,.T.);
#140=FACE_OUTER_BOUND('',#217,.T.);
#141=FACE_OUTER_BOUND('',#218,.T.);
#142=FACE_OUTER_BOUND('',#219,.T.);
#143=FACE_OUTER_BOUND('',#226,.T.);
#144=FACE_OUTER_BOUND('',#227,.T.);
#145=FACE_OUTER_BOUND('',#228,.T.);
#146=FACE_OUTER_BOUND('',#235,.T.);
#147=EDGE_LOOP('',(#789,#790,#791,#792));
#148=EDGE_LOOP('',(#793,#794,#795,#796));
#149=EDGE_LOOP('',(#797,#798,#799,#800));
#150=EDGE_LOOP('',(#801,#802,#803,#804));
#151=EDGE_LOOP('',(#805,#806,#807,#808));
#152=EDGE_LOOP('',(#809,#810,#811,#812));
#153=EDGE_LOOP('',(#813,#814,#815,#816));
#154=EDGE_LOOP('',(#817,#818,#819,#820));
#155=EDGE_LOOP('',(#821,#822,#823,#824));
#156=EDGE_LOOP('',(#825,#826,#827,#828));
#157=EDGE_LOOP('',(#829,#830,#831));
#158=EDGE_LOOP('',(#832));
#159=EDGE_LOOP('',(#833,#834,#835));
#160=EDGE_LOOP('',(#836));
#161=EDGE_LOOP('',(#837,#838,#839,#840));
#162=EDGE_LOOP('',(#841,#842,#843,#844));
#163=EDGE_LOOP('',(#845,#846,#847,#848));
#164=EDGE_LOOP('',(#849,#850,#851,#852));
#165=EDGE_LOOP('',(#853,#854,#855,#856));
#166=EDGE_LOOP('',(#857,#858,#859,#860));
#167=EDGE_LOOP('',(#861,#862,#863,#864));
#168=EDGE_LOOP('',(#865,#866,#867,#868,#869,#870));
#169=EDGE_LOOP('',(#871,#872,#873,#874,#875,#876,#877,#878));
#170=EDGE_LOOP('',(#879));
#171=EDGE_LOOP('',(#880));
#172=EDGE_LOOP('',(#881));
#173=EDGE_LOOP('',(#882));
#174=EDGE_LOOP('',(#883,#884,#885,#886));
#175=EDGE_LOOP('',(#887,#888,#889,#890,#891,#892,#893,#894,#895,#896,#897,
#898,#899,#900,#901,#902,#903,#904,#905,#906));
#176=EDGE_LOOP('',(#907,#908,#909,#910,#911,#912,#913,#914,#915,#916,#917,
#918));
#177=EDGE_LOOP('',(#919,#920,#921,#922,#923,#924,#925,#926,#927,#928,#929,
#930,#931,#932,#933,#934,#935,#936,#937,#938));
#178=EDGE_LOOP('',(#939));
#179=EDGE_LOOP('',(#940));
#180=EDGE_LOOP('',(#941));
#181=EDGE_LOOP('',(#942));
#182=EDGE_LOOP('',(#943,#944,#945,#946));
#183=EDGE_LOOP('',(#947,#948,#949,#950));
#184=EDGE_LOOP('',(#951,#952,#953,#954,#955,#956));
#185=EDGE_LOOP('',(#957,#958,#959,#960));
#186=EDGE_LOOP('',(#961,#962,#963,#964));
#187=EDGE_LOOP('',(#965,#966,#967,#968));
#188=EDGE_LOOP('',(#969,#970,#971,#972));
#189=EDGE_LOOP('',(#973,#974,#975));
#190=EDGE_LOOP('',(#976));
#191=EDGE_LOOP('',(#977,#978,#979));
#192=EDGE_LOOP('',(#980));
#193=EDGE_LOOP('',(#981,#982,#983,#984));
#194=EDGE_LOOP('',(#985,#986,#987,#988));
#195=EDGE_LOOP('',(#989,#990,#991,#992));
#196=EDGE_LOOP('',(#993,#994,#995,#996));
#197=EDGE_LOOP('',(#997,#998,#999,#1000));
#198=EDGE_LOOP('',(#1001,#1002,#1003,#1004));
#199=EDGE_LOOP('',(#1005,#1006,#1007,#1008));
#200=EDGE_LOOP('',(#1009,#1010,#1011,#1012));
#201=EDGE_LOOP('',(#1013,#1014,#1015,#1016));
#202=EDGE_LOOP('',(#1017,#1018,#1019,#1020));
#203=EDGE_LOOP('',(#1021,#1022,#1023,#1024));
#204=EDGE_LOOP('',(#1025,#1026,#1027,#1028));
#205=EDGE_LOOP('',(#1029,#1030,#1031,#1032));
#206=EDGE_LOOP('',(#1033,#1034,#1035,#1036));
#207=EDGE_LOOP('',(#1037,#1038,#1039,#1040));
#208=EDGE_LOOP('',(#1041,#1042,#1043,#1044));
#209=EDGE_LOOP('',(#1045));
#210=EDGE_LOOP('',(#1046,#1047,#1048,#1049));
#211=EDGE_LOOP('',(#1050,#1051,#1052,#1053));
#212=EDGE_LOOP('',(#1054,#1055,#1056,#1057));
#213=EDGE_LOOP('',(#1058,#1059,#1060,#1061));
#214=EDGE_LOOP('',(#1062,#1063,#1064,#1065));
#215=EDGE_LOOP('',(#1066));
#216=EDGE_LOOP('',(#1067,#1068,#1069,#1070));
#217=EDGE_LOOP('',(#1071,#1072,#1073,#1074));
#218=EDGE_LOOP('',(#1075));
#219=EDGE_LOOP('',(#1076,#1077,#1078,#1079));
#220=EDGE_LOOP('',(#1080));
#221=EDGE_LOOP('',(#1081,#1082,#1083,#1084));
#222=EDGE_LOOP('',(#1085));
#223=EDGE_LOOP('',(#1086));
#224=EDGE_LOOP('',(#1087));
#225=EDGE_LOOP('',(#1088));
#226=EDGE_LOOP('',(#1089));
#227=EDGE_LOOP('',(#1090,#1091,#1092,#1093));
#228=EDGE_LOOP('',(#1094,#1095,#1096,#1097,#1098,#1099));
#229=EDGE_LOOP('',(#1100));
#230=EDGE_LOOP('',(#1101,#1102,#1103,#1104));
#231=EDGE_LOOP('',(#1105));
#232=EDGE_LOOP('',(#1106));
#233=EDGE_LOOP('',(#1107));
#234=EDGE_LOOP('',(#1108));
#235=EDGE_LOOP('',(#1109,#1110,#1111,#1112,#1113,#1114));
#236=LINE('',#1660,#357);
#237=LINE('',#1665,#358);
#238=LINE('',#1667,#359);
#239=LINE('',#1669,#360);
#240=LINE('',#1670,#361);
#241=LINE('',#1673,#362);
#242=LINE('',#1675,#363);
#243=LINE('',#1676,#364);
#244=LINE('',#1679,#365);
#245=LINE('',#1681,#366);
#246=LINE('',#1682,#367);
#247=LINE('',#1684,#368);
#248=LINE('',#1685,#369);
#249=LINE('',#1690,#370);
#250=LINE('',#1696,#371);
#251=LINE('',#1702,#372);
#252=LINE('',#1708,#373);
#253=LINE('',#1715,#374);
#254=LINE('',#1718,#375);
#255=LINE('',#1722,#376);
#256=LINE('',#1724,#377);
#257=LINE('',#1731,#378);
#258=LINE('',#1734,#379);
#259=LINE('',#1739,#380);
#260=LINE('',#1742,#381);
#261=LINE('',#1745,#382);
#262=LINE('',#1751,#383);
#263=LINE('',#1755,#384);
#264=LINE('',#1761,#385);
#265=LINE('',#1766,#386);
#266=LINE('',#1768,#387);
#267=LINE('',#1770,#388);
#268=LINE('',#1771,#389);
#269=LINE('',#1774,#390);
#270=LINE('',#1776,#391);
#271=LINE('',#1777,#392);
#272=LINE('',#1781,#393);
#273=LINE('',#1783,#394);
#274=LINE('',#1785,#395);
#275=LINE('',#1786,#396);
#276=LINE('',#1787,#397);
#277=LINE('',#1791,#398);
#278=LINE('',#1793,#399);
#279=LINE('',#1796,#400);
#280=LINE('',#1799,#401);
#281=LINE('',#1801,#402);
#282=LINE('',#1802,#403);
#283=LINE('',#1805,#404);
#284=LINE('',#1807,#405);
#285=LINE('',#1809,#406);
#286=LINE('',#1811,#407);
#287=LINE('',#1815,#408);
#288=LINE('',#1819,#409);
#289=LINE('',#1821,#410);
#290=LINE('',#1823,#411);
#291=LINE('',#1825,#412);
#292=LINE('',#1827,#413);
#293=LINE('',#1829,#414);
#294=LINE('',#1831,#415);
#295=LINE('',#1835,#416);
#296=LINE('',#1839,#417);
#297=LINE('',#1841,#418);
#298=LINE('',#1843,#419);
#299=LINE('',#1845,#420);
#300=LINE('',#1847,#421);
#301=LINE('',#1849,#422);
#302=LINE('',#1851,#423);
#303=LINE('',#1853,#424);
#304=LINE('',#1855,#425);
#305=LINE('',#1857,#426);
#306=LINE('',#1858,#427);
#307=LINE('',#1862,#428);
#308=LINE('',#1866,#429);
#309=LINE('',#1868,#430);
#310=LINE('',#1870,#431);
#311=LINE('',#1872,#432);
#312=LINE('',#1874,#433);
#313=LINE('',#1876,#434);
#314=LINE('',#1878,#435);
#315=LINE('',#1882,#436);
#316=LINE('',#1886,#437);
#317=LINE('',#1888,#438);
#318=LINE('',#1890,#439);
#319=LINE('',#1891,#440);
#320=LINE('',#1901,#441);
#321=LINE('',#1902,#442);
#322=LINE('',#1904,#443);
#323=LINE('',#1906,#444);
#324=LINE('',#1907,#445);
#325=LINE('',#1908,#446);
#326=LINE('',#1910,#447);
#327=LINE('',#1912,#448);
#328=LINE('',#1913,#449);
#329=LINE('',#1915,#450);
#330=LINE('',#1920,#451);
#331=LINE('',#1922,#452);
#332=LINE('',#1925,#453);
#333=LINE('',#1926,#454);
#334=LINE('',#1928,#455);
#335=LINE('',#1930,#456);
#336=LINE('',#1931,#457);
#337=LINE('',#1933,#458);
#338=LINE('',#1935,#459);
#339=LINE('',#1937,#460);
#340=LINE('',#1938,#461);
#341=LINE('',#1941,#462);
#342=LINE('',#1942,#463);
#343=LINE('',#1945,#464);
#344=LINE('',#1946,#465);
#345=LINE('',#1949,#466);
#346=LINE('',#1951,#467);
#347=LINE('',#1953,#468);
#348=LINE('',#1957,#469);
#349=LINE('',#1959,#470);
#350=LINE('',#1961,#471);
#351=LINE('',#1964,#472);
#352=LINE('',#1968,#473);
#353=LINE('',#1970,#474);
#354=LINE('',#1975,#475);
#355=LINE('',#1981,#476);
#356=LINE('',#1986,#477);
#357=VECTOR('',#1326,6.6);
#358=VECTOR('',#1331,10.);
#359=VECTOR('',#1332,10.);
#360=VECTOR('',#1333,10.);
#361=VECTOR('',#1334,10.);
#362=VECTOR('',#1337,10.);
#363=VECTOR('',#1338,10.);
#364=VECTOR('',#1339,10.);
#365=VECTOR('',#1342,10.);
#366=VECTOR('',#1343,10.);
#367=VECTOR('',#1344,10.);
#368=VECTOR('',#1347,10.);
#369=VECTOR('',#1348,10.);
#370=VECTOR('',#1353,8.);
#371=VECTOR('',#1360,1.20000000000001);
#372=VECTOR('',#1367,1.20000000000001);
#373=VECTOR('',#1374,8.5);
#374=VECTOR('',#1381,10.);
#375=VECTOR('',#1384,10.);
#376=VECTOR('',#1387,10.);
#377=VECTOR('',#1388,10.);
#378=VECTOR('',#1395,10.);
#379=VECTOR('',#1398,10.);
#380=VECTOR('',#1403,10.);
#381=VECTOR('',#1406,10.);
#382=VECTOR('',#1409,1.59999999999999);
#383=VECTOR('',#1416,1.59999999999999);
#384=VECTOR('',#1421,1.59999999999999);
#385=VECTOR('',#1428,1.59999999999999);
#386=VECTOR('',#1433,10.);
#387=VECTOR('',#1434,10.);
#388=VECTOR('',#1435,10.);
#389=VECTOR('',#1436,10.);
#390=VECTOR('',#1439,10.);
#391=VECTOR('',#1440,10.);
#392=VECTOR('',#1441,10.);
#393=VECTOR('',#1444,10.);
#394=VECTOR('',#1445,10.);
#395=VECTOR('',#1446,10.);
#396=VECTOR('',#1447,10.);
#397=VECTOR('',#1448,10.);
#398=VECTOR('',#1453,10.);
#399=VECTOR('',#1454,10.);
#400=VECTOR('',#1457,10.);
#401=VECTOR('',#1460,10.);
#402=VECTOR('',#1461,10.);
#403=VECTOR('',#1462,10.);
#404=VECTOR('',#1465,10.);
#405=VECTOR('',#1466,10.);
#406=VECTOR('',#1467,10.);
#407=VECTOR('',#1468,10.);
#408=VECTOR('',#1471,10.);
#409=VECTOR('',#1474,10.);
#410=VECTOR('',#1475,10.);
#411=VECTOR('',#1476,10.);
#412=VECTOR('',#1477,10.);
#413=VECTOR('',#1478,10.);
#414=VECTOR('',#1479,10.);
#415=VECTOR('',#1480,10.);
#416=VECTOR('',#1483,10.);
#417=VECTOR('',#1488,10.);
#418=VECTOR('',#1489,10.);
#419=VECTOR('',#1490,10.);
#420=VECTOR('',#1491,10.);
#421=VECTOR('',#1492,10.);
#422=VECTOR('',#1493,10.);
#423=VECTOR('',#1494,10.);
#424=VECTOR('',#1495,10.);
#425=VECTOR('',#1496,10.);
#426=VECTOR('',#1497,10.);
#427=VECTOR('',#1498,10.);
#428=VECTOR('',#1501,10.);
#429=VECTOR('',#1504,10.);
#430=VECTOR('',#1505,10.);
#431=VECTOR('',#1506,10.);
#432=VECTOR('',#1507,10.);
#433=VECTOR('',#1508,10.);
#434=VECTOR('',#1509,10.);
#435=VECTOR('',#1510,10.);
#436=VECTOR('',#1513,10.);
#437=VECTOR('',#1516,10.);
#438=VECTOR('',#1517,10.);
#439=VECTOR('',#1518,10.);
#440=VECTOR('',#1519,10.);
#441=VECTOR('',#1530,10.);
#442=VECTOR('',#1531,10.);
#443=VECTOR('',#1534,10.);
#444=VECTOR('',#1537,10.);
#445=VECTOR('',#1538,10.);
#446=VECTOR('',#1539,10.);
#447=VECTOR('',#1542,10.);
#448=VECTOR('',#1545,10.);
#449=VECTOR('',#1546,10.);
#450=VECTOR('',#1549,10.);
#451=VECTOR('',#1554,10.);
#452=VECTOR('',#1557,10.);
#453=VECTOR('',#1560,10.);
#454=VECTOR('',#1561,10.);
#455=VECTOR('',#1564,10.);
#456=VECTOR('',#1567,10.);
#457=VECTOR('',#1568,10.);
#458=VECTOR('',#1571,10.);
#459=VECTOR('',#1574,10.);
#460=VECTOR('',#1577,10.);
#461=VECTOR('',#1578,10.);
#462=VECTOR('',#1583,10.);
#463=VECTOR('',#1584,10.);
#464=VECTOR('',#1589,10.);
#465=VECTOR('',#1590,10.);
#466=VECTOR('',#1595,10.);
#467=VECTOR('',#1598,10.);
#468=VECTOR('',#1601,10.);
#469=VECTOR('',#1606,1.8);
#470=VECTOR('',#1609,10.);
#471=VECTOR('',#1612,10.);
#472=VECTOR('',#1617,10.);
#473=VECTOR('',#1622,1.8);
#474=VECTOR('',#1625,10.);
#475=VECTOR('',#1632,1.8);
#476=VECTOR('',#1641,1.8);
#477=VECTOR('',#1650,10.);
#478=CIRCLE('',#1215,6.6);
#479=CIRCLE('',#1216,6.6);
#480=CIRCLE('',#1222,8.);
#481=CIRCLE('',#1223,8.);
#482=CIRCLE('',#1225,1.20000000000001);
#483=CIRCLE('',#1226,1.20000000000001);
#484=CIRCLE('',#1228,1.20000000000001);
#485=CIRCLE('',#1229,1.20000000000001);
#486=CIRCLE('',#1231,8.5);
#487=CIRCLE('',#1232,8.5);
#488=CIRCLE('',#1234,10.);
#489=CIRCLE('',#1235,10.);
#490=CIRCLE('',#1237,10.);
#491=CIRCLE('',#1238,1.59999999999999);
#492=CIRCLE('',#1240,10.);
#493=CIRCLE('',#1241,1.59999999999999);
#494=CIRCLE('',#1243,10.);
#495=CIRCLE('',#1245,1.59999999999999);
#496=CIRCLE('',#1247,1.59999999999999);
#497=CIRCLE('',#1248,1.59999999999999);
#498=CIRCLE('',#1250,1.59999999999999);
#499=CIRCLE('',#1252,1.59999999999999);
#500=CIRCLE('',#1253,1.59999999999999);
#501=CIRCLE('',#1258,10.);
#502=CIRCLE('',#1259,10.);
#503=CIRCLE('',#1262,4.);
#504=CIRCLE('',#1263,4.);
#505=CIRCLE('',#1264,4.);
#506=CIRCLE('',#1265,4.);
#507=CIRCLE('',#1267,4.);
#508=CIRCLE('',#1268,4.);
#509=CIRCLE('',#1269,4.);
#510=CIRCLE('',#1270,4.);
#511=CIRCLE('',#1271,1.8);
#512=CIRCLE('',#1272,1.8);
#513=CIRCLE('',#1273,1.8);
#514=CIRCLE('',#1274,1.8);
#515=CIRCLE('',#1283,10.);
#516=CIRCLE('',#1299,1.8);
#517=CIRCLE('',#1305,1.8);
#518=CIRCLE('',#1309,1.8);
#519=CIRCLE('',#1313,1.8);
#520=VERTEX_POINT('',#1657);
#521=VERTEX_POINT('',#1659);
#522=VERTEX_POINT('',#1663);
#523=VERTEX_POINT('',#1664);
#524=VERTEX_POINT('',#1666);
#525=VERTEX_POINT('',#1668);
#526=VERTEX_POINT('',#1672);
#527=VERTEX_POINT('',#1674);
#528=VERTEX_POINT('',#1678);
#529=VERTEX_POINT('',#1680);
#530=VERTEX_POINT('',#1687);
#531=VERTEX_POINT('',#1689);
#532=VERTEX_POINT('',#1693);
#533=VERTEX_POINT('',#1695);
#534=VERTEX_POINT('',#1699);
#535=VERTEX_POINT('',#1701);
#536=VERTEX_POINT('',#1705);
#537=VERTEX_POINT('',#1707);
#538=VERTEX_POINT('',#1711);
#539=VERTEX_POINT('',#1712);
#540=VERTEX_POINT('',#1714);
#541=VERTEX_POINT('',#1716);
#542=VERTEX_POINT('',#1720);
#543=VERTEX_POINT('',#1721);
#544=VERTEX_POINT('',#1723);
#545=VERTEX_POINT('',#1726);
#546=VERTEX_POINT('',#1729);
#547=VERTEX_POINT('',#1730);
#548=VERTEX_POINT('',#1732);
#549=VERTEX_POINT('',#1735);
#550=VERTEX_POINT('',#1738);
#551=VERTEX_POINT('',#1740);
#552=VERTEX_POINT('',#1744);
#553=VERTEX_POINT('',#1748);
#554=VERTEX_POINT('',#1750);
#555=VERTEX_POINT('',#1754);
#556=VERTEX_POINT('',#1758);
#557=VERTEX_POINT('',#1760);
#558=VERTEX_POINT('',#1764);
#559=VERTEX_POINT('',#1765);
#560=VERTEX_POINT('',#1767);
#561=VERTEX_POINT('',#1769);
#562=VERTEX_POINT('',#1773);
#563=VERTEX_POINT('',#1775);
#564=VERTEX_POINT('',#1779);
#565=VERTEX_POINT('',#1780);
#566=VERTEX_POINT('',#1782);
#567=VERTEX_POINT('',#1784);
#568=VERTEX_POINT('',#1789);
#569=VERTEX_POINT('',#1792);
#570=VERTEX_POINT('',#1794);
#571=VERTEX_POINT('',#1798);
#572=VERTEX_POINT('',#1800);
#573=VERTEX_POINT('',#1804);
#574=VERTEX_POINT('',#1806);
#575=VERTEX_POINT('',#1808);
#576=VERTEX_POINT('',#1810);
#577=VERTEX_POINT('',#1812);
#578=VERTEX_POINT('',#1814);
#579=VERTEX_POINT('',#1816);
#580=VERTEX_POINT('',#1818);
#581=VERTEX_POINT('',#1820);
#582=VERTEX_POINT('',#1822);
#583=VERTEX_POINT('',#1824);
#584=VERTEX_POINT('',#1826);
#585=VERTEX_POINT('',#1828);
#586=VERTEX_POINT('',#1830);
#587=VERTEX_POINT('',#1832);
#588=VERTEX_POINT('',#1834);
#589=VERTEX_POINT('',#1838);
#590=VERTEX_POINT('',#1840);
#591=VERTEX_POINT('',#1842);
#592=VERTEX_POINT('',#1844);
#593=VERTEX_POINT('',#1846);
#594=VERTEX_POINT('',#1848);
#595=VERTEX_POINT('',#1850);
#596=VERTEX_POINT('',#1852);
#597=VERTEX_POINT('',#1854);
#598=VERTEX_POINT('',#1856);
#599=VERTEX_POINT('',#1859);
#600=VERTEX_POINT('',#1861);
#601=VERTEX_POINT('',#1863);
#602=VERTEX_POINT('',#1865);
#603=VERTEX_POINT('',#1867);
#604=VERTEX_POINT('',#1869);
#605=VERTEX_POINT('',#1871);
#606=VERTEX_POINT('',#1873);
#607=VERTEX_POINT('',#1875);
#608=VERTEX_POINT('',#1877);
#609=VERTEX_POINT('',#1879);
#610=VERTEX_POINT('',#1881);
#611=VERTEX_POINT('',#1883);
#612=VERTEX_POINT('',#1885);
#613=VERTEX_POINT('',#1887);
#614=VERTEX_POINT('',#1889);
#615=VERTEX_POINT('',#1892);
#616=VERTEX_POINT('',#1894);
#617=VERTEX_POINT('',#1896);
#618=VERTEX_POINT('',#1898);
#619=VERTEX_POINT('',#1918);
#620=VERTEX_POINT('',#1919);
#621=VERTEX_POINT('',#1924);
#622=VERTEX_POINT('',#1955);
#623=VERTEX_POINT('',#1966);
#624=VERTEX_POINT('',#1973);
#625=VERTEX_POINT('',#1979);
#626=EDGE_CURVE('',#520,#520,#478,.T.);
#627=EDGE_CURVE('',#520,#521,#236,.T.);
#628=EDGE_CURVE('',#521,#521,#479,.T.);
#629=EDGE_CURVE('',#522,#523,#237,.T.);
#630=EDGE_CURVE('',#524,#522,#238,.T.);
#631=EDGE_CURVE('',#525,#524,#239,.T.);
#632=EDGE_CURVE('',#525,#523,#240,.T.);
#633=EDGE_CURVE('',#523,#526,#241,.T.);
#634=EDGE_CURVE('',#527,#525,#242,.T.);
#635=EDGE_CURVE('',#527,#526,#243,.T.);
#636=EDGE_CURVE('',#526,#528,#244,.T.);
#637=EDGE_CURVE('',#529,#527,#245,.T.);
#638=EDGE_CURVE('',#529,#528,#246,.T.);
#639=EDGE_CURVE('',#528,#522,#247,.T.);
#640=EDGE_CURVE('',#524,#529,#248,.T.);
#641=EDGE_CURVE('',#530,#530,#480,.T.);
#642=EDGE_CURVE('',#530,#531,#249,.T.);
#643=EDGE_CURVE('',#531,#531,#481,.T.);
#644=EDGE_CURVE('',#532,#532,#482,.T.);
#645=EDGE_CURVE('',#532,#533,#250,.T.);
#646=EDGE_CURVE('',#533,#533,#483,.T.);
#647=EDGE_CURVE('',#534,#534,#484,.T.);
#648=EDGE_CURVE('',#534,#535,#251,.T.);
#649=EDGE_CURVE('',#535,#535,#485,.T.);
#650=EDGE_CURVE('',#536,#536,#486,.T.);
#651=EDGE_CURVE('',#536,#537,#252,.T.);
#652=EDGE_CURVE('',#537,#537,#487,.T.);
#653=EDGE_CURVE('',#538,#539,#488,.T.);
#654=EDGE_CURVE('',#539,#540,#253,.T.);
#655=EDGE_CURVE('',#540,#541,#489,.T.);
#656=EDGE_CURVE('',#541,#538,#254,.T.);
#657=EDGE_CURVE('',#542,#543,#255,.T.);
#658=EDGE_CURVE('',#544,#542,#256,.T.);
#659=EDGE_CURVE('',#543,#544,#490,.T.);
#660=EDGE_CURVE('',#545,#545,#491,.T.);
#661=EDGE_CURVE('',#546,#547,#257,.T.);
#662=EDGE_CURVE('',#548,#546,#492,.T.);
#663=EDGE_CURVE('',#547,#548,#258,.T.);
#664=EDGE_CURVE('',#549,#549,#493,.T.);
#665=EDGE_CURVE('',#544,#550,#259,.T.);
#666=EDGE_CURVE('',#550,#551,#494,.T.);
#667=EDGE_CURVE('',#551,#543,#260,.T.);
#668=EDGE_CURVE('',#549,#552,#261,.T.);
#669=EDGE_CURVE('',#552,#552,#495,.T.);
#670=EDGE_CURVE('',#553,#553,#496,.T.);
#671=EDGE_CURVE('',#553,#554,#262,.T.);
#672=EDGE_CURVE('',#554,#554,#497,.T.);
#673=EDGE_CURVE('',#545,#555,#263,.T.);
#674=EDGE_CURVE('',#555,#555,#498,.T.);
#675=EDGE_CURVE('',#556,#556,#499,.T.);
#676=EDGE_CURVE('',#556,#557,#264,.T.);
#677=EDGE_CURVE('',#557,#557,#500,.T.);
#678=EDGE_CURVE('',#558,#559,#265,.T.);
#679=EDGE_CURVE('',#560,#558,#266,.F.);
#680=EDGE_CURVE('',#560,#561,#267,.T.);
#681=EDGE_CURVE('',#559,#561,#268,.T.);
#682=EDGE_CURVE('',#562,#561,#269,.T.);
#683=EDGE_CURVE('',#563,#560,#270,.F.);
#684=EDGE_CURVE('',#563,#562,#271,.T.);
#685=EDGE_CURVE('',#564,#565,#272,.F.);
#686=EDGE_CURVE('',#566,#564,#273,.T.);
#687=EDGE_CURVE('',#567,#566,#274,.T.);
#688=EDGE_CURVE('',#567,#550,#275,.T.);
#689=EDGE_CURVE('',#565,#544,#276,.T.);
#690=EDGE_CURVE('',#568,#567,#501,.T.);
#691=EDGE_CURVE('',#541,#568,#277,.T.);
#692=EDGE_CURVE('',#569,#540,#278,.T.);
#693=EDGE_CURVE('',#570,#569,#502,.T.);
#694=EDGE_CURVE('',#551,#570,#279,.T.);
#695=EDGE_CURVE('',#571,#559,#280,.F.);
#696=EDGE_CURVE('',#571,#572,#281,.T.);
#697=EDGE_CURVE('',#558,#572,#282,.T.);
#698=EDGE_CURVE('',#573,#562,#283,.T.);
#699=EDGE_CURVE('',#573,#574,#284,.T.);
#700=EDGE_CURVE('',#574,#575,#285,.T.);
#701=EDGE_CURVE('',#575,#576,#286,.F.);
#702=EDGE_CURVE('',#576,#577,#503,.T.);
#703=EDGE_CURVE('',#577,#578,#287,.F.);
#704=EDGE_CURVE('',#578,#579,#504,.T.);
#705=EDGE_CURVE('',#579,#580,#288,.F.);
#706=EDGE_CURVE('',#580,#581,#289,.T.);
#707=EDGE_CURVE('',#581,#582,#290,.T.);
#708=EDGE_CURVE('',#582,#583,#291,.F.);
#709=EDGE_CURVE('',#583,#584,#292,.T.);
#710=EDGE_CURVE('',#584,#585,#293,.T.);
#711=EDGE_CURVE('',#585,#586,#294,.F.);
#712=EDGE_CURVE('',#586,#587,#505,.T.);
#713=EDGE_CURVE('',#587,#588,#295,.F.);
#714=EDGE_CURVE('',#588,#571,#506,.T.);
#715=EDGE_CURVE('',#565,#589,#296,.T.);
#716=EDGE_CURVE('',#589,#590,#297,.T.);
#717=EDGE_CURVE('',#590,#591,#298,.F.);
#718=EDGE_CURVE('',#591,#592,#299,.T.);
#719=EDGE_CURVE('',#592,#593,#300,.T.);
#720=EDGE_CURVE('',#593,#594,#301,.F.);
#721=EDGE_CURVE('',#594,#595,#302,.T.);
#722=EDGE_CURVE('',#595,#596,#303,.T.);
#723=EDGE_CURVE('',#596,#597,#304,.F.);
#724=EDGE_CURVE('',#597,#598,#305,.T.);
#725=EDGE_CURVE('',#598,#564,#306,.T.);
#726=EDGE_CURVE('',#572,#599,#507,.F.);
#727=EDGE_CURVE('',#599,#600,#307,.T.);
#728=EDGE_CURVE('',#600,#601,#508,.F.);
#729=EDGE_CURVE('',#601,#602,#308,.T.);
#730=EDGE_CURVE('',#602,#603,#309,.F.);
#731=EDGE_CURVE('',#603,#604,#310,.F.);
#732=EDGE_CURVE('',#604,#605,#311,.T.);
#733=EDGE_CURVE('',#606,#605,#312,.T.);
#734=EDGE_CURVE('',#606,#607,#313,.F.);
#735=EDGE_CURVE('',#607,#608,#314,.T.);
#736=EDGE_CURVE('',#608,#609,#509,.F.);
#737=EDGE_CURVE('',#609,#610,#315,.T.);
#738=EDGE_CURVE('',#610,#611,#510,.F.);
#739=EDGE_CURVE('',#611,#612,#316,.T.);
#740=EDGE_CURVE('',#612,#613,#317,.F.);
#741=EDGE_CURVE('',#613,#614,#318,.F.);
#742=EDGE_CURVE('',#614,#563,#319,.T.);
#743=EDGE_CURVE('',#615,#615,#511,.F.);
#744=EDGE_CURVE('',#616,#616,#512,.F.);
#745=EDGE_CURVE('',#617,#617,#513,.F.);
#746=EDGE_CURVE('',#618,#618,#514,.F.);
#747=EDGE_CURVE('',#607,#580,#320,.T.);
#748=EDGE_CURVE('',#606,#581,#321,.T.);
#749=EDGE_CURVE('',#582,#605,#322,.T.);
#750=EDGE_CURVE('',#548,#593,#323,.T.);
#751=EDGE_CURVE('',#569,#548,#324,.T.);
#752=EDGE_CURVE('',#594,#539,#325,.T.);
#753=EDGE_CURVE('',#579,#608,#326,.T.);
#754=EDGE_CURVE('',#604,#583,#327,.T.);
#755=EDGE_CURVE('',#603,#584,#328,.T.);
#756=EDGE_CURVE('',#585,#602,#329,.T.);
#757=EDGE_CURVE('',#619,#620,#330,.T.);
#758=EDGE_CURVE('',#566,#620,#515,.T.);
#759=EDGE_CURVE('',#566,#619,#331,.T.);
#760=EDGE_CURVE('',#539,#621,#332,.T.);
#761=EDGE_CURVE('',#538,#621,#333,.T.);
#762=EDGE_CURVE('',#601,#586,#334,.T.);
#763=EDGE_CURVE('',#614,#573,#335,.T.);
#764=EDGE_CURVE('',#613,#574,#336,.T.);
#765=EDGE_CURVE('',#575,#612,#337,.T.);
#766=EDGE_CURVE('',#611,#576,#338,.T.);
#767=EDGE_CURVE('',#597,#620,#339,.T.);
#768=EDGE_CURVE('',#598,#619,#340,.T.);
#769=EDGE_CURVE('',#543,#590,#341,.T.);
#770=EDGE_CURVE('',#589,#542,#342,.T.);
#771=EDGE_CURVE('',#538,#596,#343,.T.);
#772=EDGE_CURVE('',#595,#621,#344,.T.);
#773=EDGE_CURVE('',#592,#547,#345,.T.);
#774=EDGE_CURVE('',#591,#546,#346,.T.);
#775=EDGE_CURVE('',#546,#570,#347,.T.);
#776=EDGE_CURVE('',#622,#622,#516,.T.);
#777=EDGE_CURVE('',#622,#617,#348,.T.);
#778=EDGE_CURVE('',#587,#600,#349,.T.);
#779=EDGE_CURVE('',#599,#588,#350,.T.);
#780=EDGE_CURVE('',#577,#610,#351,.T.);
#781=EDGE_CURVE('',#623,#623,#517,.T.);
#782=EDGE_CURVE('',#623,#616,#352,.T.);
#783=EDGE_CURVE('',#609,#578,#353,.T.);
#784=EDGE_CURVE('',#624,#624,#518,.T.);
#785=EDGE_CURVE('',#624,#615,#354,.T.);
#786=EDGE_CURVE('',#625,#625,#519,.T.);
#787=EDGE_CURVE('',#625,#618,#355,.T.);
#788=EDGE_CURVE('',#620,#568,#356,.T.);
#789=ORIENTED_EDGE('',*,*,#626,.F.);
#790=ORIENTED_EDGE('',*,*,#627,.T.);
#791=ORIENTED_EDGE('',*,*,#628,.F.);
#792=ORIENTED_EDGE('',*,*,#627,.F.);
#793=ORIENTED_EDGE('',*,*,#629,.F.);
#794=ORIENTED_EDGE('',*,*,#630,.F.);
#795=ORIENTED_EDGE('',*,*,#631,.F.);
#796=ORIENTED_EDGE('',*,*,#632,.T.);
#797=ORIENTED_EDGE('',*,*,#633,.F.);
#798=ORIENTED_EDGE('',*,*,#632,.F.);
#799=ORIENTED_EDGE('',*,*,#634,.F.);
#800=ORIENTED_EDGE('',*,*,#635,.T.);
#801=ORIENTED_EDGE('',*,*,#636,.F.);
#802=ORIENTED_EDGE('',*,*,#635,.F.);
#803=ORIENTED_EDGE('',*,*,#637,.F.);
#804=ORIENTED_EDGE('',*,*,#638,.T.);
#805=ORIENTED_EDGE('',*,*,#639,.F.);
#806=ORIENTED_EDGE('',*,*,#638,.F.);
#807=ORIENTED_EDGE('',*,*,#640,.F.);
#808=ORIENTED_EDGE('',*,*,#630,.T.);
#809=ORIENTED_EDGE('',*,*,#641,.F.);
#810=ORIENTED_EDGE('',*,*,#642,.T.);
#811=ORIENTED_EDGE('',*,*,#643,.F.);
#812=ORIENTED_EDGE('',*,*,#642,.F.);
#813=ORIENTED_EDGE('',*,*,#644,.F.);
#814=ORIENTED_EDGE('',*,*,#645,.T.);
#815=ORIENTED_EDGE('',*,*,#646,.F.);
#816=ORIENTED_EDGE('',*,*,#645,.F.);
#817=ORIENTED_EDGE('',*,*,#647,.F.);
#818=ORIENTED_EDGE('',*,*,#648,.T.);
#819=ORIENTED_EDGE('',*,*,#649,.F.);
#820=ORIENTED_EDGE('',*,*,#648,.F.);
#821=ORIENTED_EDGE('',*,*,#650,.F.);
#822=ORIENTED_EDGE('',*,*,#651,.T.);
#823=ORIENTED_EDGE('',*,*,#652,.F.);
#824=ORIENTED_EDGE('',*,*,#651,.F.);
#825=ORIENTED_EDGE('',*,*,#653,.T.);
#826=ORIENTED_EDGE('',*,*,#654,.T.);
#827=ORIENTED_EDGE('',*,*,#655,.T.);
#828=ORIENTED_EDGE('',*,*,#656,.T.);
#829=ORIENTED_EDGE('',*,*,#657,.F.);
#830=ORIENTED_EDGE('',*,*,#658,.F.);
#831=ORIENTED_EDGE('',*,*,#659,.F.);
#832=ORIENTED_EDGE('',*,*,#660,.F.);
#833=ORIENTED_EDGE('',*,*,#661,.F.);
#834=ORIENTED_EDGE('',*,*,#662,.F.);
#835=ORIENTED_EDGE('',*,*,#663,.F.);
#836=ORIENTED_EDGE('',*,*,#664,.F.);
#837=ORIENTED_EDGE('',*,*,#659,.T.);
#838=ORIENTED_EDGE('',*,*,#665,.T.);
#839=ORIENTED_EDGE('',*,*,#666,.T.);
#840=ORIENTED_EDGE('',*,*,#667,.T.);
#841=ORIENTED_EDGE('',*,*,#664,.T.);
#842=ORIENTED_EDGE('',*,*,#668,.T.);
#843=ORIENTED_EDGE('',*,*,#669,.F.);
#844=ORIENTED_EDGE('',*,*,#668,.F.);
#845=ORIENTED_EDGE('',*,*,#670,.F.);
#846=ORIENTED_EDGE('',*,*,#671,.T.);
#847=ORIENTED_EDGE('',*,*,#672,.F.);
#848=ORIENTED_EDGE('',*,*,#671,.F.);
#849=ORIENTED_EDGE('',*,*,#660,.T.);
#850=ORIENTED_EDGE('',*,*,#673,.T.);
#851=ORIENTED_EDGE('',*,*,#674,.F.);
#852=ORIENTED_EDGE('',*,*,#673,.F.);
#853=ORIENTED_EDGE('',*,*,#675,.F.);
#854=ORIENTED_EDGE('',*,*,#676,.T.);
#855=ORIENTED_EDGE('',*,*,#677,.F.);
#856=ORIENTED_EDGE('',*,*,#676,.F.);
#857=ORIENTED_EDGE('',*,*,#678,.F.);
#858=ORIENTED_EDGE('',*,*,#679,.F.);
#859=ORIENTED_EDGE('',*,*,#680,.T.);
#860=ORIENTED_EDGE('',*,*,#681,.F.);
#861=ORIENTED_EDGE('',*,*,#682,.T.);
#862=ORIENTED_EDGE('',*,*,#680,.F.);
#863=ORIENTED_EDGE('',*,*,#683,.F.);
#864=ORIENTED_EDGE('',*,*,#684,.T.);
#865=ORIENTED_EDGE('',*,*,#685,.F.);
#866=ORIENTED_EDGE('',*,*,#686,.F.);
#867=ORIENTED_EDGE('',*,*,#687,.F.);
#868=ORIENTED_EDGE('',*,*,#688,.T.);
#869=ORIENTED_EDGE('',*,*,#665,.F.);
#870=ORIENTED_EDGE('',*,*,#689,.F.);
#871=ORIENTED_EDGE('',*,*,#688,.F.);
#872=ORIENTED_EDGE('',*,*,#690,.F.);
#873=ORIENTED_EDGE('',*,*,#691,.F.);
#874=ORIENTED_EDGE('',*,*,#655,.F.);
#875=ORIENTED_EDGE('',*,*,#692,.F.);
#876=ORIENTED_EDGE('',*,*,#693,.F.);
#877=ORIENTED_EDGE('',*,*,#694,.F.);
#878=ORIENTED_EDGE('',*,*,#666,.F.);
#879=ORIENTED_EDGE('',*,*,#669,.T.);
#880=ORIENTED_EDGE('',*,*,#672,.T.);
#881=ORIENTED_EDGE('',*,*,#674,.T.);
#882=ORIENTED_EDGE('',*,*,#677,.T.);
#883=ORIENTED_EDGE('',*,*,#678,.T.);
#884=ORIENTED_EDGE('',*,*,#695,.F.);
#885=ORIENTED_EDGE('',*,*,#696,.T.);
#886=ORIENTED_EDGE('',*,*,#697,.F.);
#887=ORIENTED_EDGE('',*,*,#681,.T.);
#888=ORIENTED_EDGE('',*,*,#682,.F.);
#889=ORIENTED_EDGE('',*,*,#698,.F.);
#890=ORIENTED_EDGE('',*,*,#699,.T.);
#891=ORIENTED_EDGE('',*,*,#700,.T.);
#892=ORIENTED_EDGE('',*,*,#701,.T.);
#893=ORIENTED_EDGE('',*,*,#702,.T.);
#894=ORIENTED_EDGE('',*,*,#703,.T.);
#895=ORIENTED_EDGE('',*,*,#704,.T.);
#896=ORIENTED_EDGE('',*,*,#705,.T.);
#897=ORIENTED_EDGE('',*,*,#706,.T.);
#898=ORIENTED_EDGE('',*,*,#707,.T.);
#899=ORIENTED_EDGE('',*,*,#708,.T.);
#900=ORIENTED_EDGE('',*,*,#709,.T.);
#901=ORIENTED_EDGE('',*,*,#710,.T.);
#902=ORIENTED_EDGE('',*,*,#711,.T.);
#903=ORIENTED_EDGE('',*,*,#712,.T.);
#904=ORIENTED_EDGE('',*,*,#713,.T.);
#905=ORIENTED_EDGE('',*,*,#714,.T.);
#906=ORIENTED_EDGE('',*,*,#695,.T.);
#907=ORIENTED_EDGE('',*,*,#715,.T.);
#908=ORIENTED_EDGE('',*,*,#716,.T.);
#909=ORIENTED_EDGE('',*,*,#717,.T.);
#910=ORIENTED_EDGE('',*,*,#718,.T.);
#911=ORIENTED_EDGE('',*,*,#719,.T.);
#912=ORIENTED_EDGE('',*,*,#720,.T.);
#913=ORIENTED_EDGE('',*,*,#721,.T.);
#914=ORIENTED_EDGE('',*,*,#722,.T.);
#915=ORIENTED_EDGE('',*,*,#723,.T.);
#916=ORIENTED_EDGE('',*,*,#724,.T.);
#917=ORIENTED_EDGE('',*,*,#725,.T.);
#918=ORIENTED_EDGE('',*,*,#685,.T.);
#919=ORIENTED_EDGE('',*,*,#697,.T.);
#920=ORIENTED_EDGE('',*,*,#726,.T.);
#921=ORIENTED_EDGE('',*,*,#727,.T.);
#922=ORIENTED_EDGE('',*,*,#728,.T.);
#923=ORIENTED_EDGE('',*,*,#729,.T.);
#924=ORIENTED_EDGE('',*,*,#730,.T.);
#925=ORIENTED_EDGE('',*,*,#731,.T.);
#926=ORIENTED_EDGE('',*,*,#732,.T.);
#927=ORIENTED_EDGE('',*,*,#733,.F.);
#928=ORIENTED_EDGE('',*,*,#734,.T.);
#929=ORIENTED_EDGE('',*,*,#735,.T.);
#930=ORIENTED_EDGE('',*,*,#736,.T.);
#931=ORIENTED_EDGE('',*,*,#737,.T.);
#932=ORIENTED_EDGE('',*,*,#738,.T.);
#933=ORIENTED_EDGE('',*,*,#739,.T.);
#934=ORIENTED_EDGE('',*,*,#740,.T.);
#935=ORIENTED_EDGE('',*,*,#741,.T.);
#936=ORIENTED_EDGE('',*,*,#742,.T.);
#937=ORIENTED_EDGE('',*,*,#683,.T.);
#938=ORIENTED_EDGE('',*,*,#679,.T.);
#939=ORIENTED_EDGE('',*,*,#743,.T.);
#940=ORIENTED_EDGE('',*,*,#744,.T.);
#941=ORIENTED_EDGE('',*,*,#745,.T.);
#942=ORIENTED_EDGE('',*,*,#746,.T.);
#943=ORIENTED_EDGE('',*,*,#747,.F.);
#944=ORIENTED_EDGE('',*,*,#734,.F.);
#945=ORIENTED_EDGE('',*,*,#748,.T.);
#946=ORIENTED_EDGE('',*,*,#706,.F.);
#947=ORIENTED_EDGE('',*,*,#707,.F.);
#948=ORIENTED_EDGE('',*,*,#748,.F.);
#949=ORIENTED_EDGE('',*,*,#733,.T.);
#950=ORIENTED_EDGE('',*,*,#749,.F.);
#951=ORIENTED_EDGE('',*,*,#720,.F.);
#952=ORIENTED_EDGE('',*,*,#750,.F.);
#953=ORIENTED_EDGE('',*,*,#751,.F.);
#954=ORIENTED_EDGE('',*,*,#692,.T.);
#955=ORIENTED_EDGE('',*,*,#654,.F.);
#956=ORIENTED_EDGE('',*,*,#752,.F.);
#957=ORIENTED_EDGE('',*,*,#747,.T.);
#958=ORIENTED_EDGE('',*,*,#705,.F.);
#959=ORIENTED_EDGE('',*,*,#753,.T.);
#960=ORIENTED_EDGE('',*,*,#735,.F.);
#961=ORIENTED_EDGE('',*,*,#754,.F.);
#962=ORIENTED_EDGE('',*,*,#731,.F.);
#963=ORIENTED_EDGE('',*,*,#755,.T.);
#964=ORIENTED_EDGE('',*,*,#709,.F.);
#965=ORIENTED_EDGE('',*,*,#710,.F.);
#966=ORIENTED_EDGE('',*,*,#755,.F.);
#967=ORIENTED_EDGE('',*,*,#730,.F.);
#968=ORIENTED_EDGE('',*,*,#756,.F.);
#969=ORIENTED_EDGE('',*,*,#749,.T.);
#970=ORIENTED_EDGE('',*,*,#732,.F.);
#971=ORIENTED_EDGE('',*,*,#754,.T.);
#972=ORIENTED_EDGE('',*,*,#708,.F.);
#973=ORIENTED_EDGE('',*,*,#757,.T.);
#974=ORIENTED_EDGE('',*,*,#758,.F.);
#975=ORIENTED_EDGE('',*,*,#759,.T.);
#976=ORIENTED_EDGE('',*,*,#675,.T.);
#977=ORIENTED_EDGE('',*,*,#760,.F.);
#978=ORIENTED_EDGE('',*,*,#653,.F.);
#979=ORIENTED_EDGE('',*,*,#761,.T.);
#980=ORIENTED_EDGE('',*,*,#670,.T.);
#981=ORIENTED_EDGE('',*,*,#756,.T.);
#982=ORIENTED_EDGE('',*,*,#729,.F.);
#983=ORIENTED_EDGE('',*,*,#762,.T.);
#984=ORIENTED_EDGE('',*,*,#711,.F.);
#985=ORIENTED_EDGE('',*,*,#763,.F.);
#986=ORIENTED_EDGE('',*,*,#741,.F.);
#987=ORIENTED_EDGE('',*,*,#764,.T.);
#988=ORIENTED_EDGE('',*,*,#699,.F.);
#989=ORIENTED_EDGE('',*,*,#700,.F.);
#990=ORIENTED_EDGE('',*,*,#764,.F.);
#991=ORIENTED_EDGE('',*,*,#740,.F.);
#992=ORIENTED_EDGE('',*,*,#765,.F.);
#993=ORIENTED_EDGE('',*,*,#765,.T.);
#994=ORIENTED_EDGE('',*,*,#739,.F.);
#995=ORIENTED_EDGE('',*,*,#766,.T.);
#996=ORIENTED_EDGE('',*,*,#701,.F.);
#997=ORIENTED_EDGE('',*,*,#724,.F.);
#998=ORIENTED_EDGE('',*,*,#767,.T.);
#999=ORIENTED_EDGE('',*,*,#757,.F.);
#1000=ORIENTED_EDGE('',*,*,#768,.F.);
#1001=ORIENTED_EDGE('',*,*,#725,.F.);
#1002=ORIENTED_EDGE('',*,*,#768,.T.);
#1003=ORIENTED_EDGE('',*,*,#759,.F.);
#1004=ORIENTED_EDGE('',*,*,#686,.T.);
#1005=ORIENTED_EDGE('',*,*,#769,.T.);
#1006=ORIENTED_EDGE('',*,*,#716,.F.);
#1007=ORIENTED_EDGE('',*,*,#770,.T.);
#1008=ORIENTED_EDGE('',*,*,#657,.T.);
#1009=ORIENTED_EDGE('',*,*,#715,.F.);
#1010=ORIENTED_EDGE('',*,*,#689,.T.);
#1011=ORIENTED_EDGE('',*,*,#658,.T.);
#1012=ORIENTED_EDGE('',*,*,#770,.F.);
#1013=ORIENTED_EDGE('',*,*,#771,.T.);
#1014=ORIENTED_EDGE('',*,*,#722,.F.);
#1015=ORIENTED_EDGE('',*,*,#772,.T.);
#1016=ORIENTED_EDGE('',*,*,#761,.F.);
#1017=ORIENTED_EDGE('',*,*,#721,.F.);
#1018=ORIENTED_EDGE('',*,*,#752,.T.);
#1019=ORIENTED_EDGE('',*,*,#760,.T.);
#1020=ORIENTED_EDGE('',*,*,#772,.F.);
#1021=ORIENTED_EDGE('',*,*,#750,.T.);
#1022=ORIENTED_EDGE('',*,*,#719,.F.);
#1023=ORIENTED_EDGE('',*,*,#773,.T.);
#1024=ORIENTED_EDGE('',*,*,#663,.T.);
#1025=ORIENTED_EDGE('',*,*,#718,.F.);
#1026=ORIENTED_EDGE('',*,*,#774,.T.);
#1027=ORIENTED_EDGE('',*,*,#661,.T.);
#1028=ORIENTED_EDGE('',*,*,#773,.F.);
#1029=ORIENTED_EDGE('',*,*,#662,.T.);
#1030=ORIENTED_EDGE('',*,*,#775,.T.);
#1031=ORIENTED_EDGE('',*,*,#693,.T.);
#1032=ORIENTED_EDGE('',*,*,#751,.T.);
#1033=ORIENTED_EDGE('',*,*,#776,.F.);
#1034=ORIENTED_EDGE('',*,*,#777,.T.);
#1035=ORIENTED_EDGE('',*,*,#745,.F.);
#1036=ORIENTED_EDGE('',*,*,#777,.F.);
#1037=ORIENTED_EDGE('',*,*,#778,.F.);
#1038=ORIENTED_EDGE('',*,*,#712,.F.);
#1039=ORIENTED_EDGE('',*,*,#762,.F.);
#1040=ORIENTED_EDGE('',*,*,#728,.F.);
#1041=ORIENTED_EDGE('',*,*,#778,.T.);
#1042=ORIENTED_EDGE('',*,*,#727,.F.);
#1043=ORIENTED_EDGE('',*,*,#779,.T.);
#1044=ORIENTED_EDGE('',*,*,#713,.F.);
#1045=ORIENTED_EDGE('',*,*,#776,.T.);
#1046=ORIENTED_EDGE('',*,*,#766,.F.);
#1047=ORIENTED_EDGE('',*,*,#738,.F.);
#1048=ORIENTED_EDGE('',*,*,#780,.F.);
#1049=ORIENTED_EDGE('',*,*,#702,.F.);
#1050=ORIENTED_EDGE('',*,*,#781,.F.);
#1051=ORIENTED_EDGE('',*,*,#782,.T.);
#1052=ORIENTED_EDGE('',*,*,#744,.F.);
#1053=ORIENTED_EDGE('',*,*,#782,.F.);
#1054=ORIENTED_EDGE('',*,*,#780,.T.);
#1055=ORIENTED_EDGE('',*,*,#737,.F.);
#1056=ORIENTED_EDGE('',*,*,#783,.T.);
#1057=ORIENTED_EDGE('',*,*,#703,.F.);
#1058=ORIENTED_EDGE('',*,*,#783,.F.);
#1059=ORIENTED_EDGE('',*,*,#736,.F.);
#1060=ORIENTED_EDGE('',*,*,#753,.F.);
#1061=ORIENTED_EDGE('',*,*,#704,.F.);
#1062=ORIENTED_EDGE('',*,*,#784,.F.);
#1063=ORIENTED_EDGE('',*,*,#785,.T.);
#1064=ORIENTED_EDGE('',*,*,#743,.F.);
#1065=ORIENTED_EDGE('',*,*,#785,.F.);
#1066=ORIENTED_EDGE('',*,*,#781,.T.);
#1067=ORIENTED_EDGE('',*,*,#696,.F.);
#1068=ORIENTED_EDGE('',*,*,#714,.F.);
#1069=ORIENTED_EDGE('',*,*,#779,.F.);
#1070=ORIENTED_EDGE('',*,*,#726,.F.);
#1071=ORIENTED_EDGE('',*,*,#786,.F.);
#1072=ORIENTED_EDGE('',*,*,#787,.T.);
#1073=ORIENTED_EDGE('',*,*,#746,.F.);
#1074=ORIENTED_EDGE('',*,*,#787,.F.);
#1075=ORIENTED_EDGE('',*,*,#786,.T.);
#1076=ORIENTED_EDGE('',*,*,#684,.F.);
#1077=ORIENTED_EDGE('',*,*,#742,.F.);
#1078=ORIENTED_EDGE('',*,*,#763,.T.);
#1079=ORIENTED_EDGE('',*,*,#698,.T.);
#1080=ORIENTED_EDGE('',*,*,#628,.T.);
#1081=ORIENTED_EDGE('',*,*,#636,.T.);
#1082=ORIENTED_EDGE('',*,*,#639,.T.);
#1083=ORIENTED_EDGE('',*,*,#629,.T.);
#1084=ORIENTED_EDGE('',*,*,#633,.T.);
#1085=ORIENTED_EDGE('',*,*,#643,.T.);
#1086=ORIENTED_EDGE('',*,*,#646,.T.);
#1087=ORIENTED_EDGE('',*,*,#649,.T.);
#1088=ORIENTED_EDGE('',*,*,#652,.T.);
#1089=ORIENTED_EDGE('',*,*,#784,.T.);
#1090=ORIENTED_EDGE('',*,*,#758,.T.);
#1091=ORIENTED_EDGE('',*,*,#788,.T.);
#1092=ORIENTED_EDGE('',*,*,#690,.T.);
#1093=ORIENTED_EDGE('',*,*,#687,.T.);
#1094=ORIENTED_EDGE('',*,*,#694,.T.);
#1095=ORIENTED_EDGE('',*,*,#775,.F.);
#1096=ORIENTED_EDGE('',*,*,#774,.F.);
#1097=ORIENTED_EDGE('',*,*,#717,.F.);
#1098=ORIENTED_EDGE('',*,*,#769,.F.);
#1099=ORIENTED_EDGE('',*,*,#667,.F.);
#1100=ORIENTED_EDGE('',*,*,#626,.T.);
#1101=ORIENTED_EDGE('',*,*,#637,.T.);
#1102=ORIENTED_EDGE('',*,*,#634,.T.);
#1103=ORIENTED_EDGE('',*,*,#631,.T.);
#1104=ORIENTED_EDGE('',*,*,#640,.T.);
#1105=ORIENTED_EDGE('',*,*,#641,.T.);
#1106=ORIENTED_EDGE('',*,*,#644,.T.);
#1107=ORIENTED_EDGE('',*,*,#647,.T.);
#1108=ORIENTED_EDGE('',*,*,#650,.T.);
#1109=ORIENTED_EDGE('',*,*,#691,.T.);
#1110=ORIENTED_EDGE('',*,*,#788,.F.);
#1111=ORIENTED_EDGE('',*,*,#767,.F.);
#1112=ORIENTED_EDGE('',*,*,#723,.F.);
#1113=ORIENTED_EDGE('',*,*,#771,.F.);
#1114=ORIENTED_EDGE('',*,*,#656,.F.);
#1115=CYLINDRICAL_SURFACE('',#1214,6.6);
#1116=CYLINDRICAL_SURFACE('',#1221,8.);
#1117=CYLINDRICAL_SURFACE('',#1224,1.20000000000001);
#1118=CYLINDRICAL_SURFACE('',#1227,1.20000000000001);
#1119=CYLINDRICAL_SURFACE('',#1230,8.5);
#1120=CYLINDRICAL_SURFACE('',#1233,10.);
#1121=CYLINDRICAL_SURFACE('',#1242,10.);
#1122=CYLINDRICAL_SURFACE('',#1244,1.59999999999999);
#1123=CYLINDRICAL_SURFACE('',#1246,1.59999999999999);
#1124=CYLINDRICAL_SURFACE('',#1249,1.59999999999999);
#1125=CYLINDRICAL_SURFACE('',#1251,1.59999999999999);
#1126=CYLINDRICAL_SURFACE('',#1297,10.);
#1127=CYLINDRICAL_SURFACE('',#1298,1.8);
#1128=CYLINDRICAL_SURFACE('',#1300,4.);
#1129=CYLINDRICAL_SURFACE('',#1303,4.);
#1130=CYLINDRICAL_SURFACE('',#1304,1.8);
#1131=CYLINDRICAL_SURFACE('',#1307,4.);
#1132=CYLINDRICAL_SURFACE('',#1308,1.8);
#1133=CYLINDRICAL_SURFACE('',#1311,4.);
#1134=CYLINDRICAL_SURFACE('',#1312,1.8);
#1135=CYLINDRICAL_SURFACE('',#1317,10.);
#1136=ADVANCED_FACE('',(#83),#1115,.F.);
#1137=ADVANCED_FACE('',(#84),#40,.F.);
#1138=ADVANCED_FACE('',(#85),#41,.F.);
#1139=ADVANCED_FACE('',(#86),#42,.F.);
#1140=ADVANCED_FACE('',(#87),#43,.F.);
#1141=ADVANCED_FACE('',(#88),#1116,.F.);
#1142=ADVANCED_FACE('',(#89),#1117,.F.);
#1143=ADVANCED_FACE('',(#90),#1118,.F.);
#1144=ADVANCED_FACE('',(#91),#1119,.F.);
#1145=ADVANCED_FACE('',(#92),#1120,.T.);
#1146=ADVANCED_FACE('',(#93,#15),#44,.T.);
#1147=ADVANCED_FACE('',(#94,#16),#45,.T.);
#1148=ADVANCED_FACE('',(#95),#1121,.T.);
#1149=ADVANCED_FACE('',(#96),#1122,.F.);
#1150=ADVANCED_FACE('',(#97),#1123,.F.);
#1151=ADVANCED_FACE('',(#98),#1124,.F.);
#1152=ADVANCED_FACE('',(#99),#1125,.F.);
#1153=ADVANCED_FACE('',(#100),#46,.T.);
#1154=ADVANCED_FACE('',(#101),#47,.T.);
#1155=ADVANCED_FACE('',(#102),#48,.T.);
#1156=ADVANCED_FACE('',(#103,#17,#18,#19,#20),#49,.F.);
#1157=ADVANCED_FACE('',(#104),#50,.F.);
#1158=ADVANCED_FACE('',(#105),#51,.T.);
#1159=ADVANCED_FACE('',(#106,#21,#22,#23,#24,#25),#52,.F.);
#1160=ADVANCED_FACE('',(#107),#53,.T.);
#1161=ADVANCED_FACE('',(#108),#54,.T.);
#1162=ADVANCED_FACE('',(#109),#55,.T.);
#1163=ADVANCED_FACE('',(#110),#56,.F.);
#1164=ADVANCED_FACE('',(#111),#57,.T.);
#1165=ADVANCED_FACE('',(#112),#58,.T.);
#1166=ADVANCED_FACE('',(#113),#59,.F.);
#1167=ADVANCED_FACE('',(#114,#26),#60,.T.);
#1168=ADVANCED_FACE('',(#115,#27),#61,.T.);
#1169=ADVANCED_FACE('',(#116),#62,.F.);
#1170=ADVANCED_FACE('',(#117),#63,.T.);
#1171=ADVANCED_FACE('',(#118),#64,.T.);
#1172=ADVANCED_FACE('',(#119),#65,.F.);
#1173=ADVANCED_FACE('',(#120),#66,.F.);
#1174=ADVANCED_FACE('',(#121),#67,.F.);
#1175=ADVANCED_FACE('',(#122),#68,.F.);
#1176=ADVANCED_FACE('',(#123),#69,.F.);
#1177=ADVANCED_FACE('',(#124),#70,.F.);
#1178=ADVANCED_FACE('',(#125),#71,.F.);
#1179=ADVANCED_FACE('',(#126),#72,.F.);
#1180=ADVANCED_FACE('',(#127),#73,.F.);
#1181=ADVANCED_FACE('',(#128),#1126,.T.);
#1182=ADVANCED_FACE('',(#129),#1127,.F.);
#1183=ADVANCED_FACE('',(#130),#1128,.T.);
#1184=ADVANCED_FACE('',(#131),#74,.F.);
#1185=ADVANCED_FACE('',(#132),#75,.T.);
#1186=ADVANCED_FACE('',(#133),#1129,.T.);
#1187=ADVANCED_FACE('',(#134),#1130,.F.);
#1188=ADVANCED_FACE('',(#135),#76,.F.);
#1189=ADVANCED_FACE('',(#136),#1131,.T.);
#1190=ADVANCED_FACE('',(#137),#1132,.F.);
#1191=ADVANCED_FACE('',(#138),#77,.T.);
#1192=ADVANCED_FACE('',(#139),#1133,.T.);
#1193=ADVANCED_FACE('',(#140),#1134,.F.);
#1194=ADVANCED_FACE('',(#141),#78,.T.);
#1195=ADVANCED_FACE('',(#142,#28,#29,#30,#31,#32,#33),#79,.F.);
#1196=ADVANCED_FACE('',(#143),#80,.T.);
#1197=ADVANCED_FACE('',(#144),#1135,.T.);
#1198=ADVANCED_FACE('',(#145,#34,#35,#36,#37,#38,#39),#81,.T.);
#1199=ADVANCED_FACE('',(#146),#82,.T.);
#1200=CLOSED_SHELL('',(#1136,#1137,#1138,#1139,#1140,#1141,#1142,#1143,
#1144,#1145,#1146,#1147,#1148,#1149,#1150,#1151,#1152,#1153,#1154,#1155,
#1156,#1157,#1158,#1159,#1160,#1161,#1162,#1163,#1164,#1165,#1166,#1167,
#1168,#1169,#1170,#1171,#1172,#1173,#1174,#1175,#1176,#1177,#1178,#1179,
#1180,#1181,#1182,#1183,#1184,#1185,#1186,#1187,#1188,#1189,#1190,#1191,
#1192,#1193,#1194,#1195,#1196,#1197,#1198,#1199));
#1201=DERIVED_UNIT_ELEMENT(#1203,1.);
#1202=DERIVED_UNIT_ELEMENT(#1994,-3.);
#1203=(
MASS_UNIT()
NAMED_UNIT(*)
SI_UNIT(.KILO.,.GRAM.)
);
#1204=DERIVED_UNIT((#1201,#1202));
#1205=MEASURE_REPRESENTATION_ITEM('density measure',
POSITIVE_RATIO_MEASURE(7850.),#1204);
#1206=PROPERTY_DEFINITION_REPRESENTATION(#1211,#1208);
#1207=PROPERTY_DEFINITION_REPRESENTATION(#1212,#1209);
#1208=REPRESENTATION('material name',(#1210),#1991);
#1209=REPRESENTATION('density',(#1205),#1991);
#1210=DESCRIPTIVE_REPRESENTATION_ITEM('Steel','Steel');
#1211=PROPERTY_DEFINITION('material property','material name',#2001);
#1212=PROPERTY_DEFINITION('material property','density of part',#2001);
#1213=AXIS2_PLACEMENT_3D('',#1655,#1320,#1321);
#1214=AXIS2_PLACEMENT_3D('',#1656,#1322,#1323);
#1215=AXIS2_PLACEMENT_3D('',#1658,#1324,#1325);
#1216=AXIS2_PLACEMENT_3D('',#1661,#1327,#1328);
#1217=AXIS2_PLACEMENT_3D('',#1662,#1329,#1330);
#1218=AXIS2_PLACEMENT_3D('',#1671,#1335,#1336);
#1219=AXIS2_PLACEMENT_3D('',#1677,#1340,#1341);
#1220=AXIS2_PLACEMENT_3D('',#1683,#1345,#1346);
#1221=AXIS2_PLACEMENT_3D('',#1686,#1349,#1350);
#1222=AXIS2_PLACEMENT_3D('',#1688,#1351,#1352);
#1223=AXIS2_PLACEMENT_3D('',#1691,#1354,#1355);
#1224=AXIS2_PLACEMENT_3D('',#1692,#1356,#1357);
#1225=AXIS2_PLACEMENT_3D('',#1694,#1358,#1359);
#1226=AXIS2_PLACEMENT_3D('',#1697,#1361,#1362);
#1227=AXIS2_PLACEMENT_3D('',#1698,#1363,#1364);
#1228=AXIS2_PLACEMENT_3D('',#1700,#1365,#1366);
#1229=AXIS2_PLACEMENT_3D('',#1703,#1368,#1369);
#1230=AXIS2_PLACEMENT_3D('',#1704,#1370,#1371);
#1231=AXIS2_PLACEMENT_3D('',#1706,#1372,#1373);
#1232=AXIS2_PLACEMENT_3D('',#1709,#1375,#1376);
#1233=AXIS2_PLACEMENT_3D('',#1710,#1377,#1378);
#1234=AXIS2_PLACEMENT_3D('',#1713,#1379,#1380);
#1235=AXIS2_PLACEMENT_3D('',#1717,#1382,#1383);
#1236=AXIS2_PLACEMENT_3D('',#1719,#1385,#1386);
#1237=AXIS2_PLACEMENT_3D('',#1725,#1389,#1390);
#1238=AXIS2_PLACEMENT_3D('',#1727,#1391,#1392);
#1239=AXIS2_PLACEMENT_3D('',#1728,#1393,#1394);
#1240=AXIS2_PLACEMENT_3D('',#1733,#1396,#1397);
#1241=AXIS2_PLACEMENT_3D('',#1736,#1399,#1400);
#1242=AXIS2_PLACEMENT_3D('',#1737,#1401,#1402);
#1243=AXIS2_PLACEMENT_3D('',#1741,#1404,#1405);
#1244=AXIS2_PLACEMENT_3D('',#1743,#1407,#1408);
#1245=AXIS2_PLACEMENT_3D('',#1746,#1410,#1411);
#1246=AXIS2_PLACEMENT_3D('',#1747,#1412,#1413);
#1247=AXIS2_PLACEMENT_3D('',#1749,#1414,#1415);
#1248=AXIS2_PLACEMENT_3D('',#1752,#1417,#1418);
#1249=AXIS2_PLACEMENT_3D('',#1753,#1419,#1420);
#1250=AXIS2_PLACEMENT_3D('',#1756,#1422,#1423);
#1251=AXIS2_PLACEMENT_3D('',#1757,#1424,#1425);
#1252=AXIS2_PLACEMENT_3D('',#1759,#1426,#1427);
#1253=AXIS2_PLACEMENT_3D('',#1762,#1429,#1430);
#1254=AXIS2_PLACEMENT_3D('',#1763,#1431,#1432);
#1255=AXIS2_PLACEMENT_3D('',#1772,#1437,#1438);
#1256=AXIS2_PLACEMENT_3D('',#1778,#1442,#1443);
#1257=AXIS2_PLACEMENT_3D('',#1788,#1449,#1450);
#1258=AXIS2_PLACEMENT_3D('',#1790,#1451,#1452);
#1259=AXIS2_PLACEMENT_3D('',#1795,#1455,#1456);
#1260=AXIS2_PLACEMENT_3D('',#1797,#1458,#1459);
#1261=AXIS2_PLACEMENT_3D('',#1803,#1463,#1464);
#1262=AXIS2_PLACEMENT_3D('',#1813,#1469,#1470);
#1263=AXIS2_PLACEMENT_3D('',#1817,#1472,#1473);
#1264=AXIS2_PLACEMENT_3D('',#1833,#1481,#1482);
#1265=AXIS2_PLACEMENT_3D('',#1836,#1484,#1485);
#1266=AXIS2_PLACEMENT_3D('',#1837,#1486,#1487);
#1267=AXIS2_PLACEMENT_3D('',#1860,#1499,#1500);
#1268=AXIS2_PLACEMENT_3D('',#1864,#1502,#1503);
#1269=AXIS2_PLACEMENT_3D('',#1880,#1511,#1512);
#1270=AXIS2_PLACEMENT_3D('',#1884,#1514,#1515);
#1271=AXIS2_PLACEMENT_3D('',#1893,#1520,#1521);
#1272=AXIS2_PLACEMENT_3D('',#1895,#1522,#1523);
#1273=AXIS2_PLACEMENT_3D('',#1897,#1524,#1525);
#1274=AXIS2_PLACEMENT_3D('',#1899,#1526,#1527);
#1275=AXIS2_PLACEMENT_3D('',#1900,#1528,#1529);
#1276=AXIS2_PLACEMENT_3D('',#1903,#1532,#1533);
#1277=AXIS2_PLACEMENT_3D('',#1905,#1535,#1536);
#1278=AXIS2_PLACEMENT_3D('',#1909,#1540,#1541);
#1279=AXIS2_PLACEMENT_3D('',#1911,#1543,#1544);
#1280=AXIS2_PLACEMENT_3D('',#1914,#1547,#1548);
#1281=AXIS2_PLACEMENT_3D('',#1916,#1550,#1551);
#1282=AXIS2_PLACEMENT_3D('',#1917,#1552,#1553);
#1283=AXIS2_PLACEMENT_3D('',#1921,#1555,#1556);
#1284=AXIS2_PLACEMENT_3D('',#1923,#1558,#1559);
#1285=AXIS2_PLACEMENT_3D('',#1927,#1562,#1563);
#1286=AXIS2_PLACEMENT_3D('',#1929,#1565,#1566);
#1287=AXIS2_PLACEMENT_3D('',#1932,#1569,#1570);
#1288=AXIS2_PLACEMENT_3D('',#1934,#1572,#1573);
#1289=AXIS2_PLACEMENT_3D('',#1936,#1575,#1576);
#1290=AXIS2_PLACEMENT_3D('',#1939,#1579,#1580);
#1291=AXIS2_PLACEMENT_3D('',#1940,#1581,#1582);
#1292=AXIS2_PLACEMENT_3D('',#1943,#1585,#1586);
#1293=AXIS2_PLACEMENT_3D('',#1944,#1587,#1588);
#1294=AXIS2_PLACEMENT_3D('',#1947,#1591,#1592);
#1295=AXIS2_PLACEMENT_3D('',#1948,#1593,#1594);
#1296=AXIS2_PLACEMENT_3D('',#1950,#1596,#1597);
#1297=AXIS2_PLACEMENT_3D('',#1952,#1599,#1600);
#1298=AXIS2_PLACEMENT_3D('',#1954,#1602,#1603);
#1299=AXIS2_PLACEMENT_3D('',#1956,#1604,#1605);
#1300=AXIS2_PLACEMENT_3D('',#1958,#1607,#1608);
#1301=AXIS2_PLACEMENT_3D('',#1960,#1610,#1611);
#1302=AXIS2_PLACEMENT_3D('',#1962,#1613,#1614);
#1303=AXIS2_PLACEMENT_3D('',#1963,#1615,#1616);
#1304=AXIS2_PLACEMENT_3D('',#1965,#1618,#1619);
#1305=AXIS2_PLACEMENT_3D('',#1967,#1620,#1621);
#1306=AXIS2_PLACEMENT_3D('',#1969,#1623,#1624);
#1307=AXIS2_PLACEMENT_3D('',#1971,#1626,#1627);
#1308=AXIS2_PLACEMENT_3D('',#1972,#1628,#1629);
#1309=AXIS2_PLACEMENT_3D('',#1974,#1630,#1631);
#1310=AXIS2_PLACEMENT_3D('',#1976,#1633,#1634);
#1311=AXIS2_PLACEMENT_3D('',#1977,#1635,#1636);
#1312=AXIS2_PLACEMENT_3D('',#1978,#1637,#1638);
#1313=AXIS2_PLACEMENT_3D('',#1980,#1639,#1640);
#1314=AXIS2_PLACEMENT_3D('',#1982,#1642,#1643);
#1315=AXIS2_PLACEMENT_3D('',#1983,#1644,#1645);
#1316=AXIS2_PLACEMENT_3D('',#1984,#1646,#1647);
#1317=AXIS2_PLACEMENT_3D('',#1985,#1648,#1649);
#1318=AXIS2_PLACEMENT_3D('',#1987,#1651,#1652);
#1319=AXIS2_PLACEMENT_3D('',#1988,#1653,#1654);
#1320=DIRECTION('axis',(0.,0.,1.));
#1321=DIRECTION('refdir',(1.,0.,0.));
#1322=DIRECTION('center_axis',(0.,0.,1.));
#1323=DIRECTION('ref_axis',(-1.,-3.17816803025019E-47,0.));
#1324=DIRECTION('center_axis',(0.,0.,1.));
#1325=DIRECTION('ref_axis',(-1.,-3.17816803025019E-47,0.));
#1326=DIRECTION('',(0.,0.,1.));
#1327=DIRECTION('center_axis',(0.,0.,-1.));
#1328=DIRECTION('ref_axis',(-1.,-3.17816803025019E-47,0.));
#1329=DIRECTION('center_axis',(-5.53382192959581E-16,1.,0.));
#1330=DIRECTION('ref_axis',(-1.,-5.53382192959581E-16,1.3085779789895E-60));
#1331=DIRECTION('',(1.,5.53382192959581E-16,0.));
#1332=DIRECTION('',(0.,0.,1.));
#1333=DIRECTION('',(-1.,-5.53382192959581E-16,0.));
#1334=DIRECTION('',(0.,0.,1.));
#1335=DIRECTION('center_axis',(1.,-1.28102656687518E-15,0.));
#1336=DIRECTION('ref_axis',(1.28102656687518E-15,1.,-2.36469115854813E-45));
#1337=DIRECTION('',(-1.28102656687518E-15,-1.,0.));
#1338=DIRECTION('',(1.28102656687518E-15,1.,0.));
#1339=DIRECTION('',(0.,0.,1.));
#1340=DIRECTION('center_axis',(3.17816803025019E-47,-1.,0.));
#1341=DIRECTION('ref_axis',(1.,3.17816803025019E-47,0.));
#1342=DIRECTION('',(-1.,-3.17816803025019E-47,0.));
#1343=DIRECTION('',(1.,3.17816803025019E-47,0.));
#1344=DIRECTION('',(0.,0.,1.));
#1345=DIRECTION('center_axis',(-1.,1.28102656687518E-15,0.));
#1346=DIRECTION('ref_axis',(-1.28102656687518E-15,-1.,2.36469115854813E-45));
#1347=DIRECTION('',(1.28102656687518E-15,1.,0.));
#1348=DIRECTION('',(-1.28102656687518E-15,-1.,0.));
#1349=DIRECTION('center_axis',(0.,0.,1.));
#1350=DIRECTION('ref_axis',(-1.,-3.17816803025019E-47,0.));
#1351=DIRECTION('center_axis',(0.,0.,1.));
#1352=DIRECTION('ref_axis',(-1.,-3.17816803025019E-47,0.));
#1353=DIRECTION('',(0.,0.,1.));
#1354=DIRECTION('center_axis',(0.,0.,-1.));
#1355=DIRECTION('ref_axis',(-1.,-3.17816803025019E-47,0.));
#1356=DIRECTION('center_axis',(0.,0.,1.));
#1357=DIRECTION('ref_axis',(-1.,-3.17816803025019E-47,0.));
#1358=DIRECTION('center_axis',(0.,0.,1.));
#1359=DIRECTION('ref_axis',(-1.,-3.17816803025019E-47,0.));
#1360=DIRECTION('',(0.,0.,1.));
#1361=DIRECTION('center_axis',(0.,0.,-1.));
#1362=DIRECTION('ref_axis',(-1.,-3.17816803025019E-47,0.));
#1363=DIRECTION('center_axis',(0.,0.,1.));
#1364=DIRECTION('ref_axis',(-1.,-3.17816803025019E-47,0.));
#1365=DIRECTION('center_axis',(0.,0.,1.));
#1366=DIRECTION('ref_axis',(-1.,-3.17816803025019E-47,0.));
#1367=DIRECTION('',(0.,0.,1.));
#1368=DIRECTION('center_axis',(0.,0.,-1.));
#1369=DIRECTION('ref_axis',(-1.,-3.17816803025019E-47,0.));
#1370=DIRECTION('center_axis',(0.,0.,1.));
#1371=DIRECTION('ref_axis',(-1.,-3.17816803025019E-47,0.));
#1372=DIRECTION('center_axis',(0.,0.,1.));
#1373=DIRECTION('ref_axis',(-1.,-3.17816803025019E-47,0.));
#1374=DIRECTION('',(0.,0.,1.));
#1375=DIRECTION('center_axis',(0.,0.,-1.));
#1376=DIRECTION('ref_axis',(-1.,-3.17816803025019E-47,0.));
#1377=DIRECTION('center_axis',(0.,1.,0.));
#1378=DIRECTION('ref_axis',(-0.707106781186547,0.,0.707106781186547));
#1379=DIRECTION('center_axis',(0.,-1.,0.));
#1380=DIRECTION('ref_axis',(-0.707106781186547,0.,0.707106781186547));
#1381=DIRECTION('',(0.,-1.,0.));
#1382=DIRECTION('center_axis',(0.,1.,0.));
#1383=DIRECTION('ref_axis',(-0.707106781186547,0.,0.707106781186547));
#1384=DIRECTION('',(0.,1.,0.));
#1385=DIRECTION('center_axis',(0.,1.,0.));
#1386=DIRECTION('ref_axis',(-1.,0.,0.));
#1387=DIRECTION('',(0.,0.,-1.));
#1388=DIRECTION('',(-1.,0.,0.));
#1389=DIRECTION('center_axis',(0.,-1.,0.));
#1390=DIRECTION('ref_axis',(0.707106781186547,0.,-0.707106781186547));
#1391=DIRECTION('center_axis',(0.,1.,0.));
#1392=DIRECTION('ref_axis',(-1.,0.,0.));
#1393=DIRECTION('center_axis',(0.,1.,0.));
#1394=DIRECTION('ref_axis',(-1.,0.,0.));
#1395=DIRECTION('',(0.,0.,1.));
#1396=DIRECTION('center_axis',(0.,-1.,0.));
#1397=DIRECTION('ref_axis',(-0.707106781186547,0.,-0.707106781186547));
#1398=DIRECTION('',(-1.,0.,0.));
#1399=DIRECTION('center_axis',(0.,1.,0.));
#1400=DIRECTION('ref_axis',(-1.,0.,0.));
#1401=DIRECTION('center_axis',(0.,1.,0.));
#1402=DIRECTION('ref_axis',(0.707106781186547,0.,-0.707106781186547));
#1403=DIRECTION('',(0.,-1.,0.));
#1404=DIRECTION('center_axis',(0.,1.,0.));
#1405=DIRECTION('ref_axis',(0.707106781186547,0.,-0.707106781186547));
#1406=DIRECTION('',(0.,1.,0.));
#1407=DIRECTION('center_axis',(0.,-1.,0.));
#1408=DIRECTION('ref_axis',(-1.,0.,0.));
#1409=DIRECTION('',(0.,-1.,0.));
#1410=DIRECTION('center_axis',(0.,1.,0.));
#1411=DIRECTION('ref_axis',(-1.,0.,0.));
#1412=DIRECTION('center_axis',(0.,-1.,0.));
#1413=DIRECTION('ref_axis',(-1.,0.,0.));
#1414=DIRECTION('center_axis',(0.,-1.,0.));
#1415=DIRECTION('ref_axis',(-1.,0.,0.));
#1416=DIRECTION('',(0.,-1.,0.));
#1417=DIRECTION('center_axis',(0.,1.,0.));
#1418=DIRECTION('ref_axis',(-1.,0.,0.));
#1419=DIRECTION('center_axis',(0.,-1.,0.));
#1420=DIRECTION('ref_axis',(-1.,0.,0.));
#1421=DIRECTION('',(0.,-1.,0.));
#1422=DIRECTION('center_axis',(0.,1.,0.));
#1423=DIRECTION('ref_axis',(-1.,0.,0.));
#1424=DIRECTION('center_axis',(0.,-1.,0.));
#1425=DIRECTION('ref_axis',(-1.,0.,0.));
#1426=DIRECTION('center_axis',(0.,-1.,0.));
#1427=DIRECTION('ref_axis',(-1.,0.,0.));
#1428=DIRECTION('',(0.,-1.,0.));
#1429=DIRECTION('center_axis',(0.,1.,0.));
#1430=DIRECTION('ref_axis',(-1.,0.,0.));
#1431=DIRECTION('center_axis',(0.,0.,1.));
#1432=DIRECTION('ref_axis',(-1.,0.,0.));
#1433=DIRECTION('',(0.,-1.,0.));
#1434=DIRECTION('',(-1.,0.,0.));
#1435=DIRECTION('',(0.,-1.,0.));
#1436=DIRECTION('',(-1.,0.,0.));
#1437=DIRECTION('center_axis',(-1.,0.,-8.88178419700125E-16));
#1438=DIRECTION('ref_axis',(8.88178419700125E-16,0.,-1.));
#1439=DIRECTION('',(-8.88178419700125E-16,0.,1.));
#1440=DIRECTION('',(8.88178419700125E-16,0.,-1.));
#1441=DIRECTION('',(0.,-1.,0.));
#1442=DIRECTION('center_axis',(1.,0.,3.70074341541719E-16));
#1443=DIRECTION('ref_axis',(3.70074341541719E-16,0.,-1.));
#1444=DIRECTION('',(-3.70074341541719E-16,0.,1.));
#1445=DIRECTION('',(0.,1.,0.));
#1446=DIRECTION('',(0.,1.,0.));
#1447=DIRECTION('',(3.70074341541719E-16,0.,-1.));
#1448=DIRECTION('',(0.,-1.,0.));
#1449=DIRECTION('center_axis',(0.,1.,0.));
#1450=DIRECTION('ref_axis',(1.,0.,0.));
#1451=DIRECTION('center_axis',(0.,1.,0.));
#1452=DIRECTION('ref_axis',(0.707106781186547,0.,0.707106781186547));
#1453=DIRECTION('',(1.,0.,0.));
#1454=DIRECTION('',(-1.48029736616688E-16,0.,1.));
#1455=DIRECTION('center_axis',(0.,1.,0.));
#1456=DIRECTION('ref_axis',(-0.707106781186547,0.,-0.707106781186547));
#1457=DIRECTION('',(-1.,0.,0.));
#1458=DIRECTION('center_axis',(1.,0.,3.70074341541719E-16));
#1459=DIRECTION('ref_axis',(3.70074341541719E-16,0.,-1.));
#1460=DIRECTION('',(-3.70074341541719E-16,0.,1.));
#1461=DIRECTION('',(0.,1.,0.));
#1462=DIRECTION('',(-3.70074341541719E-16,0.,1.));
#1463=DIRECTION('center_axis',(0.,1.,0.));
#1464=DIRECTION('ref_axis',(1.,0.,0.));
#1465=DIRECTION('',(1.,0.,0.));
#1466=DIRECTION('',(0.,0.,1.));
#1467=DIRECTION('',(-1.,0.,0.));
#1468=DIRECTION('',(1.48029736616688E-16,0.,-1.));
#1469=DIRECTION('center_axis',(0.,-1.,0.));
#1470=DIRECTION('ref_axis',(-1.,0.,0.));
#1471=DIRECTION('',(1.48029736616688E-16,0.,-1.));
#1472=DIRECTION('center_axis',(0.,-1.,0.));
#1473=DIRECTION('ref_axis',(-1.,0.,0.));
#1474=DIRECTION('',(1.48029736616688E-16,0.,-1.));
#1475=DIRECTION('',(1.,0.,0.));
#1476=DIRECTION('',(4.44089209850064E-15,0.,1.));
#1477=DIRECTION('',(-1.,0.,0.));
#1478=DIRECTION('',(0.,0.,-1.));
#1479=DIRECTION('',(1.,0.,0.));
#1480=DIRECTION('',(-3.70074341541719E-16,0.,1.));
#1481=DIRECTION('center_axis',(0.,-1.,0.));
#1482=DIRECTION('ref_axis',(-1.,0.,0.));
#1483=DIRECTION('',(-3.70074341541719E-16,0.,1.));
#1484=DIRECTION('center_axis',(0.,-1.,0.));
#1485=DIRECTION('ref_axis',(-1.,0.,0.));
#1486=DIRECTION('center_axis',(0.,-1.,0.));
#1487=DIRECTION('ref_axis',(0.,0.,-1.));
#1488=DIRECTION('',(-1.,0.,0.));
#1489=DIRECTION('',(0.,0.,-1.));
#1490=DIRECTION('',(1.,0.,0.));
#1491=DIRECTION('',(0.,0.,1.));
#1492=DIRECTION('',(-1.,0.,0.));
#1493=DIRECTION('',(1.48029736616688E-16,0.,-1.));
#1494=DIRECTION('',(1.,0.,0.));
#1495=DIRECTION('',(0.,0.,1.));
#1496=DIRECTION('',(-1.,0.,0.));
#1497=DIRECTION('',(0.,0.,-1.));
#1498=DIRECTION('',(1.,0.,0.));
#1499=DIRECTION('center_axis',(0.,-1.,0.));
#1500=DIRECTION('ref_axis',(-1.,0.,0.));
#1501=DIRECTION('',(-3.70074341541719E-16,0.,1.));
#1502=DIRECTION('center_axis',(0.,-1.,0.));
#1503=DIRECTION('ref_axis',(-1.,0.,0.));
#1504=DIRECTION('',(-3.70074341541719E-16,0.,1.));
#1505=DIRECTION('',(1.,0.,0.));
#1506=DIRECTION('',(0.,0.,-1.));
#1507=DIRECTION('',(-1.,0.,0.));
#1508=DIRECTION('',(4.44089209850064E-15,0.,1.));
#1509=DIRECTION('',(1.,0.,0.));
#1510=DIRECTION('',(1.48029736616688E-16,0.,-1.));
#1511=DIRECTION('center_axis',(0.,-1.,0.));
#1512=DIRECTION('ref_axis',(-1.,0.,0.));
#1513=DIRECTION('',(1.48029736616688E-16,0.,-1.));
#1514=DIRECTION('center_axis',(0.,-1.,0.));
#1515=DIRECTION('ref_axis',(-1.,0.,0.));
#1516=DIRECTION('',(1.48029736616688E-16,0.,-1.));
#1517=DIRECTION('',(-1.,0.,0.));
#1518=DIRECTION('',(0.,0.,1.));
#1519=DIRECTION('',(1.,0.,0.));
#1520=DIRECTION('center_axis',(0.,1.,0.));
#1521=DIRECTION('ref_axis',(-1.,0.,0.));
#1522=DIRECTION('center_axis',(0.,1.,0.));
#1523=DIRECTION('ref_axis',(-1.,0.,0.));
#1524=DIRECTION('center_axis',(0.,1.,0.));
#1525=DIRECTION('ref_axis',(-1.,0.,0.));
#1526=DIRECTION('center_axis',(0.,1.,0.));
#1527=DIRECTION('ref_axis',(-1.,0.,0.));
#1528=DIRECTION('center_axis',(0.,0.,-1.));
#1529=DIRECTION('ref_axis',(1.,0.,0.));
#1530=DIRECTION('',(0.,-1.,0.));
#1531=DIRECTION('',(0.,-1.,0.));
#1532=DIRECTION('center_axis',(1.,0.,-4.44089209850064E-15));
#1533=DIRECTION('ref_axis',(4.44089209850064E-15,0.,1.));
#1534=DIRECTION('',(0.,1.,0.));
#1535=DIRECTION('center_axis',(-1.,0.,-1.48029736616688E-16));
#1536=DIRECTION('ref_axis',(-1.48029736616688E-16,0.,1.));
#1537=DIRECTION('',(0.,1.,0.));
#1538=DIRECTION('',(0.,1.,0.));
#1539=DIRECTION('',(0.,-1.,0.));
#1540=DIRECTION('center_axis',(-1.,0.,-1.48029736616688E-16));
#1541=DIRECTION('ref_axis',(-1.48029736616688E-16,0.,1.));
#1542=DIRECTION('',(0.,1.,0.));
#1543=DIRECTION('center_axis',(-1.,0.,0.));
#1544=DIRECTION('ref_axis',(0.,0.,-1.));
#1545=DIRECTION('',(0.,-1.,0.));
#1546=DIRECTION('',(0.,-1.,0.));
#1547=DIRECTION('center_axis',(0.,0.,-1.));
#1548=DIRECTION('ref_axis',(1.,0.,0.));
#1549=DIRECTION('',(0.,1.,0.));
#1550=DIRECTION('center_axis',(0.,0.,1.));
#1551=DIRECTION('ref_axis',(1.,0.,0.));
#1552=DIRECTION('center_axis',(0.,1.,0.));
#1553=DIRECTION('ref_axis',(1.,0.,0.));
#1554=DIRECTION('',(-8.88178419700125E-16,0.,1.));
#1555=DIRECTION('center_axis',(0.,-1.,0.));
#1556=DIRECTION('ref_axis',(0.707106781186547,0.,0.707106781186547));
#1557=DIRECTION('',(-1.,0.,0.));
#1558=DIRECTION('center_axis',(0.,1.,0.));
#1559=DIRECTION('ref_axis',(1.,0.,0.));
#1560=DIRECTION('',(1.,0.,0.));
#1561=DIRECTION('',(0.,0.,-1.));
#1562=DIRECTION('center_axis',(1.,0.,3.70074341541719E-16));
#1563=DIRECTION('ref_axis',(3.70074341541719E-16,0.,-1.));
#1564=DIRECTION('',(0.,-1.,0.));
#1565=DIRECTION('center_axis',(1.,0.,0.));
#1566=DIRECTION('ref_axis',(0.,0.,1.));
#1567=DIRECTION('',(0.,-1.,0.));
#1568=DIRECTION('',(0.,-1.,0.));
#1569=DIRECTION('center_axis',(0.,0.,1.));
#1570=DIRECTION('ref_axis',(-1.,0.,0.));
#1571=DIRECTION('',(0.,1.,0.));
#1572=DIRECTION('center_axis',(-1.,0.,-1.48029736616688E-16));
#1573=DIRECTION('ref_axis',(-1.48029736616688E-16,0.,1.));
#1574=DIRECTION('',(0.,-1.,0.));
#1575=DIRECTION('center_axis',(-1.,0.,0.));
#1576=DIRECTION('ref_axis',(0.,0.,-1.));
#1577=DIRECTION('',(0.,-1.,0.));
#1578=DIRECTION('',(0.,-1.,0.));
#1579=DIRECTION('center_axis',(0.,0.,-1.));
#1580=DIRECTION('ref_axis',(1.,0.,0.));
#1581=DIRECTION('center_axis',(-1.,0.,0.));
#1582=DIRECTION('ref_axis',(0.,0.,-1.));
#1583=DIRECTION('',(0.,1.,0.));
#1584=DIRECTION('',(0.,-1.,0.));
#1585=DIRECTION('center_axis',(0.,0.,1.));
#1586=DIRECTION('ref_axis',(-1.,0.,0.));
#1587=DIRECTION('center_axis',(1.,0.,0.));
#1588=DIRECTION('ref_axis',(0.,0.,1.));
#1589=DIRECTION('',(0.,1.,0.));
#1590=DIRECTION('',(0.,-1.,0.));
#1591=DIRECTION('center_axis',(0.,0.,-1.));
#1592=DIRECTION('ref_axis',(1.,0.,0.));
#1593=DIRECTION('center_axis',(0.,0.,1.));
#1594=DIRECTION('ref_axis',(-1.,0.,0.));
#1595=DIRECTION('',(0.,-1.,0.));
#1596=DIRECTION('center_axis',(1.,0.,0.));
#1597=DIRECTION('ref_axis',(0.,0.,1.));
#1598=DIRECTION('',(0.,-1.,0.));
#1599=DIRECTION('center_axis',(0.,1.,0.));
#1600=DIRECTION('ref_axis',(-0.707106781186547,0.,-0.707106781186547));
#1601=DIRECTION('',(0.,-1.,0.));
#1602=DIRECTION('center_axis',(0.,-1.,0.));
#1603=DIRECTION('ref_axis',(-1.,0.,0.));
#1604=DIRECTION('center_axis',(0.,1.,0.));
#1605=DIRECTION('ref_axis',(-1.,0.,0.));
#1606=DIRECTION('',(0.,1.,0.));
#1607=DIRECTION('center_axis',(0.,-1.,0.));
#1608=DIRECTION('ref_axis',(-1.,0.,0.));
#1609=DIRECTION('',(0.,1.,0.));
#1610=DIRECTION('center_axis',(1.,0.,3.70074341541719E-16));
#1611=DIRECTION('ref_axis',(3.70074341541719E-16,0.,-1.));
#1612=DIRECTION('',(0.,-1.,0.));
#1613=DIRECTION('center_axis',(0.,1.,0.));
#1614=DIRECTION('ref_axis',(1.,0.,0.));
#1615=DIRECTION('center_axis',(0.,-1.,0.));
#1616=DIRECTION('ref_axis',(1.,0.,-1.22464679914735E-16));
#1617=DIRECTION('',(0.,1.,0.));
#1618=DIRECTION('center_axis',(0.,-1.,0.));
#1619=DIRECTION('ref_axis',(-1.,0.,0.));
#1620=DIRECTION('center_axis',(0.,1.,0.));
#1621=DIRECTION('ref_axis',(-1.,0.,0.));
#1622=DIRECTION('',(0.,1.,0.));
#1623=DIRECTION('center_axis',(-1.,0.,-1.48029736616688E-16));
#1624=DIRECTION('ref_axis',(-1.48029736616688E-16,0.,1.));
#1625=DIRECTION('',(0.,-1.,0.));
#1626=DIRECTION('center_axis',(0.,-1.,0.));
#1627=DIRECTION('ref_axis',(1.,0.,-1.22464679914735E-16));
#1628=DIRECTION('center_axis',(0.,-1.,0.));
#1629=DIRECTION('ref_axis',(-1.,0.,0.));
#1630=DIRECTION('center_axis',(0.,1.,0.));
#1631=DIRECTION('ref_axis',(-1.,0.,0.));
#1632=DIRECTION('',(0.,1.,0.));
#1633=DIRECTION('center_axis',(0.,1.,0.));
#1634=DIRECTION('ref_axis',(1.,0.,0.));
#1635=DIRECTION('center_axis',(0.,-1.,0.));
#1636=DIRECTION('ref_axis',(-1.,0.,0.));
#1637=DIRECTION('center_axis',(0.,-1.,0.));
#1638=DIRECTION('ref_axis',(-1.,0.,0.));
#1639=DIRECTION('center_axis',(0.,1.,0.));
#1640=DIRECTION('ref_axis',(-1.,0.,0.));
#1641=DIRECTION('',(0.,1.,0.));
#1642=DIRECTION('center_axis',(0.,1.,0.));
#1643=DIRECTION('ref_axis',(1.,0.,0.));
#1644=DIRECTION('center_axis',(0.,0.,-1.));
#1645=DIRECTION('ref_axis',(-1.,0.,0.));
#1646=DIRECTION('center_axis',(0.,1.,0.));
#1647=DIRECTION('ref_axis',(1.,0.,0.));
#1648=DIRECTION('center_axis',(0.,1.,0.));
#1649=DIRECTION('ref_axis',(0.707106781186547,0.,0.707106781186547));
#1650=DIRECTION('',(0.,-1.,0.));
#1651=DIRECTION('center_axis',(0.,0.,-1.));
#1652=DIRECTION('ref_axis',(-1.,0.,0.));
#1653=DIRECTION('center_axis',(0.,0.,1.));
#1654=DIRECTION('ref_axis',(1.,0.,0.));
#1655=CARTESIAN_POINT('',(0.,0.,0.));
#1656=CARTESIAN_POINT('Origin',(-8.6230472103319,37.8467539194906,-120.));
#1657=CARTESIAN_POINT('',(-2.0230472103319,37.8467539194906,-120.));
#1658=CARTESIAN_POINT('Origin',(-8.6230472103319,37.8467539194906,-120.));
#1659=CARTESIAN_POINT('',(-2.0230472103319,37.8467539194906,-118.));
#1660=CARTESIAN_POINT('',(-2.0230472103319,37.8467539194906,-120.));
#1661=CARTESIAN_POINT('Origin',(-8.6230472103319,37.8467539194906,-118.));
#1662=CARTESIAN_POINT('Origin',(50.245537792445,45.2717231953677,-120.));
#1663=CARTESIAN_POINT('',(18.1455377924451,45.2717231953677,-118.));
#1664=CARTESIAN_POINT('',(50.245537792445,45.2717231953677,-118.));
#1665=CARTESIAN_POINT('',(60.1227688962225,45.2717231953677,-118.));
#1666=CARTESIAN_POINT('',(18.1455377924451,45.2717231953677,-120.));
#1667=CARTESIAN_POINT('',(18.1455377924451,45.2717231953677,-120.));
#1668=CARTESIAN_POINT('',(50.245537792445,45.2717231953677,-120.));
#1669=CARTESIAN_POINT('',(60.1227688962225,45.2717231953677,-120.));
#1670=CARTESIAN_POINT('',(50.245537792445,45.2717231953677,-120.));
#1671=CARTESIAN_POINT('Origin',(50.245537792445,24.4717231953677,-120.));
#1672=CARTESIAN_POINT('',(50.245537792445,24.4717231953677,-118.));
#1673=CARTESIAN_POINT('',(50.245537792445,12.2358615976838,-118.));
#1674=CARTESIAN_POINT('',(50.245537792445,24.4717231953677,-120.));
#1675=CARTESIAN_POINT('',(50.245537792445,12.2358615976838,-120.));
#1676=CARTESIAN_POINT('',(50.245537792445,24.4717231953677,-120.));
#1677=CARTESIAN_POINT('Origin',(18.1455377924451,24.4717231953677,-120.));
#1678=CARTESIAN_POINT('',(18.1455377924451,24.4717231953677,-118.));
#1679=CARTESIAN_POINT('',(44.0727688962226,24.4717231953677,-118.));
#1680=CARTESIAN_POINT('',(18.1455377924451,24.4717231953677,-120.));
#1681=CARTESIAN_POINT('',(44.0727688962226,24.4717231953677,-120.));
#1682=CARTESIAN_POINT('',(18.1455377924451,24.4717231953677,-120.));
#1683=CARTESIAN_POINT('Origin',(18.1455377924451,45.2717231953677,-120.));
#1684=CARTESIAN_POINT('',(18.1455377924451,22.6358615976839,-118.));
#1685=CARTESIAN_POINT('',(18.1455377924451,22.6358615976839,-120.));
#1686=CARTESIAN_POINT('Origin',(-26.7179622217903,36.6602021154605,-120.));
#1687=CARTESIAN_POINT('',(-18.7179622217903,36.6602021154605,-120.));
#1688=CARTESIAN_POINT('Origin',(-26.7179622217903,36.6602021154605,-120.));
#1689=CARTESIAN_POINT('',(-18.7179622217903,36.6602021154605,-118.));
#1690=CARTESIAN_POINT('',(-18.7179622217903,36.6602021154605,-120.));
#1691=CARTESIAN_POINT('Origin',(-26.7179622217903,36.6602021154605,-118.));
#1692=CARTESIAN_POINT('Origin',(16.1955377924451,34.8717231953677,-120.));
#1693=CARTESIAN_POINT('',(17.3955377924451,34.8717231953677,-120.));
#1694=CARTESIAN_POINT('Origin',(16.1955377924451,34.8717231953677,-120.));
#1695=CARTESIAN_POINT('',(17.3955377924451,34.8717231953677,-118.));
#1696=CARTESIAN_POINT('',(17.3955377924451,34.8717231953677,-120.));
#1697=CARTESIAN_POINT('Origin',(16.1955377924451,34.8717231953677,-118.));
#1698=CARTESIAN_POINT('Origin',(52.195537792445,34.8717231953677,-120.));
#1699=CARTESIAN_POINT('',(53.395537792445,34.8717231953677,-120.));
#1700=CARTESIAN_POINT('Origin',(52.195537792445,34.8717231953677,-120.));
#1701=CARTESIAN_POINT('',(53.395537792445,34.8717231953677,-118.));
#1702=CARTESIAN_POINT('',(53.395537792445,34.8717231953677,-120.));
#1703=CARTESIAN_POINT('Origin',(52.195537792445,34.8717231953677,-118.));
#1704=CARTESIAN_POINT('Origin',(-47.3342998168126,37.6984349439868,-120.));
#1705=CARTESIAN_POINT('',(-38.8342998168126,37.6984349439868,-120.));
#1706=CARTESIAN_POINT('Origin',(-47.3342998168126,37.6984349439868,-120.));
#1707=CARTESIAN_POINT('',(-38.8342998168126,37.6984349439868,-118.));
#1708=CARTESIAN_POINT('',(-38.8342998168126,37.6984349439868,-120.));
#1709=CARTESIAN_POINT('Origin',(-47.3342998168126,37.6984349439868,-118.));
#1710=CARTESIAN_POINT('Origin',(-60.,0.,110.));
#1711=CARTESIAN_POINT('',(-60.,2.,120.));
#1712=CARTESIAN_POINT('',(-70.,2.,110.));
#1713=CARTESIAN_POINT('Origin',(-60.,2.,110.));
#1714=CARTESIAN_POINT('',(-70.,0.,110.));
#1715=CARTESIAN_POINT('',(-70.,0.,110.));
#1716=CARTESIAN_POINT('',(-60.,0.,120.));
#1717=CARTESIAN_POINT('Origin',(-60.,0.,110.));
#1718=CARTESIAN_POINT('',(-60.,0.,120.));
#1719=CARTESIAN_POINT('Origin',(65.,2.,-115.));
#1720=CARTESIAN_POINT('',(60.,2.,-110.));
#1721=CARTESIAN_POINT('',(60.,2.,-120.));
#1722=CARTESIAN_POINT('',(60.,2.,-120.));
#1723=CARTESIAN_POINT('',(70.,2.,-110.));
#1724=CARTESIAN_POINT('',(-68.,2.,-110.));
#1725=CARTESIAN_POINT('Origin',(60.,2.,-110.));
#1726=CARTESIAN_POINT('',(65.6,2.,-114.));
#1727=CARTESIAN_POINT('Origin',(64.,2.,-114.));
#1728=CARTESIAN_POINT('Origin',(65.,2.,-115.));
#1729=CARTESIAN_POINT('',(-60.,2.,-120.));
#1730=CARTESIAN_POINT('',(-60.,2.,-110.));
#1731=CARTESIAN_POINT('',(-60.,2.,-112.5));
#1732=CARTESIAN_POINT('',(-70.,2.,-110.));
#1733=CARTESIAN_POINT('Origin',(-60.,2.,-110.));
#1734=CARTESIAN_POINT('',(-70.,2.,-110.));
#1735=CARTESIAN_POINT('',(-62.4,2.,-114.));
#1736=CARTESIAN_POINT('Origin',(-64.,2.,-114.));
#1737=CARTESIAN_POINT('Origin',(60.,0.,-110.));
#1738=CARTESIAN_POINT('',(70.,0.,-110.));
#1739=CARTESIAN_POINT('',(70.,0.,-110.));
#1740=CARTESIAN_POINT('',(60.,0.,-120.));
#1741=CARTESIAN_POINT('Origin',(60.,0.,-110.));
#1742=CARTESIAN_POINT('',(60.,0.,-120.));
#1743=CARTESIAN_POINT('Origin',(-64.,7.,-114.));
#1744=CARTESIAN_POINT('',(-62.4,1.11022302462516E-15,-114.));
#1745=CARTESIAN_POINT('',(-62.4,7.,-114.));
#1746=CARTESIAN_POINT('Origin',(-64.,0.,-114.));
#1747=CARTESIAN_POINT('Origin',(-64.,7.,114.));
#1748=CARTESIAN_POINT('',(-62.4,2.,114.));
#1749=CARTESIAN_POINT('Origin',(-64.,2.,114.));
#1750=CARTESIAN_POINT('',(-62.4,1.11022302462516E-15,114.));
#1751=CARTESIAN_POINT('',(-62.4,7.,114.));
#1752=CARTESIAN_POINT('Origin',(-64.,0.,114.));
#1753=CARTESIAN_POINT('Origin',(64.,7.,-114.));
#1754=CARTESIAN_POINT('',(65.6,1.11022302462516E-15,-114.));
#1755=CARTESIAN_POINT('',(65.6,7.,-114.));
#1756=CARTESIAN_POINT('Origin',(64.,0.,-114.));
#1757=CARTESIAN_POINT('Origin',(64.,7.,114.));
#1758=CARTESIAN_POINT('',(65.6,2.,114.));
#1759=CARTESIAN_POINT('Origin',(64.,2.,114.));
#1760=CARTESIAN_POINT('',(65.6,1.11022302462516E-15,114.));
#1761=CARTESIAN_POINT('',(65.6,7.,114.));
#1762=CARTESIAN_POINT('Origin',(64.,0.,114.));
#1763=CARTESIAN_POINT('Origin',(69.9999984353781,40.,-108.));
#1764=CARTESIAN_POINT('',(68.,50.,-108.));
#1765=CARTESIAN_POINT('',(68.,2.,-108.));
#1766=CARTESIAN_POINT('',(68.,20.,-108.));
#1767=CARTESIAN_POINT('',(58.,50.,-108.));
#1768=CARTESIAN_POINT('',(34.999999217689,50.,-108.));
#1769=CARTESIAN_POINT('',(58.,2.,-108.));
#1770=CARTESIAN_POINT('',(58.,40.,-108.));
#1771=CARTESIAN_POINT('',(34.999999217689,2.,-108.));
#1772=CARTESIAN_POINT('Origin',(58.,40.,-108.));
#1773=CARTESIAN_POINT('',(58.,2.,-118.));
#1774=CARTESIAN_POINT('',(58.,2.,-111.5));
#1775=CARTESIAN_POINT('',(58.0000000000001,50.,-118.));
#1776=CARTESIAN_POINT('',(58.,50.,-54.));
#1777=CARTESIAN_POINT('',(58.,7.,-118.));
#1778=CARTESIAN_POINT('Origin',(70.,0.,120.));
#1779=CARTESIAN_POINT('',(70.,50.,110.));
#1780=CARTESIAN_POINT('',(70.0000000000001,50.,-110.));
#1781=CARTESIAN_POINT('',(70.,50.,60.));
#1782=CARTESIAN_POINT('',(70.,2.,110.));
#1783=CARTESIAN_POINT('',(70.,0.,110.));
#1784=CARTESIAN_POINT('',(70.,0.,110.));
#1785=CARTESIAN_POINT('',(70.,0.,110.));
#1786=CARTESIAN_POINT('',(70.,0.,120.));
#1787=CARTESIAN_POINT('',(70.,0.,-110.));
#1788=CARTESIAN_POINT('Origin',(1.77635683940025E-14,0.,-3.5527136788005E-14));
#1789=CARTESIAN_POINT('',(60.,0.,120.));
#1790=CARTESIAN_POINT('Origin',(60.,0.,110.));
#1791=CARTESIAN_POINT('',(-70.,0.,120.));
#1792=CARTESIAN_POINT('',(-70.,0.,-110.));
#1793=CARTESIAN_POINT('',(-70.,0.,-120.));
#1794=CARTESIAN_POINT('',(-60.,0.,-120.));
#1795=CARTESIAN_POINT('Origin',(-60.,0.,-110.));
#1796=CARTESIAN_POINT('',(70.,0.,-120.));
#1797=CARTESIAN_POINT('Origin',(68.,0.,120.));
#1798=CARTESIAN_POINT('',(68.,2.,-105.64575407626));
#1799=CARTESIAN_POINT('',(68.,2.,60.));
#1800=CARTESIAN_POINT('',(68.,50.,-105.64575407626));
#1801=CARTESIAN_POINT('',(68.,40.,-105.64575407626));
#1802=CARTESIAN_POINT('',(68.,50.,60.));
#1803=CARTESIAN_POINT('Origin',(1.77635683940025E-14,2.,-3.5527136788005E-14));
#1804=CARTESIAN_POINT('',(-58.,2.,-118.));
#1805=CARTESIAN_POINT('',(35.,2.,-118.));
#1806=CARTESIAN_POINT('',(-58.,2.,-108.));
#1807=CARTESIAN_POINT('',(-58.,2.,-60.));
#1808=CARTESIAN_POINT('',(-68.,2.,-108.));
#1809=CARTESIAN_POINT('',(-29.,2.,-108.));
#1810=CARTESIAN_POINT('',(-68.,2.,-105.64575407626));
#1811=CARTESIAN_POINT('',(-68.,2.,-60.));
#1812=CARTESIAN_POINT('',(-68.,2.,-100.354249291402));
#1813=CARTESIAN_POINT('Origin',(-65.0000009536743,2.,-103.000001683831));
#1814=CARTESIAN_POINT('',(-68.,2.,100.354249291402));
#1815=CARTESIAN_POINT('',(-68.,2.,-60.));
#1816=CARTESIAN_POINT('',(-68.,2.,105.64575407626));
#1817=CARTESIAN_POINT('Origin',(-65.0000009536743,2.,103.000001683831));
#1818=CARTESIAN_POINT('',(-68.,2.,108.));
#1819=CARTESIAN_POINT('',(-68.,2.,-60.));
#1820=CARTESIAN_POINT('',(-58.,2.,108.));
#1821=CARTESIAN_POINT('',(-35.,2.,108.));
#1822=CARTESIAN_POINT('',(-58.,2.,118.));
#1823=CARTESIAN_POINT('',(-58.0000000000003,2.,54.0000000000001));
#1824=CARTESIAN_POINT('',(58.,2.,118.));
#1825=CARTESIAN_POINT('',(-35.,2.,118.));
#1826=CARTESIAN_POINT('',(58.,2.,108.));
#1827=CARTESIAN_POINT('',(58.,2.,60.));
#1828=CARTESIAN_POINT('',(68.,2.,108.));
#1829=CARTESIAN_POINT('',(29.,2.,108.));
#1830=CARTESIAN_POINT('',(68.,2.,105.645754076261));
#1831=CARTESIAN_POINT('',(68.,2.,60.));
#1832=CARTESIAN_POINT('',(68.,2.,100.354249291402));
#1833=CARTESIAN_POINT('Origin',(65.0000009536743,2.,103.000001683831));
#1834=CARTESIAN_POINT('',(68.,2.,-100.354249291402));
#1835=CARTESIAN_POINT('',(68.,2.,60.));
#1836=CARTESIAN_POINT('Origin',(65.0000009536743,2.,-103.000001683831));
#1837=CARTESIAN_POINT('Origin',(2.22044604925031E-14,50.,-3.5527136788005E-14));
#1838=CARTESIAN_POINT('',(60.0000000000001,50.,-110.));
#1839=CARTESIAN_POINT('',(35.,50.,-110.));
#1840=CARTESIAN_POINT('',(60.0000000000001,50.,-120.));
#1841=CARTESIAN_POINT('',(60.,50.,-55.));
#1842=CARTESIAN_POINT('',(-60.,50.,-120.));
#1843=CARTESIAN_POINT('',(35.,50.,-120.));
#1844=CARTESIAN_POINT('',(-60.,50.,-110.));
#1845=CARTESIAN_POINT('',(-60.,50.,-60.));
#1846=CARTESIAN_POINT('',(-70.,50.,-110.));
#1847=CARTESIAN_POINT('',(-30.,50.,-110.));
#1848=CARTESIAN_POINT('',(-70.,50.,110.));
#1849=CARTESIAN_POINT('',(-70.,50.,-60.));
#1850=CARTESIAN_POINT('',(-60.,50.,110.));
#1851=CARTESIAN_POINT('',(-35.,50.,110.));
#1852=CARTESIAN_POINT('',(-60.,50.,120.));
#1853=CARTESIAN_POINT('',(-60.,50.,55.));
#1854=CARTESIAN_POINT('',(60.,50.,120.));
#1855=CARTESIAN_POINT('',(-35.,50.,120.));
#1856=CARTESIAN_POINT('',(60.,50.,110.));
#1857=CARTESIAN_POINT('',(60.,50.,60.));
#1858=CARTESIAN_POINT('',(30.,50.,110.));
#1859=CARTESIAN_POINT('',(68.,50.,-100.354249291402));
#1860=CARTESIAN_POINT('Origin',(65.0000009536743,50.,-103.000001683831));
#1861=CARTESIAN_POINT('',(68.,50.,100.354249291402));
#1862=CARTESIAN_POINT('',(68.,50.,60.));
#1863=CARTESIAN_POINT('',(68.,50.,105.645754076261));
#1864=CARTESIAN_POINT('Origin',(65.0000009536743,50.,103.000001683831));
#1865=CARTESIAN_POINT('',(68.,50.,108.));
#1866=CARTESIAN_POINT('',(68.,50.,60.));
#1867=CARTESIAN_POINT('',(58.,50.,108.));
#1868=CARTESIAN_POINT('',(29.,50.,108.));
#1869=CARTESIAN_POINT('',(58.,50.,118.));
#1870=CARTESIAN_POINT('',(58.,50.,60.));
#1871=CARTESIAN_POINT('',(-58.,50.,118.));
#1872=CARTESIAN_POINT('',(-35.,50.,118.));
#1873=CARTESIAN_POINT('',(-58.,50.,108.));
#1874=CARTESIAN_POINT('',(-58.0000000000003,50.,54.0000000000001));
#1875=CARTESIAN_POINT('',(-68.,50.,108.));
#1876=CARTESIAN_POINT('',(-35.,50.,108.));
#1877=CARTESIAN_POINT('',(-68.,50.,105.64575407626));
#1878=CARTESIAN_POINT('',(-68.,50.,-60.));
#1879=CARTESIAN_POINT('',(-68.,50.,100.354249291402));
#1880=CARTESIAN_POINT('Origin',(-65.0000009536743,50.,103.000001683831));
#1881=CARTESIAN_POINT('',(-68.,50.,-100.354249291402));
#1882=CARTESIAN_POINT('',(-68.,50.,-60.));
#1883=CARTESIAN_POINT('',(-68.,50.,-105.64575407626));
#1884=CARTESIAN_POINT('Origin',(-65.0000009536743,50.,-103.000001683831));
#1885=CARTESIAN_POINT('',(-68.,50.,-108.));
#1886=CARTESIAN_POINT('',(-68.,50.,-60.));
#1887=CARTESIAN_POINT('',(-58.,50.,-108.));
#1888=CARTESIAN_POINT('',(-29.,50.,-108.));
#1889=CARTESIAN_POINT('',(-58.,50.,-118.));
#1890=CARTESIAN_POINT('',(-58.,50.,-60.));
#1891=CARTESIAN_POINT('',(35.,50.,-118.));
#1892=CARTESIAN_POINT('',(-63.2000009536743,50.,103.000001683831));
#1893=CARTESIAN_POINT('Origin',(-65.0000009536743,50.,103.000001683831));
#1894=CARTESIAN_POINT('',(-63.2000009536743,50.,-103.000001683831));
#1895=CARTESIAN_POINT('Origin',(-65.0000009536743,50.,-103.000001683831));
#1896=CARTESIAN_POINT('',(66.8000009536743,50.,103.000001683831));
#1897=CARTESIAN_POINT('Origin',(65.0000009536743,50.,103.000001683831));
#1898=CARTESIAN_POINT('',(66.8000009536743,50.,-103.000001683831));
#1899=CARTESIAN_POINT('Origin',(65.0000009536743,50.,-103.000001683831));
#1900=CARTESIAN_POINT('Origin',(-70.,40.,108.));
#1901=CARTESIAN_POINT('',(-68.,20.,108.));
#1902=CARTESIAN_POINT('',(-58.,40.,108.));
#1903=CARTESIAN_POINT('Origin',(-58.0000000000001,40.,108.));
#1904=CARTESIAN_POINT('',(-58.,20.,118.));
#1905=CARTESIAN_POINT('Origin',(-70.,0.,-120.));
#1906=CARTESIAN_POINT('',(-70.,0.,-110.));
#1907=CARTESIAN_POINT('',(-70.,0.,-110.));
#1908=CARTESIAN_POINT('',(-70.,0.,110.));
#1909=CARTESIAN_POINT('Origin',(-68.,0.,-120.));
#1910=CARTESIAN_POINT('',(-68.,40.,105.64575407626));
#1911=CARTESIAN_POINT('Origin',(58.,40.,120.));
#1912=CARTESIAN_POINT('',(58.,20.,118.));
#1913=CARTESIAN_POINT('',(58.,40.,108.));
#1914=CARTESIAN_POINT('Origin',(58.,40.,108.));
#1915=CARTESIAN_POINT('',(68.,20.,108.));
#1916=CARTESIAN_POINT('Origin',(-70.,0.,118.));
#1917=CARTESIAN_POINT('Origin',(1.77635683940025E-14,2.,-3.5527136788005E-14));
#1918=CARTESIAN_POINT('',(60.,2.,110.));
#1919=CARTESIAN_POINT('',(60.,2.,120.));
#1920=CARTESIAN_POINT('',(60.,2.,55.));
#1921=CARTESIAN_POINT('Origin',(60.,2.,110.));
#1922=CARTESIAN_POINT('',(35.,2.,110.));
#1923=CARTESIAN_POINT('Origin',(1.77635683940025E-14,2.,-3.5527136788005E-14));
#1924=CARTESIAN_POINT('',(-60.,2.,110.));
#1925=CARTESIAN_POINT('',(-60.,2.,110.));
#1926=CARTESIAN_POINT('',(-60.,2.,60.));
#1927=CARTESIAN_POINT('Origin',(68.,0.,120.));
#1928=CARTESIAN_POINT('',(68.,40.,105.645754076261));
#1929=CARTESIAN_POINT('Origin',(-58.,40.,-120.));
#1930=CARTESIAN_POINT('',(-58.,7.,-118.));
#1931=CARTESIAN_POINT('',(-58.,40.,-108.));
#1932=CARTESIAN_POINT('Origin',(-58.,40.,-108.));
#1933=CARTESIAN_POINT('',(-68.,20.,-108.));
#1934=CARTESIAN_POINT('Origin',(-68.,0.,-120.));
#1935=CARTESIAN_POINT('',(-68.,40.,-105.64575407626));
#1936=CARTESIAN_POINT('Origin',(60.,50.,120.));
#1937=CARTESIAN_POINT('',(60.,0.,120.));
#1938=CARTESIAN_POINT('',(60.,40.,110.));
#1939=CARTESIAN_POINT('Origin',(60.,50.,110.));
#1940=CARTESIAN_POINT('Origin',(60.,50.,-110.));
#1941=CARTESIAN_POINT('',(60.,0.,-120.));
#1942=CARTESIAN_POINT('',(60.,40.,-110.));
#1943=CARTESIAN_POINT('Origin',(70.,50.,-110.));
#1944=CARTESIAN_POINT('Origin',(-60.,50.,110.));
#1945=CARTESIAN_POINT('',(-60.,0.,120.));
#1946=CARTESIAN_POINT('',(-60.,40.,110.));
#1947=CARTESIAN_POINT('Origin',(-70.,50.,110.));
#1948=CARTESIAN_POINT('Origin',(-60.,50.,-110.));
#1949=CARTESIAN_POINT('',(-60.,40.,-110.));
#1950=CARTESIAN_POINT('Origin',(-60.,50.,-120.));
#1951=CARTESIAN_POINT('',(-60.,0.,-120.));
#1952=CARTESIAN_POINT('Origin',(-60.,0.,-110.));
#1953=CARTESIAN_POINT('',(-60.,0.,-120.));
#1954=CARTESIAN_POINT('Origin',(65.0000009536743,40.,103.000001683831));
#1955=CARTESIAN_POINT('',(66.8000009536743,2.,103.000001683831));
#1956=CARTESIAN_POINT('Origin',(65.0000009536743,2.,103.000001683831));
#1957=CARTESIAN_POINT('',(66.8000009536743,40.,103.000001683831));
#1958=CARTESIAN_POINT('Origin',(65.0000009536743,40.,103.000001683831));
#1959=CARTESIAN_POINT('',(68.,40.,100.354249291402));
#1960=CARTESIAN_POINT('Origin',(68.,0.,120.));
#1961=CARTESIAN_POINT('',(68.,40.,-100.354249291402));
#1962=CARTESIAN_POINT('Origin',(1.77635683940025E-14,2.,-3.5527136788005E-14));
#1963=CARTESIAN_POINT('Origin',(-65.0000009536743,40.,-103.000001683831));
#1964=CARTESIAN_POINT('',(-68.,40.,-100.354249291402));
#1965=CARTESIAN_POINT('Origin',(-65.0000009536743,40.,-103.000001683831));
#1966=CARTESIAN_POINT('',(-63.2000009536743,2.,-103.000001683831));
#1967=CARTESIAN_POINT('Origin',(-65.0000009536743,2.,-103.000001683831));
#1968=CARTESIAN_POINT('',(-63.2000009536743,40.,-103.000001683831));
#1969=CARTESIAN_POINT('Origin',(-68.,0.,-120.));
#1970=CARTESIAN_POINT('',(-68.,40.,100.354249291402));
#1971=CARTESIAN_POINT('Origin',(-65.0000009536743,40.,103.000001683831));
#1972=CARTESIAN_POINT('Origin',(-65.0000009536743,40.,103.000001683831));
#1973=CARTESIAN_POINT('',(-63.2000009536743,2.,103.000001683831));
#1974=CARTESIAN_POINT('Origin',(-65.0000009536743,2.,103.000001683831));
#1975=CARTESIAN_POINT('',(-63.2000009536743,40.,103.000001683831));
#1976=CARTESIAN_POINT('Origin',(1.77635683940025E-14,2.,-3.5527136788005E-14));
#1977=CARTESIAN_POINT('Origin',(65.0000009536743,40.,-103.000001683831));
#1978=CARTESIAN_POINT('Origin',(65.0000009536743,40.,-103.000001683831));
#1979=CARTESIAN_POINT('',(66.8000009536743,2.,-103.000001683831));
#1980=CARTESIAN_POINT('Origin',(65.0000009536743,2.,-103.000001683831));
#1981=CARTESIAN_POINT('',(66.8000009536743,40.,-103.000001683831));
#1982=CARTESIAN_POINT('Origin',(1.77635683940025E-14,2.,-3.5527136788005E-14));
#1983=CARTESIAN_POINT('Origin',(70.,0.,-118.));
#1984=CARTESIAN_POINT('Origin',(1.77635683940025E-14,2.,-3.5527136788005E-14));
#1985=CARTESIAN_POINT('Origin',(60.,0.,110.));
#1986=CARTESIAN_POINT('',(60.,0.,120.));
#1987=CARTESIAN_POINT('Origin',(70.,0.,-120.));
#1988=CARTESIAN_POINT('Origin',(-70.,0.,120.));
#1989=UNCERTAINTY_MEASURE_WITH_UNIT(LENGTH_MEASURE(0.01),#1993,
'DISTANCE_ACCURACY_VALUE',
'Maximum model space distance between geometric entities at asserted c
onnectivities');
#1990=UNCERTAINTY_MEASURE_WITH_UNIT(LENGTH_MEASURE(0.01),#1993,
'DISTANCE_ACCURACY_VALUE',
'Maximum model space distance between geometric entities at asserted c
onnectivities');
#1991=(
GEOMETRIC_REPRESENTATION_CONTEXT(3)
GLOBAL_UNCERTAINTY_ASSIGNED_CONTEXT((#1989))
GLOBAL_UNIT_ASSIGNED_CONTEXT((#1993,#1995,#1996))
REPRESENTATION_CONTEXT('','3D')
);
#1992=(
GEOMETRIC_REPRESENTATION_CONTEXT(3)
GLOBAL_UNCERTAINTY_ASSIGNED_CONTEXT((#1990))
GLOBAL_UNIT_ASSIGNED_CONTEXT((#1993,#1995,#1996))
REPRESENTATION_CONTEXT('','3D')
);
#1993=(
LENGTH_UNIT()
NAMED_UNIT(*)
SI_UNIT(.MILLI.,.METRE.)
);
#1994=(
LENGTH_UNIT()
NAMED_UNIT(*)
SI_UNIT($,.METRE.)
);
#1995=(
NAMED_UNIT(*)
PLANE_ANGLE_UNIT()
SI_UNIT($,.RADIAN.)
);
#1996=(
NAMED_UNIT(*)
SI_UNIT($,.STERADIAN.)
SOLID_ANGLE_UNIT()
);
#1997=SHAPE_DEFINITION_REPRESENTATION(#1998,#1999);
#1998=PRODUCT_DEFINITION_SHAPE('',$,#2001);
#1999=SHAPE_REPRESENTATION('',(#1213),#1991);
#2000=PRODUCT_DEFINITION_CONTEXT('part definition',#2005,'design');
#2001=PRODUCT_DEFINITION('Container','Container',#2002,#2000);
#2002=PRODUCT_DEFINITION_FORMATION('',$,#2007);
#2003=PRODUCT_RELATED_PRODUCT_CATEGORY('Container','Container',(#2007));
#2004=APPLICATION_PROTOCOL_DEFINITION('international standard',
'automotive_design',2009,#2005);
#2005=APPLICATION_CONTEXT(
'Core Data for Automotive Mechanical Design Process');
#2006=PRODUCT_CONTEXT('part definition',#2005,'mechanical');
#2007=PRODUCT('Container','Container',$,(#2006));
#2008=PRESENTATION_STYLE_ASSIGNMENT((#2010));
#2009=PRESENTATION_STYLE_ASSIGNMENT((#2011));
#2010=SURFACE_STYLE_USAGE(.BOTH.,#2012);
#2011=SURFACE_STYLE_USAGE(.BOTH.,#2013);
#2012=SURFACE_SIDE_STYLE('',(#2014));
#2013=SURFACE_SIDE_STYLE('',(#2015));
#2014=SURFACE_STYLE_FILL_AREA(#2016);
#2015=SURFACE_STYLE_FILL_AREA(#2017);
#2016=FILL_AREA_STYLE('Steel - Satin',(#2018));
#2017=FILL_AREA_STYLE('Plastic - Translucent Matte (Blue)(1)',(#2019));
#2018=FILL_AREA_STYLE_COLOUR('Steel - Satin',#2020);
#2019=FILL_AREA_STYLE_COLOUR('Plastic - Translucent Matte (Blue)(1)',#2021);
#2020=COLOUR_RGB('Steel - Satin',0.627450980392157,0.627450980392157,0.627450980392157);
#2021=COLOUR_RGB('Plastic - Translucent Matte (Blue)(1)',0.,0.,0.);
ENDSEC;
END-ISO-10303-21;
